<?xml version="1.0" standalone="no"?>
<!DOCTYPE svg PUBLIC "-//W3C//DTD SVG 20010904//EN"
 "http://www.w3.org/TR/2001/REC-SVG-20010904/DTD/svg10.dtd">
<svg version="1.0" xmlns="http://www.w3.org/2000/svg"
 width="700.000000pt" height="700.000000pt" viewBox="0 0 700.000000 700.000000"
 preserveAspectRatio="xMidYMid meet">
<metadata>
Created by potrace 1.14, written by Peter Selinger 2001-2017
</metadata>
<g transform="translate(0.000000,700.000000) scale(0.100000,-0.100000)"
fill="#000000" stroke="none">
<path d="M4448 6345 c-3 -3 -52 -8 -109 -10 -147 -7 -168 -9 -163 -16 5 -9
-17 -16 -43 -14 -12 1 -20 -2 -18 -6 6 -9 -24 -21 -36 -13 -5 3 -9 0 -9 -5 0
-6 -7 -11 -15 -11 -8 0 -15 -4 -15 -10 0 -5 -7 -10 -15 -10 -8 0 -15 -4 -15
-10 0 -5 -6 -10 -13 -10 -8 0 -22 -9 -32 -20 -10 -12 -25 -18 -32 -16 -7 3
-12 2 -10 -2 3 -12 -56 -72 -65 -66 -5 3 -8 2 -7 -3 4 -17 -14 -43 -25 -36 -6
3 -8 3 -4 -2 4 -4 -5 -26 -21 -49 -29 -44 -71 -129 -71 -146 0 -5 -4 -10 -9
-10 -5 0 -7 -10 -3 -22 3 -14 1 -19 -6 -14 -8 5 -10 2 -6 -8 3 -9 3 -24 -2
-33 -8 -19 -13 -275 -5 -267 3 3 11 -14 18 -38 9 -33 10 -44 0 -50 -8 -5 -7
-8 5 -8 16 0 42 -53 31 -64 -4 -3 0 -6 7 -6 7 0 10 -3 7 -7 -4 -3 0 -11 9 -17
8 -6 16 -21 17 -33 0 -12 4 -20 8 -17 4 2 19 -14 34 -35 14 -22 33 -42 41 -45
8 -3 14 -13 14 -21 0 -9 5 -13 10 -10 6 3 10 2 10 -3 0 -5 12 -21 26 -35 14
-14 23 -31 19 -36 -3 -6 0 -9 7 -6 16 7 111 -92 103 -106 -4 -5 -3 -9 2 -8 12
3 43 -12 43 -21 0 -4 32 -40 71 -79 65 -64 71 -72 58 -88 -13 -16 -12 -17 3
-5 24 19 45 4 21 -15 -10 -8 -12 -12 -5 -8 15 8 52 -3 52 -16 0 -5 18 -25 40
-45 22 -20 37 -41 33 -47 -3 -5 -2 -7 4 -4 11 7 63 -46 63 -64 0 -5 5 -7 10
-4 6 3 10 2 10 -2 0 -5 -4 -14 -10 -21 -7 -9 -7 -9 2 -2 16 13 28 13 28 -1 0
-6 14 -22 30 -36 17 -13 27 -30 23 -35 -3 -6 -2 -8 4 -5 11 7 65 -48 56 -57
-4 -3 -1 -6 6 -6 13 0 41 -24 41 -35 0 -3 -5 -3 -12 1 -7 4 -8 3 -4 -4 4 -6
12 -9 19 -6 7 2 19 -5 27 -17 8 -12 25 -31 37 -42 12 -11 20 -24 17 -29 -3 -5
-1 -7 4 -6 5 2 40 -28 78 -67 38 -38 62 -66 54 -62 -8 4 -6 2 4 -5 10 -7 26
-22 35 -32 9 -10 30 -32 46 -49 17 -16 29 -33 27 -38 -1 -5 2 -8 6 -7 4 2 33
-23 65 -54 31 -32 55 -58 53 -58 -2 0 32 -35 75 -79 43 -43 75 -81 72 -85 -4
-3 1 -6 11 -6 9 0 14 -4 11 -10 -3 -5 0 -10 7 -10 7 0 22 -12 32 -27 11 -14
13 -23 6 -18 -10 6 -12 4 -7 -8 6 -16 -3 -22 -26 -18 -5 1 -6 -3 -2 -9 3 -6
-20 -37 -52 -69 -32 -33 -91 -96 -132 -140 -41 -44 -78 -78 -82 -75 -5 3 -6
-2 -3 -10 4 -11 0 -16 -10 -16 -9 0 -16 -5 -16 -11 0 -6 -31 -42 -68 -80 -38
-38 -67 -69 -65 -69 1 0 -5 -8 -14 -18 -10 -11 -21 -17 -25 -15 -5 2 -8 -1 -8
-7 0 -6 -6 -17 -12 -24 -7 -7 -69 -72 -137 -145 -68 -72 -128 -128 -134 -124
-6 3 -7 1 -3 -6 5 -7 -16 -36 -52 -74 -33 -34 -88 -91 -122 -127 -34 -36 -65
-64 -71 -63 -5 2 -8 0 -7 -5 4 -18 -15 -40 -29 -35 -10 4 -14 2 -10 -4 8 -12
-80 -109 -95 -105 -5 1 -7 -2 -3 -7 3 -6 -3 -16 -15 -23 -11 -7 -20 -16 -20
-20 0 -13 -152 -163 -162 -160 -5 1 -7 -2 -3 -8 3 -5 -1 -13 -9 -16 -9 -3 -13
-11 -10 -16 4 -6 -2 -5 -14 1 -17 9 -20 18 -16 48 3 30 2 35 -7 23 -9 -13 -10
-12 -5 2 3 10 1 20 -4 23 -6 4 -10 11 -10 17 0 6 8 4 18 -5 21 -20 32 -22 32
-6 0 5 -4 8 -9 5 -13 -8 -44 31 -35 45 4 8 3 10 -4 5 -8 -5 -12 0 -12 14 0 11
-6 29 -12 40 -11 17 -10 22 0 29 11 7 10 10 -3 15 -10 3 -15 12 -11 21 3 8 1
15 -4 15 -6 0 -10 15 -10 34 0 19 -6 36 -12 39 -10 3 -9 8 2 22 8 10 10 16 4
12 -7 -4 -15 0 -18 8 -3 9 0 18 8 21 7 3 13 12 13 21 0 14 -2 14 -12 -1 -18
-23 -23 -20 -21 14 1 16 -2 31 -6 32 -5 2 -10 12 -13 23 -2 11 -9 36 -14 55
-13 43 -13 43 -1 35 6 -3 7 1 4 9 -3 9 -10 16 -15 16 -5 0 -9 11 -9 24 0 14
-4 27 -9 30 -5 3 -7 15 -4 26 3 11 1 20 -5 20 -17 0 -6 33 13 40 17 6 17 7 2
13 -9 3 -17 2 -17 -3 0 -15 -16 -12 -18 3 -3 34 -9 64 -16 75 -4 7 -5 16 -2
21 4 5 2 11 -3 13 -16 5 -22 61 -8 70 8 5 7 8 -4 8 -11 0 -19 12 -23 33 -12
63 -14 72 -22 92 -7 17 -6 18 8 7 11 -9 18 -10 23 -2 4 6 3 10 -2 9 -13 -3
-43 12 -43 23 0 5 4 7 9 4 11 -7 8 21 -4 31 -4 4 -5 2 0 -6 5 -10 4 -12 -4 -7
-6 4 -10 13 -9 19 1 7 -3 22 -10 35 -9 16 -10 22 -1 22 8 0 9 4 0 13 -6 8 -8
17 -4 20 3 4 2 7 -3 7 -5 0 -11 12 -12 27 -1 15 -7 30 -14 34 -7 4 -2 9 13 12
23 4 23 4 2 6 -23 1 -29 17 -25 64 1 10 -2 16 -7 13 -5 -4 -8 5 -7 19 2 13 -1
22 -6 19 -5 -3 -8 0 -7 7 2 8 -5 38 -15 67 -13 40 -15 57 -7 65 6 6 11 16 11
21 0 6 -4 4 -10 -4 -5 -8 -13 -11 -17 -6 -4 4 1 14 12 23 19 14 19 14 1 11
-18 -3 -22 4 -28 47 -2 11 -7 24 -13 28 -6 5 -1 7 11 4 22 -5 27 14 9 30 -4 4
-5 2 -1 -4 4 -8 1 -13 -8 -13 -14 0 -21 18 -17 43 0 4 -3 7 -7 7 -4 0 -8 10
-10 23 -1 13 -8 42 -16 65 -9 23 -13 49 -10 57 4 8 1 15 -5 15 -6 0 -11 4 -11
10 0 5 7 7 16 3 10 -4 7 4 -8 20 -23 25 -36 77 -19 77 5 0 12 7 15 16 5 14 4
15 -9 4 -18 -15 -18 -16 -33 35 -9 30 -9 41 1 47 8 5 7 8 -5 8 -22 0 -22 4 -2
38 15 25 15 25 0 8 -9 -11 -17 -16 -17 -10 -2 12 -5 28 -8 34 -6 12 -12 46
-12 63 0 9 -5 17 -11 17 -6 0 -9 3 -5 6 3 3 1 18 -5 33 -10 27 -18 63 -21 94
-1 9 -5 17 -10 17 -5 0 -6 7 -3 16 4 9 1 23 -6 31 -15 18 -20 45 -7 37 5 -3 9
0 9 5 0 6 -4 11 -10 11 -5 0 -10 8 -10 18 0 10 -3 22 -7 26 -4 3 -9 17 -11 29
-6 39 -7 42 -16 56 -6 10 -5 12 2 7 17 -10 15 3 -3 20 -8 8 -12 21 -9 28 3 8
0 17 -7 21 -8 6 -4 12 12 22 22 13 22 13 2 8 -30 -8 -35 21 -10 60 l19 30 -20
-22 c-30 -34 -32 -33 -33 35 0 15 -4 20 -12 15 -7 -4 -5 2 3 12 12 15 12 17 1
10 -11 -6 -13 -4 -8 8 3 9 1 18 -6 21 -8 3 -5 10 8 22 16 13 17 16 3 11 -10
-3 -20 -2 -23 3 -4 6 0 10 7 10 8 0 6 5 -5 11 -15 9 -16 13 -5 27 9 11 9 14 1
9 -8 -5 -15 2 -19 20 -3 15 -8 36 -11 47 -4 14 -2 16 8 11 9 -6 8 -2 -2 11
-19 23 -43 87 -29 79 6 -4 10 -2 10 4 0 5 -5 11 -11 13 -6 2 -12 16 -12 31 -1
15 -5 27 -8 27 -8 0 -30 100 -23 111 3 5 1 9 -5 9 -5 0 -13 20 -17 45 -3 25
-10 48 -15 51 -14 8 -11 62 4 68 6 3 3 4 -8 3 -21 -2 -28 19 -13 40 6 7 3 15
-8 21 -9 5 -23 24 -30 41 -10 24 -10 30 -1 25 7 -4 2 4 -10 18 -13 13 -23 30
-23 36 0 7 -5 12 -11 12 -5 0 -7 5 -4 10 3 6 1 10 -6 10 -7 0 -9 3 -6 7 4 3
-2 12 -13 20 -21 15 -29 50 -8 37 7 -4 8 -3 4 5 -4 6 -12 8 -18 5 -6 -4 -23 7
-38 24 -15 17 -30 29 -34 25 -12 -12 -6 13 7 27 10 12 9 12 -5 2 -14 -11 -22
-8 -50 15 -18 16 -45 35 -60 42 -15 8 -26 17 -23 20 2 4 -4 7 -13 8 -9 0 -42
10 -72 22 -30 11 -63 21 -73 21 -10 0 -16 3 -14 8 3 4 -9 6 -26 6 -18 -1 -40
3 -49 8 -10 5 -18 5 -18 1 0 -9 -128 -8 -137 1 -3 3 -11 2 -17 -2 -6 -5 -40
-17 -76 -27 -117 -34 -248 -113 -303 -182 -10 -13 -24 -20 -30 -16 -7 3 -9 3
-5 -2 10 -11 -11 -47 -22 -40 -6 3 -7 -1 -4 -9 3 -9 1 -16 -5 -16 -6 0 -11 -7
-11 -15 0 -8 -3 -15 -8 -15 -4 0 -17 -24 -30 -52 -13 -29 -27 -61 -32 -70 -6
-10 -10 -27 -10 -38 0 -12 -4 -19 -9 -16 -4 3 -6 -6 -3 -21 3 -15 1 -23 -4
-20 -6 3 -8 -9 -6 -29 3 -22 0 -34 -8 -34 -9 0 -9 -4 1 -17 11 -12 11 -17 2
-20 -9 -3 -9 -11 -2 -31 7 -19 7 -28 -1 -30 -7 -3 -8 -8 -1 -16 5 -6 12 -34
14 -61 2 -28 7 -57 10 -65 18 -49 26 -83 21 -91 -3 -5 -1 -9 5 -9 5 0 8 -11 6
-25 -1 -14 2 -25 6 -25 5 0 9 -8 9 -17 0 -10 6 -36 14 -58 8 -21 13 -49 11
-62 -1 -12 1 -20 6 -18 4 3 10 -14 14 -37 4 -24 11 -50 16 -59 4 -9 11 -29 14
-45 9 -54 13 -69 25 -99 6 -16 11 -32 11 -35 0 -3 4 -20 9 -38 5 -19 6 -41 3
-49 -4 -11 -2 -14 5 -9 8 5 12 -3 12 -26 0 -19 4 -38 9 -43 5 -6 12 -23 15
-40 3 -16 9 -46 15 -65 5 -19 17 -62 25 -94 9 -33 18 -69 21 -80 2 -12 4 -22
6 -23 1 -2 3 -7 4 -13 1 -5 4 -12 5 -15 4 -9 7 -19 15 -63 4 -23 12 -45 17
-48 5 -3 3 -13 -4 -22 -10 -12 -10 -14 0 -8 11 7 16 -10 15 -51 -1 -7 2 -13 6
-13 4 0 8 -6 9 -12 1 -15 6 -38 21 -85 5 -18 7 -33 4 -33 -3 0 0 -7 7 -15 7
-8 10 -24 7 -35 -3 -11 -1 -20 5 -20 5 0 6 -4 3 -10 -3 -5 -2 -10 3 -10 5 0 9
-6 10 -12 1 -15 10 -53 12 -53 3 0 10 -39 13 -67 1 -16 5 -28 8 -28 3 0 11
-23 18 -52 9 -41 9 -53 -1 -61 -9 -6 -7 -7 6 -3 15 5 17 2 13 -13 -3 -11 0
-22 7 -25 7 -3 6 -8 -4 -15 -13 -9 -13 -11 2 -11 11 0 16 -6 13 -20 -2 -11 1
-20 7 -20 6 0 8 -13 6 -29 -3 -18 0 -28 6 -24 5 4 7 -1 3 -10 -4 -10 -1 -17 6
-17 8 0 8 -3 -2 -9 -10 -7 -10 -10 -1 -13 7 -2 14 -13 15 -24 1 -10 5 -26 8
-34 4 -8 8 -24 10 -35 1 -11 6 -26 10 -33 5 -7 9 -26 9 -42 1 -17 5 -30 9 -30
4 0 8 -8 8 -17 0 -10 7 -43 15 -73 9 -30 14 -61 11 -68 -3 -7 0 -10 5 -7 6 4
10 -7 10 -24 0 -17 4 -31 10 -31 5 0 10 -10 10 -22 0 -47 5 -68 14 -68 5 0 7
-3 4 -6 -4 -3 0 -22 9 -41 11 -27 11 -38 3 -43 -8 -5 -6 -9 6 -14 9 -3 14 -9
11 -12 -3 -3 1 -24 9 -47 8 -23 12 -47 10 -53 -3 -7 -2 -14 2 -16 4 -2 18 -41
30 -88 13 -47 29 -105 36 -130 8 -25 13 -57 12 -72 -1 -15 2 -25 6 -22 4 3 8
-1 8 -10 0 -8 2 -20 3 -28 2 -7 2 -11 0 -8 -1 3 -55 4 -118 3 -83 -2 -114 1
-109 9 5 8 3 8 -7 2 -19 -12 -130 -14 -123 -2 4 6 -1 6 -13 0 -12 -7 -24 -7
-37 0 -14 8 -17 8 -11 -2 6 -10 1 -11 -21 -5 -32 8 -32 8 -87 2 -20 -3 -40 -1
-43 4 -3 5 -13 5 -22 1 -9 -5 -28 -6 -42 -2 -14 4 -33 3 -42 -2 -12 -6 -18 -5
-18 2 0 7 -6 8 -19 1 -10 -6 -20 -8 -22 -6 -10 9 -59 13 -65 4 -3 -5 -9 -7
-14 -4 -4 3 -131 7 -281 10 -151 2 -311 5 -357 6 -45 1 -85 5 -88 10 -3 5 -11
9 -17 9 -8 0 -7 -4 2 -9 10 -6 -29 -10 -105 -10 -65 0 -130 -2 -144 -5 -14 -3
-41 -9 -60 -12 -19 -4 -73 -25 -120 -47 -47 -22 -89 -39 -95 -38 -5 2 -7 -1
-3 -5 5 -4 -7 -17 -25 -30 -39 -26 -107 -93 -107 -104 0 -5 -4 -10 -9 -12 -5
-1 -25 -29 -44 -60 -19 -32 -38 -54 -42 -50 -5 4 -5 2 -1 -5 3 -6 0 -27 -8
-45 -20 -45 -28 -69 -33 -93 -2 -10 -9 -23 -16 -27 -9 -5 -9 -8 0 -8 6 0 10
-8 8 -17 -2 -10 -4 -26 -4 -36 -1 -11 -6 -15 -13 -11 -7 5 -8 3 -2 -7 12 -20
12 -79 -1 -79 -5 0 -3 -5 5 -10 13 -9 13 -10 0 -10 -13 0 -13 -2 -1 -9 8 -5
12 -18 8 -30 -3 -12 -1 -21 4 -21 5 0 7 -13 5 -30 -2 -16 1 -27 6 -24 5 3 8 0
7 -7 -1 -8 3 -27 9 -42 7 -16 10 -33 6 -38 -3 -5 -1 -9 4 -9 9 0 25 -37 23
-53 -1 -4 3 -7 9 -7 5 0 10 -6 10 -12 0 -7 11 -26 25 -42 14 -16 25 -32 25
-35 0 -4 18 -24 39 -46 22 -22 37 -44 33 -49 -3 -5 0 -6 7 -2 8 5 14 0 18 -14
4 -16 8 -18 14 -8 7 10 9 10 9 1 0 -7 7 -13 15 -13 13 0 19 -12 16 -32 0 -4 5
-5 12 -2 15 5 89 -31 80 -40 -4 -3 3 -6 15 -6 32 0 52 -11 52 -29 0 -11 3 -12
8 -4 10 15 46 8 96 -18 13 -7 16 -7 11 0 -3 6 -1 11 4 11 6 0 11 -3 11 -7 0
-5 29 -8 65 -7 36 0 65 -4 65 -8 0 -5 6 -6 13 -1 15 10 127 11 127 1 0 -4 -8
-12 -17 -17 -10 -6 -13 -11 -6 -11 6 0 15 5 19 11 4 8 9 7 16 -2 6 -10 7 -7 3
8 -5 18 -3 22 9 17 9 -3 13 -11 10 -18 -3 -6 1 -3 9 7 14 16 15 16 21 1 4 -9
9 -14 13 -11 3 4 13 1 21 -6 12 -9 14 -9 9 0 -5 7 1 16 12 23 16 8 22 6 30 -7
8 -14 10 -15 11 -3 0 11 11 15 40 14 22 -1 44 -5 48 -9 4 -5 1 -5 -5 -1 -9 5
-11 2 -7 -9 6 -14 8 -13 21 5 8 12 19 17 26 13 19 -12 37 -12 37 0 0 6 7 2 16
-9 8 -10 13 -13 9 -7 -3 7 -1 13 4 13 6 0 11 -6 11 -12 0 -9 3 -10 8 -2 7 11
162 15 162 4 0 -4 12 -12 28 -19 l27 -12 -25 21 c-18 14 -20 20 -9 20 8 0 21
-6 28 -12 11 -11 13 -11 7 0 -4 6 -2 12 3 12 6 0 11 -5 11 -11 0 -8 5 -7 16 2
13 10 17 10 24 0 6 -11 9 -11 14 0 3 8 5 5 3 -6 -3 -15 1 -21 14 -21 10 0 15
4 13 8 -3 4 0 8 6 8 6 0 8 5 4 12 -5 7 -3 8 5 4 7 -5 10 -14 7 -21 -3 -8 2
-12 12 -10 9 1 23 -3 31 -9 11 -8 13 -8 8 1 -4 6 -1 14 5 17 7 3 1 3 -14 1
-17 -2 -28 1 -28 8 0 8 18 12 50 12 28 0 50 -4 50 -10 0 -5 5 -3 10 5 8 13 10
13 10 -2 0 -22 11 -27 35 -17 18 9 18 9 -2 5 -13 -2 -23 -1 -23 4 0 4 11 10
25 12 14 3 25 1 25 -5 0 -5 7 -4 16 4 14 11 15 10 12 -6 -2 -15 4 -19 36 -21
23 -2 34 1 27 5 -7 5 -23 7 -37 5 -13 -1 -22 1 -19 5 2 4 26 8 52 8 26 1 53 2
58 3 27 6 36 0 25 -19 -5 -11 -10 -23 -10 -28 1 -4 7 4 15 18 l14 25 148 -2
c182 -2 176 -1 168 -16 -4 -7 -1 -6 7 3 14 16 82 19 95 4 5 -4 -1 -5 -12 -1
-17 6 -18 5 -7 -6 11 -11 16 -10 26 4 7 10 16 14 20 10 4 -4 13 -7 19 -7 7 -1
11 -7 9 -15 -2 -10 0 -11 11 -2 8 7 18 8 22 4 5 -4 5 -1 1 6 -5 8 1 12 19 12
18 0 24 -4 19 -12 -6 -10 -5 -10 7 -1 9 7 47 11 104 10 75 -2 90 -5 89 -18 -1
-9 5 -16 12 -16 9 0 10 5 3 19 -9 17 -6 18 28 15 27 -2 38 -7 37 -18 -1 -9 5
-16 12 -16 9 0 10 5 3 19 -6 12 -6 18 1 18 5 0 10 -6 10 -12 0 -9 4 -8 10 2 6
10 10 11 10 3 0 -7 5 -13 11 -13 5 0 8 3 6 7 -3 5 6 9 19 9 13 1 24 -2 24 -8
0 -5 6 -6 13 -1 6 4 22 8 34 9 19 1 22 -3 18 -25 -5 -25 -5 -25 4 -3 6 12 14
22 18 23 4 0 17 2 28 4 19 4 19 3 2 -9 -16 -12 -16 -14 -2 -20 9 -3 13 -11 9
-17 -5 -8 -3 -9 5 -4 9 5 9 11 3 17 -16 16 14 43 32 29 9 -7 16 -7 24 1 9 9
12 9 12 0 0 -6 -7 -15 -16 -20 -15 -8 -14 -10 2 -16 10 -4 15 -4 11 0 -4 4 1
16 10 26 17 19 18 19 35 -4 16 -20 17 -20 11 -3 -6 18 -5 19 12 5 11 -9 16
-10 11 -2 -12 19 21 14 34 -5 11 -17 11 -17 6 0 -4 11 0 17 12 18 9 0 33 2 52
4 20 1 42 -4 52 -12 12 -11 18 -11 24 -2 4 7 3 10 -3 6 -6 -4 -14 0 -17 9 -3
9 -2 12 5 9 5 -4 17 -1 26 7 14 11 15 10 10 -12 -4 -14 -4 -19 -1 -12 5 10 9
10 22 0 13 -12 14 -10 3 10 -6 12 -7 22 -2 22 5 0 12 -6 14 -12 3 -8 6 -6 6 5
1 9 6 17 11 17 13 0 13 -6 -1 -33 -9 -19 -8 -19 10 3 10 13 17 28 14 32 -2 5
-1 8 4 7 4 -1 11 0 16 1 4 1 12 4 17 5 6 1 12 4 15 5 3 1 8 3 13 5 4 1 20 7
35 13 35 15 47 15 47 2 0 -5 8 -2 18 8 22 20 19 31 -3 12 -8 -7 -15 -9 -15 -4
1 13 70 55 81 48 5 -3 9 1 9 9 0 18 45 28 62 13 7 -7 7 -4 -2 7 -7 10 -20 15
-29 12 -9 -3 0 8 19 24 19 17 40 29 46 27 6 -2 17 0 25 4 8 6 16 4 21 -3 5 -7
8 -8 8 -1 0 5 -7 19 -15 30 -15 19 -15 19 -8 0 5 -16 3 -18 -11 -13 -11 5 -15
3 -10 -5 5 -7 3 -8 -5 -3 -9 5 -4 16 18 39 17 18 28 36 24 41 -5 4 -3 5 4 1
14 -8 6 -36 -10 -36 -6 0 -7 -3 -4 -6 4 -4 14 -1 24 7 11 9 14 10 9 1 -4 -7
-1 -12 8 -12 9 0 16 -5 16 -11 0 -6 -9 -8 -21 -4 -15 5 -19 4 -14 -5 4 -6 17
-9 29 -6 28 7 68 -26 60 -51 -5 -14 -4 -15 4 -4 9 12 13 12 26 2 9 -7 14 -16
12 -20 -3 -4 5 -8 16 -8 26 -2 36 -12 21 -21 -9 -5 -5 -12 10 -21 20 -13 21
-13 8 2 -14 18 -5 22 18 8 8 -5 10 -14 5 -22 -6 -12 -5 -12 8 -1 14 11 20 10
37 -7 12 -12 21 -17 21 -12 0 5 14 4 30 -2 17 -6 30 -17 30 -25 0 -7 -4 -10
-10 -7 -5 3 -10 1 -10 -4 0 -16 20 -13 26 3 6 16 40 14 37 -3 -4 -15 14 -14
19 1 3 7 9 8 18 3 10 -6 9 -11 -5 -22 -11 -7 -14 -13 -8 -13 5 0 18 9 28 20
10 11 22 17 27 14 6 -4 5 -10 -3 -15 -8 -5 -9 -9 -3 -9 6 0 14 3 18 7 4 5 35
9 69 9 34 1 74 5 90 8 16 4 27 2 27 -4 0 -5 5 -10 11 -10 5 0 7 5 3 11 -5 8 1
10 20 7 14 -3 29 -1 33 5 4 6 1 7 -7 2 -9 -5 -11 -4 -6 4 5 7 16 9 28 5 15 -5
19 -3 13 7 -5 8 -5 11 0 7 4 -4 22 0 39 9 17 10 34 16 39 15 4 -1 7 3 7 8 0 6
6 10 14 10 7 0 25 9 40 21 14 11 26 18 26 15 0 -3 9 3 21 15 13 13 27 18 42
14 16 -5 18 -4 8 3 -10 7 0 23 47 72 49 51 63 61 83 56 13 -3 18 -3 11 0 -16
8 -5 25 12 18 8 -3 17 -1 21 5 3 7 0 8 -10 5 -11 -5 -14 -2 -9 12 5 15 3 14
-10 -3 -10 -13 -22 -23 -28 -23 -6 0 23 34 65 75 42 41 73 75 69 75 -4 0 1 5
11 11 13 8 23 7 35 -3 15 -11 15 -10 -1 8 -19 24 -14 34 19 34 13 0 26 5 29
10 5 8 12 7 23 -2 12 -9 11 -6 -2 10 -20 23 -32 30 -20 10 5 -7 3 -8 -6 -3 -9
5 -11 4 -6 -3 4 -8 0 -12 -11 -12 -13 0 -6 11 26 41 25 22 50 38 58 35 8 -3
12 -2 8 3 -3 5 0 11 7 13 9 3 9 6 0 12 -7 4 -12 2 -12 -3 0 -6 -5 -11 -11 -11
-8 0 -8 4 1 15 9 11 17 12 30 5 28 -15 37 -12 14 4 -18 14 -17 17 31 64 28 28
58 62 68 76 16 24 46 39 32 16 -4 -6 1 -7 11 -3 10 4 15 2 11 -4 -3 -5 0 -10
8 -10 18 0 28 24 13 33 -7 4 -8 3 -4 -4 10 -16 -9 -15 -22 1 -8 9 1 25 35 60
27 29 42 39 38 27 -3 -11 -2 -20 3 -20 5 0 9 6 10 13 2 26 8 47 17 54 4 4 5 3
2 -3 -4 -7 0 -14 8 -17 8 -4 12 -15 10 -27 -2 -11 0 -18 5 -15 9 6 8 31 -3 41
-11 11 -8 34 3 34 6 0 10 -8 11 -17 0 -12 2 -13 6 -5 3 7 -1 20 -9 29 -9 12
-9 15 0 9 6 -4 12 -2 12 4 0 13 60 76 70 73 4 -1 11 8 14 21 3 13 13 26 21 30
9 3 14 2 11 -2 -2 -4 6 -7 19 -7 13 0 21 5 18 12 -3 7 -9 11 -13 10 -4 -1 -8
3 -8 8 0 6 4 9 9 8 5 -2 9 5 9 15 0 14 2 15 10 2 8 -13 10 -12 10 4 0 24 77
99 95 92 8 -3 24 12 40 37 23 37 23 39 2 14 -13 -15 -26 -25 -29 -22 -8 8 31
47 63 63 13 7 16 10 6 7 -10 -3 -15 -1 -12 5 9 14 35 12 35 -2 0 -7 9 2 20 19
20 33 40 43 40 21 0 -6 2 -9 5 -6 7 6 -5 38 -14 38 -3 0 -15 -13 -26 -29 -18
-28 -35 -32 -35 -10 0 6 5 7 11 4 6 -4 13 2 16 14 3 11 14 23 24 26 10 4 19
10 19 14 0 4 33 42 73 84 39 43 70 77 68 77 -3 0 8 13 24 30 15 16 32 27 37
24 4 -3 8 0 8 6 0 15 32 56 44 57 5 1 16 13 26 27 16 26 30 25 30 -1 0 -8 -4
-12 -9 -9 -13 8 -76 -56 -78 -79 -1 -11 0 -14 3 -7 3 6 11 9 16 6 7 -4 8 -2 4
5 -11 17 12 41 32 34 13 -3 14 -2 4 4 -11 8 -11 12 0 20 7 6 20 9 29 8 12 -2
15 3 12 16 -5 17 4 23 28 21 3 0 5 10 5 23 0 13 -4 21 -8 19 -5 -3 -6 -9 -3
-14 8 -13 -15 -24 -26 -13 -7 7 1 18 23 31 18 12 29 22 23 22 -7 0 -7 3 0 8 6
4 25 24 43 45 17 21 32 33 32 28 0 -6 9 -15 19 -21 16 -8 19 -7 16 8 -1 9 6
25 17 35 15 15 17 22 7 33 -9 11 -8 14 5 14 9 0 16 -6 17 -12 0 -7 5 -3 11 9
6 13 19 25 29 28 11 4 19 13 19 21 0 8 6 14 14 12 8 -2 14 0 13 3 -1 3 5 14
13 23 16 21 23 49 9 40 -5 -3 -6 -10 -3 -16 4 -7 2 -8 -5 -4 -17 11 7 39 27
31 12 -4 12 -3 3 9 -9 11 -8 15 5 20 9 3 21 3 27 -1 9 -5 9 -3 0 8 -9 11 -5
21 18 49 17 19 27 26 23 16 -5 -13 -4 -17 4 -12 7 4 12 15 12 25 0 10 8 25 17
32 10 8 14 9 10 2 -4 -6 -2 -15 4 -19 8 -4 9 -3 5 4 -9 15 6 16 21 1 8 -8 13
-8 18 0 3 6 3 10 -2 9 -4 -1 -17 4 -29 11 -20 13 -20 15 -5 33 15 17 17 17 28
1 7 -9 13 -13 13 -8 0 5 -7 17 -17 27 -9 10 -11 18 -5 18 6 0 13 13 17 30 4
16 11 30 16 30 6 0 7 -5 3 -12 -4 -7 -3 -8 5 -4 7 5 8 13 2 24 -5 10 -5 26 1
41 5 15 11 40 14 56 2 17 6 39 8 50 3 11 5 22 5 24 1 3 8 -4 16 -15 14 -18 15
-17 4 8 -7 15 -17 25 -23 21 -7 -4 -7 -1 1 7 6 7 9 19 6 28 -4 10 -2 13 5 8 8
-5 10 -2 6 8 -3 9 -9 14 -13 12 -3 -2 -6 15 -7 37 0 23 -3 57 -7 75 -4 19 -3
31 2 27 5 -3 13 -1 16 5 4 6 1 9 -6 8 -7 -2 -21 13 -30 32 -22 42 -23 54 -6
44 6 -4 9 -4 5 1 -4 4 -2 15 4 24 10 13 10 14 -2 4 -14 -13 -39 -19 -27 -7 3
4 -1 13 -9 21 -8 8 -12 19 -9 24 4 5 0 9 -7 9 -9 0 -9 3 2 10 13 8 12 10 -3
10 -10 0 -21 8 -24 18 -4 9 -9 19 -12 22 -30 26 -43 51 -33 63 9 10 8 14 -3
14 -8 0 -12 -4 -9 -9 3 -4 1 -8 -4 -8 -10 0 -26 29 -24 43 1 4 -2 6 -6 5 -5
-2 -32 21 -61 50 -35 35 -51 59 -47 69 5 13 4 14 -9 3 -12 -10 -16 -9 -21 4
-4 9 -32 42 -63 73 -31 31 -55 60 -53 64 1 5 -1 8 -5 7 -12 -4 -73 54 -73 69
0 7 -7 13 -16 13 -8 0 -12 5 -9 10 3 6 -2 10 -11 10 -10 0 -15 3 -12 6 3 3
-32 43 -79 89 -46 47 -82 89 -79 94 4 5 1 13 -5 17 -8 4 -9 3 -5 -4 4 -7 2
-12 -3 -12 -6 0 -11 6 -11 13 0 8 -11 20 -25 27 -13 7 -22 16 -20 20 3 5 -2
10 -10 14 -8 3 -15 13 -15 21 0 9 -4 14 -9 11 -11 -7 -43 28 -34 37 3 4 -1 7
-11 7 -9 0 -14 5 -11 10 3 6 1 10 -5 10 -14 0 -41 26 -34 33 3 3 -4 8 -15 12
-12 3 -21 10 -21 14 0 5 -34 43 -75 85 -42 43 -73 82 -69 87 3 6 -2 9 -12 7
-15 -2 -18 3 -16 22 1 19 0 22 -8 10 -8 -13 -11 -12 -24 5 -8 11 -12 24 -9 30
4 5 2 7 -2 2 -10 -9 -85 61 -85 80 0 7 -6 12 -12 10 -7 -1 -12 6 -12 15 1 10
-2 16 -6 13 -10 -6 -51 35 -45 45 4 6 -2 7 -11 3 -14 -5 -16 -3 -11 11 4 9 3
15 -2 11 -5 -3 -18 6 -29 20 -11 14 -25 25 -31 25 -6 0 -11 4 -11 9 0 5 -25
34 -55 64 -53 52 -69 76 -42 61 7 -4 9 -3 4 2 -5 5 -12 9 -16 9 -3 0 -19 10
-35 23 -16 12 -26 22 -22 22 4 0 -4 11 -18 24 -27 24 -35 43 -14 30 7 -4 8 -3
4 5 -4 6 -12 9 -17 5 -12 -7 -51 31 -42 40 4 3 1 6 -6 6 -18 0 -83 69 -76 80
3 6 -1 7 -9 4 -9 -4 -18 0 -21 9 -4 8 -46 56 -96 106 -49 51 -89 97 -89 102 0
5 -7 9 -15 9 -8 0 -15 5 -15 11 0 5 6 7 13 3 7 -4 9 -3 4 2 -5 5 -14 9 -20 9
-7 1 -11 6 -9 13 1 7 -4 11 -10 10 -7 -2 -12 3 -10 10 1 6 -1 11 -5 10 -13 -4
-63 45 -56 55 3 6 1 7 -4 4 -9 -6 -56 22 -73 43 -3 4 -13 9 -23 13 -11 4 -15
12 -11 18 4 7 3 9 -4 5 -14 -8 -65 11 -58 23 4 5 -4 7 -16 3 -13 -3 -19 -1
-15 5 4 6 1 11 -6 10 -41 -1 -67 5 -81 19 -9 8 -16 11 -16 6 0 -5 -11 -7 -25
-4 -14 2 -22 8 -19 13 6 10 1 12 -8 4z m2212 -3230 c-5 -6 -6 -16 -2 -20 4 -5
1 -5 -6 -1 -8 5 -25 -5 -46 -28 -19 -19 -36 -32 -39 -29 -3 3 10 21 30 39 20
19 32 34 28 34 -4 0 -2 6 5 14 6 8 18 12 26 9 10 -4 11 -9 4 -18z m-128 -128
c-12 -13 -19 -27 -15 -30 3 -4 1 -7 -5 -7 -7 0 -12 5 -12 12 0 15 30 48 43 48
6 0 1 -10 -11 -23z m-632 -677 c0 -5 -7 -7 -15 -4 -8 4 -15 8 -15 10 0 2 7 4
15 4 8 0 15 -4 15 -10z"/>
<path d="M2880 6020 c-9 -6 -10 -10 -3 -10 6 0 15 5 18 10 8 12 4 12 -15 0z"/>
<path d="M2935 5901 c-3 -5 -2 -12 3 -15 5 -3 9 1 9 9 0 17 -3 19 -12 6z"/>
<path d="M2975 5740 c3 -5 8 -10 11 -10 2 0 4 5 4 10 0 6 -5 10 -11 10 -5 0
-7 -4 -4 -10z"/>
<path d="M2995 5690 c10 -11 20 -20 23 -20 3 0 -3 9 -13 20 -10 11 -20 20 -23
20 -3 0 3 -9 13 -20z"/>
<path d="M2990 5660 c0 -5 5 -10 11 -10 5 0 7 5 4 10 -3 6 -8 10 -11 10 -2 0
-4 -4 -4 -10z"/>
<path d="M2990 5636 c0 -2 8 -10 18 -17 15 -13 16 -12 3 4 -13 16 -21 21 -21
13z"/>
<path d="M3034 5560 c0 -13 4 -16 10 -10 7 7 7 13 0 20 -6 6 -10 3 -10 -10z"/>
<path d="M3025 5519 c-11 -16 -1 -19 13 -3 7 8 8 14 3 14 -5 0 -13 -5 -16 -11z"/>
<path d="M5446 5522 c-3 -5 1 -9 9 -9 8 0 12 4 9 9 -3 4 -7 8 -9 8 -2 0 -6 -4
-9 -8z"/>
<path d="M3076 5395 c-3 -9 -11 -13 -17 -9 -8 5 -9 3 -4 -5 6 -10 11 -9 23 3
9 8 13 18 10 21 -3 3 -8 -1 -12 -10z"/>
<path d="M5590 5376 c0 -2 8 -10 18 -17 15 -13 16 -12 3 4 -13 16 -21 21 -21
13z"/>
<path d="M3110 5242 c0 -5 7 -9 15 -9 8 0 12 4 9 9 -3 4 -9 8 -15 8 -5 0 -9
-4 -9 -8z"/>
<path d="M3130 5163 c5 -2 8 -9 5 -13 -3 -5 -1 -11 4 -14 5 -4 8 2 7 11 -2 9
-8 18 -15 19 -6 1 -7 0 -1 -3z"/>
<path d="M3147 5099 c7 -7 15 -10 18 -7 3 3 -2 9 -12 12 -14 6 -15 5 -6 -5z"/>
<path d="M3995 5029 c-4 -6 -5 -12 -2 -15 2 -3 7 2 10 11 7 17 1 20 -8 4z"/>
<path d="M4030 4999 c0 -5 5 -7 10 -4 6 3 10 8 10 11 0 2 -4 4 -10 4 -5 0 -10
-5 -10 -11z"/>
<path d="M5967 4979 c7 -7 15 -10 18 -7 3 3 -2 9 -12 12 -14 6 -15 5 -6 -5z"/>
<path d="M4070 4976 c0 -2 8 -10 18 -17 15 -13 16 -12 3 4 -13 16 -21 21 -21
13z"/>
<path d="M3180 4931 c0 -6 4 -13 10 -16 6 -3 7 1 4 9 -7 18 -14 21 -14 7z"/>
<path d="M3196 4847 c3 -10 9 -15 12 -12 3 3 0 11 -7 18 -10 9 -11 8 -5 -6z"/>
<path d="M6109 4843 c-13 -16 -12 -17 4 -4 16 13 21 21 13 21 -2 0 -10 -8 -17
-17z"/>
<path d="M3230 4825 c5 -22 -1 -29 -11 -15 -8 12 -10 12 -7 1 5 -18 37 -23 34
-5 -1 7 -6 17 -10 21 -4 4 -7 4 -6 -2z"/>
<path d="M6220 4740 c-9 -6 -10 -10 -3 -10 6 0 15 5 18 10 8 12 4 12 -15 0z"/>
<path d="M3230 4720 c-13 -8 -12 -10 3 -10 9 0 17 5 17 10 0 12 -1 12 -20 0z"/>
<path d="M4330 4700 c0 -5 5 -10 11 -10 5 0 7 5 4 10 -3 6 -8 10 -11 10 -2 0
-4 -4 -4 -10z"/>
<path d="M3255 4660 c3 -5 8 -10 11 -10 2 0 4 5 4 10 0 6 -5 10 -11 10 -5 0
-7 -4 -4 -10z"/>
<path d="M3266 4603 c-6 -14 -5 -15 5 -6 7 7 10 15 7 18 -3 3 -9 -2 -12 -12z"/>
<path d="M4494 4522 c4 -3 14 -7 22 -8 9 -1 13 0 10 4 -4 3 -14 7 -22 8 -9 1
-13 0 -10 -4z"/>
<path d="M3295 4481 c-3 -5 -2 -12 3 -15 5 -3 9 1 9 9 0 17 -3 19 -12 6z"/>
<path d="M3333 4435 c0 -8 4 -12 9 -9 5 3 6 10 3 15 -9 13 -12 11 -12 -6z"/>
<path d="M6550 4366 c0 -2 7 -7 16 -10 8 -3 12 -2 9 4 -6 10 -25 14 -25 6z"/>
<path d="M1915 4331 c-3 -5 -2 -12 3 -15 5 -3 9 1 9 9 0 17 -3 19 -12 6z"/>
<path d="M6630 4276 c7 -7 13 -7 20 0 6 6 3 10 -10 10 -13 0 -16 -4 -10 -10z"/>
<path d="M4770 4239 c0 -5 5 -7 10 -4 6 3 10 8 10 11 0 2 -4 4 -10 4 -5 0 -10
-5 -10 -11z"/>
<path d="M3365 4220 c-3 -6 1 -7 9 -4 18 7 21 14 7 14 -6 0 -13 -4 -16 -10z"/>
<path d="M4800 4195 c-7 -9 -11 -17 -9 -20 3 -2 10 5 17 15 14 24 10 26 -8 5z"/>
<path d="M3391 4187 c-8 -10 -7 -14 2 -14 8 0 14 6 14 14 0 7 -1 13 -2 13 -2
0 -8 -6 -14 -13z"/>
<path d="M3410 4140 c0 -5 5 -10 11 -10 5 0 7 5 4 10 -3 6 -8 10 -11 10 -2 0
-4 -4 -4 -10z"/>
<path d="M4870 4118 c0 -4 4 -8 9 -8 6 0 12 4 15 8 3 5 -1 9 -9 9 -8 0 -15 -4
-15 -9z"/>
<path d="M3395 4100 c-3 -5 -1 -10 4 -10 6 0 11 5 11 10 0 6 -2 10 -4 10 -3 0
-8 -4 -11 -10z"/>
<path d="M3436 4073 c-6 -14 -5 -15 5 -6 7 7 10 15 7 18 -3 3 -9 -2 -12 -12z"/>
<path d="M3425 4039 c-3 -4 2 -6 10 -5 21 3 28 13 10 13 -9 0 -18 -4 -20 -8z"/>
<path d="M3426 3997 c3 -10 9 -15 12 -12 3 3 0 11 -7 18 -10 9 -11 8 -5 -6z"/>
<path d="M3435 3960 c-3 -5 -1 -10 4 -10 6 0 11 5 11 10 0 6 -2 10 -4 10 -3 0
-8 -4 -11 -10z"/>
<path d="M6895 3921 c-3 -5 -2 -12 3 -15 5 -3 9 1 9 9 0 17 -3 19 -12 6z"/>
<path d="M3460 3880 c0 -5 5 -10 11 -10 5 0 7 5 4 10 -3 6 -8 10 -11 10 -2 0
-4 -4 -4 -10z"/>
<path d="M5115 3840 c-3 -5 -1 -10 4 -10 6 0 11 5 11 10 0 6 -2 10 -4 10 -3 0
-8 -4 -11 -10z"/>
<path d="M6931 3813 c-1 -17 16 -25 25 -12 4 7 3 9 -4 5 -5 -3 -13 0 -15 6 -4
9 -6 10 -6 1z"/>
<path d="M6923 3775 c0 -8 4 -12 9 -9 5 3 6 10 3 15 -9 13 -12 11 -12 -6z"/>
<path d="M6956 3767 c3 -10 9 -15 12 -12 3 3 0 11 -7 18 -10 9 -11 8 -5 -6z"/>
<path d="M3488 3753 c6 -2 9 -10 6 -15 -4 -7 -2 -8 5 -4 13 9 5 26 -12 25 -9
0 -8 -2 1 -6z"/>
<path d="M6930 3739 c0 -5 5 -7 10 -4 6 3 10 8 10 11 0 2 -4 4 -10 4 -5 0 -10
-5 -10 -11z"/>
<path d="M3510 3726 c0 -2 7 -7 16 -10 8 -3 12 -2 9 4 -6 10 -25 14 -25 6z"/>
<path d="M6945 3720 c-3 -6 1 -7 9 -4 18 7 21 14 7 14 -6 0 -13 -4 -16 -10z"/>
<path d="M3510 3700 c0 -5 5 -10 11 -10 5 0 7 5 4 10 -3 6 -8 10 -11 10 -2 0
-4 -4 -4 -10z"/>
<path d="M3534 3634 c1 -8 4 -15 7 -16 2 -2 3 -1 2 1 -2 2 2 9 7 16 7 8 5 12
-4 12 -8 0 -13 -6 -12 -13z"/>
<path d="M6940 3646 c0 -2 8 -10 18 -17 15 -13 16 -12 3 4 -13 16 -21 21 -21
13z"/>
<path d="M3535 3580 c-3 -5 -1 -10 4 -10 6 0 11 5 11 10 0 6 -2 10 -4 10 -3 0
-8 -4 -11 -10z"/>
<path d="M6917 3577 c-3 -8 1 -14 8 -14 7 0 11 6 8 14 -3 7 -6 13 -8 13 -2 0
-5 -6 -8 -13z"/>
<path d="M3570 3559 c0 -5 5 -7 10 -4 6 3 10 8 10 11 0 2 -4 4 -10 4 -5 0 -10
-5 -10 -11z"/>
<path d="M6919 3533 c-13 -16 -12 -17 4 -4 16 13 21 21 13 21 -2 0 -10 -8 -17
-17z"/>
<path d="M6940 3525 c0 -2 6 -8 13 -14 10 -8 14 -7 14 2 0 8 -6 14 -14 14 -7
0 -13 -1 -13 -2z"/>
<path d="M3565 3500 c-6 -9 11 -50 21 -50 2 0 0 9 -6 20 -6 11 -8 25 -5 30 3
6 4 10 1 10 -3 0 -8 -4 -11 -10z"/>
<path d="M6900 3506 c0 -2 7 -6 15 -10 8 -3 15 -1 15 4 0 6 -7 10 -15 10 -8 0
-15 -2 -15 -4z"/>
<path d="M6910 3462 c0 -5 7 -9 15 -9 8 0 12 4 9 9 -3 4 -9 8 -15 8 -5 0 -9
-4 -9 -8z"/>
<path d="M6893 3414 c-3 -7 -3 -19 0 -26 3 -7 6 -3 6 10 1 13 5 21 10 17 5 -3
12 -2 15 3 3 5 -2 9 -10 9 -9 0 -18 -6 -21 -13z"/>
<path d="M3595 3410 c-3 -5 -3 -10 2 -10 4 0 2 -4 -5 -9 -11 -7 -11 -9 0 -14
10 -3 14 3 14 19 0 26 -2 29 -11 14z"/>
<path d="M3616 3362 c-3 -5 1 -9 9 -9 8 0 12 4 9 9 -3 4 -7 8 -9 8 -2 0 -6 -4
-9 -8z"/>
<path d="M6836 3341 c-3 -5 1 -11 9 -14 9 -4 12 -1 8 9 -6 16 -10 17 -17 5z"/>
<path d="M6806 3277 c3 -10 9 -15 12 -12 3 3 0 11 -7 18 -10 9 -11 8 -5 -6z"/>
<path d="M3653 3251 c0 -11 5 -18 9 -15 4 3 5 11 1 19 -7 21 -12 19 -10 -4z"/>
<path d="M6744 3228 c-17 -20 -17 -21 -1 -9 17 13 18 12 12 -12 -4 -15 -3 -27
2 -27 4 0 8 16 9 35 0 19 0 35 -1 35 -1 0 -10 -10 -21 -22z"/>
<path d="M6785 3240 c-3 -5 -2 -10 4 -10 5 0 13 5 16 10 3 6 2 10 -4 10 -5 0
-13 -4 -16 -10z"/>
<path d="M6717 3179 c7 -7 15 -10 18 -7 3 3 -2 9 -12 12 -14 6 -15 5 -6 -5z"/>
<path d="M3666 3158 c3 -4 9 -8 15 -8 5 0 9 4 9 8 0 5 -7 9 -15 9 -8 0 -12 -4
-9 -9z"/>
<path d="M6710 3150 c-9 -6 -10 -10 -3 -10 6 0 15 5 18 10 8 12 4 12 -15 0z"/>
<path d="M3668 3083 c7 -3 16 -2 19 1 4 3 -2 6 -13 5 -11 0 -14 -3 -6 -6z"/>
<path d="M6620 3045 c0 -2 6 -8 13 -14 10 -8 14 -7 14 2 0 8 -6 14 -14 14 -7
0 -13 -1 -13 -2z"/>
<path d="M6596 3021 c-3 -5 1 -14 8 -20 10 -9 16 -9 21 -1 4 6 1 9 -7 8 -7 -2
-12 3 -10 10 2 14 -4 16 -12 3z"/>
<path d="M3680 3015 c0 -5 5 -17 10 -25 5 -8 10 -10 10 -5 0 6 -5 17 -10 25
-5 8 -10 11 -10 5z"/>
<path d="M6457 2922 c-15 -16 -15 -18 2 -18 11 0 17 6 14 13 -3 7 -1 13 5 13
6 0 12 -6 15 -12 2 -7 8 -9 13 -5 5 4 2 12 -6 17 -21 13 -25 13 -43 -8z"/>
<path d="M6430 2878 c0 -11 12 -10 30 2 12 7 10 9 -8 7 -12 0 -22 -5 -22 -9z"/>
<path d="M3735 2860 c-3 -5 -1 -10 4 -10 6 0 11 5 11 10 0 6 -2 10 -4 10 -3 0
-8 -4 -11 -10z"/>
<path d="M3750 2820 c0 -5 5 -10 11 -10 5 0 7 5 4 10 -3 6 -8 10 -11 10 -2 0
-4 -4 -4 -10z"/>
<path d="M3750 2740 c0 -5 5 -10 10 -10 6 0 10 5 10 10 0 6 -4 10 -10 10 -5 0
-10 -4 -10 -10z"/>
<path d="M3765 2699 c-3 -4 2 -6 10 -5 21 3 28 13 10 13 -9 0 -18 -4 -20 -8z"/>
<path d="M6222 2677 c-15 -15 -18 -27 -12 -37 5 -8 12 -11 17 -7 4 5 1 12 -6
16 -8 6 -9 11 -3 15 6 3 13 2 17 -4 3 -5 12 -10 18 -10 7 0 4 5 -6 11 -9 6
-15 15 -11 21 4 6 10 5 15 -3 6 -10 9 -10 9 -2 0 22 -17 22 -38 0z"/>
<path d="M3810 2661 c0 -6 4 -13 10 -16 6 -3 7 1 4 9 -7 18 -14 21 -14 7z"/>
<path d="M6177 2619 c-19 -11 -23 -29 -6 -29 5 0 7 5 3 11 -4 7 -1 10 7 7 8
-3 13 -14 13 -26 -1 -12 2 -20 6 -17 8 5 7 51 0 59 -3 2 -13 0 -23 -5z"/>
<path d="M6233 2605 c0 -8 4 -12 9 -9 5 3 6 10 3 15 -9 13 -12 11 -12 -6z"/>
<path d="M3816 2602 c-2 -4 -1 -14 4 -22 7 -11 9 -9 7 8 -1 24 -3 26 -11 14z"/>
<path d="M6133 2578 c-19 -25 -24 -38 -14 -38 6 0 11 7 11 15 0 8 6 13 13 11
6 -1 9 -1 4 1 -4 3 -5 9 -1 14 8 14 -2 11 -13 -3z"/>
<path d="M6079 2513 c-13 -17 -13 -17 6 -3 11 8 22 16 24 17 2 2 0 3 -6 3 -6
0 -17 -8 -24 -17z"/>
<path d="M6096 2501 c-3 -4 0 -13 6 -21 8 -12 9 -11 4 4 -5 13 -2 17 9 13 8
-4 16 -3 19 1 3 4 -4 8 -14 9 -11 1 -22 -2 -24 -6z"/>
<path d="M6060 2480 c0 -6 7 -10 15 -10 8 0 15 2 15 4 0 2 -7 6 -15 10 -8 3
-15 1 -15 -4z"/>
<path d="M3838 2443 c7 -3 16 -2 19 1 4 3 -2 6 -13 5 -11 0 -14 -3 -6 -6z"/>
<path d="M3850 2400 c0 -5 9 -8 20 -7 21 1 18 10 -5 13 -8 1 -15 -2 -15 -6z"/>
<path d="M6015 2399 c-11 -16 -1 -19 13 -3 7 8 8 14 3 14 -5 0 -13 -5 -16 -11z"/>
<path d="M5965 2360 c3 -5 8 -10 11 -10 2 0 4 5 4 10 0 6 -5 10 -11 10 -5 0
-7 -4 -4 -10z"/>
<path d="M3890 2320 c0 -5 5 -10 11 -10 5 0 7 5 4 10 -3 6 -8 10 -11 10 -2 0
-4 -4 -4 -10z"/>
<path d="M5936 2314 c-5 -14 -4 -15 8 -5 8 7 21 9 27 5 8 -4 9 -3 5 4 -10 17
-33 15 -40 -4z"/>
<path d="M5870 2281 c0 -7 -5 -9 -12 -5 -6 4 -8 3 -4 -4 3 -5 0 -13 -6 -15 -8
-4 -9 -6 -2 -6 15 -1 39 28 30 36 -3 3 -6 1 -6 -6z"/>
<path d="M5893 2265 c0 -8 4 -12 9 -9 5 3 6 10 3 15 -9 13 -12 11 -12 -6z"/>
<path d="M5817 2236 c-4 -9 -2 -18 4 -21 5 -4 6 -11 3 -17 -4 -7 -2 -8 5 -4 9
6 9 11 -1 23 -11 14 -10 15 12 8 14 -4 23 -6 20 -3 -34 27 -38 28 -43 14z"/>
<path d="M5870 2241 c0 -6 4 -13 10 -16 6 -3 7 1 4 9 -7 18 -14 21 -14 7z"/>
<path d="M3895 2200 c-3 -6 1 -7 9 -4 18 7 21 14 7 14 -6 0 -13 -4 -16 -10z"/>
<path d="M5791 2180 c-9 -5 -4 -7 13 -7 29 0 32 2 13 10 -8 3 -20 2 -26 -3z"/>
<path d="M5720 2120 c7 -4 17 -14 22 -21 8 -11 9 -10 5 3 -3 9 -1 19 6 21 7 2
-1 4 -17 4 -17 0 -23 -3 -16 -7z"/>
<path d="M5714 2102 c3 -5 0 -12 -6 -15 -7 -2 -10 -7 -7 -11 3 -4 12 0 18 8 9
11 9 16 0 22 -7 4 -9 3 -5 -4z"/>
<path d="M5669 2077 c-14 -11 -39 -49 -39 -60 0 -2 6 -4 14 -4 7 0 11 7 9 17
-2 9 3 23 13 31 15 13 16 12 9 -11 -4 -14 -4 -22 0 -18 6 6 17 59 12 58 -1 0
-9 -6 -18 -13z"/>
<path d="M5696 2002 c-3 -5 1 -9 9 -9 8 0 12 4 9 9 -3 4 -7 8 -9 8 -2 0 -6 -4
-9 -8z"/>
<path d="M5630 1980 c0 -5 9 -8 20 -7 21 1 18 10 -5 13 -8 1 -15 -2 -15 -6z"/>
<path d="M5494 1898 c-16 -18 -21 -26 -11 -18 15 11 20 11 26 1 6 -10 10 -9
14 4 4 9 3 13 -3 10 -6 -3 -10 -2 -10 4 0 5 6 11 13 14 6 2 9 7 6 11 -3 3 -19
-9 -35 -26z"/>
<path d="M5550 1910 c-9 -6 -10 -10 -3 -10 6 0 15 5 18 10 8 12 4 12 -15 0z"/>
<path d="M5539 1873 c-13 -16 -12 -17 4 -4 16 13 21 21 13 21 -2 0 -10 -8 -17
-17z"/>
<path d="M5404 1794 c-16 -25 -42 -53 -57 -61 -16 -8 -27 -17 -24 -19 7 -8 67
30 67 43 0 6 10 19 22 27 12 9 18 16 13 16 -12 0 16 20 28 20 5 0 5 -5 1 -12
-4 -7 -3 -8 4 -4 16 10 15 14 -7 25 -16 9 -23 3 -47 -35z"/>
<path d="M5434 1779 c-3 -6 -2 -15 4 -21 6 -6 12 -6 17 3 6 8 4 10 -5 4 -10
-6 -12 -4 -7 8 7 19 2 23 -9 6z"/>
<path d="M5350 1701 c0 -6 4 -12 8 -15 5 -3 9 1 9 9 0 8 -4 15 -9 15 -4 0 -8
-4 -8 -9z"/>
<path d="M5306 1643 c-6 -14 -5 -15 5 -6 7 7 10 15 7 18 -3 3 -9 -2 -12 -12z"/>
<path d="M5240 1620 c-8 -5 -10 -10 -5 -10 6 0 17 5 25 10 8 5 11 10 5 10 -5
0 -17 -5 -25 -10z"/>
<path d="M5270 1610 c-9 -6 -10 -10 -3 -10 6 0 15 5 18 10 8 12 4 12 -15 0z"/>
<path d="M5230 1560 c0 -5 5 -10 11 -10 5 0 7 5 4 10 -3 6 -8 10 -11 10 -2 0
-4 -4 -4 -10z"/>
<path d="M5180 1550 c8 -5 22 -9 30 -9 10 0 8 3 -5 9 -27 12 -43 12 -25 0z"/>
<path d="M5150 1520 c0 -5 5 -10 11 -10 5 0 7 5 4 10 -3 6 -8 10 -11 10 -2 0
-4 -4 -4 -10z"/>
<path d="M5142 1480 c7 -10 14 -18 15 -16 6 6 -9 36 -18 36 -5 0 -4 -9 3 -20z"/>
<path d="M5104 1478 c-4 -7 -3 -8 4 -4 7 4 12 3 12 -1 0 -9 -42 -38 -52 -35
-3 1 -11 -5 -18 -12 -8 -11 -8 -16 1 -22 7 -4 9 -3 5 4 -3 6 -2 13 4 17 5 3
10 2 10 -4 0 -6 11 1 25 15 14 14 30 22 36 18 8 -4 8 0 0 15 -13 24 -17 25
-27 9z"/>
<path d="M5187 1479 c7 -7 15 -10 18 -7 3 3 -2 9 -12 12 -14 6 -15 5 -6 -5z"/>
<path d="M5104 1424 c-18 -14 -18 -15 4 -4 12 6 22 13 22 15 0 8 -5 6 -26 -11z"/>
<path d="M5060 1355 c-19 -22 -8 -25 13 -3 9 10 13 18 8 18 -5 0 -14 -7 -21
-15z"/>
<path d="M4973 1332 c-36 -38 -53 -62 -43 -62 5 0 14 9 20 20 6 11 16 17 22
14 7 -5 8 -2 3 6 -4 7 -2 16 6 21 8 5 17 3 21 -4 6 -9 8 -9 8 0 0 21 -19 24
-37 5z"/>
<path d="M5015 1309 c-4 -6 -5 -12 -2 -15 2 -3 7 2 10 11 7 17 1 20 -8 4z"/>
<path d="M185 1300 c-3 -6 1 -7 9 -4 18 7 21 14 7 14 -6 0 -13 -4 -16 -10z"/>
<path d="M4975 1271 c-3 -5 -2 -12 3 -15 5 -3 9 1 9 9 0 17 -3 19 -12 6z"/>
<path d="M3946 1260 c5 -8 9 -18 9 -22 0 -3 3 -9 7 -13 3 -4 5 0 4 9 -1 9 -8
22 -16 29 -10 10 -11 9 -4 -3z"/>
<path d="M4903 1245 c-3 -9 -3 -19 1 -22 3 -4 6 1 6 10 0 8 6 18 13 20 9 4 9
6 -1 6 -7 1 -15 -6 -19 -14z"/>
<path d="M3805 1228 c-15 -17 -16 -19 -2 -9 12 10 20 11 30 2 10 -8 14 -7 14
4 0 8 -4 12 -8 9 -4 -2 -9 1 -11 7 -2 6 -12 0 -23 -13z"/>
<path d="M3815 1200 c3 -5 8 -10 11 -10 2 0 4 5 4 10 0 6 -5 10 -11 10 -5 0
-7 -4 -4 -10z"/>
<path d="M4832 1186 c-1 -15 1 -17 7 -7 5 7 15 17 22 22 10 6 8 8 -7 7 -12 -1
-21 -10 -22 -22z"/>
<path d="M4782 1170 c-21 -17 -21 -19 -3 -17 11 0 18 4 15 8 -2 4 0 10 6 14 6
3 11 -4 11 -17 1 -18 2 -19 6 -4 8 28 -10 36 -35 16z"/>
<path d="M4856 1182 c-3 -4 4 -9 15 -9 23 -2 25 3 4 10 -8 4 -16 3 -19 -1z"/>
<path d="M3753 1163 c0 -7 4 -13 7 -13 4 0 12 6 18 13 8 10 6 13 -7 13 -10 0
-18 -6 -18 -13z"/>
<path d="M4030 1161 c0 -6 4 -13 10 -16 6 -3 7 1 4 9 -7 18 -14 21 -14 7z"/>
<path d="M3707 1153 c-10 -9 -9 -23 1 -23 5 0 9 7 9 15 0 17 -1 18 -10 8z"/>
<path d="M386 1142 c-3 -5 1 -9 9 -9 8 0 12 4 9 9 -3 4 -7 8 -9 8 -2 0 -6 -4
-9 -8z"/>
<path d="M3734 1143 c3 -6 -2 -16 -11 -22 -16 -9 -16 -10 3 -8 21 1 26 19 9
34 -4 4 -5 3 -1 -4z"/>
<path d="M4740 1140 c0 -5 5 -10 11 -10 5 0 7 5 4 10 -3 6 -8 10 -11 10 -2 0
-4 -4 -4 -10z"/>
<path d="M4691 1119 c-13 -11 -21 -22 -18 -26 4 -3 15 5 26 18 11 13 20 19 21
14 0 -6 -6 -18 -12 -25 -7 -8 -4 -7 7 2 28 26 6 42 -24 17z"/>
<path d="M420 1126 c0 -2 8 -10 18 -17 15 -13 16 -12 3 4 -13 16 -21 21 -21
13z"/>
<path d="M4126 1122 c-3 -5 1 -9 9 -9 8 0 12 4 9 9 -3 4 -7 8 -9 8 -2 0 -6 -4
-9 -8z"/>
<path d="M3675 1099 c-11 -16 -1 -19 13 -3 7 8 8 14 3 14 -5 0 -13 -5 -16 -11z"/>
<path d="M4180 1100 c-9 -6 -10 -10 -3 -10 6 0 15 5 18 10 8 12 4 12 -15 0z"/>
<path d="M4729 1083 c-13 -16 -12 -17 4 -4 16 13 21 21 13 21 -2 0 -10 -8 -17
-17z"/>
<path d="M440 1080 c-9 -6 -10 -10 -3 -10 6 0 15 5 18 10 8 12 4 12 -15 0z"/>
<path d="M3597 1074 c5 -14 3 -15 -15 -5 -28 15 -40 -4 -18 -28 9 -10 13 -21
9 -26 -5 -4 -2 -5 5 -1 11 7 10 11 -2 25 -18 20 -21 35 -6 26 5 -3 18 -8 29
-10 14 -3 18 1 14 16 -3 10 -9 19 -14 19 -5 0 -6 -7 -2 -16z"/>
<path d="M3630 1070 c6 -11 12 -20 14 -20 2 0 2 9 -1 20 -3 11 -9 20 -15 20
-5 0 -4 -9 2 -20z"/>
<path d="M4630 1078 c0 -6 3 -8 7 -5 3 4 12 2 20 -5 11 -8 12 -7 7 6 -7 18
-34 22 -34 4z"/>
<path d="M550 1076 c0 -3 9 -10 20 -16 11 -6 20 -8 20 -6 0 3 -9 10 -20 16
-11 6 -20 8 -20 6z"/>
<path d="M4522 1067 c16 -13 16 -15 0 -32 -17 -19 -17 -19 6 -1 12 11 22 20
22 22 0 2 -10 8 -22 14 -20 10 -21 10 -6 -3z"/>
<path d="M4375 1060 c-3 -5 -1 -10 4 -10 6 0 11 5 11 10 0 6 -2 10 -4 10 -3 0
-8 -4 -11 -10z"/>
<path d="M4490 1060 c0 -5 5 -10 11 -10 5 0 7 5 4 10 -3 6 -8 10 -11 10 -2 0
-4 -4 -4 -10z"/>
<path d="M4576 1061 c-3 -4 6 -6 19 -3 14 2 25 6 25 8 0 8 -39 4 -44 -5z"/>
<path d="M533 1045 c0 -8 4 -12 9 -9 5 3 6 10 3 15 -9 13 -12 11 -12 -6z"/>
<path d="M4470 1051 c0 -7 -5 -9 -12 -5 -7 5 -8 3 -3 -5 5 -9 10 -10 18 -2 6
6 8 14 4 18 -4 3 -7 1 -7 -6z"/>
<path d="M690 1030 c6 -11 13 -20 16 -20 2 0 0 9 -6 20 -6 11 -13 20 -16 20
-2 0 0 -9 6 -20z"/>
<path d="M746 1042 c-3 -5 1 -9 9 -9 8 0 12 4 9 9 -3 4 -7 8 -9 8 -2 0 -6 -4
-9 -8z"/>
<path d="M815 1041 c-3 -5 -2 -12 3 -15 5 -3 9 1 9 9 0 17 -3 19 -12 6z"/>
<path d="M845 1039 c-4 -6 -5 -12 -2 -15 2 -3 7 2 10 11 7 17 1 20 -8 4z"/>
<path d="M1056 1033 c-6 -14 -5 -15 5 -6 7 7 10 15 7 18 -3 3 -9 -2 -12 -12z"/>
<path d="M3510 1030 c-9 -16 -8 -18 5 -14 8 3 13 10 10 14 -3 5 1 11 7 13 10
4 10 6 1 6 -7 1 -17 -8 -23 -19z"/>
<path d="M4335 1040 c3 -5 8 -10 11 -10 2 0 4 5 4 10 0 6 -5 10 -11 10 -5 0
-7 -4 -4 -10z"/>
<path d="M722 1024 c10 -10 20 -16 22 -13 3 3 -5 11 -17 18 -21 13 -21 12 -5
-5z"/>
<path d="M866 1024 c-5 -14 -4 -15 9 -4 17 14 19 20 6 20 -5 0 -12 -7 -15 -16z"/>
<path d="M1107 1026 c-4 -10 -1 -13 8 -9 8 3 12 9 9 14 -7 12 -11 11 -17 -5z"/>
<path d="M1234 1024 c1 -8 4 -15 7 -16 2 -2 3 -1 2 1 -2 2 2 9 7 16 7 8 5 12
-4 12 -8 0 -13 -6 -12 -13z"/>
<path d="M1306 1023 c-6 -14 -5 -15 5 -6 7 7 10 15 7 18 -3 3 -9 -2 -12 -12z"/>
<path d="M1385 1027 c-15 -12 -16 -15 -4 -22 8 -5 10 -4 6 0 -4 5 3 15 15 22
13 7 18 12 12 13 -5 0 -18 -6 -29 -13z"/>
<path d="M1433 1025 c0 -8 4 -15 9 -15 4 0 8 4 8 9 0 6 -4 12 -8 15 -5 3 -9
-1 -9 -9z"/>
<path d="M1546 1023 c-6 -14 -5 -15 5 -6 7 7 10 15 7 18 -3 3 -9 -2 -12 -12z"/>
<path d="M1975 1030 c-3 -5 -13 -7 -23 -4 -14 5 -14 4 -3 -4 15 -11 41 -5 41
9 0 12 -7 11 -15 -1z"/>
<path d="M775 1020 c-3 -5 -1 -10 4 -10 6 0 11 5 11 10 0 6 -2 10 -4 10 -3 0
-8 -4 -11 -10z"/>
<path d="M1735 1020 c6 -10 4 -12 -11 -6 -15 6 -17 5 -6 -5 9 -9 15 -10 23 -2
8 8 7 13 -2 18 -8 6 -10 4 -4 -5z"/>
<path d="M2036 1017 c3 -10 9 -15 12 -12 3 3 0 11 -7 18 -10 9 -11 8 -5 -6z"/>
<path d="M2095 1020 c-3 -5 -1 -10 4 -10 6 0 11 5 11 10 0 6 -2 10 -4 10 -3 0
-8 -4 -11 -10z"/>
<path d="M2184 1018 c-4 -7 -4 -10 1 -6 4 4 14 0 22 -10 13 -15 13 -15 3 6
-12 25 -16 27 -26 10z"/>
<path d="M2273 1016 c-3 -6 -3 -8 2 -4 4 4 13 0 20 -9 9 -13 14 -13 20 -3 6 9
4 11 -5 5 -9 -6 -12 -4 -8 7 7 17 -19 21 -29 4z"/>
<path d="M2376 1018 c3 -5 10 -6 15 -3 13 9 11 12 -6 12 -8 0 -12 -4 -9 -9z"/>
<path d="M4479 1013 c-13 -16 -12 -17 4 -4 9 7 17 15 17 17 0 8 -8 3 -21 -13z"/>
<path d="M1833 1005 c0 -8 4 -12 9 -9 5 3 6 10 3 15 -9 13 -12 11 -12 -6z"/>
<path d="M2124 1005 c-10 -8 -14 -15 -8 -15 6 0 17 7 24 15 16 19 9 19 -16 0z"/>
<path d="M2540 1011 c0 -6 4 -13 10 -16 6 -3 7 1 4 9 -7 18 -14 21 -14 7z"/>
<path d="M2669 1003 c-13 -17 -13 -17 6 -3 11 8 22 16 24 17 2 2 0 3 -6 3 -6
0 -17 -8 -24 -17z"/>
<path d="M2821 1004 c0 -11 3 -14 6 -6 3 7 2 16 -1 19 -3 4 -6 -2 -5 -13z"/>
<path d="M2967 1006 c-5 -12 -3 -15 5 -10 8 5 9 1 4 -12 -5 -14 -4 -16 4 -7 8
7 9 17 3 28 -9 16 -10 16 -16 1z"/>
<path d="M3101 1004 c0 -11 3 -14 6 -6 3 7 2 16 -1 19 -3 4 -6 -2 -5 -13z"/>
<path d="M3295 1009 c-4 -5 -4 -13 -1 -16 3 -4 6 0 6 8 0 11 2 11 10 -1 6 -9
10 -10 10 -3 0 17 -17 25 -25 12z"/>
<path d="M3359 1018 c-6 -20 -6 -39 0 -42 4 -3 7 6 7 20 0 20 -4 32 -7 22z"/>
<path d="M896 998 c3 -5 10 -6 15 -3 13 9 11 12 -6 12 -8 0 -12 -4 -9 -9z"/>
<path d="M947 999 c7 -7 15 -10 18 -7 3 3 -2 9 -12 12 -14 6 -15 5 -6 -5z"/>
<path d="M1036 998 c3 -5 10 -6 15 -3 13 9 11 12 -6 12 -8 0 -12 -4 -9 -9z"/>
<path d="M1146 998 c3 -5 10 -6 15 -3 13 9 11 12 -6 12 -8 0 -12 -4 -9 -9z"/>
<path d="M2235 1000 c-3 -6 1 -7 9 -4 18 7 21 14 7 14 -6 0 -13 -4 -16 -10z"/>
<path d="M2355 1000 c3 -5 8 -10 11 -10 2 0 4 5 4 10 0 6 -5 10 -11 10 -5 0
-7 -4 -4 -10z"/>
<path d="M2577 995 c-4 -8 -2 -17 4 -20 5 -4 8 -1 7 7 -2 7 3 12 10 10 8 -1
11 2 7 8 -9 14 -22 12 -28 -5z"/>
<path d="M2920 1006 c0 -2 7 -7 16 -10 8 -3 12 -2 9 4 -6 10 -25 14 -25 6z"/>
<path d="M3230 990 c-9 -6 -10 -10 -3 -10 6 0 15 5 18 10 8 12 4 12 -15 0z"/>
<path d="M1576 973 c-6 -14 -5 -15 5 -6 7 7 10 15 7 18 -3 3 -9 -2 -12 -12z"/>
<path d="M1715 980 c3 -5 8 -10 11 -10 2 0 4 5 4 10 0 6 -5 10 -11 10 -5 0 -7
-4 -4 -10z"/>
<path d="M1855 980 c-3 -5 -1 -10 4 -10 6 0 11 5 11 10 0 6 -2 10 -4 10 -3 0
-8 -4 -11 -10z"/>
<path d="M2495 980 c3 -5 8 -10 11 -10 2 0 4 5 4 10 0 6 -5 10 -11 10 -5 0 -7
-4 -4 -10z"/>
<path d="M2730 979 c0 -5 5 -7 10 -4 6 3 10 8 10 11 0 2 -4 4 -10 4 -5 0 -10
-5 -10 -11z"/>
<path d="M3180 986 c0 -2 8 -10 18 -17 15 -13 16 -12 3 4 -13 16 -21 21 -21
13z"/>
<path d="M3015 960 c-3 -5 -1 -10 4 -10 6 0 11 5 11 10 0 6 -2 10 -4 10 -3 0
-8 -4 -11 -10z"/>
<path d="M3133 955 c0 -8 4 -12 9 -9 5 3 6 10 3 15 -9 13 -12 11 -12 -6z"/>
</g>
</svg>
