<?xml version="1.0" standalone="no"?>
<!DOCTYPE svg PUBLIC "-//W3C//DTD SVG 20010904//EN"
 "http://www.w3.org/TR/2001/REC-SVG-20010904/DTD/svg10.dtd">
<svg version="1.0" xmlns="http://www.w3.org/2000/svg"
 width="700.000000pt" height="700.000000pt" viewBox="0 0 700.000000 700.000000"
 preserveAspectRatio="xMidYMid meet">
<metadata>
Created by potrace 1.14, written by Peter Selinger 2001-2017
</metadata>
<g transform="translate(0.000000,700.000000) scale(0.100000,-0.100000)"
fill="#000000" stroke="none">
<path d="M1727 6183 c-1 -1 -80 -3 -174 -4 -95 -2 -173 -6 -173 -10 0 -5 -9
-6 -20 -4 -11 2 -20 0 -20 -6 0 -5 -6 -9 -14 -9 -22 0 -89 -39 -149 -85 -99
-78 -170 -217 -171 -337 0 -16 -3 -28 -7 -28 -4 0 -4 -12 -1 -27 9 -36 8 -176
-2 -191 -4 -7 -3 -12 3 -12 6 0 6 -11 1 -30 -5 -17 -5 -30 0 -30 9 0 4 -46 -7
-63 -3 -6 -1 -7 5 -3 9 5 9 0 2 -18 -5 -14 -6 -28 -1 -30 9 -6 8 -37 -3 -54
-4 -6 -3 -12 3 -12 6 0 6 -11 1 -30 -5 -17 -5 -30 0 -30 5 0 7 -10 4 -22 -3
-13 -5 -39 -4 -58 6 -137 4 -318 -3 -334 -6 -13 -6 -16 2 -12 8 5 8 0 1 -18
-5 -15 -5 -28 0 -31 9 -5 4 -50 -7 -68 -3 -6 -1 -7 5 -3 9 5 9 0 2 -18 -5 -14
-6 -28 -1 -30 9 -6 8 -37 -3 -54 -4 -6 -3 -12 3 -12 6 0 6 -11 1 -30 -5 -17
-5 -30 0 -30 9 0 4 -46 -7 -63 -3 -6 -1 -7 5 -3 9 5 9 0 2 -18 -5 -14 -6 -28
-1 -30 9 -6 8 -37 -3 -54 -4 -6 -3 -12 3 -12 6 0 6 -11 1 -30 -5 -17 -5 -30 0
-30 5 0 7 -10 4 -22 -3 -13 -5 -39 -4 -58 6 -133 4 -429 -2 -448 -5 -15 -4
-21 2 -17 7 4 7 -2 0 -19 -5 -14 -6 -28 -1 -30 9 -6 8 -37 -3 -54 -4 -6 -3
-12 3 -12 6 0 6 -11 1 -30 -5 -17 -5 -30 0 -30 9 0 4 -46 -7 -63 -3 -6 -1 -7
5 -3 9 5 9 0 2 -18 -5 -14 -6 -28 -1 -30 9 -6 8 -37 -3 -54 -4 -6 -3 -12 3
-12 6 0 6 -11 1 -30 -5 -17 -5 -30 0 -30 5 0 7 -10 4 -22 -7 -29 -6 -97 2
-109 3 -5 0 -9 -6 -9 -6 0 -8 -5 -3 -12 11 -19 12 -37 2 -43 -4 -3 -4 -18 2
-33 6 -15 10 -29 9 -32 -2 -3 -6 -15 -11 -28 -6 -15 -5 -21 1 -17 7 4 7 -2 0
-19 -5 -14 -6 -28 -1 -30 9 -6 8 -37 -3 -54 -4 -6 -3 -12 1 -12 5 0 9 -9 9
-20 0 -11 -4 -20 -9 -20 -4 0 -5 -6 0 -12 11 -19 12 -37 2 -43 -4 -3 -4 -18 2
-33 6 -15 10 -29 9 -32 -2 -3 -6 -15 -11 -28 -6 -15 -5 -21 1 -17 7 4 7 -2 1
-18 -6 -14 -7 -28 -3 -31 9 -9 8 -106 -1 -106 -5 0 -5 -6 0 -12 11 -19 12 -37
2 -43 -4 -3 -4 -18 2 -33 6 -15 10 -29 9 -32 -2 -3 -6 -15 -11 -28 -6 -15 -5
-21 1 -17 7 4 7 -2 0 -19 -5 -14 -6 -28 -1 -30 9 -6 8 -37 -3 -54 -4 -6 -3
-12 1 -12 5 0 9 -9 9 -20 0 -11 -4 -20 -9 -20 -4 0 -5 -6 0 -12 11 -19 12 -37
2 -43 -4 -3 -4 -16 0 -28 11 -28 11 -36 0 -65 -6 -15 -5 -21 1 -17 7 4 7 -2 0
-19 -5 -14 -6 -27 -2 -30 9 -6 7 -171 -3 -187 -5 -8 -4 -10 3 -5 9 5 9 0 2
-18 -5 -14 -6 -28 -1 -30 9 -6 8 -37 -3 -54 -4 -6 -3 -12 3 -12 6 0 6 -11 1
-30 -5 -17 -5 -30 0 -30 9 0 4 -46 -7 -63 -3 -6 -1 -7 5 -3 9 5 9 0 2 -18 -5
-14 -6 -28 -1 -30 9 -6 8 -37 -3 -54 -4 -6 -3 -12 3 -12 6 0 6 -11 1 -30 -5
-16 -5 -30 -1 -30 3 0 6 -16 6 -35 0 -19 -4 -35 -10 -35 -6 0 -5 -3 1 -8 12
-8 24 -50 27 -94 1 -16 6 -28 11 -28 4 0 5 -7 2 -16 -3 -8 -2 -12 4 -9 9 6 14
-8 11 -27 0 -5 3 -8 8 -8 11 0 56 -71 53 -83 -2 -5 1 -6 6 -3 9 5 57 -42 57
-56 0 -3 4 -10 9 -15 5 -5 6 -2 1 6 -5 9 -3 12 6 9 8 -3 13 -11 11 -17 -1 -7
2 -10 7 -6 6 3 19 -3 31 -15 11 -11 23 -19 27 -18 5 1 25 -4 45 -12 31 -11 35
-16 25 -29 -10 -12 -9 -13 10 -3 30 16 38 15 23 -3 -11 -13 -10 -14 4 -9 9 3
16 11 16 17 0 5 10 2 22 -9 12 -10 18 -13 14 -6 -4 7 -1 12 8 12 9 0 16 -4 16
-10 0 -5 5 -10 11 -10 5 0 8 4 5 8 -2 4 4 8 15 8 15 0 18 -5 13 -21 -6 -17 -4
-16 14 5 19 23 32 17 15 -6 -5 -5 0 -1 10 9 16 18 21 16 18 -8 -1 -5 5 -2 12
8 17 20 28 22 21 3 -3 -8 -1 -17 5 -21 6 -3 9 0 5 8 -3 8 -1 18 5 22 7 4 11
-3 12 -17 l0 -23 9 23 c10 22 30 31 30 11 0 -5 -5 -7 -12 -3 -7 5 -8 3 -3 -6
7 -11 10 -10 19 1 14 18 89 17 111 -1 13 -11 14 -10 9 4 -3 9 -1 16 5 16 6 0
11 -4 11 -10 0 -5 5 -10 11 -10 5 0 8 4 5 8 -2 4 4 8 15 8 21 0 26 -12 7 -19
-7 -3 -3 -4 8 -4 14 1 20 6 17 14 -3 7 0 13 6 13 6 0 11 -4 11 -10 0 -5 5 -10
11 -10 5 0 8 3 6 8 -3 4 6 8 19 8 28 2 33 -12 7 -19 -17 -4 -17 -5 0 -6 10 0
20 6 23 14 7 17 25 10 20 -8 -1 -7 -1 -9 1 -4 3 4 9 5 14 2 5 -4 6 1 3 9 -3 9
-1 16 5 16 6 0 12 -4 12 -10 1 -5 2 -14 3 -19 0 -5 4 -13 8 -17 4 -3 6 3 3 15
-2 11 -1 21 3 22 4 0 19 2 35 4 15 2 25 0 22 -5 -3 -4 2 -11 10 -14 9 -3 18 1
21 9 7 17 25 10 20 -8 -1 -7 -1 -9 1 -4 3 4 9 5 14 2 5 -4 6 1 3 9 -3 9 -1 16
5 16 10 0 15 -14 12 -33 -1 -5 3 -6 9 -2 6 3 8 11 5 16 -4 5 -3 9 2 10 42 5
62 5 58 -1 -3 -4 4 -10 14 -13 14 -3 18 -1 14 9 -3 8 0 14 6 14 6 0 11 -4 11
-10 0 -5 5 -10 11 -10 5 0 8 4 5 8 -2 4 4 8 15 8 21 0 26 -12 7 -19 -7 -3 -3
-4 8 -4 14 1 20 6 17 14 -3 7 0 13 6 13 6 0 11 -4 11 -10 0 -5 5 -10 11 -10 5
0 8 3 6 8 -3 4 24 7 59 7 38 0 63 -4 60 -10 -1 -5 -10 -9 -20 -7 -9 2 -16 -1
-16 -7 0 -15 31 -6 45 12 13 17 26 13 21 -6 -2 -7 -1 -9 1 -4 3 4 9 5 14 2 5
-4 6 1 3 9 -3 9 -1 16 5 16 6 0 11 -6 11 -12 0 -9 4 -8 10 2 8 12 10 10 10
-10 1 -25 1 -25 10 -2 10 22 30 31 30 11 0 -5 -4 -8 -8 -5 -5 3 -9 -2 -9 -11
0 -14 3 -13 16 3 19 22 91 25 116 4 13 -11 14 -10 9 4 -3 9 -1 16 5 16 6 0 11
-4 11 -10 0 -5 5 -10 11 -10 5 0 8 4 5 8 -2 4 4 8 15 8 21 0 26 -12 7 -19 -7
-3 -3 -4 8 -4 14 1 20 6 17 14 -3 7 0 13 6 13 6 0 11 -4 11 -10 0 -5 5 -10 11
-10 5 0 8 3 6 8 -3 4 6 8 19 8 28 2 33 -12 7 -19 -17 -4 -17 -5 0 -6 10 0 20
6 23 14 7 17 25 10 20 -8 -1 -7 -1 -9 1 -4 3 4 9 5 14 2 5 -4 6 1 3 9 -3 9 -1
16 5 16 6 0 12 -4 12 -10 1 -5 2 -14 3 -19 0 -5 4 -13 8 -17 4 -3 6 3 3 15 -2
11 -1 21 3 22 4 0 19 2 35 4 15 2 25 0 22 -5 -3 -4 2 -11 10 -14 9 -3 18 1 21
9 7 17 25 10 20 -8 -1 -7 -1 -9 1 -4 3 4 9 5 14 2 5 -4 6 1 3 9 -3 9 -1 16 5
16 10 0 15 -14 12 -33 -1 -5 3 -6 9 -2 6 3 8 11 5 16 -4 5 -3 9 2 10 42 5 62
5 58 -1 -3 -4 4 -10 14 -13 14 -3 18 -1 14 9 -3 8 0 14 6 14 6 0 11 -4 11 -10
0 -5 5 -10 11 -10 5 0 8 4 5 8 -2 4 4 8 15 8 21 0 25 -12 7 -19 -10 -4 -10 -6
0 -6 7 -1 15 6 18 14 7 18 26 20 23 3 -3 -25 1 -38 12 -38 8 0 8 5 -1 15 -9
11 -9 15 -1 15 7 0 10 3 8 8 -3 4 24 7 59 7 35 1 64 -2 64 -5 0 -7 -19 -10
-60 -11 -20 -1 -22 -2 -7 -10 11 -6 24 -6 36 0 10 6 21 8 24 4 4 -3 9 2 13 11
3 9 10 13 15 10 5 -3 7 -11 3 -17 -3 -7 0 -5 8 3 7 9 30 16 51 16 24 1 33 -2
25 -7 -10 -7 -9 -9 5 -9 9 0 17 4 17 8 0 12 89 6 105 -8 13 -11 14 -10 9 4 -3
9 -1 16 5 16 6 0 11 -4 11 -10 0 -5 5 -10 11 -10 5 0 8 4 5 8 -2 4 4 8 15 8
21 0 26 -12 6 -19 -6 -3 -2 -4 9 -4 14 1 20 6 17 14 -3 7 0 13 6 13 6 0 11 -4
11 -10 0 -5 5 -10 11 -10 5 0 8 3 6 8 -3 4 24 7 59 7 38 0 63 -4 60 -10 -1 -5
-10 -9 -20 -7 -9 2 -16 -1 -16 -7 0 -15 31 -6 45 12 13 17 26 13 21 -6 -2 -7
-1 -9 1 -4 3 4 9 5 14 2 5 -4 6 1 3 9 -3 9 -1 16 5 16 6 0 11 -6 11 -12 0 -9
4 -8 10 2 8 12 10 10 10 -10 1 -25 1 -25 10 -2 10 22 30 31 30 11 0 -5 -4 -8
-8 -5 -5 3 -9 -2 -9 -11 0 -14 3 -13 16 3 14 16 30 19 109 19 57 0 91 -4 88
-10 -1 -5 -10 -9 -20 -7 -9 2 -16 -1 -16 -7 0 -15 31 -6 45 12 13 17 26 13 21
-6 -2 -7 -1 -9 1 -4 3 4 9 5 14 2 5 -4 6 1 3 9 -3 9 -1 16 5 16 6 0 11 -6 11
-12 0 -9 4 -8 10 2 8 12 10 10 10 -10 1 -25 1 -25 10 -2 10 22 30 31 30 11 0
-5 -4 -8 -8 -5 -5 3 -9 -2 -9 -11 0 -14 3 -13 16 3 14 16 30 19 109 19 57 0
91 -4 88 -10 -1 -5 -10 -9 -20 -7 -9 2 -16 -1 -16 -7 0 -15 31 -6 45 12 13 17
26 13 21 -6 -2 -7 -1 -9 1 -4 3 4 9 5 14 2 5 -4 6 1 3 9 -3 9 -1 16 5 16 6 0
11 -6 11 -12 0 -9 4 -8 10 2 8 12 10 10 10 -10 1 -25 1 -25 10 -3 10 23 30 32
30 12 0 -5 -4 -8 -8 -5 -5 3 -9 -2 -9 -11 0 -14 3 -13 16 3 14 16 30 19 109
19 57 0 91 -4 88 -10 -1 -5 -10 -9 -20 -7 -9 2 -16 -1 -16 -7 0 -15 31 -6 45
12 13 17 26 13 21 -6 -2 -7 -1 -9 1 -4 3 4 9 5 14 2 5 -4 6 1 3 9 -3 9 -1 16
5 16 6 0 11 -6 11 -12 0 -9 4 -8 10 2 8 12 10 10 10 -10 1 -25 1 -25 10 -3 10
23 30 32 30 12 0 -5 -4 -8 -8 -5 -5 3 -9 -2 -9 -11 0 -14 3 -13 16 3 14 16 30
19 109 19 78 0 91 -2 87 -15 -3 -9 1 -7 10 4 14 18 19 15 16 -9 -1 -5 5 -2 12
8 17 21 31 23 24 2 -4 -8 -1 -17 5 -21 6 -4 8 -3 5 2 -3 6 -2 16 4 24 7 12 9
9 9 -10 1 -25 1 -25 10 -2 10 22 30 31 30 11 0 -5 -4 -8 -8 -5 -5 3 -9 -2 -9
-11 0 -14 3 -13 16 3 14 16 30 19 108 19 51 -1 95 -4 99 -8 4 -4 14 -7 23 -7
14 0 14 2 1 11 -12 8 -10 9 10 7 14 -2 28 -7 32 -13 4 -6 8 -2 8 8 0 20 26 23
33 5 3 -8 6 -6 6 5 1 20 12 22 30 4 11 -10 13 -9 8 6 -6 15 -3 17 13 12 12 -4
19 -2 18 3 -2 6 0 9 3 8 4 0 16 8 28 18 12 11 21 15 21 11 0 -5 10 2 22 15 13
14 23 19 26 12 6 -20 20 -13 15 7 -6 25 11 35 27 16 7 -8 17 -15 23 -15 6 0 3
6 -7 13 -15 11 -17 17 -7 35 6 12 16 22 22 22 6 0 7 6 3 13 -6 9 -5 9 8 0 8
-7 18 -9 22 -5 7 7 11 8 39 11 9 1 8 4 -2 10 -8 5 -11 16 -8 26 4 9 11 13 17
10 5 -3 7 0 4 9 -5 12 -8 12 -23 -2 -10 -9 -16 -22 -14 -28 2 -6 -3 -17 -12
-24 -12 -10 -15 -10 -15 4 0 9 5 16 11 16 5 0 8 4 5 9 -3 5 1 14 9 21 8 7 15
19 15 27 0 9 6 13 15 10 11 -5 12 -1 5 18 -11 28 -10 28 24 15 17 -6 27 -6 32
2 4 6 3 9 -2 6 -5 -3 -19 -2 -31 3 -16 6 -21 13 -16 25 6 15 7 15 20 -2 7 -10
13 -13 13 -7 0 6 -7 16 -16 24 -14 11 -14 13 0 21 19 11 21 35 4 41 -7 2 -10
8 -6 12 4 4 14 2 22 -4 11 -9 16 -9 22 0 4 8 3 9 -5 5 -6 -4 -14 0 -17 8 -3 9
-9 14 -13 11 -4 -2 -8 2 -8 10 0 17 9 19 23 5 6 -6 15 -5 24 1 13 9 12 10 -2
6 -9 -3 -22 1 -28 9 -7 8 -9 14 -4 14 5 0 2 5 -6 11 -12 9 -11 10 6 6 13 -3
21 1 21 10 0 8 -6 12 -13 9 -8 -3 -16 -1 -19 4 -4 6 1 10 10 10 15 0 15 1 0
16 -13 13 -14 19 -4 25 7 4 16 6 19 4 3 -2 7 6 7 18 2 20 1 20 -8 4 -6 -9 -15
-15 -21 -11 -6 4 -5 10 3 15 12 8 12 11 -1 18 -8 6 -11 13 -7 17 3 4 13 1 21
-5 11 -9 16 -9 22 0 4 8 3 9 -5 5 -6 -4 -14 0 -17 8 -3 9 -9 14 -13 11 -4 -2
-8 2 -8 10 0 8 4 15 9 15 4 0 8 5 8 11 0 5 -4 8 -8 5 -5 -3 -9 1 -9 9 0 17 13
20 22 5 8 -13 25 -13 25 1 0 5 -5 7 -10 4 -6 -3 -13 1 -16 9 -3 9 -10 13 -15
10 -5 -3 -8 0 -7 8 4 15 28 43 39 43 4 0 11 4 16 9 5 5 3 6 -4 2 -7 -4 -13 -2
-13 5 0 6 -9 1 -21 -12 -19 -23 -20 -23 -10 -2 13 26 14 36 3 29 -4 -2 -8 4
-8 15 0 10 8 22 18 25 19 6 25 24 8 24 -5 0 -10 -4 -10 -10 0 -5 -4 -10 -8
-10 -5 0 -9 7 -9 15 0 13 9 19 27 17 3 0 7 9 7 21 2 20 1 20 -8 4 -6 -9 -15
-15 -21 -11 -6 4 -5 10 3 15 12 8 12 11 -1 18 -8 6 -11 13 -7 17 3 4 13 1 21
-5 11 -9 16 -9 22 0 4 8 3 9 -5 5 -6 -4 -14 0 -17 8 -3 9 -9 14 -13 11 -4 -2
-8 2 -8 10 0 8 4 15 9 15 4 0 8 5 8 11 0 5 -3 8 -7 6 -5 -3 -8 10 -8 29 0 19
3 34 8 34 5 0 7 -7 3 -15 -4 -12 -2 -13 13 -6 10 6 22 7 26 3 5 -4 5 -1 1 6
-4 7 -10 10 -14 8 -11 -7 -37 17 -37 34 0 17 35 41 49 33 5 -4 6 -1 2 6 -4 6
-11 9 -16 6 -4 -3 -14 2 -21 11 -15 18 -20 74 -6 74 5 0 7 -7 3 -15 -4 -12 -2
-13 13 -6 10 6 22 7 26 3 5 -4 5 -1 1 6 -4 7 -10 10 -14 8 -11 -7 -37 17 -37
34 0 17 35 41 49 33 5 -4 6 -1 2 6 -4 6 -11 9 -15 6 -5 -2 -16 4 -25 14 -11
13 -14 21 -7 26 6 3 11 11 11 16 0 6 -4 8 -9 5 -5 -3 -8 2 -7 12 0 9 9 22 20
28 17 10 17 12 2 17 -11 5 -15 3 -10 -5 4 -6 3 -8 -4 -5 -13 9 -10 30 7 51 12
14 12 16 0 11 -10 -4 -14 3 -14 25 -1 32 4 37 22 19 8 -8 13 -7 18 2 5 8 4 10
-4 5 -6 -4 -14 0 -17 8 -3 9 -9 14 -13 11 -4 -2 -8 2 -8 10 0 17 9 19 23 5 6
-6 15 -5 24 1 13 9 12 10 -2 6 -21 -7 -37 12 -42 52 -3 32 7 42 18 16 3 -8 0
-15 -6 -15 -6 0 -9 -3 -5 -6 13 -13 27 7 17 26 -5 10 -7 20 -2 23 4 2 2 2 -5
1 -7 -2 -15 1 -18 6 -5 9 6 14 25 12 3 0 7 9 7 21 2 20 1 20 -8 4 -6 -9 -15
-15 -21 -11 -6 4 -5 10 3 15 12 8 12 11 -1 18 -8 6 -11 13 -7 17 3 4 13 1 21
-5 11 -9 16 -9 22 0 4 8 3 9 -5 5 -6 -4 -14 0 -17 8 -3 9 -9 14 -13 11 -4 -2
-8 2 -8 10 0 8 4 15 9 15 4 0 8 5 8 11 0 5 -5 7 -11 3 -8 -5 -8 -1 0 14 13 25
14 35 2 28 -5 -3 -8 2 -7 12 0 9 9 22 20 28 17 10 17 12 2 17 -11 5 -15 3 -10
-5 4 -6 3 -8 -4 -5 -13 9 -10 30 7 51 12 14 12 16 0 11 -11 -4 -14 5 -14 35 0
22 4 40 8 40 5 0 7 -7 3 -15 -4 -12 -2 -13 13 -6 10 6 22 7 26 3 5 -4 5 -1 1
6 -4 7 -10 10 -14 8 -11 -7 -37 17 -37 34 0 17 35 41 49 33 5 -4 6 -1 2 6 -4
6 -11 9 -16 6 -4 -3 -14 2 -21 11 -15 18 -20 74 -6 74 5 0 7 -7 3 -15 -4 -12
-2 -13 13 -6 10 6 22 7 26 3 5 -4 5 -1 1 6 -4 7 -10 10 -14 8 -11 -7 -37 17
-37 34 0 17 35 41 49 33 5 -4 6 -1 2 6 -4 6 -11 9 -16 6 -4 -3 -14 2 -21 11
-15 18 -20 74 -6 74 5 0 7 -7 3 -15 -4 -12 -2 -13 13 -6 10 6 22 7 26 3 5 -4
5 -1 1 6 -4 7 -10 10 -14 8 -11 -7 -37 17 -37 34 0 17 35 41 49 33 5 -4 6 -1
2 6 -4 6 -11 9 -16 6 -4 -3 -14 2 -21 11 -15 18 -20 74 -6 74 5 0 7 -7 3 -15
-4 -12 -2 -13 13 -6 10 6 22 7 26 3 5 -4 5 -1 1 6 -4 7 -10 10 -14 8 -11 -7
-37 17 -37 34 0 17 35 41 49 33 5 -4 6 -1 2 6 -4 6 -11 9 -15 6 -5 -2 -16 4
-25 14 -11 13 -14 21 -7 26 6 3 11 11 11 16 0 6 -4 8 -9 5 -5 -3 -8 2 -7 12 0
9 9 22 20 28 17 10 17 12 2 17 -11 5 -15 3 -10 -5 4 -6 3 -8 -4 -5 -13 9 -10
30 7 51 12 14 12 16 0 11 -10 -4 -14 3 -14 25 -1 32 4 37 22 19 8 -8 13 -7 18
2 5 8 4 10 -4 5 -6 -4 -14 0 -17 8 -3 9 -9 14 -13 11 -4 -2 -8 2 -8 10 0 17 9
19 23 5 6 -6 15 -5 24 1 13 9 12 10 -2 6 -21 -7 -37 12 -42 52 -3 32 7 42 18
16 3 -8 0 -15 -6 -15 -6 0 -9 -3 -5 -6 13 -13 27 7 17 26 -5 10 -7 20 -2 23 4
2 2 2 -5 1 -7 -2 -15 1 -18 6 -5 9 6 14 25 12 3 0 7 9 7 21 2 20 1 20 -8 4 -6
-9 -15 -15 -21 -11 -6 4 -5 10 3 15 12 8 12 11 -1 18 -8 6 -11 13 -7 17 3 4
13 1 21 -5 11 -9 16 -9 22 0 4 8 3 9 -5 5 -6 -4 -14 0 -17 8 -3 9 -9 14 -13
11 -4 -2 -8 2 -8 10 0 8 4 15 9 15 4 0 8 5 8 11 0 5 -5 7 -11 3 -8 -5 -8 -1 0
14 13 25 14 35 2 28 -5 -3 -8 2 -7 12 0 9 9 22 20 28 17 10 17 12 2 17 -11 5
-15 3 -10 -5 4 -6 3 -8 -4 -5 -13 9 -10 30 7 51 12 14 12 16 0 11 -11 -4 -14
5 -14 35 0 22 4 40 8 40 5 0 7 -7 3 -15 -4 -12 -2 -13 13 -6 10 6 22 7 26 3 5
-4 5 -1 1 6 -4 7 -10 10 -14 8 -11 -7 -37 17 -37 34 0 17 35 41 49 33 5 -4 6
-1 2 6 -4 6 -11 9 -16 6 -4 -3 -14 2 -21 11 -15 18 -20 74 -6 74 5 0 7 -7 3
-15 -4 -12 -2 -13 13 -6 10 6 22 7 26 3 5 -4 5 -1 1 6 -4 7 -10 10 -14 8 -11
-7 -37 17 -37 34 0 17 35 41 49 33 5 -4 6 -1 2 6 -4 6 -11 9 -16 6 -4 -3 -14
2 -21 11 -15 18 -20 74 -6 74 5 0 7 -7 3 -15 -4 -12 -2 -13 13 -6 10 6 22 7
26 3 5 -4 5 -1 1 6 -4 7 -10 10 -14 8 -11 -7 -37 17 -37 34 0 17 35 41 49 33
5 -4 6 -1 2 6 -4 6 -11 9 -16 6 -4 -3 -14 2 -21 11 -15 18 -20 74 -6 74 5 0 7
-7 3 -15 -4 -12 -2 -13 13 -6 10 6 22 7 26 3 5 -4 5 -1 1 6 -4 7 -10 10 -14 8
-11 -7 -37 17 -37 34 0 17 35 41 49 33 5 -4 6 -1 2 6 -4 6 -11 9 -15 6 -5 -2
-16 4 -25 14 -11 13 -14 21 -7 26 6 3 11 11 11 16 0 6 -4 8 -9 5 -5 -3 -8 2
-7 12 0 9 9 22 20 28 17 10 17 12 2 17 -11 5 -15 3 -10 -5 4 -6 3 -8 -4 -5
-13 9 -10 30 7 51 12 14 12 16 0 11 -10 -4 -14 3 -14 25 -1 32 4 37 22 19 8
-8 13 -7 18 2 5 8 4 10 -4 5 -6 -4 -14 0 -17 8 -3 9 -9 14 -13 11 -4 -2 -8 2
-8 10 0 17 9 19 23 5 6 -6 15 -5 24 1 13 9 12 10 -2 6 -21 -7 -37 12 -42 52
-3 32 7 42 18 16 3 -8 0 -15 -6 -15 -6 0 -9 -3 -5 -6 13 -13 27 7 17 26 -5 10
-7 20 -2 23 4 2 2 2 -5 1 -7 -2 -15 1 -18 6 -5 9 6 14 25 12 3 0 7 9 7 21 2
20 1 20 -8 4 -6 -9 -15 -15 -21 -11 -6 4 -5 10 3 15 12 8 12 11 -1 18 -8 6
-11 13 -7 17 3 4 13 1 21 -5 11 -9 16 -9 22 0 4 8 3 9 -5 5 -6 -4 -14 0 -17 8
-3 9 -9 14 -13 11 -4 -2 -8 2 -8 10 0 8 4 15 9 15 4 0 8 5 8 11 0 5 -5 7 -11
3 -8 -5 -8 -1 0 14 13 25 14 35 2 28 -5 -3 -8 2 -7 12 0 9 9 22 20 28 17 10
17 12 2 17 -11 5 -15 3 -10 -5 4 -6 3 -8 -4 -5 -13 9 -10 30 7 51 12 14 12 16
0 11 -11 -4 -14 5 -14 35 0 22 4 40 8 40 5 0 7 -7 3 -15 -4 -12 -2 -13 13 -6
10 6 22 7 26 3 5 -4 5 -1 1 6 -4 7 -10 10 -14 8 -11 -7 -37 17 -37 34 0 17 35
41 49 33 5 -4 6 -1 2 6 -4 6 -11 9 -16 6 -9 -6 -33 21 -36 41 -2 13 32 30 49
26 5 -1 6 2 2 8 -3 6 -9 8 -13 6 -11 -7 -37 17 -38 37 -1 9 5 17 14 17 13 0
12 3 -4 15 -17 13 -17 14 -1 15 9 0 17 4 17 10 0 5 -6 7 -12 5 -8 -3 -14 4
-14 20 -1 14 2 22 8 19 6 -4 2 5 -7 20 -17 25 -16 26 1 26 18 1 18 1 1 11 -9
6 -15 14 -12 20 4 5 2 9 -3 9 -5 0 -9 7 -10 15 -1 8 -3 22 -4 30 -1 8 -6 15
-12 15 -6 0 -4 5 4 10 13 8 12 10 -3 10 -14 0 -17 5 -13 23 3 12 3 16 0 9 -3
-6 -10 -9 -15 -6 -6 3 -5 11 2 20 10 12 9 13 -5 8 -10 -4 -16 -1 -16 9 0 8 -7
18 -16 21 -8 3 -12 11 -8 17 4 8 3 9 -4 5 -10 -6 -38 31 -35 45 1 4 -5 6 -15
5 -9 0 -16 5 -14 12 1 8 -1 11 -6 8 -5 -3 -25 6 -45 19 -20 14 -38 25 -40 25
-3 0 -22 8 -43 17 -22 9 -43 16 -48 15 -4 -2 -13 1 -20 6 -6 5 -103 10 -216
11 -259 3 -3671 7 -3673 4z m-163 -331 c-5 -15 -4 -15 6 1 12 18 40 24 40 7 0
-6 8 -5 20 2 25 16 53 1 55 -30 2 -20 -7 -27 -28 -23 -5 1 -6 -3 -2 -8 3 -6
11 -8 19 -5 7 3 13 -2 13 -11 0 -8 -5 -15 -10 -15 -6 0 -6 -5 0 -12 5 -8 9
-125 8 -273 l-1 -260 -53 -80 c-64 -96 -121 -200 -177 -317 -23 -48 -43 -86
-45 -83 -3 2 -5 -4 -6 -13 -1 -23 -76 -222 -84 -222 -3 0 -6 7 -6 15 0 8 5 15
11 15 6 0 4 5 -4 10 -13 9 -13 11 0 20 11 7 11 10 2 10 -7 0 -10 5 -7 10 4 6
12 8 18 4 7 -3 5 0 -3 8 -8 7 -16 22 -18 33 -2 18 0 17 18 -5 l21 -25 -12 28
c-7 15 -15 27 -18 27 -4 0 -7 18 -6 39 0 31 3 37 13 29 9 -8 11 -7 6 6 -3 9
-9 16 -13 16 -4 0 -7 18 -7 40 1 22 6 40 11 39 6 -1 9 -5 7 -11 -1 -5 3 -6 9
-2 9 5 7 12 -7 23 -10 9 -20 25 -22 36 -3 20 -3 20 11 1 14 -19 52 -33 41 -15
-3 5 -10 7 -15 3 -6 -3 -13 3 -16 15 -3 12 -8 21 -12 21 -4 0 -7 18 -6 39 0
31 3 37 13 29 9 -8 11 -7 6 6 -3 9 -9 16 -13 16 -4 0 -7 24 -6 54 0 30 3 52 6
50 14 -8 18 26 5 39 -18 18 -16 90 2 75 9 -8 11 -7 6 6 -3 9 -9 16 -13 16 -16
0 -6 82 12 94 9 7 17 17 17 22 0 4 -5 3 -12 -4 -18 -18 -26 -15 -24 11 0 12 8
25 16 29 12 5 12 7 -2 7 -10 1 -18 6 -18 12 0 5 5 7 12 3 7 -5 8 -3 3 7 -5 7
-10 22 -10 31 -1 14 1 15 12 6 11 -8 12 -7 7 6 -3 9 -9 16 -13 16 -10 0 -8 72
2 88 5 6 4 12 -1 12 -17 0 -7 45 12 56 19 11 19 12 -1 18 -15 5 -20 14 -19 36
0 17 4 30 8 30 5 0 8 5 8 11 0 5 -6 7 -12 3 -9 -5 -9 -2 1 9 7 9 10 17 7 17
-4 0 7 20 25 45 17 24 35 42 39 40 4 -3 13 2 20 10 7 8 16 13 20 10 5 -3 11
-2 13 2 3 5 32 9 65 10 53 1 60 -1 56 -15z m766 5 c0 -4 6 -5 13 0 17 11 61
10 69 -2 5 -6 8 -5 8 3 0 6 8 12 17 12 15 0 15 -2 -2 -14 -10 -7 -26 -11 -36
-9 -9 3 -20 0 -23 -6 -5 -7 0 -9 11 -5 10 3 -6 -8 -35 -26 -32 -18 -61 -29
-70 -25 -9 3 -13 3 -9 -1 10 -11 -13 -34 -34 -34 -13 0 -17 5 -12 18 3 9 3 14
-2 10 -9 -9 -56 42 -49 53 2 4 0 10 -6 14 -6 4 -8 10 -6 14 6 10 166 8 166 -2z
m2284 0 c-5 -8 -2 -7 9 2 19 15 24 2 6 -16 -8 -8 -18 -8 -35 -1 -31 14 -30 23
2 26 18 1 23 -2 18 -11z m152 1 c4 -4 1 -14 -5 -22 -8 -10 -9 -16 -1 -21 6 -4
9 -1 8 7 -2 7 3 12 10 10 10 -2 10 2 2 17 -9 18 -7 20 30 19 22 0 37 -4 34 -9
-3 -5 -10 -6 -16 -3 -7 5 -8 2 -4 -5 6 -9 12 -9 25 3 24 22 36 20 48 -6 8 -19
10 -20 16 -4 4 10 3 15 -3 11 -6 -3 -10 -1 -10 4 0 17 21 13 36 -6 11 -14 13
-15 9 -2 -4 10 0 16 10 16 14 0 19 -10 16 -30 -1 -5 3 -5 9 -2 6 4 9 13 6 21
-3 8 -1 14 5 14 7 0 9 -10 5 -25 -4 -14 -3 -25 1 -25 8 0 10 -237 2 -245 -3
-2 -16 6 -29 18 -30 27 -212 157 -257 183 -18 10 -33 22 -33 26 0 4 -9 8 -19
8 -27 0 -34 15 -20 38 10 15 23 19 65 18 29 0 56 -4 60 -8z m685 -1 c1 -6 1
-16 0 -20 -1 -5 3 -6 9 -2 5 3 10 1 10 -4 0 -6 5 -11 10 -11 6 0 3 11 -6 25
-15 23 -15 25 0 25 11 0 14 -4 10 -12 -6 -10 -4 -10 7 -2 23 17 85 5 128 -25
29 -21 66 -95 56 -112 -4 -5 -2 -9 4 -9 10 0 10 -18 -2 -37 -4 -6 -3 -15 3
-18 8 -5 8 -11 0 -20 -6 -7 -7 -16 -2 -19 10 -6 9 -152 -1 -162 -3 -4 -3 -12
0 -18 12 -18 11 -56 -1 -56 -7 0 -8 -3 -1 -8 14 -9 14 -172 0 -172 -6 0 -6 -3
0 -8 6 -4 11 -38 11 -77 0 -38 -5 -73 -11 -77 -7 -5 -7 -8 0 -8 12 0 14 -204
3 -216 -4 -4 -4 -12 -1 -18 12 -18 11 -56 -1 -56 -7 0 -7 -3 -1 -8 14 -10 17
-65 3 -56 -7 5 -8 2 -2 -7 12 -20 14 -38 3 -45 -5 -3 -6 -10 -3 -16 10 -15 12
-108 2 -102 -4 3 -8 13 -8 23 0 44 -160 397 -237 522 l-34 57 1 358 c0 198 2
368 3 379 1 23 46 34 48 12z m-2290 -204 c-5 -10 -15 -32 -22 -50 -7 -17 -17
-29 -23 -26 -5 3 -6 1 -2 -5 4 -6 -6 -40 -22 -74 -16 -35 -33 -73 -36 -85 -4
-13 -11 -23 -15 -23 -4 0 -8 -6 -8 -13 0 -22 -87 -216 -94 -211 -4 2 -11 -1
-15 -7 -4 -8 -3 -9 4 -5 17 10 15 2 -17 -72 -15 -37 -31 -75 -35 -85 -3 -11
-11 -15 -18 -11 -7 5 -9 2 -6 -7 3 -8 0 -28 -7 -44 -9 -20 -14 -24 -14 -12 -1
9 -5 17 -11 17 -5 0 -10 5 -10 11 0 6 7 8 16 5 9 -3 12 -2 9 5 -4 6 -13 8 -20
5 -18 -6 -49 29 -42 48 4 9 1 13 -6 11 -12 -5 -57 55 -57 75 0 6 -4 8 -10 5
-6 -4 -7 1 -3 11 4 11 2 15 -4 11 -15 -9 -37 19 -29 38 3 9 2 14 -3 10 -12 -7
-41 22 -41 40 0 7 -7 15 -15 19 -8 3 -15 12 -15 21 0 8 -5 15 -11 15 -5 0 -7
5 -4 10 3 6 2 10 -3 10 -5 0 -22 17 -38 37 -15 20 -21 33 -13 29 8 -5 1 4 -16
18 -16 14 -23 23 -14 20 10 -3 20 0 25 7 4 8 3 10 -4 5 -7 -4 -19 -3 -28 2
-30 17 165 120 332 177 108 36 282 79 337 84 13 1 15 -3 8 -16z m800 -23 c6 0
8 4 5 9 -8 12 103 -15 221 -54 160 -53 313 -135 464 -246 88 -65 249 -220 314
-302 l38 -48 1 -878 c1 -484 -1 -878 -4 -876 -8 5 -6 -79 2 -85 4 -3 3 -12 -2
-20 -8 -13 -10 -12 -10 3 0 25 -2 31 -17 45 -7 8 -11 18 -7 23 3 5 -2 16 -10
25 -9 9 -14 20 -11 25 4 5 2 9 -3 9 -16 0 -24 33 -10 42 10 6 8 8 -4 8 -11 0
-18 8 -18 20 0 11 -5 20 -12 20 -6 0 -8 3 -5 7 4 3 0 17 -8 30 -9 13 -13 28
-10 32 3 5 1 11 -4 13 -12 5 -52 99 -45 109 3 5 0 9 -7 9 -8 0 -8 4 1 15 11
13 10 14 -5 8 -15 -5 -17 -3 -12 11 4 9 3 15 -2 12 -5 -3 -18 21 -30 53 -24
67 -25 75 -9 65 7 -4 8 -3 4 5 -4 6 -11 9 -16 6 -5 -3 -14 5 -21 17 -11 20
-10 21 2 11 12 -10 15 -8 15 6 0 11 -6 17 -12 14 -7 -2 -17 5 -24 16 -6 12 -8
21 -4 21 4 0 -1 9 -11 20 -10 11 -13 20 -7 20 7 0 12 5 12 10 0 6 -6 9 -12 8
-7 -2 -12 5 -12 14 1 10 -2 15 -7 12 -5 -3 -9 0 -9 6 0 6 -7 27 -17 48 -9 20
-15 43 -14 50 1 6 -3 12 -9 12 -5 0 -10 9 -10 19 0 11 -6 26 -12 33 -14 14
-37 68 -45 106 -3 12 -10 22 -15 22 -5 0 -6 10 -3 21 5 14 3 19 -3 15 -12 -7
-27 30 -23 59 2 11 -1 17 -5 12 -7 -7 -36 44 -39 68 -1 6 -9 24 -18 41 -9 17
-13 34 -10 38 4 3 1 6 -5 6 -7 0 -12 5 -12 11 0 5 -11 35 -26 66 -14 31 -23
62 -20 70 3 8 2 11 -3 8 -5 -3 -12 -1 -16 5 -3 5 -1 10 4 10 6 0 11 7 11 15 0
8 -5 15 -11 15 -5 0 -7 -4 -4 -10 3 -5 2 -10 -3 -10 -15 0 -21 37 -8 51 7 8 7
10 0 6 -6 -3 -21 12 -33 33 -12 22 -19 40 -15 40 3 0 -1 11 -9 24 -12 18 -13
26 -4 35 9 10 9 12 -3 9 -9 -2 -14 4 -14 14 1 10 -2 16 -6 13 -11 -7 -33 52
-24 66 4 7 3 10 -4 5 -14 -8 -21 15 -11 35 6 12 4 16 -8 15 -9 0 -18 5 -21 13
-3 8 0 11 7 7 6 -4 11 -3 11 1 0 5 -9 14 -21 21 -12 7 -18 16 -15 19 3 3 14 0
23 -8 16 -13 17 -12 4 4 -7 9 -20 17 -28 17 -13 0 -13 3 -3 16 11 12 11 15 0
12 -7 -2 -15 3 -18 11 -3 9 0 11 9 6 8 -4 4 2 -8 14 -27 25 -29 36 -7 27 8 -3
12 -2 9 4 -3 6 -12 10 -20 10 -13 0 -30 44 -26 69 1 8 -2 10 -10 5 -9 -5 -11
-1 -7 14 4 12 1 25 -4 29 -7 4 -8 1 -3 -8 5 -8 6 -12 2 -9 -3 3 -5 8 -4 11 1
3 -4 13 -12 22 -7 10 -10 17 -6 17 4 0 2 7 -5 15 -7 9 -10 18 -7 22 4 3 0 11
-8 17 -8 6 -16 22 -17 36 -2 14 -11 34 -20 44 -14 16 -15 22 -5 35 10 12 9 14
-7 8 -14 -6 -17 -4 -12 8 3 8 2 15 -3 15 -8 0 -22 36 -18 43 1 2 -6 16 -16 31
-13 19 -16 31 -9 38 6 6 9 16 8 22 -2 6 -1 8 1 4 3 -5 9 -8 14 -8z m2049 -30
c0 -5 -5 -10 -11 -10 -5 0 -7 5 -4 10 3 6 8 10 11 10 2 0 4 -4 4 -10z m0 -80
c0 -5 -2 -10 -4 -10 -3 0 -8 5 -11 10 -3 6 -1 10 4 10 6 0 11 -4 11 -10z
m-3840 -375 c0 -8 5 -15 12 -15 6 0 9 -3 6 -6 -3 -3 4 -16 16 -29 32 -36 46
-54 46 -61 0 -4 8 -13 18 -21 10 -9 11 -11 2 -7 -8 4 -3 -5 12 -20 15 -16 25
-33 21 -39 -3 -6 -1 -7 6 -3 6 4 14 0 18 -11 4 -10 15 -27 25 -37 10 -11 18
-25 18 -32 0 -6 7 -15 16 -18 9 -4 14 -9 10 -13 -3 -3 3 -12 14 -20 11 -8 20
-19 20 -24 0 -5 9 -19 20 -31 10 -12 17 -25 14 -30 -3 -5 -1 -7 6 -6 6 2 18
-10 28 -27 9 -16 27 -41 40 -55 12 -14 20 -31 17 -38 -3 -7 -1 -11 4 -7 15 8
52 -51 45 -72 -4 -13 -3 -15 4 -4 12 16 27 -3 16 -21 -4 -6 -3 -8 4 -4 6 3 13
2 16 -3 4 -5 2 -12 -3 -16 -6 -3 -8 -12 -5 -20 4 -8 -1 -18 -10 -21 -9 -3 -13
-10 -10 -15 3 -5 -2 -21 -10 -36 -8 -16 -20 -42 -27 -60 -7 -17 -16 -30 -20
-27 -4 2 -5 -6 -1 -18 4 -16 2 -19 -8 -13 -8 5 -11 4 -6 -3 3 -6 -5 -35 -19
-63 -14 -29 -25 -58 -25 -65 0 -6 -8 -22 -19 -35 -10 -13 -19 -28 -19 -34 -2
-23 -34 -95 -43 -95 -4 0 -6 -7 -3 -15 4 -8 1 -15 -7 -15 -7 0 -9 -3 -6 -6 4
-4 0 -19 -7 -33 -8 -14 -27 -56 -42 -93 -15 -38 -31 -65 -37 -61 -6 3 -7 1 -3
-6 9 -14 -3 -53 -14 -46 -4 3 -7 -2 -6 -12 2 -9 -3 -28 -10 -42 -7 -14 -38
-84 -69 -156 -31 -71 -61 -136 -67 -142 -6 -7 -7 -13 -4 -13 4 0 -1 -17 -12
-37 -11 -21 -26 -54 -35 -73 -14 -32 -15 49 -16 916 l-1 950 23 22 c13 12 27
19 32 15 4 -5 5 -2 0 6 -4 8 -2 17 6 22 20 13 29 11 29 -6z m-845 -25 c3 -5 1
-10 -4 -10 -6 0 -11 5 -11 10 0 6 2 10 4 10 3 0 8 -4 11 -10z m2391 -31 c8
-17 11 -28 6 -25 -6 3 -12 -1 -16 -9 -3 -9 -12 -12 -23 -9 -15 5 -16 4 -3 -5
8 -6 10 -11 4 -11 -17 0 -25 -28 -11 -36 7 -4 9 -4 5 0 -4 5 4 20 17 34 22 23
25 24 40 9 8 -9 15 -19 15 -22 0 -3 7 -19 15 -35 9 -17 12 -30 8 -30 -4 0 -2
-5 5 -12 7 -7 12 -20 12 -30 0 -10 4 -18 8 -18 9 0 39 -80 34 -92 -1 -5 2 -8
6 -8 5 0 14 -12 20 -26 10 -20 10 -24 0 -18 -7 4 -5 -2 5 -14 11 -12 16 -26
11 -33 -4 -7 -3 -10 4 -5 13 8 36 -59 26 -75 -4 -8 -3 -9 4 -5 10 6 27 -14 32
-39 4 -16 20 -57 37 -93 9 -19 16 -40 16 -48 0 -8 4 -14 8 -14 3 0 9 -8 12
-17 3 -10 19 -51 36 -91 17 -41 28 -79 24 -85 -3 -5 -2 -7 4 -4 6 4 15 -5 22
-19 9 -20 9 -24 -1 -18 -7 4 -5 -2 5 -13 9 -11 14 -23 10 -26 -3 -4 -1 -7 5
-7 7 0 12 -7 12 -15 0 -9 7 -27 16 -40 9 -13 12 -30 8 -36 -4 -8 -3 -9 4 -5
12 7 15 -1 15 -37 0 -10 2 -15 5 -12 8 8 43 -76 35 -88 -3 -6 -1 -7 5 -3 11 6
15 -5 11 -30 0 -4 4 -10 9 -13 6 -3 12 -15 14 -26 1 -11 9 -26 16 -33 7 -8 10
-17 7 -22 -3 -5 0 -10 6 -12 6 -2 12 -15 12 -30 1 -14 6 -24 11 -20 5 3 7 -2
3 -11 -4 -10 -2 -17 4 -17 6 0 8 -7 5 -16 -3 -8 -2 -13 3 -10 8 5 27 -31 33
-64 2 -8 7 -18 11 -21 5 -4 10 -18 10 -32 1 -14 5 -23 10 -20 6 4 9 -5 6 -23
0 -4 3 -10 8 -13 12 -8 76 -158 76 -177 0 -8 3 -14 7 -14 6 0 35 -72 31 -79
-2 -2 3 -7 10 -11 6 -4 12 -21 13 -38 0 -17 4 -28 7 -26 6 3 47 -80 51 -106 2
-8 6 -17 10 -20 4 -3 14 -23 23 -44 l16 -39 -25 5 c-14 3 -26 2 -26 -1 0 -4
-9 -7 -20 -7 -11 0 -20 3 -20 7 0 9 -21 6 -39 -5 -8 -5 -16 -4 -21 4 -5 9 -13
9 -27 2 -11 -6 -25 -7 -33 -2 -8 5 -18 6 -23 3 -5 -3 -41 -6 -79 -6 -49 0 -73
4 -79 14 -6 10 -9 10 -9 2 0 -7 -6 -13 -14 -13 -21 0 -48 30 -42 46 3 9 0 11
-11 7 -11 -4 -14 -2 -9 5 4 7 2 12 -4 12 -6 0 -8 5 -5 10 3 6 2 10 -4 10 -5 0
-20 14 -32 32 -13 17 -18 28 -11 24 8 -5 10 -2 6 9 -4 9 -9 14 -12 11 -5 -6
-72 78 -72 89 0 4 -14 24 -30 45 -18 23 -26 41 -20 45 5 3 10 12 10 18 0 7 -4
6 -10 -3 -9 -13 -13 -11 -30 10 -11 14 -18 31 -15 37 2 7 -1 12 -7 10 -6 -1
-13 4 -16 12 -3 9 0 11 9 6 8 -5 11 -4 6 1 -5 5 -12 9 -15 9 -18 1 -31 17 -25
32 5 12 3 14 -7 8 -10 -6 -12 -4 -7 8 4 10 2 16 -4 14 -6 -1 -31 27 -55 63
-24 36 -48 70 -53 76 -4 5 -14 21 -21 35 -7 13 -16 26 -19 29 -3 3 -15 16 -26
29 -13 16 -15 22 -5 17 8 -4 5 1 -7 10 -13 9 -23 21 -23 27 0 5 -7 15 -15 21
-8 6 -16 21 -18 33 -2 12 -7 26 -12 30 -4 5 -4 1 0 -7 8 -13 7 -13 -8 -1 -9 7
-17 20 -17 27 0 8 -5 14 -11 14 -6 0 -9 7 -6 15 4 8 1 17 -5 21 -7 5 -8 2 -3
-6 5 -9 4 -11 -3 -6 -7 4 -12 14 -12 22 0 8 -5 14 -11 14 -8 0 -7 5 1 15 11
13 10 14 -2 10 -11 -4 -23 6 -39 32 -13 21 -28 41 -33 45 -6 4 -7 8 -2 8 5 0
-1 8 -12 19 -12 10 -19 21 -15 25 3 3 1 6 -6 6 -8 0 -11 6 -7 16 3 8 2 13 -3
10 -5 -3 -15 2 -22 11 -12 14 -12 16 1 8 8 -5 2 5 -14 22 -16 18 -31 39 -32
48 -1 8 -13 25 -26 36 -12 11 -18 18 -11 15 6 -4 18 2 25 12 7 10 22 24 33 30
11 6 15 12 9 12 -6 0 -24 -10 -39 -22 l-28 -21 14 24 c7 13 12 30 11 37 -2 6
2 12 8 12 6 0 8 5 5 10 -3 6 1 13 9 16 9 3 16 10 16 16 0 5 -4 6 -10 3 -5 -3
5 26 23 64 33 73 49 90 41 44 -3 -15 -2 -25 1 -21 4 3 8 12 9 20 1 7 7 23 14
35 15 26 15 33 2 33 -6 0 -9 -3 -9 -7 3 -20 -2 -34 -10 -29 -11 7 -2 46 11 46
5 0 7 4 3 9 -3 5 -1 12 5 16 6 4 8 10 5 15 -9 15 14 21 37 10 l23 -11 -22 17
c-13 9 -23 21 -23 27 0 8 3 8 11 0 13 -13 39 -6 39 9 0 6 -6 6 -14 -1 -11 -9
-15 -9 -19 1 -6 17 10 49 37 71 17 16 18 18 3 13 -13 -4 -16 -2 -10 7 4 6 8
16 8 21 0 5 6 11 13 14 6 2 12 -1 12 -8 0 -6 -6 -8 -12 -4 -7 4 -9 3 -5 -1 4
-5 14 -10 23 -11 13 -2 13 1 2 19 -15 24 -15 33 -4 59 5 10 14 14 23 11 13 -5
13 -2 5 14 -8 15 -8 25 2 39 8 10 14 21 14 24 1 29 52 88 52 61 0 -5 -5 -11
-12 -13 -8 -3 -7 -6 4 -10 11 -5 15 0 14 15 -1 12 -7 21 -14 20 -7 -2 -12 4
-12 12 0 8 4 15 9 15 5 0 11 14 15 30 4 22 11 30 22 28 9 -2 19 3 21 10 3 6 0
12 -7 12 -6 0 -8 -5 -4 -12 4 -7 3 -8 -5 -4 -8 6 -9 12 -2 20 6 7 8 16 4 19
-3 4 -3 7 0 7 4 0 14 -14 23 -31z m2294 -369 c0 -5 -2 -10 -4 -10 -3 0 -8 5
-11 10 -3 6 -1 10 4 10 6 0 11 -4 11 -10z m0 -160 c0 -5 -2 -10 -4 -10 -3 0
-8 5 -11 10 -3 6 -1 10 4 10 6 0 11 -4 11 -10z m0 -160 c0 -5 -2 -10 -4 -10
-3 0 -8 5 -11 10 -3 6 -1 10 4 10 6 0 11 -4 11 -10z m-4325 -895 c0 -437 -3
-795 -7 -795 -3 0 -10 15 -14 33 -4 17 -9 37 -10 42 -50 191 -77 435 -78 690
0 151 8 320 19 410 21 160 72 415 84 415 3 0 6 -358 6 -795z m4325 735 c0 -5
-2 -10 -4 -10 -3 0 -8 5 -11 10 -3 6 -1 10 4 10 6 0 11 -4 11 -10z m-594 -530
c9 -180 9 -258 0 -430 -8 -137 -15 -183 -17 -94 0 53 0 574 1 638 1 84 9 24
16 -114z m-2277 66 c9 -11 9 -16 0 -22 -8 -5 -9 -3 -4 6 6 9 4 11 -5 5 -9 -6
-11 -4 -5 6 5 8 4 10 0 6 -19 -17 -13 -35 11 -31 17 3 28 -3 41 -23 10 -16 22
-31 27 -34 5 -4 5 -13 1 -20 -5 -8 -5 -11 0 -7 5 5 30 -22 56 -60 27 -37 53
-72 59 -79 5 -7 10 -15 10 -19 0 -3 8 -16 18 -29 9 -12 24 -33 32 -45 8 -12
25 -34 37 -48 16 -19 19 -28 10 -34 -8 -5 -7 -8 5 -8 9 0 20 -5 24 -12 4 -6 3
-8 -4 -4 -6 3 -14 1 -18 -5 -4 -7 -3 -9 4 -5 11 7 46 -24 64 -58 8 -14 7 -17
-4 -11 -7 4 -2 -2 12 -14 14 -11 25 -28 25 -38 0 -10 6 -18 13 -18 7 0 21 -13
30 -30 9 -16 20 -32 23 -35 3 -3 30 -41 61 -85 46 -68 52 -81 36 -82 -12 -1
-16 2 -11 10 5 9 3 9 -8 0 -19 -15 -789 -14 -789 2 0 7 -3 7 -8 0 -4 -6 -35
-10 -70 -10 -35 0 -58 1 -52 3 5 2 10 8 10 13 0 6 -6 7 -12 3 -9 -5 -9 -2 1 9
7 9 10 17 6 17 -5 0 -1 8 8 18 10 10 14 22 10 25 -3 4 2 7 12 7 14 0 15 -3 5
-15 -7 -9 -8 -15 -2 -15 18 0 22 29 4 39 -9 5 -14 13 -10 17 4 4 14 1 23 -6 8
-7 15 -8 15 -2 0 5 -8 13 -17 16 -15 6 -15 8 -3 16 8 6 11 10 7 10 -15 0 14
40 29 40 8 0 12 -5 9 -10 -4 -6 -10 -8 -15 -5 -4 3 -10 -1 -13 -8 -3 -7 3 -13
13 -13 10 0 18 3 18 6 0 3 0 7 2 10 8 22 8 50 -1 50 -5 0 -7 -4 -4 -10 3 -5
-1 -10 -9 -10 -10 0 -13 6 -10 15 6 14 17 19 36 16 4 0 5 6 1 15 -5 13 -7 13
-14 2 -7 -10 -9 -10 -9 0 0 6 9 21 20 32 11 11 19 23 18 28 -6 16 25 70 45 81
21 11 21 11 -3 6 -21 -5 -22 -4 -7 5 9 6 15 15 12 20 -3 5 0 20 7 32 7 13 11
27 10 31 -1 4 5 10 13 13 8 3 13 10 10 14 -3 5 -1 11 5 15 5 3 10 15 10 26 0
10 5 19 11 19 6 0 9 -7 5 -15 -8 -22 2 -18 15 6 6 12 7 19 1 15 -5 -3 -13 1
-16 9 -4 11 0 14 17 12 12 -2 16 -2 10 0 -15 5 -15 9 -7 40 4 13 11 20 16 17
5 -3 9 0 7 7 -1 8 -1 23 0 34 1 19 3 18 21 -5 10 -14 22 -21 26 -17 4 4 1 7
-6 7 -7 0 -11 3 -7 6 3 4 0 13 -8 21 -11 11 -12 19 -4 34 5 11 14 17 18 15 4
-3 17 2 27 10 10 9 14 13 8 10 -15 -7 -26 21 -19 45 7 23 18 24 34 5z m-39
-56 c0 -5 -2 -10 -4 -10 -3 0 -8 5 -11 10 -3 6 -1 10 4 10 6 0 11 -4 11 -10z
m2910 -280 c0 -5 -2 -10 -4 -10 -3 0 -8 5 -11 10 -3 6 -1 10 4 10 6 0 11 -4
11 -10z m0 -160 c0 -5 -2 -10 -4 -10 -3 0 -8 5 -11 10 -3 6 -1 10 4 10 6 0 11
-4 11 -10z m0 -160 c0 -5 -2 -10 -4 -10 -3 0 -8 5 -11 10 -3 6 -1 10 4 10 6 0
11 -4 11 -10z m0 -160 c0 -5 -2 -10 -4 -10 -3 0 -8 5 -11 10 -3 6 -1 10 4 10
6 0 11 -4 11 -10z m-3305 -426 c-14 -11 -14 -12 0 -18 9 -3 14 -10 10 -15 -3
-5 -1 -12 4 -15 10 -7 9 19 -2 30 -6 6 16 34 28 34 3 0 4 -10 0 -22 -5 -22 -5
-21 10 2 14 22 16 22 12 4 -2 -12 1 -21 8 -21 7 0 12 7 11 16 -1 17 20 22 47
9 9 -5 17 -5 17 0 0 4 25 8 55 8 47 -1 53 -3 38 -13 -9 -7 -14 -15 -12 -18 3
-3 15 4 27 15 27 26 31 25 26 -2 l-5 -23 10 23 c12 27 25 29 19 4 -3 -11 0
-19 8 -19 7 0 13 3 12 6 -2 19 4 27 22 27 15 0 19 -5 14 -21 -6 -19 -6 -19 13
2 14 16 23 19 36 11 10 -5 14 -14 11 -20 -4 -7 -2 -8 5 -4 6 4 9 11 6 16 -3 5
-1 11 5 15 5 3 10 1 10 -6 0 -8 4 -8 16 2 13 11 15 10 12 -3 -1 -9 2 -17 7
-17 6 -1 11 4 11 9 3 23 5 24 12 13 6 -9 17 -10 40 -4 20 6 30 6 27 0 -9 -13
9 -11 23 3 9 9 12 9 12 0 0 -6 -8 -16 -17 -21 -11 -6 -13 -11 -5 -11 7 0 10
-5 6 -12 -4 -7 -3 -8 5 -4 6 4 9 11 6 15 -2 5 4 16 15 26 18 17 20 17 26 1 5
-13 9 -15 15 -5 8 14 49 20 49 8 0 -5 13 -6 30 -3 19 4 36 1 47 -7 9 -8 14 -9
10 -3 -4 7 0 15 8 18 10 4 19 -2 25 -17 9 -22 9 -22 9 2 1 24 1 24 17 5 8 -10
12 -13 8 -5 -4 9 -2 12 7 9 8 -3 26 -1 42 3 16 5 25 4 22 -2 -8 -11 -7 -11 33
0 26 8 34 7 39 -5 4 -11 9 -12 19 -3 7 6 19 9 26 6 7 -2 25 -1 40 4 14 4 29 4
32 1 11 -11 51 -9 58 2 5 6 8 7 8 1 0 -5 23 -10 50 -9 44 1 54 -3 70 -25 11
-14 24 -31 29 -37 37 -45 80 -112 74 -117 -3 -4 -1 -7 6 -7 7 0 9 -5 5 -12 -4
-6 -3 -8 4 -4 16 10 27 -15 11 -26 -11 -8 -10 -9 4 -4 11 4 20 -1 24 -12 4 -9
15 -26 25 -36 10 -11 18 -26 18 -33 0 -7 5 -13 10 -13 6 0 10 -5 10 -11 0 -5
-4 -7 -10 -4 -6 3 -7 -1 -3 -10 4 -11 8 -13 13 -5 5 8 11 6 20 -5 7 -8 9 -15
6 -15 -4 0 0 -7 8 -16 9 -8 14 -20 10 -25 -3 -5 0 -8 8 -7 8 2 12 -6 10 -22
-1 -15 1 -20 6 -13 9 14 88 -90 86 -113 -1 -7 2 -12 6 -9 10 6 65 -77 61 -94
-1 -7 2 -10 7 -7 13 8 45 -42 36 -57 -4 -7 -4 -9 1 -5 7 7 35 -14 35 -27 0 -4
7 -13 16 -22 8 -9 13 -22 10 -30 -3 -8 -2 -11 4 -8 5 3 20 -11 34 -32 l25 -37
-47 -31 c-142 -95 -399 -206 -557 -240 -152 -32 -218 -42 -354 -51 -75 -5 -92
-4 -86 6 5 8 4 11 -2 7 -12 -7 -134 43 -129 52 2 3 -8 7 -22 8 -15 0 -28 6
-30 12 -2 6 -7 9 -12 6 -5 -3 -14 0 -22 7 -7 7 -20 14 -28 16 -8 2 -31 10 -50
20 -19 9 -38 15 -42 14 -5 -1 -8 3 -8 8 0 5 -3 9 -7 8 -17 -4 -132 56 -126 65
3 6 1 7 -5 3 -6 -4 -28 1 -49 10 -21 10 -41 16 -45 16 -5 -1 -8 3 -8 8 0 6 -9
10 -20 10 -11 0 -20 5 -20 12 0 6 -3 9 -6 6 -6 -6 -55 14 -104 42 -14 8 -31
15 -38 16 -8 1 -39 15 -70 30 -32 15 -59 28 -62 29 -38 12 -108 49 -105 56 3
4 0 11 -6 15 -8 4 -9 3 -5 -4 4 -7 2 -12 -4 -12 -19 0 -51 20 -46 29 3 4 -6 6
-21 3 -21 -4 -25 -2 -20 11 4 11 2 14 -9 10 -15 -5 -106 35 -112 50 -2 4 -15
7 -28 7 -13 0 -24 5 -24 11 0 6 6 9 13 6 8 -3 20 -1 28 4 12 7 12 9 -1 10 -8
1 -18 1 -22 0 -13 -2 -8 23 7 43 8 10 12 22 10 27 -3 4 0 11 6 15 8 4 9 3 5
-4 -4 -7 -2 -12 5 -12 8 0 7 -5 -2 -17 -13 -16 -12 -17 2 -5 10 7 15 21 12 31
-2 9 2 23 11 30 16 13 11 45 -6 35 -6 -4 -3 5 6 19 12 17 25 24 41 23 18 -3
23 1 19 17 -2 11 -6 22 -9 25 -8 8 16 32 26 26 5 -3 9 -1 9 5 0 5 -6 11 -12
14 -10 3 -9 8 2 23 14 18 14 18 -2 5 -10 -8 -18 -9 -18 -3 0 6 5 12 10 14 6 2
12 13 13 25 1 17 5 20 18 12 22 -11 37 7 20 24 -9 9 -10 7 -5 -8 7 -17 6 -18
-8 -5 -9 8 -13 17 -9 20 9 6 25 43 23 53 -1 4 3 7 8 7 13 0 13 -13 0 -28 -5
-7 -2 -6 7 2 13 12 14 18 4 29 -9 12 -9 18 3 30 8 8 13 17 10 20 -3 3 -1 14 6
24 11 17 11 17 6 0 -4 -11 -2 -16 5 -11 6 3 9 14 6 23 -2 10 2 26 9 36 12 16
16 17 27 5 8 -9 8 -11 0 -6 -6 3 -14 3 -17 -2 -2 -4 4 -9 15 -9 12 -1 19 5 19
15 0 13 5 12 21 -8 17 -21 19 -22 10 -3 -13 26 -14 36 -3 29 5 -3 9 1 9 8 0 7
-6 13 -13 13 -7 0 -11 -4 -9 -8 8 -11 -18 -17 -40 -8 -11 4 -14 8 -7 8 7 1 10
7 7 14 -4 6 1 3 9 -7 15 -18 16 -19 16 -2 0 12 5 16 15 13 8 -4 16 -3 19 1 2
4 25 8 51 8 37 0 43 -3 30 -12z m1886 -19 c0 -20 0 -20 8 0 7 16 18 20 60 21
48 0 52 -2 48 -21 -2 -12 2 -22 8 -22 6 0 11 9 11 21 -1 16 6 20 32 22 18 1
35 -3 39 -9 4 -7 0 -8 -13 -3 -15 6 -16 5 -7 -5 10 -10 16 -9 30 2 10 7 15 10
11 5 -3 -4 0 -19 7 -33 8 -15 12 -30 9 -35 -3 -4 0 -8 7 -8 9 0 9 -3 0 -14 -9
-11 -9 -16 0 -22 8 -4 9 -3 5 4 -4 7 -3 12 3 12 5 0 13 -10 16 -22 4 -13 13
-38 22 -56 12 -28 12 -36 1 -50 -12 -15 -11 -16 5 -3 16 12 19 9 16 -15 0 -4
5 -10 11 -14 7 -4 13 -19 13 -33 1 -14 4 -24 6 -21 2 2 10 -8 18 -23 11 -21
11 -28 1 -35 -10 -6 -9 -8 3 -8 33 0 54 -134 25 -155 -9 -7 -16 -16 -16 -22 0
-5 -13 -22 -30 -38 -27 -26 -34 -28 -27 -7 1 4 6 6 10 4 5 -1 6 2 2 7 -3 6
-11 8 -18 6 -7 -2 -24 13 -39 35 -16 23 -21 37 -13 33 8 -3 15 0 15 7 0 6 -4
9 -9 6 -11 -7 -53 29 -44 38 3 3 1 6 -5 6 -6 0 -19 16 -28 35 -9 19 -20 35
-25 35 -5 0 -9 7 -9 15 0 8 -5 15 -11 15 -6 0 -8 9 -4 23 5 17 4 18 -4 7 -8
-12 -11 -11 -17 5 -5 11 -16 29 -26 39 -10 11 -18 25 -18 32 0 6 -7 14 -15 18
-9 3 -12 12 -8 22 4 11 2 15 -4 11 -6 -4 -18 4 -27 18 -9 14 -13 25 -9 25 4 0
-2 7 -14 15 -13 9 -20 22 -16 31 3 9 1 14 -6 12 -7 -2 -23 15 -36 37 -14 22
-29 47 -34 56 -8 13 -2 15 40 15 42 -1 49 -3 50 -21z m-3264 -33 c2 -9 4 -25
5 -34 1 -10 6 -18 10 -18 4 0 8 -8 8 -18 0 -10 4 -22 8 -27 5 -6 15 -26 22
-45 23 -63 64 -153 118 -260 52 -100 53 -105 41 -142 -6 -20 -17 -35 -22 -31
-6 3 -7 1 -3 -5 5 -9 -20 -78 -34 -92 -3 -3 -5 -9 -5 -15 -1 -5 -14 -37 -29
-70 -16 -33 -29 -66 -29 -72 0 -7 -4 -13 -9 -13 -4 0 -8 -6 -8 -13 0 -7 -12
-38 -26 -67 -38 -78 -48 -104 -45 -115 2 -5 -1 -6 -5 -2 -11 11 -14 38 -3 31
5 -3 9 0 9 5 0 6 -6 11 -12 12 -10 0 -10 2 0 6 21 8 34 40 18 46 -10 4 -12 0
-9 -14 3 -10 1 -19 -5 -19 -5 0 -9 16 -8 35 1 36 12 46 22 20 4 -8 10 -15 15
-15 15 0 -2 29 -20 35 -14 4 -17 17 -17 60 1 58 4 63 25 43 10 -11 11 -10 6 5
-4 9 -13 17 -21 17 -8 0 -14 5 -14 11 0 5 5 7 12 3 7 -5 8 -3 3 7 -5 7 -10 22
-10 31 -1 14 1 15 12 6 11 -8 12 -7 7 6 -3 9 -9 16 -13 16 -4 0 -7 22 -7 49 0
27 4 47 8 45 4 -3 8 0 8 5 0 6 -6 11 -12 12 -10 0 -10 2 0 6 6 2 12 9 12 14 0
6 -4 8 -8 5 -4 -2 -7 11 -7 30 0 19 3 34 8 34 4 0 7 5 7 11 0 5 -4 8 -8 5 -4
-2 -8 6 -8 19 0 13 4 21 8 19 4 -3 8 0 8 5 0 6 -6 11 -12 12 -10 0 -10 2 0 6
6 2 12 9 12 14 0 6 -4 8 -8 5 -4 -2 -8 6 -8 19 0 13 4 21 8 19 4 -3 8 0 8 5 0
6 -6 11 -12 12 -10 0 -10 2 0 6 6 2 12 9 12 14 0 6 -4 8 -8 5 -12 -7 -9 58 3
66 6 5 4 8 -5 9 -10 0 -8 3 5 9 15 6 16 9 4 9 -9 1 -16 8 -16 16 0 11 4 12 11
5 5 -5 14 -10 20 -10 5 0 0 8 -10 18 -24 22 -28 42 -9 42 8 0 15 4 15 10 0 5
-6 7 -12 5 -8 -3 -14 4 -14 19 -1 19 2 23 15 19 11 -4 10 -1 -4 10 l-20 16 20
1 c15 1 17 3 5 8 -10 5 -15 22 -16 49 0 42 7 50 13 15z m4358 -64 c0 -35 -4
-68 -8 -75 -4 -6 -2 -15 4 -19 8 -4 7 -9 -2 -15 -8 -5 -9 -9 -3 -9 11 0 12
-35 1 -46 -3 -4 -3 -12 0 -18 12 -18 11 -56 -1 -56 -7 0 -7 -3 -1 -8 14 -10
15 -56 1 -64 -6 -4 -6 -8 -1 -8 11 0 14 -254 3 -266 -4 -4 -4 -12 -1 -18 12
-19 11 -106 -1 -99 -6 4 -6 0 1 -9 16 -19 4 -32 -15 -15 -13 11 -14 9 -2 -10
8 -12 17 -20 20 -18 4 2 7 -3 7 -11 0 -9 -6 -13 -16 -9 -11 4 -9 0 5 -16 13
-15 14 -20 4 -15 -8 3 -23 9 -32 12 -10 4 -18 15 -18 26 0 13 4 17 13 12 14
-9 -10 24 -33 44 -13 12 -13 13 1 9 9 -3 16 1 16 8 0 7 -8 10 -19 7 -16 -4
-23 7 -19 31 0 4 -3 7 -9 7 -5 0 -10 12 -10 26 0 14 -4 23 -10 19 -14 -9 -12
19 3 34 10 10 9 11 -5 6 -12 -5 -20 -1 -24 11 -3 11 -13 35 -22 54 -17 39 -18
46 -7 75 7 19 7 19 -7 1 -14 -18 -15 -18 -21 3 -3 13 -1 19 6 14 6 -4 8 0 4
10 -3 9 -1 20 6 24 7 5 12 13 13 18 0 6 12 36 27 68 33 70 78 171 78 174 0 2
7 20 16 40 20 50 30 76 33 88 2 11 20 45 23 45 1 0 2 -28 2 -62z m-3266 -244
c-6 -8 -15 -12 -18 -8 -3 4 0 9 7 11 6 3 9 10 6 15 -4 7 -2 8 5 4 9 -6 9 -11
0 -22z m3591 -14 c0 -5 -2 -10 -4 -10 -3 0 -8 5 -11 10 -3 6 -1 10 4 10 6 0
11 -4 11 -10z m-3597 -24 c6 -16 -19 -30 -28 -16 -4 6 -1 10 5 10 6 0 8 5 5
10 -3 6 -2 10 3 10 6 0 12 -6 15 -14z m-53 -101 c-7 -9 -15 -13 -17 -11 -7 7
7 26 19 26 6 0 6 -6 -2 -15z m3650 -35 c0 -5 -2 -10 -4 -10 -3 0 -8 5 -11 10
-3 6 -1 10 4 10 6 0 11 -4 11 -10z m-385 -320 c3 -5 1 -10 -4 -10 -6 0 -11 5
-11 10 0 6 2 10 4 10 3 0 8 -4 11 -10z m58 -94 c-2 -3 -3 -16 -3 -28 0 -18 -2
-20 -9 -9 -5 8 -7 20 -4 28 3 7 1 13 -5 13 -5 0 -13 7 -16 16 -6 15 -4 15 16
2 13 -9 22 -18 21 -22z m-3457 -319 c40 -25 103 -62 140 -83 38 -20 73 -40 78
-45 10 -9 -41 -2 -57 8 -6 3 -7 1 -3 -5 4 -7 3 -12 -3 -12 -5 0 -13 5 -16 10
-4 7 -13 7 -24 0 -12 -6 -22 -5 -31 3 -7 7 -10 7 -7 1 4 -7 -31 -10 -106 -9
l-112 1 -3 118 -3 118 38 -30 c21 -16 70 -50 109 -75z m2644 9 c0 -7 61 -96
78 -114 7 -8 11 -16 8 -19 -8 -8 -112 -7 -126 2 -8 5 -11 4 -7 -1 7 -12 -173
-11 -192 1 -9 5 -12 4 -8 -2 4 -6 -7 -10 -28 -9 -19 0 -35 3 -35 6 0 3 28 19
61 35 33 17 97 53 142 81 66 41 84 48 94 38 7 -7 13 -15 13 -18z m-3184 -58
c4 -7 3 -8 -4 -4 -7 4 -12 3 -12 -3 0 -5 4 -12 8 -15 10 -6 9 -42 -1 -52 -4
-4 -7 -2 -7 5 0 7 -5 9 -10 6 -6 -4 -8 -11 -5 -16 3 -5 -1 -6 -9 -3 -9 3 -16
10 -16 16 0 5 4 7 9 4 5 -4 12 12 16 34 7 40 18 50 31 28z"/>
<path d="M1455 5850 c6 -10 3 -12 -13 -8 -12 4 -25 1 -29 -4 -3 -6 -1 -8 5 -4
5 3 12 1 14 -4 2 -7 10 -6 22 3 15 11 16 16 6 22 -9 6 -11 4 -5 -5z"/>
<path d="M1480 5851 c0 -5 -3 -16 -6 -25 -3 -9 -2 -16 3 -16 5 0 10 11 11 25
1 14 0 25 -3 25 -3 0 -5 -4 -5 -9z"/>
<path d="M1510 5852 c0 -4 9 -13 20 -20 19 -12 20 -11 8 8 -13 20 -28 27 -28
12z"/>
<path d="M1587 5847 c-3 -8 1 -14 8 -14 7 0 11 6 8 14 -3 7 -6 13 -8 13 -2 0
-5 -6 -8 -13z"/>
<path d="M1634 5844 c-10 -8 -13 -13 -6 -9 7 4 21 1 30 -7 16 -12 16 -11 2 6
-14 18 -13 19 3 13 11 -4 16 -3 12 3 -9 14 -18 13 -41 -6z"/>
<path d="M1384 5823 c3 -3 -5 -14 -17 -25 -12 -11 -16 -17 -9 -13 6 3 12 0 13
-7 0 -7 5 -3 11 9 6 12 18 24 27 25 11 3 9 6 -7 10 -13 4 -21 4 -18 1z"/>
<path d="M1566 5802 c-3 -5 1 -9 9 -9 8 0 12 4 9 9 -3 4 -7 8 -9 8 -2 0 -6 -4
-9 -8z"/>
<path d="M1395 5779 c-11 -16 -1 -19 13 -3 7 8 8 14 3 14 -5 0 -13 -5 -16 -11z"/>
<path d="M1355 5759 c6 -8 4 -11 -7 -7 -9 4 -15 0 -15 -8 0 -17 13 -18 22 -3
4 6 13 8 21 5 22 -8 17 2 -7 15 -17 9 -20 8 -14 -2z"/>
<path d="M1350 5720 c-8 -5 -10 -10 -5 -10 6 0 17 5 25 10 8 5 11 10 5 10 -5
0 -17 -5 -25 -10z"/>
<path d="M1325 5690 c-3 -6 1 -7 9 -4 18 7 21 14 7 14 -6 0 -13 -4 -16 -10z"/>
<path d="M1337 5658 c2 -5 10 -8 18 -8 8 0 16 3 18 8 3 4 -5 7 -18 7 -13 0
-21 -3 -18 -7z"/>
<path d="M1331 5606 c-8 -10 -8 -16 3 -25 10 -8 16 -9 21 -1 4 6 3 10 -2 9
-20 -3 -25 2 -13 16 7 8 10 15 7 15 -2 0 -10 -6 -16 -14z"/>
<path d="M1353 5535 c0 -8 4 -12 9 -9 5 3 6 10 3 15 -9 13 -12 11 -12 -6z"/>
<path d="M1356 5402 c-3 -5 1 -9 9 -9 8 0 12 4 9 9 -3 4 -7 8 -9 8 -2 0 -6 -4
-9 -8z"/>
<path d="M1325 5360 c-3 -6 1 -7 9 -4 18 7 21 14 7 14 -6 0 -13 -4 -16 -10z"/>
<path d="M1346 5138 c3 -5 10 -6 15 -3 13 9 11 12 -6 12 -8 0 -12 -4 -9 -9z"/>
<path d="M1353 5055 c0 -8 4 -12 9 -9 5 3 6 10 3 15 -9 13 -12 11 -12 -6z"/>
<path d="M1327 4919 c7 -7 15 -10 18 -7 3 3 -2 9 -12 12 -14 6 -15 5 -6 -5z"/>
<path d="M1328 4793 c6 -2 9 -10 6 -15 -4 -7 -2 -8 5 -4 13 9 5 26 -12 25 -9
0 -8 -2 1 -6z"/>
<path d="M1345 4700 c-3 -6 1 -7 9 -4 18 7 21 14 7 14 -6 0 -13 -4 -16 -10z"/>
<path d="M1327 4679 c7 -7 15 -10 18 -7 3 3 -2 9 -12 12 -14 6 -15 5 -6 -5z"/>
<path d="M2178 5845 c4 -5 7 -14 7 -19 0 -5 11 -15 25 -23 21 -13 22 -13 8 -1
-12 11 -14 18 -7 25 15 15 3 32 -21 30 -10 -1 -16 -6 -12 -12z m32 -4 c0 -6
-4 -12 -8 -15 -5 -3 -9 1 -9 9 0 8 4 15 9 15 4 0 8 -4 8 -9z"/>
<path d="M2233 5828 c-2 -18 0 -20 7 -8 12 18 13 30 2 30 -4 0 -9 -10 -9 -22z"/>
<path d="M2260 5845 c0 -8 29 -12 39 -5 9 5 4 8 -13 8 -14 0 -26 -2 -26 -3z"/>
<path d="M2255 5821 c-3 -5 -2 -12 3 -15 5 -3 9 1 9 9 0 17 -3 19 -12 6z"/>
<path d="M4672 5851 c-11 -7 -10 -9 3 -14 9 -4 14 -3 10 2 -3 5 1 12 7 14 7 3
9 6 3 6 -5 0 -16 -3 -23 -8z"/>
<path d="M4709 5843 c-13 -16 -12 -17 4 -4 16 13 21 21 13 21 -2 0 -10 -8 -17
-17z"/>
<path d="M4736 5843 c-6 -14 -5 -15 5 -6 7 7 10 15 7 18 -3 3 -9 -2 -12 -12z"/>
<path d="M4803 5842 c10 -10 14 -22 10 -27 -5 -4 -2 -5 4 -1 10 5 10 11 0 26
-6 11 -16 20 -21 20 -5 0 -2 -8 7 -18z"/>
<path d="M4867 5847 c-3 -8 1 -14 8 -14 7 0 11 6 8 14 -3 7 -6 13 -8 13 -2 0
-5 -6 -8 -13z"/>
<path d="M5530 5846 c0 -2 7 -7 16 -10 8 -3 12 -2 9 4 -6 10 -25 14 -25 6z"/>
<path d="M5415 5831 c-3 -5 0 -13 6 -17 7 -4 9 -3 5 4 -3 5 0 13 6 15 9 4 10
6 1 6 -6 1 -14 -3 -18 -8z"/>
<path d="M5596 5827 c3 -10 9 -15 12 -12 3 3 0 11 -7 18 -10 9 -11 8 -5 -6z"/>
<path d="M5573 5815 c0 -8 4 -12 9 -9 5 3 6 10 3 15 -9 13 -12 11 -12 -6z"/>
<path d="M2630 5206 c0 -2 7 -7 16 -10 8 -3 12 -2 9 4 -6 10 -25 14 -25 6z"/>
<path d="M2727 5099 c7 -7 15 -10 18 -7 3 3 -2 9 -12 12 -14 6 -15 5 -6 -5z"/>
<path d="M3975 5620 c3 -5 8 -10 11 -10 2 0 4 5 4 10 0 6 -5 10 -11 10 -5 0
-7 -4 -4 -10z"/>
<path d="M3945 5609 c-5 -7 -2 -17 6 -23 8 -6 14 -20 14 -30 0 -11 7 -21 15
-23 13 -4 13 -3 0 6 -13 10 -13 11 0 11 9 0 11 3 5 8 -5 4 -12 16 -13 27 -5
27 -18 39 -27 24z"/>
<path d="M3988 5513 c7 -3 16 -2 19 1 4 3 -2 6 -13 5 -11 0 -14 -3 -6 -6z"/>
<path d="M4022 5444 c10 -10 20 -16 22 -13 3 3 -5 11 -17 18 -21 13 -21 12 -5
-5z"/>
<path d="M4075 5320 c3 -5 8 -10 11 -10 2 0 4 5 4 10 0 6 -5 10 -11 10 -5 0
-7 -4 -4 -10z"/>
<path d="M4176 5107 c3 -10 9 -15 12 -12 3 3 0 11 -7 18 -10 9 -11 8 -5 -6z"/>
<path d="M4250 4925 c0 -5 5 -17 10 -25 5 -8 10 -10 10 -5 0 6 -5 17 -10 25
-5 8 -10 11 -10 5z"/>
<path d="M4340 4780 c-9 -6 -10 -10 -3 -10 6 0 15 5 18 10 8 12 4 12 -15 0z"/>
<path d="M4386 4575 c4 -8 11 -15 16 -15 6 0 5 6 -2 15 -7 8 -14 15 -16 15 -2
0 -1 -7 2 -15z"/>
<path d="M4413 4543 c4 -6 2 -13 -5 -15 -8 -3 -6 -6 4 -10 17 -7 19 15 3 29
-4 4 -5 3 -2 -4z"/>
<path d="M4427 4479 c7 -7 15 -10 18 -7 3 3 -2 9 -12 12 -14 6 -15 5 -6 -5z"/>
<path d="M4496 4327 c3 -10 9 -15 12 -12 3 3 0 11 -7 18 -10 9 -11 8 -5 -6z"/>
<path d="M4580 4220 c-9 -6 -10 -10 -3 -10 6 0 15 5 18 10 8 12 4 12 -15 0z"/>
<path d="M4576 4138 c3 -5 10 -6 15 -3 13 9 11 12 -6 12 -8 0 -12 -4 -9 -9z"/>
<path d="M4600 4100 c-8 -5 -12 -12 -9 -15 4 -3 12 1 19 10 14 17 11 19 -10 5z"/>
<path d="M4617 4075 c-4 -8 -3 -16 1 -19 4 -3 9 4 9 15 2 23 -3 25 -10 4z"/>
<path d="M4655 3960 c3 -5 8 -10 11 -10 2 0 4 5 4 10 0 6 -5 10 -11 10 -5 0
-7 -4 -4 -10z"/>
<path d="M4670 3916 c7 -7 13 -7 20 0 6 6 3 10 -10 10 -13 0 -16 -4 -10 -10z"/>
<path d="M4726 3798 c3 -5 10 -6 15 -3 13 9 11 12 -6 12 -8 0 -12 -4 -9 -9z"/>
<path d="M4775 3749 c-4 -6 -5 -12 -2 -15 2 -3 7 2 10 11 7 17 1 20 -8 4z"/>
<path d="M4775 3680 c3 -5 8 -10 11 -10 2 0 4 5 4 10 0 6 -5 10 -11 10 -5 0
-7 -4 -4 -10z"/>
<path d="M4786 3637 c3 -10 9 -15 12 -12 3 3 0 11 -7 18 -10 9 -11 8 -5 -6z"/>
<path d="M4850 3540 c0 -5 5 -10 11 -10 5 0 7 5 4 10 -3 6 -8 10 -11 10 -2 0
-4 -4 -4 -10z"/>
<path d="M4873 3455 c0 -8 4 -12 9 -9 5 3 6 10 3 15 -9 13 -12 11 -12 -6z"/>
<path d="M4910 3380 c0 -5 5 -10 11 -10 5 0 7 5 4 10 -3 6 -8 10 -11 10 -2 0
-4 -4 -4 -10z"/>
<path d="M4936 3278 c3 -4 11 -5 19 -1 21 7 19 12 -4 10 -11 0 -18 -5 -15 -9z"/>
<path d="M2290 4926 c0 -2 7 -7 16 -10 8 -3 12 -2 9 4 -6 10 -25 14 -25 6z"/>
<path d="M3713 5024 c4 -7 0 -14 -8 -18 -8 -3 -15 -11 -14 -18 0 -10 2 -10 6
0 3 9 9 10 17 3 9 -8 12 -6 11 9 -1 11 -5 23 -10 27 -4 5 -5 3 -2 -3z"/>
<path d="M3619 4923 c-13 -17 -13 -17 6 -3 11 8 22 16 24 17 2 2 0 3 -6 3 -6
0 -17 -8 -24 -17z"/>
<path d="M3614 4894 c-18 -14 -18 -15 4 -4 12 6 22 13 22 15 0 8 -5 6 -26 -11z"/>
<path d="M3630 4880 c-13 -8 -12 -10 3 -10 9 0 17 5 17 10 0 12 -1 12 -20 0z"/>
<path d="M3595 4860 c3 -5 8 -10 11 -10 2 0 4 5 4 10 0 6 -5 10 -11 10 -5 0
-7 -4 -4 -10z"/>
<path d="M3570 4809 c0 -5 5 -7 10 -4 6 3 10 8 10 11 0 2 -4 4 -10 4 -5 0 -10
-5 -10 -11z"/>
<path d="M3594 4795 c-4 -8 -11 -12 -17 -8 -6 3 -7 1 -3 -5 4 -6 13 -9 21 -6
8 4 13 10 10 14 -3 5 1 11 7 13 10 4 10 6 0 6 -7 1 -15 -6 -18 -14z"/>
<path d="M3473 4594 c4 -4 2 -13 -3 -19 -7 -9 -5 -17 7 -26 16 -13 17 -12 5 3
-11 14 -10 18 4 26 15 8 15 10 -2 16 -10 4 -15 4 -11 0z"/>
<path d="M3495 4560 c3 -5 8 -10 11 -10 2 0 4 5 4 10 0 6 -5 10 -11 10 -5 0
-7 -4 -4 -10z"/>
<path d="M3533 4555 c0 -8 4 -12 9 -9 5 3 6 10 3 15 -9 13 -12 11 -12 -6z"/>
<path d="M3411 4445 c2 -5 -4 -22 -14 -36 -18 -26 -14 -59 6 -59 7 0 7 4 -1
12 -7 7 -12 17 -12 22 0 6 5 5 12 -2 7 -7 16 -12 22 -12 5 0 2 6 -9 13 -11 9
-15 19 -10 27 7 11 10 9 16 -6 7 -15 8 -14 6 8 -2 15 -6 31 -11 35 -4 4 -6 4
-5 -2z"/>
<path d="M3999 4353 c-13 -16 -12 -17 4 -4 16 13 21 21 13 21 -2 0 -10 -8 -17
-17z"/>
<path d="M3365 4332 c3 -3 0 -11 -6 -19 -6 -7 -7 -13 -3 -13 5 0 14 8 21 18 9
15 8 19 -3 19 -8 0 -12 -3 -9 -5z"/>
<path d="M3374 4258 c-4 -7 -3 -10 1 -5 5 4 18 -1 29 -10 21 -18 21 -18 2 5
-22 26 -23 26 -32 10z"/>
<path d="M3342 4231 c-11 -7 -10 -10 3 -15 25 -9 32 -7 15 5 -12 9 -11 10 8 6
12 -3 20 -1 16 4 -7 11 -25 11 -42 0z"/>
<path d="M3375 4200 c-3 -5 -1 -10 4 -10 6 0 11 5 11 10 0 6 -2 10 -4 10 -3 0
-8 -4 -11 -10z"/>
<path d="M3360 4177 c0 -2 6 -10 14 -16 11 -9 16 -9 22 1 4 7 4 10 -1 6 -4 -4
-14 -3 -22 3 -7 6 -13 9 -13 6z"/>
<path d="M3410 4140 c0 -5 5 -10 11 -10 5 0 7 5 4 10 -3 6 -8 10 -11 10 -2 0
-4 -4 -4 -10z"/>
<path d="M3450 4065 c0 -7 30 -13 34 -7 3 4 -4 9 -15 9 -10 1 -19 0 -19 -2z"/>
<path d="M3515 4000 c-3 -5 -1 -10 4 -10 6 0 11 5 11 10 0 6 -2 10 -4 10 -3 0
-8 -4 -11 -10z"/>
<path d="M3510 3976 c0 -2 8 -10 18 -17 15 -13 16 -12 3 4 -13 16 -21 21 -21
13z"/>
<path d="M3796 3558 c3 -5 10 -6 15 -3 13 9 11 12 -6 12 -8 0 -12 -4 -9 -9z"/>
<path d="M3950 3359 c0 -5 5 -7 10 -4 6 3 10 8 10 11 0 2 -4 4 -10 4 -5 0 -10
-5 -10 -11z"/>
<path d="M4050 3199 c0 -5 5 -7 10 -4 6 3 10 8 10 11 0 2 -4 4 -10 4 -5 0 -10
-5 -10 -11z"/>
<path d="M4070 3146 c0 -2 7 -7 16 -10 8 -3 12 -2 9 4 -6 10 -25 14 -25 6z"/>
<path d="M4130 3061 c0 -6 4 -12 8 -15 5 -3 9 1 9 9 0 8 -4 15 -9 15 -4 0 -8
-4 -8 -9z"/>
<path d="M4180 3020 c8 -5 20 -10 25 -10 6 0 3 5 -5 10 -8 5 -19 10 -25 10 -5
0 -3 -5 5 -10z"/>
<path d="M4600 2991 c0 -6 4 -13 10 -16 6 -3 7 1 4 9 -7 18 -14 21 -14 7z"/>
<path d="M4198 2973 c7 -3 16 -2 19 1 4 3 -2 6 -13 5 -11 0 -14 -3 -6 -6z"/>
<path d="M4266 2958 c3 -5 10 -6 15 -3 13 9 11 12 -6 12 -8 0 -12 -4 -9 -9z"/>
<path d="M3149 3717 c6 -8 8 -17 4 -20 -3 -4 -1 -7 5 -7 14 0 14 2 6 24 -3 9
-11 16 -16 16 -7 0 -6 -5 1 -13z"/>
<path d="M3175 3671 c-3 -5 -2 -12 3 -15 5 -3 9 1 9 9 0 17 -3 19 -12 6z"/>
<path d="M3095 3660 c3 -5 8 -10 11 -10 2 0 4 5 4 10 0 6 -5 10 -11 10 -5 0
-7 -4 -4 -10z"/>
<path d="M3035 3581 c-9 -15 15 -25 28 -12 9 9 7 10 -7 5 -13 -5 -17 -4 -12 4
4 7 5 12 2 12 -3 0 -7 -4 -11 -9z"/>
<path d="M3070 3546 c0 -2 7 -7 16 -10 8 -3 12 -2 9 4 -6 10 -25 14 -25 6z"/>
<path d="M3039 3513 c-13 -16 -12 -17 4 -4 9 7 17 15 17 17 0 8 -8 3 -21 -13z"/>
<path d="M2990 3440 c0 -4 7 -7 15 -6 23 3 26 12 5 13 -11 1 -20 -2 -20 -7z"/>
<path d="M2966 3425 c4 -8 11 -15 16 -15 6 0 5 6 -2 15 -7 8 -14 15 -16 15 -2
0 -1 -7 2 -15z"/>
<path d="M2947 3397 c-3 -7 -2 -19 3 -26 5 -9 9 -8 14 5 4 9 3 21 -2 26 -6 6
-12 4 -15 -5z"/>
<path d="M2956 3335 c-11 -8 -17 -17 -14 -20 2 -3 13 4 23 15 21 23 18 25 -9
5z"/>
<path d="M2924 3290 c-12 -5 -25 -13 -28 -19 -4 -5 7 -3 24 5 16 9 30 17 30
20 0 5 0 5 -26 -6z"/>
<path d="M2930 3259 c0 -5 5 -7 10 -4 6 3 10 8 10 11 0 2 -4 4 -10 4 -5 0 -10
-5 -10 -11z"/>
<path d="M2906 3243 c-6 -14 -5 -15 5 -6 7 7 10 15 7 18 -3 3 -9 -2 -12 -12z"/>
<path d="M2870 3221 c0 -17 21 -24 33 -12 9 9 7 10 -7 5 -13 -5 -17 -4 -12 4
4 7 2 12 -3 12 -6 0 -11 -4 -11 -9z"/>
<path d="M2935 3220 c3 -5 8 -10 11 -10 2 0 4 5 4 10 0 6 -5 10 -11 10 -5 0
-7 -4 -4 -10z"/>
<path d="M2836 3078 c3 -5 10 -6 15 -3 13 9 11 12 -6 12 -8 0 -12 -4 -9 -9z"/>
<path d="M3587 3079 c7 -7 15 -10 18 -7 3 3 -2 9 -12 12 -14 6 -15 5 -6 -5z"/>
<path d="M2776 3001 c-3 -4 1 -16 8 -26 10 -14 15 -15 21 -5 5 9 4 11 -3 6
-11 -6 -16 6 -13 27 1 10 -7 9 -13 -2z"/>
<path d="M2800 2996 c0 -2 7 -7 16 -10 8 -3 12 -2 9 4 -6 10 -25 14 -25 6z"/>
<path d="M2637 2519 c8 -28 22 -33 16 -7 -3 17 -2 19 5 9 7 -9 12 -10 16 -2 4
6 4 11 -1 12 -4 0 -15 2 -24 4 -12 2 -15 -2 -12 -16z"/>
<path d="M2886 2527 c3 -10 9 -15 12 -12 3 3 0 11 -7 18 -10 9 -11 8 -5 -6z"/>
<path d="M3815 2517 c3 -32 3 -32 23 -14 10 10 22 14 27 10 4 -5 5 -2 1 5 -6
11 -12 10 -29 -5 -19 -16 -20 -16 -14 -1 3 10 2 20 -2 22 -5 3 -7 -5 -6 -17z"/>
<path d="M2820 2520 c8 -5 20 -10 25 -10 6 0 3 5 -5 10 -8 5 -19 10 -25 10 -5
0 -3 -5 5 -10z"/>
<path d="M3235 2521 c-3 -5 0 -13 6 -17 7 -4 9 -3 5 4 -3 5 0 13 6 15 9 4 10
6 1 6 -6 1 -14 -3 -18 -8z"/>
<path d="M3391 2513 c0 -11 3 -13 6 -5 2 6 10 9 15 6 7 -4 8 -2 4 4 -11 18
-26 14 -25 -5z"/>
<path d="M3448 2512 c4 -10 7 -12 10 -4 2 7 9 9 15 5 7 -3 8 -2 4 2 -14 16
-36 14 -29 -3z"/>
<path d="M3600 2519 c0 -5 5 -7 10 -4 6 3 10 8 10 11 0 2 -4 4 -10 4 -5 0 -10
-5 -10 -11z"/>
<path d="M3660 2522 c0 -5 7 -9 15 -9 8 0 12 4 9 9 -3 4 -9 8 -15 8 -5 0 -9
-4 -9 -8z"/>
<path d="M3735 2520 c-3 -5 -1 -10 4 -10 6 0 11 5 11 10 0 6 -2 10 -4 10 -3 0
-8 -4 -11 -10z"/>
<path d="M3785 2520 c3 -5 8 -10 11 -10 2 0 4 5 4 10 0 6 -5 10 -11 10 -5 0
-7 -4 -4 -10z"/>
<path d="M3903 2517 c-3 -6 -1 -7 5 -3 14 9 55 -12 47 -24 -3 -5 -1 -11 4 -14
11 -7 9 13 -2 32 -9 14 -6 15 17 6 9 -3 13 -11 9 -18 -3 -6 -3 -8 2 -4 4 4 15
2 24 -5 10 -8 8 -3 -4 13 -14 20 -28 26 -57 26 -21 0 -42 -4 -45 -9z"/>
<path d="M2675 2500 c-3 -5 -1 -10 4 -10 6 0 11 5 11 10 0 6 -2 10 -4 10 -3 0
-8 -4 -11 -10z"/>
<path d="M3075 2501 c-3 -5 -2 -12 3 -15 5 -3 9 1 9 9 0 17 -3 19 -12 6z"/>
<path d="M3340 2500 c-9 -6 -10 -10 -3 -10 6 0 15 5 18 10 8 12 4 12 -15 0z"/>
<path d="M3555 2500 c3 -5 8 -10 11 -10 2 0 4 5 4 10 0 6 -5 10 -11 10 -5 0
-7 -4 -4 -10z"/>
<path d="M3700 2500 c-9 -6 -10 -10 -3 -10 6 0 15 5 18 10 8 12 4 12 -15 0z"/>
<path d="M3760 2500 c-9 -6 -10 -10 -3 -10 6 0 15 5 18 10 8 12 4 12 -15 0z"/>
<path d="M3535 2481 c-3 -5 -2 -12 3 -15 5 -3 9 1 9 9 0 17 -3 19 -12 6z"/>
<path d="M2548 2458 c5 -5 16 -8 23 -6 8 3 3 7 -10 11 -17 4 -21 3 -13 -5z"/>
<path d="M2551 2433 c-1 -17 16 -25 25 -12 4 7 3 9 -4 5 -5 -3 -13 0 -15 6 -4
9 -6 10 -6 1z"/>
<path d="M4053 2425 c0 -8 4 -12 9 -9 5 3 6 10 3 15 -9 13 -12 11 -12 -6z"/>
<path d="M2530 2400 c0 -5 5 -10 10 -10 6 0 10 5 10 10 0 6 -4 10 -10 10 -5 0
-10 -4 -10 -10z"/>
<path d="M2504 2379 c-4 -7 -3 -9 4 -5 5 3 13 0 15 -6 4 -9 6 -10 6 -1 1 17
-16 25 -25 12z"/>
<path d="M2510 2326 c0 -2 7 -7 16 -10 8 -3 12 -2 9 4 -6 10 -25 14 -25 6z"/>
<path d="M2450 2240 c0 -5 5 -10 10 -10 6 0 10 5 10 10 0 6 -4 10 -10 10 -5 0
-10 -4 -10 -10z"/>
<path d="M2445 2140 c-3 -6 1 -7 9 -4 18 7 21 14 7 14 -6 0 -13 -4 -16 -10z"/>
<path d="M2390 2060 c0 -4 7 -7 15 -6 23 3 26 12 5 13 -11 1 -20 -2 -20 -7z"/>
<path d="M2375 2019 c-4 -6 -5 -12 -2 -15 2 -3 7 2 10 11 7 17 1 20 -8 4z"/>
<path d="M4330 2023 c0 -6 8 -17 18 -24 16 -13 16 -13 2 6 -8 11 -16 22 -17
24 -2 2 -3 0 -3 -6z"/>
<path d="M2360 1960 c-9 -6 -10 -10 -3 -10 6 0 15 5 18 10 8 12 4 12 -15 0z"/>
<path d="M2320 1940 c20 -13 33 -13 25 0 -3 6 -14 10 -23 10 -15 0 -15 -2 -2
-10z"/>
<path d="M4386 1922 c-3 -5 1 -9 9 -9 8 0 12 4 9 9 -3 4 -7 8 -9 8 -2 0 -6 -4
-9 -8z"/>
<path d="M2867 1659 c7 -7 15 -10 18 -7 3 3 -2 9 -12 12 -14 6 -15 5 -6 -5z"/>
<path d="M2915 1640 c-3 -5 -1 -10 4 -10 6 0 11 5 11 10 0 6 -2 10 -4 10 -3 0
-8 -4 -11 -10z"/>
<path d="M4510 2520 c0 -5 5 -10 10 -10 6 0 10 5 10 10 0 6 -4 10 -10 10 -5 0
-10 -4 -10 -10z"/>
<path d="M4546 2511 c4 -16 2 -21 -5 -17 -7 5 -9 1 -5 -9 6 -14 8 -14 20 2 7
10 13 25 14 33 0 12 -2 13 -9 1 -7 -11 -10 -11 -15 0 -3 8 -3 3 0 -10z"/>
<path d="M4626 2518 c3 -4 9 -8 15 -8 5 0 9 4 9 8 0 5 -7 9 -15 9 -8 0 -12 -4
-9 -9z"/>
<path d="M4753 2488 c-2 -18 0 -20 7 -8 12 18 13 30 2 30 -4 0 -9 -10 -9 -22z"/>
<path d="M4798 2493 c7 -3 16 -2 19 1 4 3 -2 6 -13 5 -11 0 -14 -3 -6 -6z"/>
<path d="M4571 2487 c2 -1 13 -9 24 -17 19 -14 19 -14 6 3 -7 9 -18 17 -24 17
-6 0 -8 -1 -6 -3z"/>
<path d="M4555 2461 c-3 -5 0 -13 6 -17 7 -4 9 -3 5 4 -3 5 0 13 6 15 9 4 10
6 1 6 -6 1 -14 -3 -18 -8z"/>
<path d="M4635 2401 c-3 -5 -2 -12 3 -15 5 -3 9 1 9 9 0 17 -3 19 -12 6z"/>
<path d="M4633 2355 c0 -8 4 -12 9 -9 5 3 6 10 3 15 -9 13 -12 11 -12 -6z"/>
<path d="M1330 2366 c0 -2 7 -7 16 -10 8 -3 12 -2 9 4 -6 10 -25 14 -25 6z"/>
<path d="M1335 2220 c-3 -6 1 -7 9 -4 18 7 21 14 7 14 -6 0 -13 -4 -16 -10z"/>
<path d="M1353 2198 c1 -7 -4 -12 -11 -10 -8 1 -11 -2 -7 -8 5 -8 11 -8 21 1
7 6 11 15 8 20 -8 13 -14 11 -11 -3z"/>
<path d="M1347 2139 c7 -7 15 -10 18 -7 3 3 -2 9 -12 12 -14 6 -15 5 -6 -5z"/>
<path d="M1350 2109 c0 -5 -5 -7 -12 -3 -7 4 -8 3 -4 -4 4 -6 13 -9 21 -6 8 4
12 10 9 15 -7 12 -14 11 -14 -2z"/>
<path d="M1355 2061 c-3 -5 -2 -12 3 -15 5 -3 9 1 9 9 0 17 -3 19 -12 6z"/>
<path d="M1336 2018 c3 -4 11 -5 19 -1 21 7 19 12 -4 10 -11 0 -18 -5 -15 -9z"/>
<path d="M1335 1980 c-3 -6 1 -7 9 -4 18 7 21 14 7 14 -6 0 -13 -4 -16 -10z"/>
<path d="M1334 1942 c4 -3 14 -7 22 -8 9 -1 13 0 10 4 -4 3 -14 7 -22 8 -9 1
-13 0 -10 -4z"/>
<path d="M1347 1893 c3 -7 6 -13 8 -13 2 0 5 6 8 13 3 8 -1 14 -8 14 -7 0 -11
-6 -8 -14z"/>
<path d="M1353 1835 c0 -8 4 -12 9 -9 5 3 6 10 3 15 -9 13 -12 11 -12 -6z"/>
<path d="M1356 1773 c-6 -14 -5 -15 5 -6 7 7 10 15 7 18 -3 3 -9 -2 -12 -12z"/>
<path d="M1346 1742 c-3 -5 1 -9 9 -9 8 0 12 4 9 9 -3 4 -7 8 -9 8 -2 0 -6 -4
-9 -8z"/>
<path d="M1335 1659 c-4 -6 -4 -13 -1 -16 3 -4 6 -1 6 6 0 7 5 9 12 5 7 -4 8
-3 4 4 -9 15 -13 15 -21 1z"/>
<path d="M1320 1606 c0 -2 7 -7 16 -10 8 -3 12 -2 9 4 -6 10 -25 14 -25 6z"/>
<path d="M5510 1960 c0 -5 5 -10 11 -10 5 0 7 5 4 10 -3 6 -8 10 -11 10 -2 0
-4 -4 -4 -10z"/>
<path d="M5530 1940 c-9 -6 -10 -10 -3 -10 6 0 15 5 18 10 8 12 4 12 -15 0z"/>
<path d="M5606 1782 c-3 -5 1 -9 9 -9 8 0 12 4 9 9 -3 4 -7 8 -9 8 -2 0 -6 -4
-9 -8z"/>
<path d="M5656 1782 c-2 -4 -1 -14 4 -22 7 -11 9 -9 7 8 -1 24 -3 26 -11 14z"/>
<path d="M5876 6058 c3 -5 10 -6 15 -3 13 9 11 12 -6 12 -8 0 -12 -4 -9 -9z"/>
<path d="M6006 5822 c-3 -5 1 -9 9 -9 8 0 12 4 9 9 -3 4 -7 8 -9 8 -2 0 -6 -4
-9 -8z"/>
<path d="M6029 5738 c7 -9 9 -23 5 -30 -6 -10 -4 -11 7 0 11 10 10 15 -6 30
-17 15 -18 15 -6 0z"/>
<path d="M6010 5640 c0 -5 5 -10 10 -10 6 0 10 5 10 10 0 6 -4 10 -10 10 -5 0
-10 -4 -10 -10z"/>
<path d="M6017 5573 c-10 -9 -9 -23 1 -23 5 0 9 7 9 15 0 17 -1 18 -10 8z"/>
<path d="M6017 5493 c-10 -9 -9 -23 1 -23 5 0 9 7 9 15 0 17 -1 18 -10 8z"/>
<path d="M6015 5409 c-4 -6 -5 -12 -2 -15 2 -3 7 2 10 11 7 17 1 20 -8 4z"/>
<path d="M6033 5358 c1 -7 -4 -12 -11 -10 -8 1 -11 -2 -7 -8 5 -8 11 -7 21 1
16 13 18 29 4 29 -5 0 -9 -6 -7 -12z"/>
<path d="M6015 5291 c-3 -5 -2 -12 3 -15 5 -3 9 1 9 9 0 17 -3 19 -12 6z"/>
<path d="M6021 5248 c-1 -20 14 -24 25 -6 4 6 3 8 -4 4 -5 -3 -13 0 -15 6 -3
8 -6 6 -6 -4z"/>
<path d="M6020 5200 c0 -5 7 -7 15 -4 8 4 15 8 15 10 0 2 -7 4 -15 4 -8 0 -15
-4 -15 -10z"/>
<path d="M6056 5142 c-3 -5 1 -9 9 -9 8 0 12 4 9 9 -3 4 -7 8 -9 8 -2 0 -6 -4
-9 -8z"/>
<path d="M6056 5018 c3 -5 10 -6 15 -3 13 9 11 12 -6 12 -8 0 -12 -4 -9 -9z"/>
<path d="M6036 4913 c-6 -14 -5 -15 5 -6 7 7 10 15 7 18 -3 3 -9 -2 -12 -12z"/>
<path d="M6033 4878 c1 -7 -4 -12 -11 -10 -8 1 -11 -2 -7 -8 5 -8 11 -7 21 1
16 13 18 29 4 29 -5 0 -9 -6 -7 -12z"/>
<path d="M6015 4811 c-3 -5 -2 -12 3 -15 5 -3 9 1 9 9 0 17 -3 19 -12 6z"/>
<path d="M6016 4765 c-3 -8 -1 -15 4 -15 6 0 10 7 10 15 0 8 -2 15 -4 15 -2 0
-6 -7 -10 -15z"/>
<path d="M6017 4693 c-10 -9 -9 -23 1 -23 5 0 9 7 9 15 0 17 -1 18 -10 8z"/>
<path d="M6017 4613 c-10 -9 -9 -23 1 -23 5 0 9 7 9 15 0 17 -1 18 -10 8z"/>
<path d="M6017 4533 c-10 -9 -9 -23 1 -23 5 0 9 7 9 15 0 17 -1 18 -10 8z"/>
<path d="M6017 4453 c-10 -9 -9 -23 1 -23 5 0 9 7 9 15 0 17 -1 18 -10 8z"/>
<path d="M6017 4373 c-10 -9 -9 -23 1 -23 5 0 9 7 9 15 0 17 -1 18 -10 8z"/>
<path d="M6017 4293 c-10 -9 -9 -23 1 -23 5 0 9 7 9 15 0 17 -1 18 -10 8z"/>
<path d="M6017 4213 c-10 -9 -9 -23 1 -23 5 0 9 7 9 15 0 17 -1 18 -10 8z"/>
<path d="M6015 4129 c-4 -6 -5 -12 -2 -15 2 -3 7 2 10 11 7 17 1 20 -8 4z"/>
<path d="M6033 4078 c1 -7 -4 -12 -11 -10 -8 1 -11 -2 -7 -8 5 -8 11 -7 21 1
16 13 18 29 4 29 -5 0 -9 -6 -7 -12z"/>
<path d="M6015 4011 c-3 -5 -2 -12 3 -15 5 -3 9 1 9 9 0 17 -3 19 -12 6z"/>
<path d="M6021 3968 c-1 -20 14 -24 25 -6 4 6 3 8 -4 4 -5 -3 -13 0 -15 6 -3
8 -6 6 -6 -4z"/>
<path d="M6020 3920 c0 -5 7 -7 15 -4 8 4 15 8 15 10 0 2 -7 4 -15 4 -8 0 -15
-4 -15 -10z"/>
<path d="M6056 3862 c-3 -5 1 -9 9 -9 8 0 12 4 9 9 -3 4 -7 8 -9 8 -2 0 -6 -4
-9 -8z"/>
<path d="M6056 3738 c3 -5 10 -6 15 -3 13 9 11 12 -6 12 -8 0 -12 -4 -9 -9z"/>
<path d="M6036 3633 c-6 -14 -5 -15 5 -6 7 7 10 15 7 18 -3 3 -9 -2 -12 -12z"/>
<path d="M6033 3598 c1 -7 -4 -12 -11 -10 -8 1 -11 -2 -7 -8 5 -8 11 -7 21 1
16 13 18 29 4 29 -5 0 -9 -6 -7 -12z"/>
<path d="M6015 3531 c-3 -5 -2 -12 3 -15 5 -3 9 1 9 9 0 17 -3 19 -12 6z"/>
<path d="M6016 3485 c-3 -8 -1 -15 4 -15 6 0 10 7 10 15 0 8 -2 15 -4 15 -2 0
-6 -7 -10 -15z"/>
<path d="M6017 3413 c-10 -9 -9 -23 1 -23 5 0 9 7 9 15 0 17 -1 18 -10 8z"/>
<path d="M6017 3333 c-10 -9 -9 -23 1 -23 5 0 9 7 9 15 0 17 -1 18 -10 8z"/>
<path d="M6017 3253 c-10 -9 -9 -23 1 -23 5 0 9 7 9 15 0 17 -1 18 -10 8z"/>
<path d="M6017 3173 c-10 -9 -9 -23 1 -23 5 0 9 7 9 15 0 17 -1 18 -10 8z"/>
<path d="M6017 3093 c-10 -9 -9 -23 1 -23 5 0 9 7 9 15 0 17 -1 18 -10 8z"/>
<path d="M6017 3013 c-10 -9 -9 -23 1 -23 5 0 9 7 9 15 0 17 -1 18 -10 8z"/>
<path d="M6017 2933 c-10 -9 -9 -23 1 -23 5 0 9 7 9 15 0 17 -1 18 -10 8z"/>
<path d="M6015 2849 c-4 -6 -5 -12 -2 -15 2 -3 7 2 10 11 7 17 1 20 -8 4z"/>
<path d="M6033 2798 c1 -7 -4 -12 -11 -10 -8 1 -11 -2 -7 -8 5 -8 11 -7 21 1
16 13 18 29 4 29 -5 0 -9 -6 -7 -12z"/>
<path d="M6015 2731 c-3 -5 -2 -12 3 -15 5 -3 9 1 9 9 0 17 -3 19 -12 6z"/>
<path d="M6021 2688 c-1 -20 14 -24 25 -6 4 6 3 8 -4 4 -5 -3 -13 0 -15 6 -3
8 -6 6 -6 -4z"/>
<path d="M6020 2640 c0 -5 7 -7 15 -4 8 4 15 8 15 10 0 2 -7 4 -15 4 -8 0 -15
-4 -15 -10z"/>
<path d="M6056 2582 c-3 -5 1 -9 9 -9 8 0 12 4 9 9 -3 4 -7 8 -9 8 -2 0 -6 -4
-9 -8z"/>
<path d="M6056 2458 c3 -5 10 -6 15 -3 13 9 11 12 -6 12 -8 0 -12 -4 -9 -9z"/>
<path d="M6036 2353 c-6 -14 -5 -15 5 -6 7 7 10 15 7 18 -3 3 -9 -2 -12 -12z"/>
<path d="M6033 2318 c1 -7 -4 -12 -11 -10 -8 1 -11 -2 -7 -8 5 -8 11 -7 21 1
16 13 18 29 4 29 -5 0 -9 -6 -7 -12z"/>
<path d="M6015 2251 c-3 -5 -2 -12 3 -15 5 -3 9 1 9 9 0 17 -3 19 -12 6z"/>
<path d="M6016 2205 c-3 -8 -1 -15 4 -15 6 0 10 7 10 15 0 8 -2 15 -4 15 -2 0
-6 -7 -10 -15z"/>
<path d="M6017 2133 c-10 -9 -9 -23 1 -23 5 0 9 7 9 15 0 17 -1 18 -10 8z"/>
<path d="M6017 2053 c-10 -9 -9 -23 1 -23 5 0 9 7 9 15 0 17 -1 18 -10 8z"/>
<path d="M6017 1973 c-10 -9 -9 -23 1 -23 5 0 9 7 9 15 0 17 -1 18 -10 8z"/>
<path d="M6015 1891 c-6 -11 13 -26 22 -17 4 3 1 6 -6 6 -7 0 -9 5 -6 10 3 6
4 10 1 10 -3 0 -7 -4 -11 -9z"/>
<path d="M6020 1840 c0 -5 7 -7 15 -4 8 4 15 8 15 10 0 2 -7 4 -15 4 -8 0 -15
-4 -15 -10z"/>
<path d="M6056 1782 c-3 -5 1 -9 9 -9 8 0 12 4 9 9 -3 4 -7 8 -9 8 -2 0 -6 -4
-9 -8z"/>
<path d="M6015 1691 c-3 -5 -2 -12 3 -15 5 -3 9 1 9 9 0 17 -3 19 -12 6z"/>
<path d="M6049 1683 c-13 -16 -12 -17 4 -4 16 13 21 21 13 21 -2 0 -10 -8 -17
-17z"/>
<path d="M6020 1600 c0 -5 7 -7 15 -4 8 4 15 8 15 10 0 2 -7 4 -15 4 -8 0 -15
-4 -15 -10z"/>
<path d="M6020 1520 c0 -5 7 -7 15 -4 8 4 15 8 15 10 0 2 -7 4 -15 4 -8 0 -15
-4 -15 -10z"/>
<path d="M6056 1462 c-3 -5 1 -9 9 -9 8 0 12 4 9 9 -3 4 -7 8 -9 8 -2 0 -6 -4
-9 -8z"/>
<path d="M6010 1406 c0 -2 7 -7 16 -10 8 -3 12 -2 9 4 -6 10 -25 14 -25 6z"/>
<path d="M6035 1209 c-4 -6 -5 -12 -2 -15 2 -3 7 2 10 11 7 17 1 20 -8 4z"/>
<path d="M5986 1078 c3 -5 10 -6 15 -3 13 9 11 12 -6 12 -8 0 -12 -4 -9 -9z"/>
<path d="M5986 998 c3 -5 10 -6 15 -3 13 9 11 12 -6 12 -8 0 -12 -4 -9 -9z"/>
<path d="M5879 973 c-13 -15 -12 -15 9 -4 23 12 28 21 13 21 -5 0 -15 -7 -22
-17z"/>
<path d="M5910 960 c0 -5 5 -10 11 -10 5 0 7 5 4 10 -3 6 -8 10 -11 10 -2 0
-4 -4 -4 -10z"/>
<path d="M5840 941 c0 -6 4 -13 10 -16 6 -3 7 1 4 9 -7 18 -14 21 -14 7z"/>
<path d="M1150 899 c0 -5 5 -7 10 -4 6 3 10 8 10 11 0 2 -4 4 -10 4 -5 0 -10
-5 -10 -11z"/>
<path d="M5806 896 c6 -15 4 -17 -6 -11 -9 6 -11 4 -5 -4 5 -9 10 -10 18 -2 8
8 7 14 -2 24 -10 10 -11 8 -5 -7z"/>
<path d="M5750 875 c-7 -8 -17 -12 -23 -8 -6 4 -7 1 -3 -6 6 -9 13 -8 27 5 10
9 19 19 19 21 0 7 -8 2 -20 -12z"/>
<path d="M5746 842 c-3 -5 1 -9 9 -9 8 0 15 4 15 9 0 4 -4 8 -9 8 -6 0 -12 -4
-15 -8z"/>
<path d="M5704 824 c-18 -14 -18 -15 4 -4 12 6 22 13 22 15 0 8 -5 6 -26 -11z"/>
<path d="M2023 807 c0 -7 11 -13 24 -13 27 -2 27 -1 -3 14 -15 8 -21 8 -21 -1z"/>
<path d="M2182 815 c4 -5 2 -15 -5 -24 -10 -14 -10 -14 4 -3 9 7 25 9 35 6 25
-9 16 0 -16 16 -14 7 -22 9 -18 5z"/>
<path d="M2983 807 c0 -7 11 -13 24 -13 27 -2 27 -1 -3 14 -15 8 -21 8 -21 -1z"/>
<path d="M3142 815 c4 -5 2 -15 -5 -24 -10 -14 -10 -14 4 -3 9 7 25 9 35 6 25
-9 16 0 -16 16 -14 7 -22 9 -18 5z"/>
<path d="M3501 813 c-1 -17 19 -27 31 -15 6 6 6 12 -3 17 -8 5 -10 4 -5 -3 4
-7 3 -12 -3 -12 -5 0 -12 6 -14 13 -4 9 -6 9 -6 0z"/>
<path d="M5493 805 c-3 -9 -3 -18 -1 -21 3 -3 8 4 11 16 6 23 -1 27 -10 5z"/>
<path d="M1385 800 c-3 -6 1 -7 9 -4 18 7 21 14 7 14 -6 0 -13 -4 -16 -10z"/>
<path d="M1690 806 c0 -2 7 -7 16 -10 8 -3 12 -2 9 4 -6 10 -25 14 -25 6z"/>
<path d="M1730 799 c0 -5 5 -7 10 -4 6 3 10 8 10 11 0 2 -4 4 -10 4 -5 0 -10
-5 -10 -11z"/>
<path d="M2410 806 c0 -2 7 -7 16 -10 8 -3 12 -2 9 4 -6 10 -25 14 -25 6z"/>
<path d="M2650 806 c0 -2 7 -7 16 -10 8 -3 12 -2 9 4 -6 10 -25 14 -25 6z"/>
<path d="M2690 799 c0 -5 5 -7 10 -4 6 3 10 8 10 11 0 2 -4 4 -10 4 -5 0 -10
-5 -10 -11z"/>
<path d="M3610 806 c0 -2 7 -7 16 -10 8 -3 12 -2 9 4 -6 10 -25 14 -25 6z"/>
<path d="M3650 799 c0 -5 5 -7 10 -4 6 3 10 8 10 11 0 2 -4 4 -10 4 -5 0 -10
-5 -10 -11z"/>
<path d="M3850 806 c0 -2 7 -7 16 -10 8 -3 12 -2 9 4 -6 10 -25 14 -25 6z"/>
<path d="M4104 798 c10 -6 22 -6 26 -2 5 5 -3 10 -18 11 -22 1 -24 0 -8 -9z"/>
<path d="M4170 806 c0 -2 7 -7 16 -10 8 -3 12 -2 9 4 -6 10 -25 14 -25 6z"/>
<path d="M4424 798 c10 -6 22 -6 26 -2 5 5 -3 10 -18 11 -22 1 -24 0 -8 -9z"/>
<path d="M4490 806 c0 -2 7 -7 16 -10 8 -3 12 -2 9 4 -6 10 -25 14 -25 6z"/>
<path d="M4744 798 c10 -6 22 -6 26 -2 5 5 -3 10 -18 11 -22 1 -24 0 -8 -9z"/>
<path d="M4810 806 c0 -2 7 -7 16 -10 8 -3 12 -2 9 4 -6 10 -25 14 -25 6z"/>
<path d="M5064 798 c10 -6 22 -6 26 -2 5 5 -3 10 -18 11 -22 1 -24 0 -8 -9z"/>
<path d="M5130 806 c0 -2 7 -7 16 -10 8 -3 12 -2 9 4 -6 10 -25 14 -25 6z"/>
<path d="M5170 799 c0 -5 5 -7 10 -4 6 3 10 8 10 11 0 2 -4 4 -10 4 -5 0 -10
-5 -10 -11z"/>
<path d="M5384 798 c10 -6 22 -6 26 -2 5 5 -3 10 -18 11 -22 1 -24 0 -8 -9z"/>
<path d="M5450 806 c0 -2 7 -7 16 -10 8 -3 12 -2 9 4 -6 10 -25 14 -25 6z"/>
<path d="M5516 802 c-3 -5 1 -9 9 -9 8 0 12 4 9 9 -3 4 -7 8 -9 8 -2 0 -6 -4
-9 -8z"/>
<path d="M5616 795 c-3 -8 -1 -17 5 -20 5 -4 8 -1 7 6 -2 7 2 13 9 14 20 0 23
11 3 12 -10 1 -21 -5 -24 -12z"/>
<path d="M1790 790 c0 -5 5 -10 11 -10 5 0 7 5 4 10 -3 6 -8 10 -11 10 -2 0
-4 -4 -4 -10z"/>
<path d="M1870 790 c0 -5 5 -10 11 -10 5 0 7 5 4 10 -3 6 -8 10 -11 10 -2 0
-4 -4 -4 -10z"/>
<path d="M2270 790 c0 -5 5 -10 11 -10 5 0 7 5 4 10 -3 6 -8 10 -11 10 -2 0
-4 -4 -4 -10z"/>
<path d="M2350 790 c0 -5 5 -10 11 -10 5 0 7 5 4 10 -3 6 -8 10 -11 10 -2 0
-4 -4 -4 -10z"/>
<path d="M2750 790 c0 -5 5 -10 11 -10 5 0 7 5 4 10 -3 6 -8 10 -11 10 -2 0
-4 -4 -4 -10z"/>
<path d="M2830 790 c0 -5 5 -10 11 -10 5 0 7 5 4 10 -3 6 -8 10 -11 10 -2 0
-4 -4 -4 -10z"/>
<path d="M3230 790 c0 -5 5 -10 11 -10 5 0 7 5 4 10 -3 6 -8 10 -11 10 -2 0
-4 -4 -4 -10z"/>
<path d="M3710 790 c0 -5 5 -10 11 -10 5 0 7 5 4 10 -3 6 -8 10 -11 10 -2 0
-4 -4 -4 -10z"/>
<path d="M3790 790 c0 -5 5 -10 11 -10 5 0 7 5 4 10 -3 6 -8 10 -11 10 -2 0
-4 -4 -4 -10z"/>
<path d="M1520 780 c-9 -6 -10 -10 -3 -10 6 0 15 5 18 10 8 12 4 12 -15 0z"/>
<path d="M1618 778 c-9 -5 -6 -7 9 -5 12 2 25 6 28 8 8 9 -23 6 -37 -3z"/>
<path d="M1740 780 c-9 -6 -10 -10 -3 -10 6 0 15 5 18 10 8 12 4 12 -15 0z"/>
<path d="M2700 780 c-9 -6 -10 -10 -3 -10 6 0 15 5 18 10 8 12 4 12 -15 0z"/>
<path d="M3430 780 c0 -5 7 -7 15 -4 8 4 15 8 15 10 0 2 -7 4 -15 4 -8 0 -15
-4 -15 -10z"/>
<path d="M3550 778 c0 -4 4 -8 9 -8 6 0 12 4 15 8 3 5 -1 9 -9 9 -8 0 -15 -4
-15 -9z"/>
<path d="M3660 780 c-9 -6 -10 -10 -3 -10 6 0 15 5 18 10 8 12 4 12 -15 0z"/>
<path d="M5178 778 c-9 -5 -6 -7 9 -5 12 2 25 6 28 8 8 9 -23 6 -37 -3z"/>
<path d="M2055 771 c-3 -5 -2 -12 3 -15 5 -3 9 1 9 9 0 17 -3 19 -12 6z"/>
<path d="M2215 769 c-4 -6 -5 -12 -2 -15 2 -3 7 2 10 11 7 17 1 20 -8 4z"/>
<path d="M3015 771 c-3 -5 -2 -12 3 -15 5 -3 9 1 9 9 0 17 -3 19 -12 6z"/>
<path d="M3175 769 c-4 -6 -5 -12 -2 -15 2 -3 7 2 10 11 7 17 1 20 -8 4z"/>
<path d="M3395 771 c-3 -5 -2 -12 3 -15 5 -3 9 1 9 9 0 17 -3 19 -12 6z"/>
<path d="M5533 765 c0 -8 4 -12 9 -9 5 3 6 10 3 15 -9 13 -12 11 -12 -6z"/>
</g>
</svg>
