<?xml version="1.0" standalone="no"?>
<!DOCTYPE svg PUBLIC "-//W3C//DTD SVG 20010904//EN"
 "http://www.w3.org/TR/2001/REC-SVG-20010904/DTD/svg10.dtd">
<svg version="1.0" xmlns="http://www.w3.org/2000/svg"
 width="700.000000pt" height="700.000000pt" viewBox="0 0 700.000000 700.000000"
 preserveAspectRatio="xMidYMid meet">
<metadata>
Created by potrace 1.14, written by Peter Selinger 2001-2017
</metadata>
<g transform="translate(0.000000,700.000000) scale(0.100000,-0.100000)"
fill="#000000" stroke="none">
<path d="M2556 6191 c-4 -5 -223 -8 -521 -8 -283 1 -515 0 -515 -3 0 -3 -26
-6 -58 -6 -85 -2 -131 -8 -125 -16 2 -5 -4 -8 -14 -9 -25 -1 -103 -46 -155
-91 -84 -71 -151 -199 -162 -310 -2 -24 -5 -45 -6 -48 -1 -3 -2 -9 -1 -14 8
-43 7 -86 -3 -86 -6 0 -6 -4 2 -9 18 -11 18 -12 3 -40 -11 -19 -11 -22 1 -15
11 6 11 5 -1 -9 -7 -9 -9 -17 -4 -17 10 0 9 -70 -1 -96 -3 -8 -2 -16 3 -18 9
-6 8 -37 -3 -54 -4 -7 -2 -12 6 -12 9 0 9 -3 -2 -10 -8 -5 -10 -10 -5 -10 6 0
10 -25 10 -55 0 -30 -4 -55 -10 -55 -7 0 -6 -3 0 -8 13 -9 13 -145 0 -154 -7
-5 -7 -8 0 -8 10 0 12 -66 3 -76 -3 -3 -2 -21 2 -40 4 -19 4 -36 0 -39 -4 -3
-4 -20 0 -39 5 -22 3 -39 -4 -47 -8 -9 -7 -10 8 -5 14 5 16 3 9 -6 -6 -7 -9
-41 -9 -75 1 -37 -3 -63 -9 -63 -5 0 -4 -4 3 -9 18 -11 18 -12 3 -40 -11 -19
-11 -22 1 -15 11 6 11 5 -1 -9 -7 -9 -10 -17 -5 -17 5 0 9 -27 9 -59 0 -35 -4
-54 -8 -48 -5 7 -6 3 -1 -8 8 -22 8 -64 1 -108 -2 -15 -1 -30 3 -32 7 -5 4
-59 -5 -82 -2 -7 -1 -15 4 -17 9 -6 8 -37 -3 -54 -4 -6 -3 -12 1 -12 9 0 10
-46 1 -55 -3 -3 -2 -22 2 -41 4 -19 4 -36 0 -39 -4 -3 -4 -21 0 -40 9 -40 8
-54 -3 -72 -5 -7 -5 -13 0 -13 4 0 8 -25 8 -55 0 -31 -4 -55 -10 -55 -7 0 -7
-3 0 -8 13 -9 13 -225 0 -234 -6 -5 -5 -8 3 -8 9 0 10 -5 3 -18 -5 -10 -6 -24
-2 -31 8 -12 8 -27 -2 -94 -2 -15 -1 -30 3 -32 7 -5 4 -59 -5 -82 -2 -7 -1
-15 4 -17 9 -6 8 -37 -3 -54 -4 -6 -4 -12 1 -12 12 0 10 -104 -2 -112 -6 -5
-4 -8 5 -8 13 0 13 -1 0 -10 -11 -7 -11 -10 -2 -10 9 0 10 -5 3 -18 -5 -10 -6
-24 -2 -31 8 -12 7 -31 -2 -96 -2 -11 -1 -24 2 -30 8 -16 8 -86 -1 -91 -4 -3
-4 -13 2 -23 6 -12 5 -22 -2 -29 -9 -9 -9 -12 2 -12 11 0 11 -3 2 -12 -6 -6
-8 -18 -3 -27 7 -15 7 -39 -2 -96 -2 -11 -1 -24 2 -29 9 -18 6 -116 -4 -116
-5 0 -3 -5 5 -10 13 -9 13 -10 0 -10 -11 0 -12 -2 -3 -8 8 -5 9 -13 3 -22 -5
-8 -5 -21 -1 -29 7 -15 7 -39 -2 -96 -2 -11 -1 -24 2 -30 8 -16 8 -86 -1 -91
-4 -3 -4 -13 2 -23 6 -12 5 -22 -2 -29 -7 -7 -8 -12 -2 -12 11 0 12 -60 0 -78
-4 -7 -2 -12 6 -12 9 0 9 -3 -2 -10 -8 -5 -10 -10 -5 -10 6 0 10 -25 10 -55 0
-30 -4 -55 -10 -55 -7 0 -7 -3 0 -8 13 -9 13 -225 0 -234 -6 -5 -5 -8 3 -8 9
0 10 -5 3 -18 -5 -10 -6 -24 -2 -31 8 -12 7 -31 -2 -96 -2 -11 -1 -24 2 -30 8
-15 7 -94 -1 -88 -5 2 -8 -1 -8 -6 0 -6 4 -11 10 -11 12 0 9 -22 -5 -32 -6 -5
-5 -8 3 -8 7 0 12 -13 12 -31 0 -17 5 -40 11 -51 9 -16 8 -19 -2 -13 -7 5 -6
-1 4 -14 8 -13 13 -31 10 -40 -4 -9 -3 -13 2 -9 4 4 18 -15 31 -41 21 -41 54
-81 124 -145 8 -8 42 -27 75 -42 62 -30 77 -42 69 -56 -3 -4 2 -5 11 -1 13 5
14 7 3 14 -7 5 -8 9 -2 9 6 0 14 -3 18 -7 4 -5 13 -8 19 -8 7 -1 11 -6 10 -13
-2 -7 2 -12 7 -12 6 0 10 7 10 15 0 16 29 10 42 -9 5 -8 8 -8 8 0 0 7 17 12
40 12 22 0 40 -3 40 -9 0 -5 5 -9 11 -9 5 0 7 5 4 10 -10 17 7 11 20 -7 13
-17 50 -29 39 -12 -3 5 0 9 7 9 7 0 9 3 6 6 -4 4 -13 1 -21 -5 -10 -8 -16 -9
-21 -1 -8 12 -6 13 75 15 49 1 68 -3 78 -14 10 -14 11 -14 7 -1 -4 13 3 16 39
16 30 1 43 -3 39 -10 -4 -6 1 -5 10 3 12 9 17 10 17 2 0 -7 5 -9 13 -4 6 4 23
9 35 11 17 2 22 -1 16 -10 -6 -10 -5 -10 7 -2 17 13 49 14 49 2 0 -5 6 -6 13
-1 6 4 23 9 35 11 17 2 22 -1 16 -10 -6 -10 -5 -10 7 -2 16 14 89 14 89 1 0
-4 6 -5 13 0 17 11 107 11 107 0 0 -4 6 -5 13 0 19 12 47 14 47 3 0 -6 5 -10
11 -10 5 0 8 4 5 9 -11 18 34 5 49 -14 16 -20 16 -19 5 3 -6 12 -7 22 -3 22
10 0 38 -42 35 -53 -1 -5 2 -6 8 -2 6 4 4 15 -6 31 -19 27 -8 33 12 7 13 -17
14 -17 8 0 -3 9 -1 17 5 17 6 0 11 -4 11 -10 0 -5 5 -10 11 -10 5 0 8 4 5 8
-2 4 4 8 15 8 11 0 18 -5 15 -13 -3 -7 1 -10 9 -6 8 3 12 9 9 14 -3 5 0 9 5 9
6 0 11 -5 11 -11 0 -8 4 -8 13 -2 20 16 49 12 42 -6 -4 -11 -1 -10 15 4 20 18
29 8 10 -11 -7 -7 -6 -11 4 -11 8 0 13 4 10 9 -3 4 0 8 6 8 6 0 8 5 5 10 -3 6
-1 10 4 10 6 0 11 -4 11 -10 0 -5 5 -10 11 -10 5 0 8 4 5 8 -2 4 11 8 30 9 19
0 34 -4 34 -9 0 -5 -4 -7 -9 -4 -5 3 -12 -1 -15 -10 -6 -16 6 -12 36 14 14 11
21 12 32 3 11 -9 15 -9 20 1 5 10 7 10 12 0 3 -6 11 -9 17 -5 21 14 78 10 72
-5 -3 -7 0 -10 6 -7 13 9 41 -14 32 -28 -3 -6 -1 -7 6 -3 8 6 9 12 2 20 -6 7
-7 17 -3 21 4 5 2 5 -5 1 -6 -3 -14 -2 -17 2 -3 5 15 9 39 9 30 0 42 -4 38
-11 -5 -7 -2 -7 8 0 16 14 89 14 89 1 0 -4 6 -5 13 0 17 11 107 11 107 0 0 -4
6 -5 13 0 22 14 60 15 51 2 -5 -8 -3 -9 7 -3 28 17 38 13 34 -17 -2 -17 0 -27
6 -23 5 3 7 9 4 14 -7 11 5 40 17 40 6 0 7 -7 4 -16 -3 -8 -2 -13 3 -10 12 8
33 -19 23 -29 -4 -5 -1 -5 5 -1 10 5 10 12 -2 29 -14 21 -13 23 10 25 14 1 25
-3 25 -8 0 -6 5 -10 11 -10 5 0 8 3 6 8 -3 4 24 7 59 8 35 0 64 -3 64 -8 0 -4
8 -8 18 -8 14 0 15 2 2 10 -11 7 -8 9 15 8 17 -1 38 -11 48 -22 l18 -21 -11
23 c-13 26 -3 29 16 5 11 -14 13 -15 9 -2 -5 12 1 15 24 14 38 -2 47 -10 32
-29 -8 -10 -9 -16 -1 -21 6 -4 9 -1 8 7 -2 7 3 12 10 10 10 -2 10 2 2 18 -9
16 -8 20 5 20 10 0 13 -5 9 -12 -5 -7 -3 -8 7 -2 28 17 38 13 34 -17 -2 -16 0
-27 5 -24 5 3 6 13 3 22 -4 11 -3 14 5 9 8 -5 10 -2 6 8 -3 9 -2 16 3 16 10 0
38 -42 35 -53 -1 -5 2 -6 8 -2 6 4 4 15 -6 31 -10 15 -12 24 -5 24 6 0 11 -6
11 -12 0 -9 3 -10 8 -2 8 13 102 14 102 1 0 -4 6 -5 13 0 6 4 23 9 35 11 17 2
22 -1 16 -10 -6 -10 -5 -10 7 -2 17 15 91 14 101 0 5 -7 8 -7 8 2 0 6 7 12 15
12 8 0 15 -6 15 -12 0 -10 2 -10 8 -2 8 14 102 15 102 2 0 -5 6 -6 13 -1 6 4
23 9 35 11 17 2 22 -1 16 -10 -6 -10 -5 -10 7 -2 17 15 91 14 101 0 5 -7 8 -7
8 2 0 6 7 12 15 12 8 0 15 -6 15 -12 0 -9 3 -10 8 -2 8 13 102 14 102 1 0 -4
6 -5 13 0 6 4 23 9 35 11 17 2 22 -1 16 -10 -6 -10 -5 -10 7 -2 17 15 91 14
101 0 5 -7 8 -7 8 2 0 6 7 12 15 12 8 0 15 -6 15 -12 0 -10 2 -10 8 -2 8 14
102 15 102 2 0 -5 6 -6 13 -1 6 4 23 9 35 11 17 2 22 -1 16 -10 -6 -10 -5 -10
7 -2 18 15 99 14 99 0 0 -7 3 -8 8 -1 10 14 65 15 74 2 4 -6 2 -17 -3 -23 -7
-8 -6 -15 2 -20 7 -4 9 -3 5 4 -3 6 -2 13 3 17 6 3 8 11 5 19 -3 8 5 12 26 12
16 0 30 -4 30 -8 0 -5 6 -6 13 -1 6 4 23 9 35 11 17 2 22 -1 16 -10 -6 -10 -5
-10 7 -2 17 15 91 14 101 0 5 -7 8 -7 8 2 0 16 27 16 33 0 4 -10 6 -10 6 0 1
6 5 12 11 12 5 0 7 -8 4 -17 -5 -16 -5 -17 5 -1 8 11 25 16 56 16 24 0 54 3
65 7 15 5 26 1 35 -12 13 -17 14 -17 9 3 -4 15 1 23 20 32 14 6 26 8 26 3 0
-5 7 -12 16 -15 14 -5 15 -4 5 7 -9 11 -8 17 5 28 14 11 15 10 12 -5 -2 -12 4
-20 15 -22 15 -2 16 0 6 12 -6 8 -9 17 -5 21 3 4 13 -2 22 -13 14 -18 14 -18
3 5 -11 23 -4 34 28 44 4 1 27 25 52 52 25 28 49 52 54 53 4 2 5 8 2 12 -3 5
3 18 15 30 11 11 17 20 13 20 -4 0 -2 5 5 12 8 8 15 8 26 -1 11 -9 16 -9 22 0
4 7 3 9 -3 6 -6 -4 -16 0 -23 8 -9 11 -9 20 2 42 7 15 13 37 13 48 0 11 7 26
15 33 8 8 9 11 3 7 -7 -3 -13 -1 -13 4 0 6 6 11 13 11 7 0 8 3 2 8 -5 4 -11
14 -13 22 -3 11 1 10 16 -3 15 -14 22 -15 28 -6 4 7 3 10 -3 6 -5 -3 -17 3
-26 14 -14 15 -14 19 -2 19 7 0 16 4 19 9 4 5 -4 7 -16 4 -19 -4 -20 -3 -8 6
8 6 10 11 4 11 -12 0 -12 28 -1 47 4 6 1 14 -5 16 -10 4 -10 6 0 6 6 1 12 6
12 12 0 5 -3 8 -7 6 -5 -3 -8 12 -8 34 -1 21 3 39 7 39 4 0 8 5 8 11 0 5 -4 8
-8 5 -5 -3 -9 1 -9 9 0 16 9 19 21 8 3 -4 14 -8 22 -9 9 -1 13 1 9 4 -4 4 -11
7 -17 7 -6 0 -12 9 -14 19 -1 10 -6 22 -11 25 -10 8 -13 52 -3 46 4 -3 13 2
19 9 10 12 8 14 -11 9 -18 -4 -20 -3 -8 6 8 6 10 11 4 11 -12 0 -12 36 1 47 4
5 4 1 0 -7 -7 -12 -6 -13 7 -3 8 7 19 9 23 5 5 -4 5 -1 1 6 -4 7 -11 10 -15 8
-4 -3 -13 -1 -21 5 -10 6 -11 9 -2 9 6 0 12 5 12 11 0 5 -3 8 -7 6 -5 -3 -8
12 -8 34 -1 21 3 39 7 39 4 0 8 5 8 11 0 5 -4 8 -8 5 -5 -3 -9 1 -9 9 0 16 9
19 21 8 10 -11 37 -12 30 -2 -3 5 -10 7 -15 4 -5 -4 -14 6 -21 22 -15 37 -16
47 -3 56 7 4 7 10 0 15 -14 10 -17 32 -5 32 6 0 10 -5 10 -12 0 -6 3 -8 7 -4
5 4 -1 14 -11 22 -19 14 -19 14 -1 14 18 0 18 1 -1 16 -15 13 -16 15 -2 10 12
-3 15 -1 11 9 -3 8 -8 13 -12 10 -4 -2 -8 2 -8 11 0 9 7 12 19 8 10 -3 18 0
18 6 0 6 -4 9 -9 6 -5 -3 -15 2 -22 11 -10 12 -10 14 -1 9 6 -4 12 -2 12 3 0
6 -3 11 -8 11 -9 0 -9 71 1 87 4 6 1 14 -5 17 -7 4 -3 4 10 2 12 -2 20 0 16 5
-3 5 -11 9 -17 9 -7 0 -13 9 -13 19 0 11 4 17 8 15 4 -3 8 0 8 5 0 6 -6 11
-12 11 -9 0 -8 4 2 10 12 8 13 12 2 19 -20 12 -19 16 2 40 14 16 16 20 5 16
-10 -4 -16 0 -16 9 0 8 4 13 9 10 4 -3 8 0 8 5 0 6 -4 11 -9 11 -10 0 -9 55 2
66 12 12 8 26 -5 18 -8 -5 -8 -1 1 10 13 15 13 19 0 27 -10 6 -10 9 -1 9 6 0
12 5 12 11 0 5 -3 8 -7 6 -5 -3 -8 12 -8 34 -1 21 3 39 7 39 4 0 8 5 8 11 0 5
-4 8 -8 5 -5 -3 -9 1 -9 9 0 16 9 19 21 8 3 -4 14 -8 22 -9 9 -1 13 1 9 4 -4
4 -12 7 -18 7 -7 0 -11 12 -9 25 2 23 2 23 -11 6 -12 -16 -13 -16 -13 7 0 14
4 23 8 21 13 -8 9 11 -4 25 -10 11 -10 13 0 7 6 -4 12 -2 12 3 0 6 -6 11 -12
11 -9 0 -8 4 2 10 10 7 11 13 5 18 -12 8 -13 27 -3 38 11 10 10 26 0 20 -5 -3
-9 1 -9 10 0 9 7 12 19 8 10 -3 18 0 18 6 0 6 -4 9 -9 6 -5 -3 -15 2 -22 11
-10 12 -10 14 -1 9 6 -4 12 -2 12 3 0 6 -3 11 -8 11 -4 0 -7 28 -7 63 0 45 4
64 15 69 12 5 11 7 -3 7 -10 1 -15 6 -12 11 4 6 12 8 18 4 7 -3 4 1 -6 9 -18
15 -17 16 3 22 l22 7 -22 15 c-16 11 -19 18 -11 26 13 13 15 31 3 23 -5 -3 -9
1 -9 10 0 9 7 12 19 8 10 -3 18 0 18 6 0 6 -4 9 -9 6 -5 -3 -15 2 -22 11 -10
12 -10 14 -1 9 6 -4 12 -2 12 3 0 6 -3 11 -8 11 -4 0 -7 28 -7 63 0 45 4 64
15 69 12 5 11 7 -3 7 -10 1 -15 6 -12 11 4 6 12 8 18 4 7 -3 4 1 -6 9 -18 15
-17 16 3 22 l22 7 -21 15 c-17 11 -19 18 -11 33 7 13 6 20 -3 24 -6 4 -2 4 11
2 12 -2 20 0 16 5 -3 5 -11 9 -17 9 -7 0 -13 9 -13 19 0 11 4 17 8 15 4 -3 8
0 8 5 0 6 -6 11 -12 11 -9 0 -8 4 2 10 12 8 13 12 2 19 -17 10 -15 21 6 44 13
15 14 17 1 12 -10 -4 -16 0 -16 9 0 8 4 13 9 10 4 -3 8 0 8 5 0 6 -4 11 -9 11
-10 0 -9 55 2 66 12 12 8 26 -5 18 -8 -5 -8 -1 1 10 13 15 13 19 0 27 -10 6
-10 9 -1 9 6 0 12 5 12 11 0 5 -3 8 -7 6 -5 -3 -8 12 -8 34 -1 21 3 39 7 39 4
0 8 5 8 11 0 5 -4 8 -8 5 -5 -3 -9 1 -9 9 0 16 9 19 21 8 3 -4 14 -8 22 -9 9
-1 13 1 9 4 -4 4 -12 7 -18 7 -7 0 -11 12 -9 25 2 23 2 23 -11 6 -12 -16 -13
-16 -13 7 0 14 4 23 8 21 13 -8 9 11 -4 25 -10 11 -10 13 0 7 6 -4 12 -2 12 3
0 6 -6 11 -12 11 -9 0 -8 4 2 10 10 7 11 13 5 18 -12 8 -13 27 -2 38 10 10 9
26 -1 20 -5 -3 -9 1 -9 10 0 9 7 12 19 8 10 -3 18 0 18 6 0 6 -4 9 -9 6 -5 -3
-15 2 -22 11 -10 12 -10 14 -1 9 6 -4 12 -2 12 3 0 6 -3 11 -8 11 -4 0 -7 28
-7 63 0 45 4 64 15 69 12 5 11 7 -3 7 -10 1 -15 6 -12 11 4 6 12 8 18 4 7 -3
4 1 -6 9 -18 15 -17 15 3 22 20 6 20 8 4 20 -18 12 -30 50 -13 39 11 -6 12 10
2 20 -11 11 -10 30 2 39 7 4 7 10 0 15 -14 10 -17 32 -5 32 6 0 10 -5 10 -12
0 -6 3 -8 7 -4 5 4 -1 14 -11 22 -19 14 -19 14 -1 14 18 0 18 1 -1 16 -15 13
-16 15 -2 10 12 -3 15 -1 11 9 -3 8 -8 13 -12 10 -4 -2 -8 2 -8 11 0 9 7 12
19 8 10 -3 18 0 18 6 0 6 -4 9 -9 6 -5 -3 -15 2 -22 11 -10 12 -10 14 -1 9 6
-4 12 -2 12 3 0 6 -3 11 -8 11 -9 0 -9 71 1 87 4 6 1 14 -5 17 -7 4 -3 4 10 2
12 -2 20 0 16 5 -3 5 -11 9 -17 9 -7 0 -13 9 -13 19 0 11 4 17 8 15 4 -3 8 0
8 5 0 6 -6 11 -12 11 -9 0 -8 4 2 10 12 8 13 12 2 19 -20 12 -19 16 2 40 14
16 16 20 5 16 -10 -4 -16 0 -16 9 0 8 4 13 9 10 4 -3 8 0 8 5 0 6 -4 11 -9 11
-10 0 -9 55 2 66 12 12 8 26 -5 18 -8 -5 -8 -1 1 10 13 15 13 19 0 27 -10 6
-10 9 -1 9 6 0 12 5 12 11 0 5 -3 8 -7 6 -5 -3 -8 12 -8 34 -1 21 3 39 7 39 4
0 8 5 8 11 0 5 -4 8 -8 5 -5 -3 -9 1 -9 9 0 16 9 19 21 8 3 -4 14 -8 22 -9 9
-1 13 1 9 4 -4 4 -12 7 -18 7 -7 0 -11 12 -9 25 2 23 2 23 -11 6 -12 -16 -13
-16 -13 7 0 14 4 23 8 21 13 -8 9 11 -4 25 -10 11 -10 13 0 7 6 -4 12 -2 12 3
0 6 -6 11 -12 11 -9 0 -8 4 2 10 9 6 11 13 5 18 -12 9 -16 54 -4 46 11 -6 12
10 2 20 -11 11 -10 30 2 39 7 4 7 10 0 15 -17 12 -14 52 3 52 13 0 12 3 -4 16
-15 13 -16 15 -2 10 12 -3 15 -1 11 9 -3 8 -8 13 -12 10 -4 -2 -8 2 -8 11 0 9
7 12 19 8 10 -3 18 -1 18 5 0 6 -3 10 -7 10 -5 -1 -15 -1 -23 0 -13 1 -13 2 0
11 9 6 11 13 5 18 -14 10 -17 32 -5 32 6 0 10 5 10 11 0 5 -4 8 -8 5 -4 -2 -8
6 -8 19 0 13 3 22 7 19 4 -2 9 3 12 11 4 9 1 12 -9 8 -10 -4 -14 -1 -13 8 5
19 -20 106 -42 150 -10 20 -15 39 -12 43 4 3 -1 6 -10 6 -15 0 -22 18 -18 43
1 5 -3 6 -8 3 -11 -7 -62 59 -53 69 4 5 2 5 -5 2 -6 -4 -24 3 -40 16 -15 13
-43 30 -60 38 -18 8 -33 17 -33 20 0 3 -6 6 -12 6 -7 1 -38 7 -68 16 -49 13
-114 17 -300 19 -30 0 -59 -1 -65 -2 -5 -1 -26 -1 -45 0 -80 5 -760 5 -760 0
0 -6 -197 -2 -222 4 -10 2 -18 0 -18 -6 0 -5 -4 -7 -9 -3 -14 8 -71 13 -71 6
0 -4 -25 -4 -55 -1 -30 3 -60 3 -65 0 -5 -3 -35 -3 -65 0 -30 3 -55 2 -55 -3
0 -4 -5 -5 -11 -2 -6 4 -307 7 -670 7 -409 -1 -657 3 -654 9 4 5 4 9 1 9 -3 0
-7 -4 -10 -9z m-943 -334 c-4 -6 -1 -7 8 -1 21 13 62 17 54 4 -3 -5 0 -10 7
-10 9 0 9 -3 -2 -10 -10 -7 -11 -13 -5 -17 12 -9 13 -43 2 -60 -5 -7 -4 -13 0
-13 5 0 8 -118 8 -263 l-1 -263 -42 -63 c-24 -34 -51 -77 -61 -94 -64 -112
-89 -157 -106 -197 -11 -25 -22 -47 -26 -50 -8 -7 -119 -284 -119 -299 0 -6
-4 -11 -8 -11 -5 0 -9 7 -9 15 0 8 5 15 11 15 6 0 4 5 -4 10 -13 9 -13 11 0
20 10 6 11 10 3 10 -7 0 -13 4 -13 10 0 5 8 7 18 4 15 -5 15 -4 2 8 -9 8 -16
33 -16 67 -1 34 1 49 7 40 7 -11 9 -10 9 4 0 9 -3 17 -8 17 -4 0 -8 18 -9 40
-1 25 3 40 10 40 8 0 8 3 2 8 -6 4 -11 22 -12 41 0 23 2 29 8 20 7 -11 9 -10
9 4 0 9 -4 17 -9 17 -5 0 -9 14 -9 31 1 20 4 26 9 17 7 -10 9 -9 9 5 0 9 -3
17 -8 17 -4 0 -8 18 -9 40 -1 25 3 40 10 40 8 0 9 3 2 8 -6 4 -11 38 -12 76 0
41 3 63 8 55 7 -11 9 -10 9 4 0 9 -3 17 -8 17 -4 0 -8 18 -9 40 -1 25 3 40 10
40 8 0 9 3 2 8 -6 4 -11 38 -12 76 0 41 3 63 8 55 7 -11 9 -10 9 4 0 9 -3 17
-8 17 -4 0 -8 18 -9 40 -1 25 3 40 10 40 8 0 9 3 2 8 -16 10 -14 114 2 130 7
8 11 18 8 23 -3 4 1 22 10 39 12 24 19 29 29 21 9 -8 13 -7 13 4 0 8 -4 12 -8
9 -12 -7 -17 20 -7 40 7 13 7 16 -1 12 -18 -12 -12 -2 11 18 18 15 20 16 15 2
-4 -9 -2 -16 3 -16 6 0 10 9 10 21 0 14 5 19 15 16 8 -4 17 -3 19 2 3 4 43 8
90 8 56 0 83 -3 79 -10z m720 -1 c-4 -6 1 -5 10 3 14 11 20 11 34 0 11 -10 14
-10 9 -1 -5 9 3 12 31 12 31 -1 35 -3 20 -11 -9 -5 -22 -7 -29 -3 -6 4 -8 3
-5 -3 4 -6 -10 -19 -31 -29 -20 -10 -43 -25 -50 -31 -7 -7 -20 -13 -28 -13 -8
0 -14 -5 -14 -11 0 -5 -4 -8 -9 -4 -6 3 -14 -3 -20 -12 -9 -17 -11 -17 -26 2
-41 52 -56 75 -49 75 3 0 1 6 -5 13 -6 8 -9 16 -6 18 2 3 43 5 90 6 61 1 83
-2 78 -11z m2280 0 c-4 -6 1 -4 12 4 17 14 17 13 11 -10 -6 -24 -6 -24 5 -3
10 18 20 22 65 22 35 0 54 -5 54 -12 0 -9 2 -9 8 0 11 18 128 12 124 -6 -1 -7
2 -10 8 -6 6 3 8 11 5 16 -4 5 12 9 35 9 30 0 39 -3 34 -12 -6 -10 -4 -10 8 0
14 11 16 9 16 -15 0 -16 2 -79 4 -141 2 -63 1 -118 -2 -122 -3 -5 -20 3 -37
18 -51 43 -76 62 -105 80 -16 9 -28 20 -28 24 0 4 -6 8 -14 8 -8 0 -16 4 -18
8 -7 17 -110 72 -121 65 -7 -4 -5 2 3 12 8 10 10 16 5 13 -6 -3 -39 9 -75 28
-64 33 -64 34 -28 32 24 -1 35 -5 31 -12z m808 -6 c6 0 7 5 4 10 -4 6 7 10 24
10 18 0 31 -5 31 -12 0 -10 2 -10 9 0 9 15 55 9 79 -10 12 -10 14 -10 8 0 -13
22 12 13 28 -10 9 -12 16 -19 16 -15 0 11 35 -24 48 -48 8 -15 6 -22 -6 -32
-15 -10 -14 -11 6 -6 21 5 22 3 13 -20 -7 -17 -7 -28 -1 -32 6 -4 10 -11 10
-16 0 -6 -6 -7 -12 -3 -8 5 -8 1 1 -10 13 -15 13 -19 0 -27 -10 -6 -10 -9 -1
-9 14 0 12 -21 -3 -32 -6 -5 -5 -8 3 -8 15 0 12 -31 -3 -42 -6 -5 -5 -8 3 -8
6 0 12 -5 12 -11 0 -5 -5 -7 -12 -3 -7 5 -8 3 -2 -7 13 -20 12 -89 0 -89 -8 0
-8 -3 0 -8 14 -9 13 -144 -1 -154 -7 -5 -7 -8 0 -8 6 0 11 -9 12 -20 1 -13 -2
-18 -10 -13 -8 4 -8 1 1 -9 9 -12 10 -18 2 -23 -8 -5 -8 -11 1 -21 9 -11 8
-18 -2 -31 -10 -11 -10 -14 -1 -9 8 5 11 1 9 -13 -2 -11 -6 -24 -10 -27 -4 -4
-2 -13 4 -20 7 -8 7 -14 -1 -19 -6 -3 -7 -12 -3 -18 12 -18 10 -77 -2 -77 -5
0 -4 -4 3 -9 14 -9 13 -32 -3 -43 -6 -5 -5 -8 3 -8 6 0 12 -5 12 -11 0 -5 -5
-7 -12 -3 -7 5 -8 3 -2 -7 13 -20 12 -89 0 -89 -8 0 -8 -2 0 -8 5 -4 10 -25
10 -47 0 -22 -5 -43 -10 -47 -8 -5 -8 -8 -1 -8 6 0 11 -16 12 -35 0 -22 -3
-32 -10 -28 -6 4 -7 1 -2 -7 12 -19 15 -90 4 -90 -5 0 -9 7 -9 15 0 23 0 22
-15 59 -8 18 -11 36 -8 40 4 3 1 6 -5 6 -6 0 -16 17 -23 38 -18 56 -134 298
-180 374 l-40 66 1 349 c1 191 2 364 1 383 0 19 2 29 5 23 3 -7 10 -13 15 -13z
m-4065 -62 c-3 -27 -29 -78 -38 -78 -5 0 -6 6 -1 13 4 6 8 17 9 22 5 29 10 41
19 47 13 10 14 10 11 -4z m-31 -97 c3 -5 2 -12 -3 -15 -5 -3 -9 1 -9 9 0 17 3
19 12 6z m1822 -70 c-12 -27 -25 -47 -29 -44 -4 2 -5 -2 -2 -10 3 -8 -2 -21
-10 -30 -8 -8 -12 -17 -9 -20 3 -4 -1 -17 -9 -29 -8 -13 -20 -40 -27 -60 -7
-21 -16 -38 -20 -38 -4 0 -8 -6 -8 -14 0 -26 -66 -165 -76 -159 -6 3 -7 1 -3
-6 8 -12 -41 -141 -54 -141 -4 0 -7 -6 -7 -14 0 -8 -7 -29 -16 -48 -8 -18 -21
-46 -27 -62 -8 -23 -13 -26 -25 -16 -8 7 -12 16 -9 21 3 5 -1 9 -9 9 -16 0
-40 47 -32 61 3 5 -1 6 -9 3 -19 -7 -22 12 -3 20 6 3 4 4 -7 3 -10 -1 -23 7
-30 17 -13 24 -20 34 -47 65 -11 14 -17 31 -14 38 2 8 1 12 -4 9 -9 -6 -79 79
-83 99 -1 6 -11 18 -22 27 l-21 17 22 -4 c13 -2 25 0 28 5 3 5 -3 7 -14 5 -10
-2 -27 3 -38 10 -16 12 -16 16 -4 37 13 22 13 22 -4 8 -15 -13 -19 -12 -36 9
-19 23 -19 24 2 42 21 18 34 23 52 20 5 -1 6 2 3 7 -7 11 161 91 274 130 90
31 200 60 251 67 17 2 34 6 37 9 3 3 18 6 33 6 l28 0 -22 -49z m808 19 c-3 -5
-1 -10 4 -10 6 0 11 4 11 8 0 10 30 9 46 -1 6 -3 26 -9 44 -12 18 -3 36 -8 40
-10 3 -2 17 -6 31 -9 66 -14 353 -140 379 -166 17 -17 76 -53 87 -53 7 0 13
-4 13 -8 0 -5 15 -19 33 -31 92 -63 244 -209 319 -306 l41 -53 0 -873 c0 -480
-4 -879 -8 -886 -5 -8 -4 -11 2 -7 7 5 8 -4 3 -28 -5 -23 -4 -36 4 -39 6 -2 4
-5 -5 -5 -23 -1 -40 40 -26 65 10 18 9 18 -8 4 -10 -8 -16 -10 -12 -3 4 6 3
14 -3 18 -6 4 -8 11 -5 16 4 5 1 9 -6 9 -7 0 -9 10 -7 25 3 13 1 22 -3 19 -4
-2 -15 9 -24 25 -17 33 -20 55 -5 31 8 -12 9 -10 7 7 -2 12 -7 26 -12 30 -4 5
-5 2 -1 -4 4 -7 2 -13 -3 -13 -6 0 -11 2 -11 4 0 2 -3 12 -7 22 -4 12 -3 15 5
10 7 -4 12 -2 12 3 0 6 -7 11 -15 11 -9 0 -12 6 -8 17 4 10 2 14 -4 10 -6 -4
-14 0 -17 9 -4 11 -2 15 7 11 8 -3 14 1 14 8 0 7 -8 10 -19 7 -10 -2 -18 -1
-17 4 2 9 -15 57 -28 77 -4 6 0 7 8 3 8 -4 6 -1 -3 7 -10 8 -18 22 -18 31 0 9
-5 16 -11 16 -5 0 -8 4 -4 9 3 5 1 12 -4 16 -7 4 -7 15 -1 30 5 14 6 24 2 24
-20 -3 -33 2 -27 11 3 6 1 10 -4 10 -6 0 -11 7 -11 15 0 8 -6 15 -12 15 -7 1
-2 7 12 16 20 12 21 14 4 9 -17 -4 -24 2 -39 37 -10 24 -19 53 -18 65 0 12 -5
21 -11 20 -6 -1 -12 8 -14 21 -2 12 -8 22 -14 22 -6 0 -3 10 8 22 19 22 19 22
0 8 -18 -14 -19 -13 -13 2 4 11 2 17 -6 15 -12 -2 -13 3 -4 33 2 8 2 12 0 8
-8 -15 -25 -8 -19 7 3 8 2 15 -2 15 -12 0 -31 60 -25 78 4 14 3 15 -5 2 -9
-12 -13 -9 -21 13 -6 16 -11 34 -11 41 0 7 -6 21 -14 32 -11 15 -12 22 -3 33
9 12 9 13 0 7 -19 -11 -41 40 -25 56 7 7 12 16 12 22 0 5 -6 1 -14 -10 -14
-19 -15 -19 -21 1 -4 11 -11 28 -16 38 -9 16 -7 17 11 7 11 -6 20 -8 20 -6 0
3 -12 12 -27 20 -16 8 -22 15 -15 16 6 0 12 4 12 10 0 5 -3 9 -7 9 -28 -5 -35
1 -22 18 8 9 9 14 2 10 -7 -5 -14 4 -18 23 -4 16 -11 30 -17 30 -6 0 -5 7 3
17 8 9 9 14 3 10 -13 -8 -32 30 -28 56 1 9 -2 15 -6 12 -5 -3 -11 -1 -15 5 -3
5 0 10 7 10 11 0 11 2 0 9 -7 4 -20 21 -28 36 -12 23 -12 30 -2 37 10 6 8 8
-4 8 -11 0 -18 8 -18 20 0 11 -4 20 -9 20 -5 0 -11 9 -14 21 -4 15 -2 19 9 15
9 -3 12 -1 9 4 -3 6 -12 10 -19 10 -8 0 -20 20 -27 45 -7 25 -17 45 -22 45 -5
0 -7 9 -4 20 3 11 1 18 -3 15 -12 -8 -19 18 -9 36 6 12 4 16 -8 15 -9 0 -18 5
-21 13 -2 8 0 11 5 8 5 -3 10 0 10 7 0 9 -7 12 -16 8 -9 -3 -13 -2 -9 3 4 4 1
17 -7 27 -7 11 -11 27 -8 36 4 9 2 13 -4 9 -6 -4 -13 2 -16 13 -3 13 -1 18 6
14 7 -3 4 1 -7 10 -12 10 -17 23 -14 41 4 20 3 23 -8 14 -11 -9 -14 -7 -14 8
0 10 -5 24 -12 31 -8 8 -8 15 2 27 11 13 10 14 -5 8 -15 -5 -17 -3 -12 11 4 9
3 15 -1 12 -4 -2 -12 7 -19 20 -6 13 -7 22 -2 18 5 -3 9 0 9 5 0 6 -5 11 -10
11 -6 0 -20 21 -31 48 -16 36 -18 51 -10 64 6 10 11 21 11 25 0 5 -5 0 -11
-10 -6 -9 -15 -15 -21 -11 -6 4 -5 10 3 15 11 7 10 9 -3 9 -10 0 -18 5 -18 11
0 5 6 7 13 4 6 -4 4 0 -5 8 -27 21 -22 32 6 13 16 -10 27 -12 31 -6 4 6 1 9
-7 8 -7 -2 -12 2 -11 9 2 8 -4 10 -14 6 -10 -4 -14 -2 -10 4 4 6 -1 10 -10 9
-10 0 -18 5 -19 12 -1 6 -3 14 -4 17 -1 3 -3 8 -4 13 -1 4 -4 12 -7 17 -3 6
-4 16 -3 23 1 6 2 17 3 22 0 6 6 10 12 10 5 0 7 -4 4 -10z m-1795 -501 c-13
-9 -13 -10 1 -6 9 3 22 0 28 -6 17 -17 13 -27 -6 -21 -15 5 -15 4 -3 -4 8 -6
17 -9 21 -7 6 4 89 -107 91 -122 0 -4 9 -14 20 -22 11 -7 17 -20 14 -28 -3 -8
-2 -11 4 -8 11 7 33 -32 25 -45 -4 -6 1 -7 11 -3 14 5 16 3 10 -12 -4 -11 -4
-16 0 -13 10 11 36 -20 28 -33 -4 -7 -3 -9 3 -6 6 4 17 -1 24 -10 8 -10 9 -14
2 -10 -6 4 -15 2 -19 -5 -4 -7 -4 -10 1 -6 11 10 45 -10 45 -27 0 -7 4 -15 9
-17 5 -1 30 -32 56 -67 27 -36 40 -61 31 -58 -10 4 -15 3 -11 -3 3 -6 12 -10
19 -10 7 0 22 -13 34 -30 24 -32 28 -45 10 -34 -7 4 -8 3 -4 -5 4 -6 11 -9 15
-7 4 3 12 -3 18 -13 9 -14 8 -25 -2 -44 -7 -14 -18 -41 -25 -61 -7 -21 -16
-33 -22 -30 -7 4 -8 2 -4 -5 9 -15 -3 -53 -15 -46 -5 3 -6 0 -3 -8 3 -8 -2
-21 -10 -30 -8 -8 -13 -17 -10 -20 3 -3 -1 -18 -9 -34 -22 -40 -70 -146 -73
-158 -4 -25 -49 -121 -58 -127 -6 -4 -7 -8 -3 -8 4 0 2 -10 -5 -22 -7 -13 -13
-25 -13 -28 -1 -3 -8 -18 -15 -35 -7 -16 -19 -46 -26 -65 -7 -19 -16 -34 -21
-33 -4 1 -9 -9 -9 -21 -1 -12 -13 -47 -27 -77 -14 -30 -38 -84 -54 -122 -16
-37 -33 -64 -37 -60 -4 4 -4 0 0 -10 3 -10 1 -17 -6 -17 -6 0 -9 -4 -6 -9 3
-4 -4 -28 -16 -52 -12 -24 -23 -50 -24 -57 -1 -7 -9 -23 -17 -35 -7 -12 -17
-34 -21 -49 -22 -92 -26 28 -26 910 l0 939 37 41 c26 29 40 39 47 32 8 -8 6
-14 -4 -21z m1540 -34 c-10 -12 -9 -15 4 -15 10 0 14 -5 11 -10 -4 -6 -11 -8
-16 -5 -5 3 -6 -2 -3 -12 5 -15 4 -16 -5 -3 -6 8 -11 11 -12 5 -3 -33 -10 -50
-29 -69 -17 -17 -20 -18 -14 -3 3 9 10 17 15 17 5 0 9 8 9 18 0 10 7 28 16 40
8 12 12 22 8 22 -3 0 -1 7 6 15 7 8 15 15 17 15 3 0 0 -7 -7 -15z m30 -50 c0
-8 -7 -15 -15 -15 -9 0 -12 6 -9 15 4 8 10 15 15 15 5 0 9 -7 9 -15z m-5 -22
c8 4 17 2 20 -3 4 -6 0 -10 -7 -10 -7 0 -2 -7 10 -16 12 -8 22 -22 22 -30 0
-14 3 -22 33 -79 8 -16 15 -33 16 -38 0 -4 12 -32 26 -63 14 -30 22 -60 19
-66 -4 -6 -2 -8 3 -5 9 6 15 -4 27 -43 1 -3 5 -11 10 -19 5 -8 4 -16 -5 -22
-11 -7 -10 -9 4 -9 17 0 30 -22 27 -44 -1 -5 3 -12 9 -16 7 -3 13 -20 14 -37
1 -17 5 -29 8 -27 7 4 31 -48 31 -63 0 -4 5 -15 12 -23 8 -8 12 -25 11 -37 -1
-13 1 -21 3 -18 3 3 12 -5 20 -16 12 -18 13 -23 1 -30 -11 -7 -10 -9 4 -9 10
0 16 -4 13 -9 -4 -5 -3 -11 2 -13 13 -5 52 -109 45 -121 -3 -5 -1 -7 4 -4 6 4
14 -3 18 -16 4 -12 8 -24 10 -27 1 -3 5 -14 9 -25 4 -11 14 -32 22 -46 7 -14
11 -29 7 -33 -3 -3 -1 -6 5 -6 7 0 12 -9 12 -20 0 -11 5 -20 11 -20 8 0 7 -6
-2 -17 -8 -9 -9 -14 -3 -10 14 8 48 -69 38 -85 -4 -6 -2 -8 3 -5 9 6 29 -30
33 -58 0 -3 14 -31 30 -62 17 -32 30 -61 30 -65 0 -11 66 -163 92 -212 7 -13
6 -21 -4 -27 -10 -7 -10 -9 2 -9 8 0 25 -23 37 -51 12 -28 17 -47 10 -44 -7 4
-4 0 6 -8 9 -8 17 -17 17 -20 0 -3 5 -18 12 -34 6 -15 12 -30 13 -33 0 -3 6
-15 13 -27 7 -13 9 -23 5 -23 -4 0 -3 -4 3 -8 17 -11 30 -57 14 -47 -9 5 -11
4 -6 -4 4 -6 11 -9 16 -6 5 3 11 1 15 -5 3 -5 0 -10 -7 -10 -9 0 -9 -3 -2 -8
13 -8 44 -72 48 -97 1 -9 10 -25 19 -35 19 -22 19 -22 -123 -20 -36 0 -71 1
-77 1 -13 0 -51 0 -133 0 -24 0 -48 6 -52 12 -6 9 -8 9 -8 0 0 -7 -5 -13 -11
-13 -5 0 -7 4 -4 10 3 6 -1 7 -10 4 -11 -5 -18 0 -22 15 -3 11 -9 19 -13 16
-4 -3 -11 3 -15 13 -3 9 -5 17 -3 17 2 0 -3 7 -10 15 -37 44 -52 64 -52 71 0
4 -6 14 -13 21 -15 14 -96 129 -113 159 -6 10 -19 28 -29 39 -9 10 -15 26 -12
34 4 10 1 13 -9 9 -8 -3 -14 1 -14 10 0 8 -7 17 -15 21 -9 3 -12 12 -8 22 4
11 2 15 -4 11 -5 -3 -16 6 -24 21 -8 15 -21 33 -29 40 -13 11 -11 13 15 8 23
-4 25 -3 10 3 -11 5 -29 12 -40 16 -15 5 -16 8 -6 14 9 6 7 10 -9 14 -17 4
-21 11 -16 24 4 9 4 14 0 10 -4 -4 -13 -2 -21 4 -10 9 -11 15 -2 26 10 11 8
12 -6 6 -14 -5 -17 -3 -12 10 3 10 2 16 -4 14 -6 -1 -35 34 -65 78 -30 44 -61
88 -69 98 -8 9 -12 17 -8 17 4 0 -2 6 -12 14 -11 8 -16 20 -12 29 3 9 3 16 -1
16 -24 -4 -33 3 -27 21 5 16 3 19 -12 14 -16 -5 -16 -4 2 11 20 17 20 17 -2
10 -14 -4 -23 -2 -23 5 0 6 -9 20 -20 32 -22 24 -27 43 -7 32 7 -4 9 -3 4 2
-5 5 -12 9 -16 9 -4 0 -15 8 -24 17 -12 12 -14 18 -4 21 6 3 3 6 -7 6 -11 1
-17 4 -14 7 3 3 -5 17 -18 31 -13 14 -22 28 -20 31 3 2 -4 13 -15 25 -10 11
-19 27 -19 34 0 8 -5 11 -12 7 -6 -4 -8 -3 -4 4 3 6 2 13 -3 17 -5 3 -9 14 -8
25 1 10 5 16 10 13 5 -3 7 5 5 18 -2 20 1 24 24 23 23 -1 26 1 17 17 -12 24
-20 25 -12 2 5 -15 4 -16 -8 -5 -12 11 -11 15 4 26 18 14 24 32 7 21 -6 -4 -6
4 1 19 14 30 46 41 53 17 2 -9 3 -4 2 11 -1 15 -5 31 -10 35 -4 4 -6 2 -4 -6
1 -7 -2 -15 -9 -18 -8 -3 -7 8 4 36 9 23 20 41 26 41 5 0 4 -7 -3 -15 -11 -13
-11 -18 0 -28 10 -9 11 -9 6 0 -10 19 24 66 39 53 8 -7 12 -5 12 5 0 8 -4 12
-9 9 -4 -3 -8 1 -8 8 0 8 -5 6 -11 -4 -5 -10 -15 -18 -21 -18 -7 0 -6 5 2 15
7 8 9 15 4 15 -5 0 -2 4 6 10 8 5 19 6 25 2 6 -4 2 1 -8 11 -11 9 -14 17 -8
17 7 0 10 4 6 9 -8 14 13 24 33 15 28 -12 42 -13 47 -4 3 5 -3 7 -15 5 -24 -5
-37 13 -16 21 9 3 16 10 16 15 0 5 -11 2 -25 -7 -33 -22 -31 -13 7 30 30 34
47 73 27 60 -5 -3 -6 -10 -3 -16 4 -7 2 -8 -5 -4 -6 4 -10 4 -9 -1 2 -4 -5
-19 -15 -33 -25 -36 -21 -18 8 33 13 25 21 48 17 53 -4 5 1 2 10 -5 10 -7 23
-11 30 -8 9 4 7 6 -3 6 -21 1 -30 24 -17 42 8 11 9 11 4 -3 -3 -10 -1 -20 3
-22 5 -3 8 7 9 22 0 47 3 67 9 55 2 -7 9 -13 14 -13 6 0 7 6 1 17 -10 18 14
83 30 83 5 0 7 4 4 8 -2 4 -1 14 4 22 7 12 11 12 27 -1 16 -13 17 -12 5 3 -12
15 -11 21 7 44 11 14 18 31 14 38 -4 6 1 5 10 -3 9 -7 23 -11 32 -8z m-2040
-1537 c0 -442 -3 -802 -6 -800 -4 2 -10 21 -14 41 -5 21 -9 43 -11 48 -18 64
-47 219 -59 320 -25 197 -24 649 1 789 2 12 5 37 8 56 4 32 25 160 30 185 14
69 40 165 45 165 3 0 6 -362 6 -804z m3731 253 c10 -194 3 -593 -11 -607 -5
-6 -6 4 -6 263 0 393 1 458 6 453 3 -2 8 -52 11 -109z m-2266 15 c0 -8 4 -14
9 -14 9 0 24 -38 22 -53 -1 -5 3 -6 9 -2 5 3 15 -5 22 -19 6 -14 15 -26 20
-26 5 0 7 -4 4 -9 -3 -5 1 -12 10 -15 10 -4 14 -12 10 -23 -4 -10 -4 -14 0
-10 8 8 113 -131 114 -150 0 -7 4 -13 8 -13 5 0 15 -12 23 -27 8 -16 16 -30
20 -33 17 -16 60 -80 53 -80 -4 0 -1 -6 8 -12 27 -23 108 -150 101 -161 -3 -5
-1 -7 4 -4 11 7 46 -39 46 -60 0 -7 4 -10 9 -7 4 3 11 -3 15 -13 4 -10 13 -24
20 -31 7 -8 11 -18 7 -23 -3 -5 0 -8 6 -7 7 2 14 -5 15 -14 4 -21 -6 -23 -24
-5 -8 6 -11 7 -8 1 9 -15 -173 -16 -192 -1 -8 7 -12 7 -8 1 8 -14 -215 -14
-225 1 -5 6 -8 6 -8 -2 0 -7 -7 -13 -15 -13 -8 0 -15 6 -15 13 0 8 -3 8 -8 2
-9 -13 -171 -13 -191 -1 -9 6 -12 5 -8 0 7 -12 -95 -10 -113 1 -9 6 -11 4 -5
-5 10 -16 -36 -3 -47 14 -5 7 -8 5 -8 -6 0 -13 -6 -16 -27 -12 -16 3 -30 9
-31 15 -2 5 -9 6 -15 2 -8 -5 -8 -2 0 9 7 8 9 19 5 23 -4 5 -1 5 6 1 7 -4 9
-13 5 -19 -3 -7 3 -3 15 7 17 15 19 22 11 33 -7 7 -9 16 -5 20 3 4 13 -2 22
-13 15 -18 15 -18 5 3 -8 16 -8 23 2 27 6 3 2 3 -10 0 -13 -3 -23 -1 -23 5 0
6 5 11 11 11 5 0 7 5 4 10 -3 6 -1 10 6 10 7 0 9 3 6 6 -3 4 -1 16 5 28 7 11
13 27 14 35 4 21 26 31 45 20 12 -6 20 -5 25 3 4 7 3 8 -4 4 -7 -4 -12 -2 -12
4 0 6 -5 8 -11 4 -8 -4 -9 1 -5 17 7 24 7 24 -8 -1 -9 -14 -15 -21 -16 -16 0
5 9 23 19 40 19 30 21 35 21 56 0 5 8 6 18 3 15 -6 16 -5 2 12 -12 15 -12 17
-1 10 11 -6 13 -4 8 7 -3 9 0 21 6 27 6 6 8 11 4 11 -4 0 0 14 8 31 12 23 21
29 36 24 13 -4 19 -2 17 7 -2 7 5 12 15 12 9 -1 17 2 17 7 0 12 -27 11 -35 -1
-3 -5 -14 -10 -23 -10 -15 1 -14 3 3 16 11 8 19 17 18 19 -7 12 -2 35 7 35 7
0 7 -7 0 -22 -10 -21 -10 -21 3 -6 8 10 17 15 21 11 4 -4 4 0 0 10 -3 9 -10
17 -15 17 -13 0 -11 17 4 32 7 7 22 36 32 65 17 47 20 51 39 41 20 -10 20 -10
4 9 -16 17 -16 22 -3 40 8 11 11 23 8 27 -3 3 -2 6 4 6 20 0 22 -13 5 -27 -15
-13 -14 -13 6 -3 21 10 22 13 9 33 -12 19 -12 25 1 45 11 17 18 20 28 11 8 -6
14 -18 14 -25z m-356 -766 c-4 -6 -10 -5 -15 3 -14 22 -10 33 6 19 8 -7 12
-17 9 -22z m-202 -460 c-17 -17 -15 -33 3 -18 10 9 15 9 15 1 0 -10 -14 -15
-34 -12 -5 1 -6 -6 -2 -14 9 -25 -3 -38 -22 -23 -14 10 -15 10 -5 -1 9 -11 8
-17 -3 -28 -17 -17 -10 -33 14 -32 15 0 15 1 -1 7 -16 7 -16 10 8 30 14 12 25
29 25 37 0 18 16 20 24 3 4 -9 5 -8 5 2 -2 30 1 41 11 35 5 -3 7 -12 3 -20 -3
-8 0 -15 7 -15 6 0 9 4 5 9 -3 5 -1 12 5 16 16 10 2 24 -20 20 -11 -2 -20 0
-20 4 0 10 151 8 168 -2 6 -5 12 -4 12 1 0 4 18 8 40 8 22 0 40 -4 40 -8 0 -4
5 -8 11 -8 5 0 8 3 6 8 -3 4 6 8 19 8 13 1 24 -2 24 -7 0 -5 5 -9 11 -9 5 0 8
3 6 8 -3 4 14 7 38 8 34 0 46 -4 54 -20 6 -12 10 -14 8 -6 -1 9 3 15 8 15 6 0
9 -6 9 -12 -1 -7 3 -10 8 -7 5 3 7 12 4 20 -3 8 -1 14 4 14 6 0 10 -5 10 -11
0 -5 6 -7 12 -3 18 11 168 11 168 1 0 -5 6 -5 13 0 18 14 70 8 81 -9 8 -14 12
-13 27 6 l18 21 2 -25 c1 -14 0 -29 -1 -35 -1 -5 2 -6 6 -2 5 4 9 18 9 30 0
23 18 29 48 15 10 -5 17 -5 17 2 0 5 5 10 10 10 7 0 7 -7 -1 -21 -6 -13 -7
-19 -1 -15 6 3 13 0 16 -6 3 -7 3 -3 1 9 -3 12 -1 24 5 28 5 3 10 -3 10 -14 0
-11 4 -22 8 -25 5 -3 8 4 8 16 -1 17 5 21 32 23 28 1 31 -1 26 -19 -5 -20 -5
-20 11 2 19 26 35 29 35 5 0 -15 2 -16 10 -3 5 8 10 11 10 6 0 -5 8 -2 17 5
15 12 16 12 10 -3 -3 -10 -1 -20 5 -24 6 -4 8 -3 4 4 -3 6 -1 14 6 18 19 12
58 14 58 3 0 -6 -5 -7 -12 -3 -6 4 -8 3 -4 -4 4 -8 17 -6 43 4 33 14 35 14 29
-2 -5 -14 -4 -15 9 -4 8 7 15 9 15 6 0 -4 9 -2 20 4 24 13 27 2 4 -14 -13 -10
-13 -12 5 -12 11 0 17 4 15 8 -3 4 5 12 16 18 11 6 20 7 20 3 0 -5 16 -8 36
-7 19 1 33 -1 30 -4 -3 -3 3 -12 15 -20 11 -8 18 -20 15 -29 -3 -8 -2 -11 4
-8 11 7 32 -30 22 -40 -4 -3 -2 -5 5 -3 11 3 73 -74 73 -92 0 -5 5 -10 11 -10
5 0 8 -4 5 -9 -3 -5 1 -12 10 -15 9 -4 14 -13 10 -22 -3 -8 -2 -12 4 -9 11 7
33 -32 25 -45 -4 -6 1 -7 11 -3 12 4 15 3 10 -5 -4 -7 -3 -12 2 -12 5 0 21
-18 36 -40 14 -22 23 -40 19 -40 -4 0 2 -7 13 -15 10 -8 16 -15 12 -15 -3 0 7
-14 23 -32 17 -17 28 -37 25 -44 -3 -8 -1 -13 4 -11 4 1 31 -30 58 -70 37 -53
47 -74 38 -83 -8 -8 -7 -10 5 -5 10 4 22 -3 33 -19 9 -14 16 -29 15 -32 0 -4
6 -11 15 -16 9 -5 16 -14 16 -19 0 -6 7 -17 16 -26 8 -9 12 -23 9 -31 -3 -9
-3 -13 1 -9 4 4 13 2 21 -4 15 -13 18 -33 3 -24 -6 3 -7 -1 -3 -10 4 -11 8
-13 13 -5 5 8 11 6 20 -5 12 -14 11 -18 0 -25 -8 -5 -19 -6 -25 -3 -5 4 -7 2
-2 -2 14 -16 -129 -96 -296 -167 -132 -55 -243 -88 -382 -113 -49 -9 -97 -18
-105 -21 -32 -11 -170 -11 -171 0 0 6 -3 6 -6 -1 -2 -7 -13 -13 -23 -13 -26 0
-71 25 -62 35 4 5 2 5 -4 2 -15 -9 -155 53 -148 65 3 4 10 5 16 2 7 -4 8 -2 4
4 -5 9 -12 8 -28 -1 -16 -9 -22 -9 -25 1 -3 6 -9 10 -14 6 -5 -3 -9 0 -9 6 0
6 -4 9 -9 5 -5 -3 -17 3 -27 12 -10 10 -19 17 -21 16 -9 -7 -33 -2 -45 10 -7
7 -17 14 -23 16 -44 9 -54 15 -48 24 3 5 1 7 -5 3 -12 -7 -62 13 -62 26 0 4
-3 7 -7 6 -17 -5 -122 45 -116 55 3 5 2 7 -4 4 -12 -8 -73 14 -73 26 0 4 -4 6
-9 2 -6 -3 -14 3 -20 12 -7 13 -10 14 -11 4 0 -11 -5 -9 -21 5 -12 10 -22 17
-23 15 -2 -7 -76 23 -76 31 0 4 -9 8 -20 8 -11 0 -20 5 -20 10 0 6 -8 10 -17
10 -9 0 -46 14 -82 31 -36 18 -86 41 -111 53 -25 11 -48 25 -51 29 -3 5 -10 8
-15 7 -5 0 -18 1 -29 4 -16 5 -17 8 -6 15 9 6 10 11 2 15 -6 4 -11 2 -11 -3 0
-6 -7 -11 -15 -11 -8 0 -15 5 -15 11 0 5 -6 7 -12 3 -10 -6 -10 -5 0 8 10 12
9 18 -3 28 -9 7 -15 8 -15 2 0 -6 5 -12 12 -14 8 -3 6 -7 -4 -11 -21 -7 -28
11 -16 43 l9 25 20 -25 20 -25 -14 30 c-17 38 -16 57 3 62 13 4 13 3 0 -6 -8
-6 -10 -11 -4 -11 18 0 24 12 13 26 -7 8 -7 19 -1 30 6 11 11 13 16 5 4 -6 2
-11 -5 -11 -7 0 -10 -3 -6 -6 13 -13 27 7 18 25 -7 12 -6 24 4 38 8 11 11 24
7 28 -4 5 1 5 11 2 16 -6 22 3 18 26 -1 5 8 11 19 14 11 3 20 9 20 14 0 5 -6
6 -14 3 -8 -3 -17 0 -22 7 -4 7 -3 10 2 8 5 -3 23 8 39 25 23 22 25 26 8 17
-14 -7 -24 -8 -28 -1 -3 5 1 10 9 10 8 0 18 5 22 12 5 7 2 9 -9 5 -11 -4 -14
-2 -10 9 6 17 15 18 31 2 8 -8 12 -8 12 -1 0 6 -7 14 -15 17 -13 5 -14 9 -3
28 7 13 11 26 10 31 -1 4 3 7 8 7 12 0 13 -12 3 -26 -5 -5 -2 -4 6 3 11 9 12
15 3 26 -9 10 -6 24 14 60 13 26 21 47 18 47 -4 0 3 11 15 24 14 15 20 30 16
37 -5 7 -4 10 3 5 6 -3 13 -2 17 4 3 5 9 10 13 10 3 0 1 -5 -6 -12z m798 8 c0
-3 -4 -8 -10 -11 -5 -3 -10 -1 -10 4 0 6 5 11 10 11 6 0 10 -2 10 -4z m1260
-20 c0 -7 3 -7 8 -1 13 18 43 17 58 -2 9 -12 12 -13 9 -3 -4 12 4 16 37 17 43
2 43 1 67 -50 13 -29 23 -56 21 -61 -1 -5 3 -12 10 -16 6 -4 12 -16 13 -28 0
-12 7 -24 13 -26 7 -3 11 -16 10 -30 -2 -14 0 -23 4 -21 4 3 28 -44 53 -103
57 -134 59 -175 7 -244 -19 -26 -37 -47 -40 -47 -3 -1 -27 34 -55 76 -27 42
-54 81 -60 87 -6 6 -22 29 -35 51 -13 22 -29 43 -34 48 -7 4 -6 11 4 18 13 9
13 10 -2 6 -10 -4 -22 3 -32 19 -9 13 -14 24 -12 24 3 0 -8 14 -24 32 -24 26
-27 34 -17 47 10 12 9 13 -1 7 -16 -10 -52 33 -44 54 3 8 2 12 -3 8 -7 -7 -35
14 -35 27 0 4 -9 18 -20 32 -11 14 -20 31 -20 37 0 6 4 5 9 -2 7 -11 9 -10 15
3 3 9 10 14 15 10 14 -8 21 9 10 25 -6 10 -9 11 -9 3 0 -7 -5 -13 -11 -13 -5
0 -8 3 -5 8 2 4 -9 8 -25 8 -16 1 -26 -2 -23 -7 3 -5 13 -8 21 -7 9 2 18 -2
20 -8 6 -17 -31 -13 -44 5 -6 9 -10 18 -8 21 7 12 155 8 155 -4z m-3325 -36
c-3 -5 -1 -11 4 -14 5 -4 8 -17 7 -31 -2 -15 1 -22 7 -18 6 4 8 0 4 -10 -3 -9
-3 -16 1 -14 4 1 8 -2 10 -8 1 -5 -2 -10 -7 -10 -5 0 -13 -3 -17 -7 -3 -4 3
-5 16 -3 19 4 22 1 18 -19 -4 -17 -1 -23 9 -19 9 3 13 -3 13 -21 0 -14 4 -26
9 -26 5 0 12 -12 16 -27 3 -16 36 -86 72 -158 62 -124 64 -131 53 -167 -6 -21
-15 -36 -20 -33 -6 3 -7 -1 -4 -9 3 -9 1 -16 -6 -16 -6 0 -9 -4 -6 -9 3 -4 -3
-26 -13 -47 -10 -22 -24 -53 -32 -71 -7 -17 -17 -29 -23 -26 -5 3 -6 1 -2 -5
4 -6 0 -25 -9 -42 -8 -16 -13 -30 -10 -30 4 0 3 -5 -1 -11 -4 -8 -9 -7 -16 2
-6 9 -7 5 -2 -12 3 -15 1 -30 -5 -34 -6 -3 -9 -10 -6 -14 2 -5 -5 -19 -18 -32
-38 -40 -50 -59 -39 -59 6 0 14 9 17 21 4 11 9 18 11 16 7 -7 -18 -57 -28 -57
-5 0 -7 -4 -4 -8 2 -4 1 -14 -3 -21 -5 -7 -8 9 -7 36 1 26 7 54 13 61 16 16
17 32 2 32 -5 0 -8 -4 -4 -9 3 -5 1 -12 -5 -16 -6 -4 -9 4 -8 20 2 18 7 24 18
20 13 -5 13 -4 0 7 -19 16 -19 44 0 40 12 -2 12 0 0 10 -11 9 -16 31 -17 67 0
33 3 48 8 40 7 -11 9 -10 9 4 0 9 -3 17 -8 17 -4 0 -8 18 -9 40 -1 25 3 40 10
40 8 0 8 3 2 8 -12 8 -15 193 -3 186 4 -3 8 0 8 5 0 6 -4 11 -10 11 -5 0 -10
5 -10 11 0 5 5 7 12 3 7 -5 8 -3 2 7 -12 19 -14 69 -3 69 5 0 9 -5 9 -12 0 -6
2 -9 5 -6 7 7 -6 39 -14 34 -3 -2 -6 11 -7 30 0 19 3 34 8 34 4 0 8 5 8 11 0
5 -3 8 -8 6 -4 -3 -7 28 -7 69 -1 41 3 74 7 74 4 0 8 5 8 11 0 5 -3 8 -8 5 -4
-2 -7 20 -7 49 -1 30 3 51 7 49 5 -3 6 -9 3 -14z m4361 -37 c0 -32 -5 -61 -11
-65 -6 -5 -6 -8 2 -8 14 0 13 -26 -1 -49 -6 -9 -5 -12 1 -8 12 7 12 -97 0
-109 -4 -4 -7 -12 -7 -18 0 -6 4 -6 8 2 5 7 8 -32 8 -87 0 -59 -4 -97 -10 -94
-5 4 -6 0 0 -8 12 -20 14 -38 3 -45 -5 -3 -6 -11 -2 -17 12 -20 12 -37 0 -37
-9 0 -9 -2 -1 -8 13 -8 13 -111 0 -131 -6 -9 -5 -12 1 -8 13 8 11 -106 -2
-115 -6 -5 -4 -8 5 -9 10 0 8 -3 -5 -9 -15 -6 -16 -9 -4 -9 16 -1 23 -31 7
-31 -4 0 -8 5 -8 12 0 6 -3 8 -7 4 -5 -4 -1 -13 7 -19 15 -12 23 -60 8 -51 -4
3 -8 14 -8 25 0 10 -4 19 -10 19 -5 0 -10 7 -10 15 0 9 -7 27 -16 40 -9 14
-14 25 -10 25 3 0 -3 16 -15 36 -15 28 -17 39 -8 50 10 12 9 13 -5 8 -15 -6
-20 5 -19 43 1 7 -3 11 -7 8 -4 -3 -11 2 -14 11 -9 24 -7 36 6 28 7 -4 8 -3 4
5 -4 6 -12 9 -17 6 -5 -4 -12 2 -15 12 -3 10 -12 32 -19 48 -45 104 -45 102
-25 123 10 11 17 22 14 25 -3 2 21 58 52 123 31 65 57 123 58 129 2 5 10 28
20 50 9 21 18 48 20 60 2 11 9 19 16 17 6 -1 8 2 5 8 -6 10 1 60 9 60 2 0 3
-26 2 -57z m-3246 -227 c0 -3 -4 -8 -10 -11 -5 -3 -10 -1 -10 4 0 6 5 11 10
11 6 0 10 -2 10 -4z m-20 -50 c0 -3 -4 -8 -10 -11 -5 -3 -10 -1 -10 4 0 6 5
11 10 11 6 0 10 -2 10 -4z m-232 -881 c9 -6 37 -23 62 -39 25 -16 80 -48 123
-72 44 -23 74 -44 69 -48 -6 -3 -13 -2 -16 3 -4 6 -18 6 -36 1 -19 -5 -30 -5
-30 1 0 6 -6 7 -12 2 -18 -11 -32 -10 -40 2 -5 6 -8 6 -8 0 0 -11 -61 -12 -78
-1 -6 3 -13 3 -15 -1 -4 -6 -80 -9 -119 -4 -3 1 -7 53 -7 117 l-1 115 45 -33
c25 -18 53 -38 63 -43z m2672 -11 c0 -8 3 -14 8 -14 4 0 16 -12 26 -27 12 -16
14 -23 5 -18 -8 5 -1 -4 14 -18 15 -15 26 -31 23 -36 -3 -5 1 -12 10 -15 8 -3
12 -11 9 -16 -5 -8 -11 -8 -19 -1 -7 6 -16 8 -20 4 -10 -11 -86 -9 -86 2 0 7
-3 7 -8 0 -9 -12 -82 -15 -82 -3 0 5 -5 6 -11 3 -17 -11 -99 -11 -99 0 0 7 -3
7 -8 0 -6 -8 -72 -17 -72 -10 0 2 50 30 110 64 61 34 127 73 147 86 36 25 53
25 53 -1z m-3170 -38 c0 -3 -4 -8 -10 -11 -5 -3 -10 -1 -10 4 0 6 5 11 10 11
6 0 10 -2 10 -4z m-5 -36 c-4 -6 -11 -8 -16 -5 -5 4 -9 1 -9 -4 0 -6 6 -11 14
-11 9 0 12 -8 8 -27 -5 -26 -5 -26 -13 -5 -5 12 -11 22 -14 22 -4 0 -4 -4 -1
-9 8 -13 -4 -42 -15 -35 -5 3 -9 10 -9 15 0 6 5 7 12 3 7 -5 9 -2 6 7 -8 21 9
59 27 59 9 0 13 -5 10 -10z"/>
<path d="M1480 5855 c0 -5 5 -17 10 -25 5 -8 10 -10 10 -5 0 6 -5 17 -10 25
-5 8 -10 11 -10 5z"/>
<path d="M1516 5845 c-4 -11 -4 -16 0 -12 4 4 12 2 19 -3 8 -7 12 -5 12 5 0 8
-4 12 -8 9 -4 -2 -9 1 -11 8 -3 7 -7 4 -12 -7z"/>
<path d="M1590 5851 c0 -7 -4 -10 -9 -7 -11 7 -9 -21 2 -29 4 -3 5 -2 2 2 -3
3 0 12 7 20 6 7 8 16 4 20 -3 3 -6 1 -6 -6z"/>
<path d="M1426 5836 c2 -6 13 -12 24 -12 23 0 17 12 -9 19 -12 3 -18 0 -15 -7z"/>
<path d="M1633 5833 c0 -11 7 -20 14 -20 10 0 10 4 1 16 -7 9 -13 18 -15 20
-1 2 -1 -5 0 -16z"/>
<path d="M1410 5800 c0 -5 5 -10 10 -10 6 0 10 5 10 10 0 6 -4 10 -10 10 -5 0
-10 -4 -10 -10z"/>
<path d="M1356 5721 c-3 -5 2 -15 12 -22 16 -13 16 -13 2 5 -14 18 -13 19 3
13 11 -4 16 -3 12 3 -8 12 -22 13 -29 1z"/>
<path d="M1340 5646 c0 -2 8 -10 18 -17 15 -13 16 -12 3 4 -13 16 -21 21 -21
13z"/>
<path d="M1325 5600 c-3 -6 1 -7 9 -4 18 7 21 14 7 14 -6 0 -13 -4 -16 -10z"/>
<path d="M1331 5571 c-8 -14 -7 -20 2 -24 7 -3 12 5 12 19 0 29 -1 29 -14 5z"/>
<path d="M1333 5492 c-10 -7 -10 -12 0 -25 11 -16 12 -15 12 8 0 14 0 25 0 25
0 0 -6 -4 -12 -8z"/>
<path d="M1326 5394 c-5 -13 -4 -14 7 -6 8 7 18 8 22 4 5 -4 5 -1 1 6 -10 17
-23 15 -30 -4z"/>
<path d="M1323 5325 c0 -8 6 -16 14 -19 11 -4 11 -1 3 14 -13 24 -17 25 -17 5z"/>
<path d="M1333 5252 c-10 -7 -10 -12 0 -25 11 -16 12 -15 12 8 0 14 0 25 0 25
0 0 -6 -4 -12 -8z"/>
<path d="M1327 5156 c-4 -10 -1 -13 9 -9 15 6 19 23 5 23 -5 0 -11 -7 -14 -14z"/>
<path d="M1386 5118 c3 -5 10 -6 15 -3 13 9 11 12 -6 12 -8 0 -12 -4 -9 -9z"/>
<path d="M1331 5091 c-8 -14 -7 -20 2 -24 7 -3 12 5 12 19 0 29 -1 29 -14 5z"/>
<path d="M1333 5012 c-10 -7 -10 -12 0 -25 11 -16 12 -15 12 8 0 14 0 25 0 25
0 0 -6 -4 -12 -8z"/>
<path d="M1330 4920 c0 -5 5 -10 10 -10 6 0 10 5 10 10 0 6 -4 10 -10 10 -5 0
-10 -4 -10 -10z"/>
<path d="M1331 4851 c-8 -14 -7 -20 3 -24 10 -4 12 0 8 15 -4 16 -2 19 8 13 9
-5 11 -4 6 3 -10 16 -14 15 -25 -7z"/>
<path d="M1333 4772 c-10 -7 -10 -12 0 -25 11 -16 12 -15 12 8 0 14 0 25 0 25
0 0 -6 -4 -12 -8z"/>
<path d="M1325 4680 c-3 -6 1 -7 9 -4 18 7 21 14 7 14 -6 0 -13 -4 -16 -10z"/>
<path d="M1335 4659 c-3 -4 2 -6 10 -5 21 3 28 13 10 13 -9 0 -18 -4 -20 -8z"/>
<path d="M1330 4631 c0 -6 4 -13 10 -16 6 -3 7 1 4 9 -7 18 -14 21 -14 7z"/>
<path d="M2177 5847 c4 -7 8 -14 9 -17 3 -18 18 -40 25 -40 5 0 8 3 7 8 -1 4
3 16 9 28 9 16 9 21 0 22 -7 0 -22 3 -35 6 -16 3 -20 1 -15 -7z m41 -19 c-6
-16 -21 -14 -24 4 -1 11 3 15 12 11 8 -3 13 -10 12 -15z"/>
<path d="M2252 5840 c0 -14 2 -19 5 -12 2 6 2 18 0 25 -3 6 -5 1 -5 -13z"/>
<path d="M2278 5853 c7 -3 16 -2 19 1 4 3 -2 6 -13 5 -11 0 -14 -3 -6 -6z"/>
<path d="M2355 5840 c3 -5 8 -10 11 -10 2 0 4 5 4 10 0 6 -5 10 -11 10 -5 0
-7 -4 -4 -10z"/>
<path d="M2233 5788 c-1 -10 3 -18 9 -18 6 0 8 3 5 7 -4 3 -2 11 3 18 7 8 6
12 -3 12 -7 0 -14 -9 -14 -19z"/>
<path d="M4670 5850 c-8 -5 -12 -11 -10 -14 3 -2 14 2 24 10 22 15 10 19 -14
4z"/>
<path d="M4715 5849 c-4 -6 -5 -12 -2 -15 2 -3 7 2 10 11 7 17 1 20 -8 4z"/>
<path d="M4737 5840 c-3 -11 -2 -22 2 -24 4 -3 8 6 9 20 2 29 -4 31 -11 4z"/>
<path d="M4816 5847 c3 -10 9 -15 12 -12 3 3 0 11 -7 18 -10 9 -11 8 -5 -6z"/>
<path d="M4870 5851 c0 -7 -4 -10 -9 -7 -11 7 -9 -21 2 -29 4 -3 5 -2 2 2 -3
3 0 12 7 20 6 7 8 16 4 20 -3 3 -6 1 -6 -6z"/>
<path d="M4779 5848 c-6 -21 -5 -37 2 -32 5 3 6 10 3 16 -5 8 -1 9 10 5 10 -4
15 -3 11 3 -5 9 -24 14 -26 8z"/>
<path d="M5461 5844 c0 -11 3 -14 6 -6 3 7 2 16 -1 19 -3 4 -6 -2 -5 -13z"/>
<path d="M5499 5846 c-6 -10 -5 -35 2 -30 5 3 6 10 3 16 -5 7 -2 9 8 6 8 -4
21 -3 27 2 9 5 4 8 -13 8 -14 0 -26 -1 -27 -2z"/>
<path d="M5550 5816 c7 -7 13 -7 20 0 6 6 3 10 -10 10 -13 0 -16 -4 -10 -10z"/>
<path d="M5593 5805 c0 -8 4 -12 9 -9 5 3 6 10 3 15 -9 13 -12 11 -12 -6z"/>
<path d="M5637 5787 c-3 -8 1 -14 8 -14 7 0 11 6 8 14 -3 7 -6 13 -8 13 -2 0
-5 -6 -8 -13z"/>
<path d="M2490 5400 c0 -5 5 -10 11 -10 5 0 7 5 4 10 -3 6 -8 10 -11 10 -2 0
-4 -4 -4 -10z"/>
<path d="M2595 5271 c-3 -5 -2 -12 3 -15 5 -3 9 1 9 9 0 17 -3 19 -12 6z"/>
<path d="M2615 5240 c-3 -5 -1 -10 4 -10 6 0 11 5 11 10 0 6 -2 10 -4 10 -3 0
-8 -4 -11 -10z"/>
<path d="M2687 5159 c7 -7 15 -10 18 -7 3 3 -2 9 -12 12 -14 6 -15 5 -6 -5z"/>
<path d="M2731 5074 c0 -11 3 -14 6 -6 3 7 2 16 -1 19 -3 4 -6 -2 -5 -13z"/>
<path d="M2790 4991 c0 -6 4 -13 10 -16 6 -3 7 1 4 9 -7 18 -14 21 -14 7z"/>
<path d="M2833 4975 c0 -8 4 -12 9 -9 5 3 6 10 3 15 -9 13 -12 11 -12 -6z"/>
<path d="M3944 5614 c2 -11 6 -18 9 -16 4 1 14 5 22 8 8 4 15 11 15 16 0 7 -5
6 -13 -1 -10 -8 -16 -8 -25 1 -8 8 -10 6 -8 -8z"/>
<path d="M3966 5585 c-16 -12 -17 -15 -4 -15 9 0 18 7 22 15 7 18 6 18 -18 0z"/>
<path d="M3965 5550 c-3 -6 1 -7 9 -4 18 7 21 14 7 14 -6 0 -13 -4 -16 -10z"/>
<path d="M4044 5398 c10 -6 22 -6 26 -2 5 5 -3 10 -18 11 -22 1 -24 0 -8 -9z"/>
<path d="M4055 5360 c-3 -5 -1 -10 4 -10 6 0 11 5 11 10 0 6 -2 10 -4 10 -3 0
-8 -4 -11 -10z"/>
<path d="M4086 5302 c-3 -5 1 -9 9 -9 8 0 12 4 9 9 -3 4 -7 8 -9 8 -2 0 -6 -4
-9 -8z"/>
<path d="M4110 5222 c0 -5 7 -9 15 -9 8 0 12 4 9 9 -3 4 -9 8 -15 8 -5 0 -9
-4 -9 -8z"/>
<path d="M4195 5050 c10 -11 20 -20 23 -20 3 0 -3 9 -13 20 -10 11 -20 20 -23
20 -3 0 3 -9 13 -20z"/>
<path d="M4250 4925 c0 -5 5 -17 10 -25 5 -8 10 -10 10 -5 0 6 -5 17 -10 25
-5 8 -10 11 -10 5z"/>
<path d="M4267 4849 c4 -13 8 -18 11 -10 2 7 -1 18 -6 23 -8 8 -9 4 -5 -13z"/>
<path d="M4354 4680 c0 -13 4 -16 10 -10 7 7 7 13 0 20 -6 6 -10 3 -10 -10z"/>
<path d="M4427 4479 c7 -7 15 -10 18 -7 3 3 -2 9 -12 12 -14 6 -15 5 -6 -5z"/>
<path d="M4514 4309 c-3 -6 -2 -15 3 -20 5 -5 9 -1 9 11 0 23 -2 24 -12 9z"/>
<path d="M4790 3659 c0 -5 5 -7 10 -4 6 3 10 8 10 11 0 2 -4 4 -10 4 -5 0 -10
-5 -10 -11z"/>
<path d="M4830 3537 c0 -2 6 -10 14 -16 11 -9 16 -9 22 1 4 7 4 10 -1 6 -4 -4
-14 -3 -22 3 -7 6 -13 9 -13 6z"/>
<path d="M4955 3340 c3 -5 8 -10 11 -10 2 0 4 5 4 10 0 6 -5 10 -11 10 -5 0
-7 -4 -4 -10z"/>
<path d="M4953 3303 c4 -3 1 -13 -6 -22 -11 -14 -10 -14 5 -2 16 12 16 31 1
31 -4 0 -3 -3 0 -7z"/>
<path d="M2293 4935 c0 -8 4 -12 9 -9 5 3 6 10 3 15 -9 13 -12 11 -12 -6z"/>
<path d="M3682 5000 c-18 -29 -15 -38 4 -12 9 13 14 25 12 27 -2 2 -9 -5 -16
-15z"/>
<path d="M3638 4924 c-16 -8 -28 -17 -28 -20 0 -3 5 -2 10 1 6 4 19 1 28 -6
14 -11 15 -11 5 1 -10 11 -9 16 5 26 23 18 13 17 -20 -2z"/>
<path d="M3620 4879 c0 -5 5 -7 10 -4 6 3 10 8 10 11 0 2 -4 4 -10 4 -5 0 -10
-5 -10 -11z"/>
<path d="M3600 4863 c5 -2 10 -11 10 -18 0 -8 4 -17 10 -20 6 -4 7 2 1 16 -4
13 -13 24 -20 25 -6 1 -7 0 -1 -3z"/>
<path d="M3600 4800 c-12 -7 -12 -11 -2 -20 6 -5 10 -7 7 -4 -3 4 0 13 6 21
13 15 10 16 -11 3z"/>
<path d="M3544 4678 l-19 -23 23 19 c21 18 27 26 19 26 -2 0 -12 -10 -23 -22z"/>
<path d="M3473 4585 c0 -7 6 -11 14 -8 7 3 13 6 13 8 0 2 -6 5 -13 8 -8 3 -14
-1 -14 -8z"/>
<path d="M3495 4560 c3 -5 8 -10 11 -10 2 0 4 5 4 10 0 6 -5 10 -11 10 -5 0
-7 -4 -4 -10z"/>
<path d="M3455 4479 c-4 -6 -4 -13 -1 -16 3 -4 6 -1 6 6 0 7 5 9 12 5 7 -4 8
-3 4 4 -9 15 -13 15 -21 1z"/>
<path d="M3384 4389 c-3 -6 -2 -15 4 -21 6 -6 8 -17 5 -24 -3 -8 -1 -14 5 -14
11 0 10 25 -1 36 -14 14 -7 26 8 14 9 -7 17 -11 20 -9 2 3 -4 10 -15 17 -13 8
-21 8 -26 1z"/>
<path d="M3348 4289 c10 -13 9 -19 -3 -29 -20 -16 -19 -23 3 -37 13 -7 23 -8
33 -1 11 8 11 9 -3 4 -10 -3 -20 -1 -23 4 -4 6 -1 10 5 10 7 0 10 6 7 14 -3 7
-1 19 4 25 5 6 6 9 3 6 -4 -3 -14 1 -23 8 -14 10 -14 10 -3 -4z"/>
<path d="M3404 4122 c23 -26 23 -26 23 -7 0 8 -3 13 -5 10 -3 -3 -12 1 -21 7
-10 8 -9 4 3 -10z"/>
<path d="M3614 3838 c-4 -7 -4 -10 1 -6 4 4 15 2 24 -5 14 -11 14 -10 2 6 -16
20 -18 21 -27 5z"/>
<path d="M3655 3760 c-3 -5 -1 -10 4 -10 6 0 11 5 11 10 0 6 -2 10 -4 10 -3 0
-8 -4 -11 -10z"/>
<path d="M3715 3670 c10 -11 20 -20 23 -20 3 0 -3 9 -13 20 -10 11 -20 20 -23
20 -3 0 3 -9 13 -20z"/>
<path d="M3985 3280 c-3 -6 1 -7 9 -4 18 7 21 14 7 14 -6 0 -13 -4 -16 -10z"/>
<path d="M4030 3210 c13 -24 17 -25 17 -5 0 8 -6 16 -14 19 -11 4 -11 1 -3
-14z"/>
<path d="M4116 3098 c3 -5 10 -6 15 -3 13 9 11 12 -6 12 -8 0 -12 -4 -9 -9z"/>
<path d="M3114 3772 c-9 -14 -7 -23 9 -42 l20 -25 -8 25 c-7 22 -6 23 8 11 15
-12 15 -10 1 18 -9 17 -16 31 -17 31 -1 0 -7 -8 -13 -18z m16 -12 c0 -5 -5
-10 -11 -10 -5 0 -7 5 -4 10 3 6 8 10 11 10 2 0 4 -4 4 -10z"/>
<path d="M3159 3718 c-5 -18 -6 -38 -1 -34 7 8 12 36 6 36 -2 0 -4 -1 -5 -2z"/>
<path d="M3110 3690 c-9 -6 -10 -10 -3 -10 6 0 15 5 18 10 8 12 4 12 -15 0z"/>
<path d="M3130 3659 c0 -5 5 -7 10 -4 6 3 10 8 10 11 0 2 -4 4 -10 4 -5 0 -10
-5 -10 -11z"/>
<path d="M3050 3620 c-6 -11 -8 -20 -6 -20 3 0 10 9 16 20 6 11 8 20 6 20 -3
0 -10 -9 -16 -20z"/>
<path d="M3081 3621 c-7 -5 -12 -14 -10 -20 2 -6 10 -2 17 9 14 22 13 23 -7
11z"/>
<path d="M3050 3581 c0 -7 -5 -9 -12 -5 -7 4 -10 3 -5 -1 4 -5 -3 -19 -15 -32
-17 -19 -19 -23 -5 -17 9 3 17 11 17 16 0 6 6 6 14 -1 10 -8 16 -9 21 -1 4 6
3 10 -2 9 -20 -3 -25 2 -13 16 7 9 10 18 6 22 -3 3 -6 1 -6 -6z"/>
<path d="M3020 3516 c0 -2 7 -7 16 -10 8 -3 12 -2 9 4 -6 10 -25 14 -25 6z"/>
<path d="M2947 3397 c-3 -7 -2 -19 3 -26 5 -9 9 -8 14 5 4 9 3 21 -2 26 -6 6
-12 4 -15 -5z"/>
<path d="M2925 3340 c-3 -6 1 -7 9 -4 18 7 21 14 7 14 -6 0 -13 -4 -16 -10z"/>
<path d="M2950 3330 c-9 -6 -10 -10 -3 -10 6 0 15 5 18 10 8 12 4 12 -15 0z"/>
<path d="M3430 3320 c0 -5 5 -10 11 -10 5 0 7 5 4 10 -3 6 -8 10 -11 10 -2 0
-4 -4 -4 -10z"/>
<path d="M2890 3273 c0 -1 8 -7 18 -12 13 -7 19 -6 19 2 0 7 -9 13 -19 13 -10
0 -18 -1 -18 -3z"/>
<path d="M2885 3240 c-3 -5 -2 -10 4 -10 5 0 13 5 16 10 3 6 2 10 -4 10 -5 0
-13 -4 -16 -10z"/>
<path d="M2847 3164 c-8 -8 3 -34 15 -34 6 0 4 8 -3 17 -12 15 -12 16 4 10 11
-4 16 -3 12 3 -7 11 -19 13 -28 4z"/>
<path d="M2827 3116 c-4 -10 -1 -13 8 -9 8 3 12 9 9 14 -7 12 -11 11 -17 -5z"/>
<path d="M2825 3080 c-3 -5 -1 -10 4 -10 6 0 11 5 11 10 0 6 -2 10 -4 10 -3 0
-8 -4 -11 -10z"/>
<path d="M2801 2976 c-9 -11 -9 -16 0 -22 7 -4 9 -3 5 4 -3 6 2 15 11 21 10 6
13 11 7 11 -6 0 -17 -6 -23 -14z"/>
<path d="M2673 2534 c3 -4 2 -16 -4 -28 -9 -19 -9 -19 4 -4 8 10 17 15 21 11
4 -4 4 0 0 10 -3 9 -11 17 -17 17 -6 0 -7 -3 -4 -6z"/>
<path d="M2750 2536 c0 -2 8 -10 18 -17 15 -13 16 -12 3 4 -13 16 -21 21 -21
13z"/>
<path d="M2796 2524 c-4 -9 -4 -19 -1 -22 3 -3 5 0 5 7 0 7 5 9 10 6 6 -4 7
-11 4 -17 -4 -7 -2 -8 5 -4 9 6 9 12 -1 24 -7 10 -13 18 -14 20 -1 2 -4 -5 -8
-14z"/>
<path d="M3161 2524 c0 -11 3 -14 6 -6 3 7 2 16 -1 19 -3 4 -6 -2 -5 -13z"/>
<path d="M3283 2520 c-8 -12 -9 -21 -3 -25 6 -4 9 -1 8 7 -2 7 2 12 9 11 7 -2
10 4 7 12 -8 19 -7 19 -21 -5z"/>
<path d="M3579 2538 c-5 -18 -6 -38 -1 -34 7 8 12 36 6 36 -2 0 -4 -1 -5 -2z"/>
<path d="M2717 2515 c-4 -8 -1 -17 6 -21 7 -4 9 -4 5 1 -4 4 -3 14 3 22 7 8 8
13 1 13 -5 0 -12 -7 -15 -15z"/>
<path d="M2840 2519 c0 -5 5 -7 10 -4 6 3 10 8 10 11 0 2 -4 4 -10 4 -5 0 -10
-5 -10 -11z"/>
<path d="M2896 2522 c-3 -5 1 -9 9 -9 8 0 15 4 15 9 0 4 -4 8 -9 8 -6 0 -12
-4 -15 -8z"/>
<path d="M2960 2519 c0 -5 5 -7 10 -4 6 3 10 8 10 11 0 2 -4 4 -10 4 -5 0 -10
-5 -10 -11z"/>
<path d="M3110 2519 c0 -5 5 -7 10 -4 6 3 10 8 10 11 0 2 -4 4 -10 4 -5 0 -10
-5 -10 -11z"/>
<path d="M3325 2520 c-3 -6 1 -7 9 -4 18 7 21 14 7 14 -6 0 -13 -4 -16 -10z"/>
<path d="M3445 2520 c-3 -6 1 -7 9 -4 18 7 21 14 7 14 -6 0 -13 -4 -16 -10z"/>
<path d="M3720 2522 c0 -5 7 -9 15 -9 8 0 12 4 9 9 -3 4 -9 8 -15 8 -5 0 -9
-4 -9 -8z"/>
<path d="M3795 2520 c-3 -5 -1 -10 4 -10 6 0 11 5 11 10 0 6 -2 10 -4 10 -3 0
-8 -4 -11 -10z"/>
<path d="M3910 2521 c0 -9 38 -12 44 -3 2 4 -7 8 -20 8 -13 1 -24 -1 -24 -5z"/>
<path d="M3962 2510 c-9 -14 -9 -21 0 -26 6 -4 8 -3 4 4 -3 6 1 15 10 20 9 5
12 12 7 15 -5 3 -14 -3 -21 -13z"/>
<path d="M3674 2506 c1 -8 5 -18 8 -22 4 -3 5 1 4 10 -1 8 -5 18 -8 22 -4 3
-5 -1 -4 -10z"/>
<path d="M3834 2509 c-3 -6 -2 -15 3 -20 5 -5 9 -1 9 11 0 23 -2 24 -12 9z"/>
<path d="M3010 2499 c0 -5 5 -7 10 -4 6 3 10 8 10 11 0 2 -4 4 -10 4 -5 0 -10
-5 -10 -11z"/>
<path d="M3135 2500 c3 -5 8 -10 11 -10 2 0 4 5 4 10 0 6 -5 10 -11 10 -5 0
-7 -4 -4 -10z"/>
<path d="M3990 2488 c-10 -21 -10 -21 3 -6 8 10 18 14 22 10 5 -4 5 -1 1 6
-10 17 -14 15 -26 -10z"/>
<path d="M3570 2480 c0 -5 5 -10 11 -10 5 0 7 5 4 10 -3 6 -8 10 -11 10 -2 0
-4 -4 -4 -10z"/>
<path d="M2610 2459 c0 -5 5 -7 10 -4 6 3 10 8 10 11 0 2 -4 4 -10 4 -5 0 -10
-5 -10 -11z"/>
<path d="M4007 2459 c7 -7 15 -10 18 -7 3 3 -2 9 -12 12 -14 6 -15 5 -6 -5z"/>
<path d="M2520 2400 c8 -5 20 -10 25 -10 6 0 3 5 -5 10 -8 5 -19 10 -25 10 -5
0 -3 -5 5 -10z"/>
<path d="M2504 2379 c-4 -7 -3 -9 4 -5 5 3 13 0 15 -6 4 -9 6 -10 6 -1 1 17
-16 25 -25 12z"/>
<path d="M2510 2326 c0 -2 7 -7 16 -10 8 -3 12 -2 9 4 -6 10 -25 14 -25 6z"/>
<path d="M2455 2211 c-3 -5 -2 -12 3 -15 5 -3 9 1 9 9 0 17 -3 19 -12 6z"/>
<path d="M2436 2147 c3 -10 9 -15 12 -12 3 3 0 11 -7 18 -10 9 -11 8 -5 -6z"/>
<path d="M2389 2089 l-24 -20 30 17 c39 24 40 24 28 24 -6 0 -21 -9 -34 -21z"/>
<path d="M2410 2059 c0 -5 5 -7 10 -4 6 3 10 8 10 11 0 2 -4 4 -10 4 -5 0 -10
-5 -10 -11z"/>
<path d="M4316 2042 c-3 -5 1 -9 9 -9 8 0 12 4 9 9 -3 4 -7 8 -9 8 -2 0 -6 -4
-9 -8z"/>
<path d="M2373 2015 c-3 -9 -3 -18 -1 -21 3 -3 8 4 11 16 6 23 -1 27 -10 5z"/>
<path d="M2350 1973 c5 -2 8 -9 4 -14 -3 -5 0 -9 6 -9 15 0 7 23 -8 26 -7 1
-8 0 -2 -3z"/>
<path d="M2410 1886 c0 -2 7 -7 16 -10 8 -3 12 -2 9 4 -6 10 -25 14 -25 6z"/>
<path d="M4470 1799 c0 -5 5 -7 10 -4 6 3 10 8 10 11 0 2 -4 4 -10 4 -5 0 -10
-5 -10 -11z"/>
<path d="M4590 2523 c0 -1 8 -7 18 -12 13 -7 19 -6 19 2 0 7 -9 13 -19 13 -10
0 -18 -1 -18 -3z"/>
<path d="M4741 2514 c0 -11 3 -14 6 -6 3 7 2 16 -1 19 -3 4 -6 -2 -5 -13z"/>
<path d="M4780 2520 c0 -5 5 -10 10 -10 6 0 10 5 10 10 0 6 -4 10 -10 10 -5 0
-10 -4 -10 -10z"/>
<path d="M4667 2499 c7 -7 15 -10 18 -7 3 3 -2 9 -12 12 -14 6 -15 5 -6 -5z"/>
<path d="M4796 2487 c3 -10 9 -15 12 -12 3 3 0 11 -7 18 -10 9 -11 8 -5 -6z"/>
<path d="M4590 2485 c0 -7 30 -13 34 -7 3 4 -4 9 -15 9 -10 1 -19 0 -19 -2z"/>
<path d="M4580 2466 c0 -2 8 -10 18 -17 15 -13 16 -12 3 4 -13 16 -21 21 -21
13z"/>
<path d="M4636 2438 c3 -5 10 -6 15 -3 13 9 11 12 -6 12 -8 0 -12 -4 -9 -9z"/>
<path d="M4586 2421 c-3 -4 4 -7 14 -6 27 2 33 10 10 12 -11 1 -22 -2 -24 -6z"/>
<path d="M4714 2236 c1 -8 5 -18 8 -22 4 -3 5 1 4 10 -1 8 -5 18 -8 22 -4 3
-5 -1 -4 -10z"/>
<path d="M4927 2199 c7 -7 15 -10 18 -7 3 3 -2 9 -12 12 -14 6 -15 5 -6 -5z"/>
<path d="M4770 2155 c0 -8 2 -15 4 -15 2 0 6 7 10 15 3 8 1 15 -4 15 -6 0 -10
-7 -10 -15z"/>
<path d="M4791 2108 c5 -10 11 -18 12 -18 2 0 3 8 3 18 0 10 -6 19 -13 19 -8
0 -9 -6 -2 -19z"/>
<path d="M4906 1938 c3 -5 10 -6 15 -3 13 9 11 12 -6 12 -8 0 -12 -4 -9 -9z"/>
<path d="M1340 2326 c0 -2 8 -10 18 -17 15 -13 16 -12 3 4 -13 16 -21 21 -21
13z"/>
<path d="M1334 2218 c-4 -7 -4 -10 1 -6 4 4 15 2 24 -5 14 -11 14 -10 2 6 -16
20 -18 21 -27 5z"/>
<path d="M1353 2116 c1 -5 -3 -10 -10 -11 -17 0 -25 -12 -8 -12 8 0 22 8 30
17 13 14 13 17 1 17 -8 0 -14 -5 -13 -11z"/>
<path d="M1330 1881 c0 -6 4 -12 8 -15 5 -3 9 1 9 9 0 8 -4 15 -9 15 -4 0 -8
-4 -8 -9z"/>
<path d="M1330 1810 c-13 -8 -13 -11 1 -26 12 -11 19 -12 24 -5 3 6 3 11 -2
10 -20 -3 -25 2 -13 16 14 17 11 19 -10 5z"/>
<path d="M1325 1720 c-3 -6 1 -7 9 -4 18 7 21 14 7 14 -6 0 -13 -4 -16 -10z"/>
<path d="M1349 1697 c6 -8 7 -18 3 -22 -4 -5 -1 -5 6 -1 10 6 10 11 1 22 -6 8
-14 14 -16 14 -3 0 0 -6 6 -13z"/>
<path d="M1320 1694 c0 -6 7 -19 16 -30 14 -18 14 -18 3 6 -14 31 -19 36 -19
24z"/>
<path d="M1359 1643 c0 -5 -2 -16 -4 -26 -2 -11 -1 -16 3 -13 8 8 14 46 7 46
-3 0 -5 -3 -6 -7z"/>
<path d="M1350 1580 c0 -5 5 -10 10 -10 6 0 10 5 10 10 0 6 -4 10 -10 10 -5 0
-10 -4 -10 -10z"/>
<path d="M5560 1940 c-9 -6 -10 -10 -3 -10 6 0 15 5 18 10 8 12 4 12 -15 0z"/>
<path d="M5530 1920 c0 -5 5 -10 11 -10 5 0 7 5 4 10 -3 6 -8 10 -11 10 -2 0
-4 -4 -4 -10z"/>
<path d="M5600 1780 c-12 -7 -10 -9 7 -7 12 0 19 5 17 9 -6 10 -6 10 -24 -2z"/>
<path d="M5610 1730 c-9 -6 -10 -10 -3 -10 6 0 15 5 18 10 8 12 4 12 -15 0z"/>
<path d="M5635 1721 c-3 -5 -2 -12 3 -15 5 -3 9 1 9 9 0 17 -3 19 -12 6z"/>
<path d="M5647 1679 c7 -7 15 -10 18 -7 3 3 -2 9 -12 12 -14 6 -15 5 -6 -5z"/>
<path d="M5638 1653 c7 -3 16 -2 19 1 4 3 -2 6 -13 5 -11 0 -14 -3 -6 -6z"/>
<path d="M5890 6020 c-9 -6 -10 -10 -3 -10 6 0 15 5 18 10 8 12 4 12 -15 0z"/>
<path d="M5953 5925 c0 -8 4 -15 9 -15 4 0 8 4 8 9 0 6 -4 12 -8 15 -5 3 -9
-1 -9 -9z"/>
<path d="M6016 5887 c3 -10 9 -15 12 -12 3 3 0 11 -7 18 -10 9 -11 8 -5 -6z"/>
<path d="M6001 5793 c-1 -17 16 -25 25 -12 4 7 3 9 -4 5 -5 -3 -13 0 -15 6 -4
9 -6 10 -6 1z"/>
<path d="M6016 5698 c3 -4 11 -5 19 -1 21 7 19 12 -4 10 -11 0 -18 -5 -15 -9z"/>
<path d="M6014 5658 c-4 -7 -4 -10 1 -6 4 4 15 2 24 -5 14 -11 14 -10 2 6 -16
20 -18 21 -27 5z"/>
<path d="M6000 5506 c0 -2 7 -9 15 -16 13 -11 14 -10 9 4 -5 14 -24 23 -24 12z"/>
<path d="M6005 5440 c-3 -6 1 -7 9 -4 18 7 21 14 7 14 -6 0 -13 -4 -16 -10z"/>
<path d="M6020 5425 c0 -2 6 -8 13 -14 10 -8 14 -7 14 2 0 8 -6 14 -14 14 -7
0 -13 -1 -13 -2z"/>
<path d="M6060 5140 c-9 -6 -10 -10 -3 -10 6 0 15 5 18 10 8 12 4 12 -15 0z"/>
<path d="M6006 5013 c-7 -18 6 -36 30 -39 9 -1 13 1 9 4 -4 4 -12 7 -18 7 -7
0 -11 11 -10 23 3 26 -2 29 -11 5z"/>
<path d="M6016 4821 c-4 -5 3 -7 14 -4 23 6 26 13 6 13 -8 0 -17 -4 -20 -9z"/>
<path d="M6015 4760 c-3 -5 -1 -10 4 -10 6 0 11 5 11 10 0 6 -2 10 -4 10 -3 0
-8 -4 -11 -10z"/>
<path d="M6003 4725 c0 -8 4 -12 9 -9 5 3 6 10 3 15 -9 13 -12 11 -12 -6z"/>
<path d="M6016 4701 c-4 -5 3 -7 14 -4 23 6 26 13 6 13 -8 0 -17 -4 -20 -9z"/>
<path d="M6005 4480 c-3 -6 1 -7 9 -4 18 7 21 14 7 14 -6 0 -13 -4 -16 -10z"/>
<path d="M6020 4465 c0 -2 6 -8 13 -14 10 -8 14 -7 14 2 0 8 -6 14 -14 14 -7
0 -13 -1 -13 -2z"/>
<path d="M6016 4418 c3 -4 11 -5 19 -1 21 7 19 12 -4 10 -11 0 -18 -5 -15 -9z"/>
<path d="M6010 4280 c0 -5 5 -10 10 -10 6 0 10 5 10 10 0 6 -4 10 -10 10 -5 0
-10 -4 -10 -10z"/>
<path d="M6003 4245 c0 -8 4 -12 9 -9 5 3 6 10 3 15 -9 13 -12 11 -12 -6z"/>
<path d="M6016 4221 c-4 -5 3 -7 14 -4 23 6 26 13 6 13 -8 0 -17 -4 -20 -9z"/>
<path d="M6060 3860 c-9 -6 -10 -10 -3 -10 6 0 15 5 18 10 8 12 4 12 -15 0z"/>
<path d="M6006 3733 c-7 -18 6 -36 30 -39 9 -1 13 1 9 4 -4 4 -12 7 -18 7 -7
0 -11 11 -10 23 3 26 -2 29 -11 5z"/>
<path d="M6016 3541 c-4 -5 3 -7 14 -4 23 6 26 13 6 13 -8 0 -17 -4 -20 -9z"/>
<path d="M6016 3458 c3 -4 11 -5 19 -1 21 7 19 12 -4 10 -11 0 -18 -5 -15 -9z"/>
<path d="M6010 3320 c0 -5 5 -10 10 -10 6 0 10 5 10 10 0 6 -4 10 -10 10 -5 0
-10 -4 -10 -10z"/>
<path d="M6003 3285 c0 -8 4 -12 9 -9 5 3 6 10 3 15 -9 13 -12 11 -12 -6z"/>
<path d="M6016 3261 c-4 -5 3 -7 14 -4 23 6 26 13 6 13 -8 0 -17 -4 -20 -9z"/>
<path d="M6016 3138 c3 -4 11 -5 19 -1 21 7 19 12 -4 10 -11 0 -18 -5 -15 -9z"/>
<path d="M6010 3000 c0 -5 5 -10 10 -10 6 0 10 5 10 10 0 6 -4 10 -10 10 -5 0
-10 -4 -10 -10z"/>
<path d="M6003 2965 c0 -8 4 -12 9 -9 5 3 6 10 3 15 -9 13 -12 11 -12 -6z"/>
<path d="M6016 2941 c-4 -5 3 -7 14 -4 23 6 26 13 6 13 -8 0 -17 -4 -20 -9z"/>
<path d="M6060 2580 c-9 -6 -10 -10 -3 -10 6 0 15 5 18 10 8 12 4 12 -15 0z"/>
<path d="M6006 2453 c-7 -18 6 -36 30 -39 9 -1 13 1 9 4 -4 4 -12 7 -18 7 -7
0 -11 11 -10 23 3 26 -2 29 -11 5z"/>
<path d="M6016 2261 c-4 -5 3 -7 14 -4 23 6 26 13 6 13 -8 0 -17 -4 -20 -9z"/>
<path d="M6015 2200 c-3 -5 -1 -10 4 -10 6 0 11 5 11 10 0 6 -2 10 -4 10 -3 0
-8 -4 -11 -10z"/>
<path d="M6003 2165 c0 -8 4 -12 9 -9 5 3 6 10 3 15 -9 13 -12 11 -12 -6z"/>
<path d="M6016 2141 c-4 -5 3 -7 14 -4 23 6 26 13 6 13 -8 0 -17 -4 -20 -9z"/>
<path d="M6005 1920 c-3 -6 1 -7 9 -4 18 7 21 14 7 14 -6 0 -13 -4 -16 -10z"/>
<path d="M6020 1905 c0 -2 6 -8 13 -14 10 -8 14 -7 14 2 0 8 -6 14 -14 14 -7
0 -13 -1 -13 -2z"/>
<path d="M6060 1780 c-9 -6 -10 -10 -3 -10 6 0 15 5 18 10 8 12 4 12 -15 0z"/>
<path d="M6015 1680 c3 -5 8 -10 11 -10 2 0 4 5 4 10 0 6 -5 10 -11 10 -5 0
-7 -4 -4 -10z"/>
<path d="M6014 1619 c-3 -6 -1 -16 5 -22 9 -9 10 -7 5 7 -6 15 -4 17 6 11 9
-5 11 -4 6 3 -9 15 -13 15 -22 1z"/>
<path d="M6060 1460 c-9 -6 -10 -10 -3 -10 6 0 15 5 18 10 8 12 4 12 -15 0z"/>
<path d="M6015 1360 c3 -5 8 -10 11 -10 2 0 4 5 4 10 0 6 -5 10 -11 10 -5 0
-7 -4 -4 -10z"/>
<path d="M5995 1200 c-2 -3 5 -7 16 -7 10 -1 19 2 19 6 0 9 -29 10 -35 1z"/>
<path d="M5995 1170 c-3 -5 -3 -10 1 -10 4 0 0 -6 -11 -13 -14 -11 -15 -16 -5
-22 9 -6 11 -4 5 5 -6 9 -4 12 6 8 11 -4 15 1 15 18 0 26 -2 29 -11 14z"/>
<path d="M5954 1092 c4 -7 1 -15 -8 -18 -19 -7 -28 -32 -14 -40 6 -4 8 -3 5 3
-4 6 0 17 9 24 13 11 14 9 9 -13 -4 -14 -3 -28 2 -31 11 -7 10 69 -1 80 -5 5
-6 3 -2 -5z"/>
<path d="M6015 1080 c3 -5 8 -10 11 -10 2 0 4 5 4 10 0 6 -5 10 -11 10 -5 0
-7 -4 -4 -10z"/>
<path d="M5986 1058 c3 -5 10 -6 15 -3 13 9 11 12 -6 12 -8 0 -12 -4 -9 -9z"/>
<path d="M5904 1005 c-10 -8 -14 -14 -9 -14 6 0 19 6 29 14 11 8 15 15 10 15
-6 0 -19 -7 -30 -15z"/>
<path d="M5853 958 c-18 -20 -19 -25 -7 -36 12 -11 13 -9 11 10 -1 15 6 26 23
35 15 8 19 13 9 13 -8 0 -25 -10 -36 -22z"/>
<path d="M5873 927 c-1 -11 -1 -18 0 -16 2 2 8 11 15 20 9 12 9 16 -1 16 -7 0
-14 -9 -14 -20z"/>
<path d="M5794 909 c-3 -6 4 -21 17 -33 22 -20 22 -20 6 0 -25 30 -21 39 9 19
15 -9 23 -12 20 -6 -13 20 -44 32 -52 20z"/>
<path d="M5667 843 c-3 -5 6 -9 20 -10 19 -1 22 1 12 8 -17 11 -26 11 -32 2z"/>
<path d="M5615 820 c3 -5 8 -10 11 -10 2 0 4 5 4 10 0 6 -5 10 -11 10 -5 0 -7
-4 -4 -10z"/>
<path d="M1470 809 c0 -5 5 -7 10 -4 6 3 10 8 10 11 0 2 -4 4 -10 4 -5 0 -10
-5 -10 -11z"/>
<path d="M1504 808 c-4 -7 -4 -10 1 -6 4 4 15 2 24 -5 14 -11 14 -10 2 6 -16
20 -18 21 -27 5z"/>
<path d="M1680 813 c0 -6 8 -17 18 -24 16 -13 16 -13 2 6 -8 11 -16 22 -17 24
-2 2 -3 0 -3 -6z"/>
<path d="M1710 811 c0 -6 4 -13 10 -16 6 -3 7 1 4 9 -7 18 -14 21 -14 7z"/>
<path d="M1776 803 c-6 -14 -5 -15 5 -6 7 7 10 15 7 18 -3 3 -9 -2 -12 -12z"/>
<path d="M1890 811 c0 -6 4 -13 10 -16 6 -3 7 1 4 9 -7 18 -14 21 -14 7z"/>
<path d="M1996 807 c-16 -12 -16 -14 -3 -14 9 0 18 6 21 14 3 7 4 13 3 13 -2
0 -11 -6 -21 -13z"/>
<path d="M2046 805 c-18 -13 -18 -14 2 -12 11 0 19 4 16 8 -2 4 2 10 8 12 7 3
9 6 3 6 -5 0 -18 -6 -29 -14z"/>
<path d="M2149 803 c-13 -16 -12 -17 4 -4 9 7 17 15 17 17 0 8 -8 3 -21 -13z"/>
<path d="M2290 811 c0 -6 4 -13 10 -16 6 -3 7 1 4 9 -7 18 -14 21 -14 7z"/>
<path d="M2336 805 c-3 -9 -2 -14 3 -10 5 3 11 -1 14 -7 2 -7 7 -11 10 -8 3 3
0 13 -8 23 -11 16 -13 16 -19 2z"/>
<path d="M2551 807 c-8 -10 -7 -14 2 -14 8 0 14 6 14 14 0 7 -1 13 -2 13 -2 0
-8 -6 -14 -13z"/>
<path d="M2750 816 c0 -2 8 -10 18 -17 15 -13 16 -12 3 4 -13 16 -21 21 -21
13z"/>
<path d="M2829 803 c-13 -16 -12 -17 4 -4 16 13 21 21 13 21 -2 0 -10 -8 -17
-17z"/>
<path d="M2966 803 c-6 -14 -5 -15 5 -6 7 7 10 15 7 18 -3 3 -9 -2 -12 -12z"/>
<path d="M3005 800 c-26 -28 -15 -31 12 -3 12 13 19 23 14 23 -4 0 -16 -9 -26
-20z"/>
<path d="M3109 803 c-13 -16 -12 -17 4 -4 16 13 21 21 13 21 -2 0 -10 -8 -17
-17z"/>
<path d="M3250 809 c0 -5 -4 -8 -9 -5 -11 7 -8 -20 3 -31 4 -4 6 -1 4 7 -1 8
2 14 9 13 7 -2 10 4 7 12 -7 17 -14 20 -14 4z"/>
<path d="M3526 803 c-6 -14 -5 -15 5 -6 7 7 10 15 7 18 -3 3 -9 -2 -12 -12z"/>
<path d="M3596 812 c-3 -6 1 -13 10 -16 8 -3 12 -11 8 -17 -4 -8 -3 -9 5 -5 9
6 9 12 -1 24 -7 10 -13 18 -14 20 -1 2 -5 -1 -8 -6z"/>
<path d="M3901 797 c-13 -21 -12 -21 5 -5 10 10 16 20 13 22 -3 3 -11 -5 -18
-17z"/>
<path d="M4010 809 c0 -5 -4 -8 -9 -4 -5 3 -12 1 -15 -4 -4 -5 2 -8 11 -7 15
3 33 26 19 26 -3 0 -6 -5 -6 -11z"/>
<path d="M4044 798 c-12 -14 -13 -18 -3 -10 9 6 20 8 24 4 5 -4 5 -1 1 6 -4 6
-3 12 2 12 15 0 33 -26 24 -35 -4 -5 -1 -5 6 -1 11 6 10 12 -4 27 -22 24 -27
24 -50 -3z"/>
<path d="M4120 814 c0 -6 7 -19 16 -30 14 -18 14 -18 3 6 -14 31 -19 36 -19
24z"/>
<path d="M4157 806 c-4 -9 -1 -15 6 -13 7 1 11 -4 9 -11 -1 -8 2 -11 8 -7 8 5
7 12 -2 23 -7 10 -13 18 -14 20 -1 2 -4 -4 -7 -12z"/>
<path d="M4221 798 l-14 -23 24 20 c13 11 26 21 28 22 2 2 -2 3 -10 3 -8 0
-20 -10 -28 -22z"/>
<path d="M4330 809 c0 -5 -4 -8 -9 -4 -5 3 -12 1 -15 -4 -4 -5 2 -8 11 -7 15
3 33 26 19 26 -3 0 -6 -5 -6 -11z"/>
<path d="M4364 798 c-12 -14 -13 -18 -3 -10 9 6 20 8 24 4 5 -4 5 -1 1 6 -4 6
-3 12 2 12 15 0 33 -26 24 -35 -4 -5 -1 -5 6 -1 11 6 10 12 -4 27 -22 24 -27
24 -50 -3z"/>
<path d="M4440 814 c0 -6 7 -19 16 -30 14 -18 14 -18 3 6 -14 31 -19 36 -19
24z"/>
<path d="M4477 806 c-4 -9 -1 -15 6 -13 7 1 11 -4 9 -11 -1 -8 2 -11 8 -7 8 5
7 12 -2 23 -7 10 -13 18 -14 20 -1 2 -4 -4 -7 -12z"/>
<path d="M4541 797 c-13 -21 -12 -21 5 -5 10 10 16 20 13 22 -3 3 -11 -5 -18
-17z"/>
<path d="M4650 809 c0 -5 -4 -8 -9 -4 -5 3 -12 1 -15 -4 -4 -5 2 -8 11 -7 15
3 33 26 19 26 -3 0 -6 -5 -6 -11z"/>
<path d="M4684 798 c-12 -14 -13 -18 -3 -10 9 6 20 8 24 4 5 -4 5 -1 1 6 -4 6
-3 12 2 12 15 0 33 -26 24 -35 -4 -5 -1 -5 6 -1 11 6 10 12 -4 27 -22 24 -27
24 -50 -3z"/>
<path d="M4760 814 c0 -6 7 -19 16 -30 14 -18 14 -18 3 6 -14 31 -19 36 -19
24z"/>
<path d="M4797 806 c-4 -9 -1 -15 6 -13 7 1 11 -4 9 -11 -1 -8 2 -11 8 -7 8 5
7 12 -2 23 -7 10 -13 18 -14 20 -1 2 -4 -4 -7 -12z"/>
<path d="M4861 798 l-14 -23 24 20 c13 11 26 21 28 22 2 2 -2 3 -10 3 -8 0
-20 -10 -28 -22z"/>
<path d="M4970 809 c0 -5 -4 -8 -9 -4 -5 3 -12 1 -15 -4 -4 -5 2 -8 11 -7 15
3 33 26 19 26 -3 0 -6 -5 -6 -11z"/>
<path d="M5004 798 c-12 -14 -13 -18 -3 -10 9 6 20 8 24 4 5 -4 5 -1 1 6 -4 6
-3 12 2 12 15 0 33 -26 24 -35 -4 -5 -1 -5 6 -1 11 6 10 12 -4 27 -22 24 -27
24 -50 -3z"/>
<path d="M5080 814 c0 -6 7 -19 16 -30 14 -18 14 -18 3 6 -14 31 -19 36 -19
24z"/>
<path d="M5290 809 c0 -5 -4 -8 -9 -4 -5 3 -12 1 -15 -4 -4 -5 2 -8 11 -7 15
3 33 26 19 26 -3 0 -6 -5 -6 -11z"/>
<path d="M5324 798 c-12 -14 -13 -18 -3 -10 9 6 20 8 24 4 5 -4 5 -1 1 6 -4 6
-3 12 2 12 15 0 33 -26 24 -35 -4 -5 -1 -5 6 -1 11 6 10 12 -4 27 -22 24 -27
24 -50 -3z"/>
<path d="M5400 814 c0 -6 7 -19 16 -30 14 -18 14 -18 3 6 -14 31 -19 36 -19
24z"/>
<path d="M5437 806 c-4 -9 -1 -15 6 -13 7 1 11 -4 9 -11 -1 -8 2 -11 8 -7 8 5
7 12 -2 23 -7 10 -13 18 -14 20 -1 2 -4 -4 -7 -12z"/>
<path d="M5506 804 c-6 -15 -4 -15 11 -3 10 7 20 15 22 16 2 2 -3 3 -11 3 -9
0 -19 -7 -22 -16z"/>
<path d="M5596 807 c3 -10 9 -15 12 -12 3 3 0 11 -7 18 -10 9 -11 8 -5 -6z"/>
<path d="M1335 800 c-3 -5 -1 -10 4 -10 6 0 11 5 11 10 0 6 -2 10 -4 10 -3 0
-8 -4 -11 -10z"/>
<path d="M1796 793 c-6 -14 -5 -15 5 -6 7 7 10 15 7 18 -3 3 -9 -2 -12 -12z"/>
<path d="M1870 795 c0 -8 4 -15 10 -15 5 0 7 7 4 15 -4 8 -8 15 -10 15 -2 0
-4 -7 -4 -15z"/>
<path d="M2180 799 c0 -5 5 -7 10 -4 6 3 10 8 10 11 0 2 -4 4 -10 4 -5 0 -10
-5 -10 -11z"/>
<path d="M2210 802 c0 -4 10 -9 22 -9 18 -2 20 0 8 7 -18 12 -30 13 -30 2z"/>
<path d="M2273 791 c0 -11 5 -18 9 -15 4 3 5 11 1 19 -7 21 -12 19 -10 -4z"/>
<path d="M3140 799 c0 -5 5 -7 10 -4 6 3 10 8 10 11 0 2 -4 4 -10 4 -5 0 -10
-5 -10 -11z"/>
<path d="M3170 802 c0 -5 7 -9 15 -9 8 0 12 4 9 9 -3 4 -9 8 -15 8 -5 0 -9 -4
-9 -8z"/>
<path d="M4270 800 c0 -5 5 -10 11 -10 5 0 7 5 4 10 -3 6 -8 10 -11 10 -2 0
-4 -4 -4 -10z"/>
<path d="M4910 800 c0 -5 5 -10 11 -10 5 0 7 5 4 10 -3 6 -8 10 -11 10 -2 0
-4 -4 -4 -10z"/>
<path d="M5115 800 c-4 -6 -1 -9 7 -8 7 2 12 -3 10 -10 -1 -8 2 -11 8 -7 8 5
7 11 -1 21 -14 17 -16 17 -24 4z"/>
<path d="M5550 802 c0 -4 9 -8 19 -8 11 0 17 4 15 8 -3 4 -12 8 -20 8 -8 0
-14 -4 -14 -8z"/>
<path d="M1633 785 c0 -8 4 -12 9 -9 5 3 6 10 3 15 -9 13 -12 11 -12 -6z"/>
<path d="M2473 785 c0 -7 6 -11 14 -8 7 3 13 6 13 8 0 2 -6 5 -13 8 -8 3 -14
-1 -14 -8z"/>
<path d="M2515 791 c-3 -5 -2 -12 3 -15 5 -3 9 1 9 9 0 17 -3 19 -12 6z"/>
<path d="M2656 783 c-6 -14 -5 -15 5 -6 7 7 10 15 7 18 -3 3 -9 -2 -12 -12z"/>
<path d="M2790 791 c0 -6 4 -12 8 -15 5 -3 9 1 9 9 0 8 -4 15 -9 15 -4 0 -8
-4 -8 -9z"/>
<path d="M3433 785 c0 -8 4 -12 9 -9 5 3 6 10 3 15 -9 13 -12 11 -12 -6z"/>
<path d="M3472 791 c-11 -7 -11 -9 0 -14 9 -3 15 1 15 9 0 8 -1 14 -1 14 -1 0
-7 -4 -14 -9z"/>
<path d="M3553 785 c0 -8 4 -12 9 -9 5 3 6 10 3 15 -9 13 -12 11 -12 -6z"/>
<path d="M1667 779 c7 -7 15 -10 18 -7 3 3 -2 9 -12 12 -14 6 -15 5 -6 -5z"/>
<path d="M1955 761 c-3 -5 -2 -12 3 -15 5 -3 9 1 9 9 0 17 -3 19 -12 6z"/>
<path d="M3266 762 c-2 -4 4 -8 14 -8 10 0 16 4 14 8 -3 4 -9 8 -14 8 -5 0
-11 -4 -14 -8z"/>
<path d="M3746 762 c-2 -4 4 -8 14 -8 10 0 16 4 14 8 -3 4 -9 8 -14 8 -5 0
-11 -4 -14 -8z"/>
</g>
</svg>
