<?xml version="1.0" encoding="UTF-8" standalone="no"?>
<!DOCTYPE svg PUBLIC "-//W3C//DTD SVG 1.1//EN" "http://www.w3.org/Graphics/SVG/1.1/DTD/svg11.dtd">
<svg width="100%" height="100%" viewBox="0 0 4001 4000" version="1.1" xmlns="http://www.w3.org/2000/svg" xmlns:xlink="http://www.w3.org/1999/xlink" xml:space="preserve" xmlns:serif="http://www.serif.com/" style="fill-rule:evenodd;clip-rule:evenodd;stroke-linecap:square;stroke-miterlimit:9;">
    <g transform="matrix(1,0,0,1,-12757,0)">
        <g id="DonaldLouchLogoFullSquare" transform="matrix(1,0,0,1,12757.4,0)">
            <rect x="0" y="0" width="4000" height="4000" style="fill:none;"/>
            <clipPath id="_clip1">
                <rect x="0" y="0" width="4000" height="4000"/>
            </clipPath>
            <g clip-path="url(#_clip1)">
                <g id="Layer5" transform="matrix(0.969617,0,0,0.951063,53.3896,95.6962)">
                    <g transform="matrix(5126.53,0,0,4896.23,363.359,3727.33)">
                        <path d="M0.638,-0L0.598,-0C0.593,-0 0.59,-0.001 0.587,-0.004C0.584,-0.006 0.581,-0.01 0.58,-0.014L0.496,-0.219L0.149,-0.219L0.066,-0.014C0.064,-0.01 0.062,-0.007 0.059,-0.004C0.055,-0.001 0.051,-0 0.047,-0L0.008,-0L0.297,-0.708L0.348,-0.708L0.638,-0ZM0.164,-0.257L0.481,-0.257L0.337,-0.615C0.334,-0.62 0.332,-0.627 0.33,-0.634C0.327,-0.641 0.325,-0.649 0.323,-0.657C0.32,-0.649 0.318,-0.641 0.316,-0.634C0.313,-0.627 0.311,-0.62 0.309,-0.614L0.164,-0.257Z" style="fill:#73e592;fill-rule:nonzero;"/>
                    </g>
                    <g transform="matrix(4503.76,0,0,4845.03,323.163,3704.07)">
                        <path d="M0.13,-0.708C0.135,-0.708 0.138,-0.707 0.141,-0.706C0.144,-0.705 0.147,-0.702 0.15,-0.698L0.608,-0.085C0.607,-0.095 0.606,-0.105 0.606,-0.114L0.606,-0.708L0.651,-0.708L0.651,-0L0.627,-0C0.619,-0 0.613,-0.003 0.608,-0.01L0.148,-0.624C0.149,-0.614 0.15,-0.604 0.15,-0.596L0.15,-0L0.105,-0L0.105,-0.708L0.13,-0.708Z" style="fill:#e7c462;fill-rule:nonzero;"/>
                    </g>
                    <g transform="matrix(3175.97,1377.97,-1745.35,4022.7,519.056,3039.91)">
                        <path d="M0.156,-0.044L0.492,-0.044L0.492,-0L0.105,-0L0.105,-0.708L0.156,-0.708L0.156,-0.044Z" style="fill:#e7c462;fill-rule:nonzero;"/>
                    </g>
                    <g transform="matrix(4809.99,0,0,4809,83.1988,3715.22)">
                        <path d="M0.736,-0.354C0.736,-0.299 0.728,-0.25 0.712,-0.205C0.695,-0.161 0.672,-0.123 0.643,-0.091C0.613,-0.06 0.577,-0.035 0.536,-0.018C0.495,-0.001 0.449,0.008 0.399,0.008C0.349,0.008 0.303,-0.001 0.262,-0.018C0.221,-0.035 0.185,-0.06 0.156,-0.091C0.126,-0.123 0.103,-0.161 0.086,-0.205C0.07,-0.25 0.062,-0.299 0.062,-0.354C0.062,-0.408 0.07,-0.458 0.086,-0.502C0.103,-0.547 0.126,-0.585 0.156,-0.616C0.185,-0.648 0.221,-0.672 0.262,-0.69C0.303,-0.707 0.349,-0.716 0.399,-0.716C0.449,-0.716 0.495,-0.707 0.536,-0.69C0.577,-0.673 0.613,-0.648 0.643,-0.617C0.672,-0.585 0.695,-0.547 0.712,-0.502C0.728,-0.458 0.736,-0.408 0.736,-0.354ZM0.683,-0.354C0.683,-0.403 0.676,-0.448 0.663,-0.487C0.649,-0.526 0.63,-0.56 0.605,-0.587C0.58,-0.614 0.55,-0.635 0.515,-0.65C0.48,-0.664 0.441,-0.672 0.399,-0.672C0.357,-0.672 0.318,-0.664 0.283,-0.65C0.248,-0.635 0.218,-0.614 0.193,-0.587C0.168,-0.56 0.149,-0.526 0.135,-0.487C0.121,-0.448 0.114,-0.403 0.114,-0.354C0.114,-0.304 0.121,-0.26 0.135,-0.221C0.149,-0.182 0.168,-0.148 0.193,-0.121C0.218,-0.094 0.248,-0.073 0.283,-0.059C0.318,-0.044 0.357,-0.037 0.399,-0.037C0.441,-0.037 0.48,-0.044 0.515,-0.059C0.55,-0.073 0.58,-0.094 0.605,-0.121C0.63,-0.148 0.649,-0.182 0.663,-0.221C0.676,-0.26 0.683,-0.304 0.683,-0.354Z" style="fill:#764688;fill-rule:nonzero;"/>
                    </g>
                    <g transform="matrix(1,0,0,1,-40,28)">
                        <path d="M3761.93,395.43C3761.93,261.039 3654.91,151.93 3523.09,151.93L588.752,151.93C456.932,151.93 349.911,261.039 349.911,395.43L349.911,3544.62C349.911,3679.01 456.932,3788.12 588.752,3788.12L3523.09,3788.12C3654.91,3788.12 3761.93,3679.01 3761.93,3544.62L3761.93,395.43Z" style="fill:none;stroke:#764688;stroke-width:238.62px;"/>
                    </g>
                </g>
            </g>
        </g>
    </g>
</svg>
