<?xml version="1.0" encoding="UTF-8" standalone="no"?>
<!DOCTYPE svg PUBLIC "-//W3C//DTD SVG 1.1//EN" "http://www.w3.org/Graphics/SVG/1.1/DTD/svg11.dtd">
<svg width="100%" height="100%" viewBox="0 0 9275 2728" version="1.1" xmlns="http://www.w3.org/2000/svg" xmlns:xlink="http://www.w3.org/1999/xlink" xml:space="preserve" xmlns:serif="http://www.serif.com/" style="fill-rule:evenodd;clip-rule:evenodd;stroke-linecap:square;stroke-miterlimit:9;">
    <g transform="matrix(1,0,0,1,-16940,-636)">
        <g id="DonaldLouchTitleLogoFull" transform="matrix(0.971174,0,0,1,12739,-4793.13)">
            <rect x="4326.48" y="5429.36" width="9549.42" height="2727.55" style="fill:none;"/>
            <clipPath id="_clip1">
                <rect x="4326.48" y="5429.36" width="9549.42" height="2727.55"/>
            </clipPath>
            <g clip-path="url(#_clip1)">
                <g id="Layer1" transform="matrix(1.02968,0,0,1,6718.1,5165.88)">
                    <g transform="matrix(1,0,0,1,0,500)">
                        <g transform="matrix(1660.71,0,0,1660.71,2890.63,1748.5)">
                            <path d="M0.484,-0.109C0.484,-0.078 0.49,-0.056 0.501,-0.042C0.512,-0.028 0.532,-0.021 0.56,-0.021L0.56,-0C0.539,-0.002 0.519,-0.003 0.498,-0.003C0.456,-0.003 0.421,0.002 0.394,0.011L0.394,-0.078C0.382,-0.048 0.364,-0.025 0.34,-0.01C0.316,0.006 0.287,0.014 0.252,0.014C0.188,0.014 0.138,-0.009 0.102,-0.055C0.065,-0.101 0.047,-0.168 0.048,-0.257C0.048,-0.315 0.058,-0.365 0.079,-0.406C0.099,-0.447 0.126,-0.477 0.161,-0.498C0.195,-0.519 0.233,-0.529 0.274,-0.529C0.299,-0.529 0.323,-0.524 0.344,-0.515C0.365,-0.505 0.381,-0.49 0.394,-0.47L0.394,-0.664C0.394,-0.695 0.388,-0.717 0.377,-0.731C0.366,-0.745 0.346,-0.752 0.318,-0.752L0.318,-0.773C0.339,-0.771 0.36,-0.77 0.38,-0.77C0.422,-0.77 0.457,-0.775 0.484,-0.784L0.484,-0.109ZM0.281,-0.016C0.307,-0.016 0.33,-0.026 0.351,-0.046C0.372,-0.066 0.386,-0.094 0.394,-0.131L0.394,-0.429C0.376,-0.48 0.339,-0.506 0.282,-0.506C0.241,-0.506 0.207,-0.485 0.182,-0.443C0.157,-0.4 0.144,-0.338 0.145,-0.257C0.144,-0.177 0.156,-0.117 0.179,-0.077C0.202,-0.036 0.236,-0.016 0.281,-0.016Z" style="fill:#73e592;fill-rule:nonzero;"/>
                        </g>
                        <g transform="matrix(1660.71,0,0,1660.71,2703.49,1772.4)">
                            <path d="M0.188,-0.093C0.188,-0.066 0.194,-0.047 0.205,-0.037C0.216,-0.026 0.236,-0.021 0.264,-0.021L0.264,-0C0.203,-0.003 0.162,-0.004 0.143,-0.004C0.124,-0.004 0.083,-0.003 0.022,-0L0.022,-0.021C0.05,-0.021 0.07,-0.026 0.081,-0.037C0.092,-0.047 0.098,-0.066 0.098,-0.093L0.098,-0.664C0.098,-0.695 0.092,-0.717 0.081,-0.731C0.07,-0.745 0.05,-0.752 0.022,-0.752L0.022,-0.773C0.043,-0.771 0.063,-0.77 0.084,-0.77C0.126,-0.77 0.161,-0.775 0.188,-0.784L0.188,-0.093Z" style="fill:#764688;fill-rule:nonzero;"/>
                        </g>
                        <g transform="matrix(1660.71,0,0,1660.71,970.24,1735.65)">
                            <path d="M0.274,-0.529C0.342,-0.529 0.397,-0.507 0.439,-0.462C0.48,-0.417 0.501,-0.348 0.501,-0.257C0.501,-0.166 0.48,-0.098 0.439,-0.053C0.397,-0.008 0.342,0.014 0.274,0.014C0.206,0.014 0.151,-0.008 0.11,-0.053C0.068,-0.098 0.047,-0.166 0.047,-0.257C0.047,-0.348 0.068,-0.417 0.11,-0.462C0.151,-0.507 0.206,-0.529 0.274,-0.529ZM0.274,-0.509C0.234,-0.509 0.202,-0.489 0.179,-0.448C0.156,-0.407 0.144,-0.343 0.144,-0.257C0.144,-0.171 0.156,-0.108 0.179,-0.067C0.202,-0.026 0.234,-0.006 0.274,-0.006C0.314,-0.006 0.346,-0.026 0.369,-0.067C0.392,-0.108 0.404,-0.171 0.404,-0.257C0.404,-0.343 0.392,-0.407 0.369,-0.448C0.346,-0.489 0.314,-0.509 0.274,-0.509Z" style="fill:#73e592;fill-rule:nonzero;"/>
                        </g>
                        <g transform="matrix(1660.71,0,0,1660.71,2159.12,1753.82)">
                            <path d="M0.163,0.007C0.121,0.007 0.09,-0.004 0.07,-0.025C0.049,-0.046 0.039,-0.075 0.039,-0.112C0.039,-0.142 0.047,-0.167 0.064,-0.186C0.08,-0.205 0.099,-0.221 0.122,-0.232C0.144,-0.243 0.173,-0.255 0.21,-0.268C0.247,-0.281 0.275,-0.292 0.293,-0.303C0.311,-0.314 0.32,-0.328 0.32,-0.346L0.32,-0.408C0.32,-0.447 0.312,-0.473 0.296,-0.488C0.279,-0.502 0.256,-0.509 0.227,-0.509C0.18,-0.509 0.147,-0.497 0.128,-0.473C0.141,-0.47 0.153,-0.463 0.162,-0.452C0.171,-0.441 0.175,-0.428 0.175,-0.412C0.175,-0.395 0.17,-0.382 0.159,-0.373C0.148,-0.363 0.135,-0.358 0.118,-0.358C0.099,-0.358 0.085,-0.364 0.076,-0.376C0.067,-0.387 0.062,-0.401 0.062,-0.418C0.062,-0.434 0.066,-0.447 0.074,-0.458C0.081,-0.469 0.093,-0.479 0.108,-0.49C0.124,-0.501 0.144,-0.511 0.169,-0.518C0.194,-0.525 0.221,-0.529 0.25,-0.529C0.302,-0.529 0.341,-0.517 0.368,-0.492C0.385,-0.477 0.396,-0.458 0.402,-0.437C0.407,-0.415 0.41,-0.386 0.41,-0.351L0.41,-0.073C0.41,-0.056 0.412,-0.044 0.417,-0.037C0.422,-0.03 0.43,-0.026 0.441,-0.026C0.449,-0.026 0.456,-0.028 0.464,-0.032C0.471,-0.035 0.478,-0.04 0.486,-0.047L0.497,-0.03C0.48,-0.017 0.465,-0.007 0.453,-0.002C0.44,0.004 0.425,0.007 0.406,0.007C0.374,0.007 0.352,-0.001 0.339,-0.017C0.326,-0.033 0.32,-0.055 0.32,-0.082C0.3,-0.049 0.277,-0.025 0.251,-0.013C0.225,0 0.196,0.007 0.163,0.007ZM0.207,-0.033C0.251,-0.033 0.289,-0.058 0.32,-0.109L0.32,-0.305C0.314,-0.296 0.306,-0.288 0.295,-0.282C0.284,-0.276 0.268,-0.268 0.246,-0.258C0.221,-0.247 0.2,-0.237 0.185,-0.228C0.169,-0.218 0.155,-0.205 0.144,-0.188C0.133,-0.171 0.127,-0.15 0.127,-0.124C0.127,-0.094 0.134,-0.071 0.149,-0.056C0.164,-0.041 0.183,-0.033 0.207,-0.033Z" style="fill:#73e592;fill-rule:nonzero;"/>
                        </g>
                        <g transform="matrix(1660.71,0,0,1660.71,1519.73,1760.07)">
                            <path d="M0.365,-0.529C0.412,-0.529 0.447,-0.516 0.471,-0.491C0.484,-0.478 0.493,-0.461 0.498,-0.441C0.503,-0.421 0.506,-0.394 0.506,-0.36L0.506,-0.093C0.506,-0.066 0.512,-0.047 0.523,-0.037C0.534,-0.026 0.554,-0.021 0.582,-0.021L0.582,-0C0.521,-0.003 0.481,-0.004 0.462,-0.004C0.443,-0.004 0.406,-0.003 0.35,-0L0.35,-0.021C0.375,-0.021 0.392,-0.026 0.402,-0.037C0.411,-0.047 0.416,-0.066 0.416,-0.093L0.416,-0.382C0.416,-0.419 0.411,-0.448 0.4,-0.468C0.389,-0.487 0.368,-0.497 0.335,-0.497C0.308,-0.497 0.283,-0.489 0.262,-0.473C0.241,-0.457 0.224,-0.435 0.213,-0.408C0.201,-0.38 0.195,-0.349 0.195,-0.315L0.195,-0.093C0.195,-0.066 0.2,-0.047 0.21,-0.037C0.219,-0.026 0.236,-0.021 0.261,-0.021L0.261,-0C0.205,-0.003 0.168,-0.004 0.149,-0.004C0.13,-0.004 0.09,-0.003 0.029,-0L0.029,-0.021C0.057,-0.021 0.077,-0.026 0.088,-0.037C0.099,-0.047 0.105,-0.066 0.105,-0.093L0.105,-0.406C0.105,-0.437 0.099,-0.459 0.088,-0.473C0.077,-0.487 0.057,-0.494 0.029,-0.494L0.029,-0.515C0.05,-0.513 0.071,-0.512 0.091,-0.512C0.133,-0.512 0.168,-0.517 0.195,-0.526L0.195,-0.408C0.212,-0.451 0.235,-0.482 0.265,-0.501C0.294,-0.52 0.328,-0.529 0.365,-0.529Z" style="fill:#764688;fill-rule:nonzero;"/>
                        </g>
                        <g transform="matrix(1660.71,0,0,1660.71,108.309,1845.62)">
                            <path d="M0.315,-0.708C0.433,-0.708 0.521,-0.679 0.58,-0.62C0.639,-0.561 0.668,-0.475 0.668,-0.362C0.668,-0.289 0.654,-0.226 0.625,-0.171C0.596,-0.116 0.555,-0.074 0.501,-0.045C0.446,-0.015 0.381,-0 0.306,-0L0.248,-0.001C0.211,-0.002 0.183,-0.003 0.166,-0.003C0.111,-0.003 0.07,-0.002 0.042,-0L0.042,-0.02C0.066,-0.021 0.084,-0.024 0.095,-0.028C0.106,-0.032 0.113,-0.04 0.117,-0.051C0.121,-0.062 0.123,-0.081 0.123,-0.106L0.123,-0.602C0.123,-0.627 0.121,-0.646 0.117,-0.657C0.113,-0.668 0.106,-0.676 0.095,-0.68C0.084,-0.684 0.066,-0.687 0.042,-0.688L0.042,-0.708C0.065,-0.706 0.098,-0.705 0.139,-0.705L0.224,-0.706C0.269,-0.707 0.3,-0.708 0.315,-0.708ZM0.29,-0.69C0.269,-0.69 0.254,-0.688 0.244,-0.683C0.233,-0.678 0.226,-0.67 0.222,-0.658C0.218,-0.646 0.216,-0.628 0.216,-0.604L0.216,-0.104C0.216,-0.08 0.218,-0.062 0.222,-0.05C0.226,-0.038 0.233,-0.03 0.244,-0.025C0.254,-0.02 0.27,-0.018 0.291,-0.018C0.362,-0.018 0.417,-0.031 0.458,-0.057C0.499,-0.082 0.527,-0.12 0.544,-0.169C0.56,-0.218 0.568,-0.281 0.568,-0.358C0.568,-0.435 0.559,-0.497 0.541,-0.546C0.523,-0.594 0.494,-0.63 0.454,-0.654C0.413,-0.678 0.359,-0.69 0.29,-0.69Z" style="fill:#764688;fill-rule:nonzero;"/>
                        </g>
                    </g>
                    <g transform="matrix(0.804711,0,0,0.719583,3789.41,-296.57)">
                        <g transform="matrix(1156.5,0,0,1156.5,3146,3167.23)">
                            <path d="M0.186,-0.409C0.203,-0.451 0.226,-0.482 0.256,-0.501C0.285,-0.52 0.319,-0.529 0.356,-0.529C0.403,-0.529 0.438,-0.516 0.462,-0.491C0.475,-0.478 0.484,-0.461 0.489,-0.441C0.494,-0.421 0.497,-0.394 0.497,-0.36L0.497,-0.093C0.497,-0.066 0.503,-0.047 0.514,-0.037C0.525,-0.026 0.545,-0.021 0.573,-0.021L0.573,-0C0.512,-0.003 0.472,-0.004 0.453,-0.004C0.434,-0.004 0.397,-0.003 0.341,-0L0.341,-0.021C0.366,-0.021 0.383,-0.026 0.393,-0.037C0.402,-0.047 0.407,-0.066 0.407,-0.093L0.407,-0.382C0.407,-0.419 0.402,-0.448 0.391,-0.468C0.38,-0.487 0.359,-0.497 0.326,-0.497C0.299,-0.497 0.275,-0.489 0.254,-0.474C0.233,-0.459 0.216,-0.437 0.204,-0.41C0.192,-0.382 0.186,-0.351 0.186,-0.316L0.186,-0.093C0.186,-0.066 0.191,-0.047 0.201,-0.037C0.21,-0.026 0.227,-0.021 0.252,-0.021L0.252,-0C0.196,-0.003 0.159,-0.004 0.14,-0.004C0.121,-0.004 0.081,-0.003 0.02,-0L0.02,-0.021C0.048,-0.021 0.068,-0.026 0.079,-0.037C0.09,-0.047 0.096,-0.066 0.096,-0.093L0.096,-0.663C0.096,-0.694 0.09,-0.716 0.079,-0.73C0.068,-0.744 0.048,-0.751 0.02,-0.751L0.02,-0.772C0.041,-0.77 0.062,-0.769 0.082,-0.769C0.124,-0.769 0.159,-0.774 0.186,-0.783L0.186,-0.409Z" style="fill:#764688;fill-rule:nonzero;"/>
                        </g>
                        <g transform="matrix(2260.33,0,0,2260.33,1121.53,3090.39)">
                            <path d="M0.483,-0.108C0.483,-0.077 0.489,-0.055 0.5,-0.041C0.511,-0.027 0.531,-0.02 0.559,-0.02L0.559,0.001C0.538,-0.001 0.518,-0.002 0.497,-0.002C0.455,-0.002 0.42,0.003 0.393,0.012L0.393,-0.106C0.377,-0.065 0.354,-0.034 0.325,-0.015C0.296,0.004 0.264,0.014 0.229,0.014C0.184,0.014 0.149,0.001 0.125,-0.024C0.113,-0.037 0.105,-0.054 0.1,-0.075C0.094,-0.096 0.092,-0.122 0.092,-0.155L0.092,-0.406C0.092,-0.437 0.086,-0.459 0.075,-0.473C0.064,-0.487 0.044,-0.494 0.016,-0.494L0.016,-0.515C0.037,-0.513 0.057,-0.512 0.078,-0.512C0.12,-0.512 0.155,-0.517 0.182,-0.526L0.182,-0.133C0.182,-0.108 0.184,-0.087 0.187,-0.072C0.19,-0.056 0.197,-0.043 0.208,-0.033C0.219,-0.023 0.235,-0.018 0.258,-0.018C0.283,-0.018 0.306,-0.026 0.327,-0.042C0.348,-0.058 0.364,-0.08 0.376,-0.108C0.387,-0.135 0.393,-0.166 0.393,-0.199L0.393,-0.406C0.393,-0.437 0.387,-0.459 0.376,-0.473C0.365,-0.487 0.345,-0.494 0.317,-0.494L0.317,-0.515C0.338,-0.513 0.358,-0.512 0.379,-0.512C0.421,-0.512 0.456,-0.517 0.483,-0.526L0.483,-0.108Z" style="fill:#764688;fill-rule:nonzero;"/>
                        </g>
                        <g transform="matrix(2524.45,0,0,2524.45,2087.69,3450.52)">
                            <path d="M0.279,-0.529C0.324,-0.529 0.362,-0.518 0.395,-0.497C0.426,-0.476 0.442,-0.451 0.442,-0.42C0.442,-0.403 0.437,-0.389 0.427,-0.379C0.417,-0.369 0.404,-0.364 0.389,-0.364C0.374,-0.364 0.361,-0.369 0.35,-0.378C0.339,-0.387 0.334,-0.399 0.334,-0.414C0.334,-0.428 0.338,-0.44 0.346,-0.45C0.354,-0.459 0.364,-0.466 0.376,-0.469C0.369,-0.481 0.358,-0.491 0.341,-0.499C0.324,-0.507 0.305,-0.511 0.286,-0.511C0.261,-0.511 0.238,-0.503 0.217,-0.488C0.196,-0.472 0.178,-0.446 0.164,-0.41C0.15,-0.373 0.143,-0.325 0.143,-0.266C0.143,-0.183 0.156,-0.123 0.183,-0.086C0.21,-0.048 0.244,-0.029 0.287,-0.029C0.316,-0.029 0.343,-0.037 0.369,-0.054C0.394,-0.071 0.415,-0.097 0.432,-0.132L0.451,-0.125C0.44,-0.087 0.419,-0.054 0.388,-0.027C0.357,0 0.316,0.014 0.267,0.014C0.226,0.014 0.188,0.003 0.155,-0.018C0.121,-0.039 0.094,-0.07 0.075,-0.111C0.056,-0.151 0.046,-0.198 0.046,-0.251C0.046,-0.305 0.056,-0.353 0.076,-0.395C0.095,-0.437 0.123,-0.47 0.158,-0.494C0.193,-0.517 0.234,-0.529 0.279,-0.529Z" style="fill:#73e592;fill-rule:nonzero;"/>
                        </g>
                        <g transform="matrix(2428.18,0,0,2428.18,740.904,3013.1)">
                            <path d="M0.274,-0.529C0.342,-0.529 0.397,-0.507 0.439,-0.462C0.48,-0.417 0.501,-0.348 0.501,-0.257C0.501,-0.166 0.48,-0.098 0.439,-0.053C0.397,-0.008 0.342,0.014 0.274,0.014C0.206,0.014 0.151,-0.008 0.11,-0.053C0.068,-0.098 0.047,-0.166 0.047,-0.257C0.047,-0.348 0.068,-0.417 0.11,-0.462C0.151,-0.507 0.206,-0.529 0.274,-0.529ZM0.274,-0.509C0.234,-0.509 0.202,-0.489 0.179,-0.448C0.156,-0.407 0.144,-0.343 0.144,-0.257C0.144,-0.171 0.156,-0.108 0.179,-0.067C0.202,-0.026 0.234,-0.006 0.274,-0.006C0.314,-0.006 0.346,-0.026 0.369,-0.067C0.392,-0.108 0.404,-0.171 0.404,-0.257C0.404,-0.343 0.392,-0.407 0.369,-0.448C0.346,-0.489 0.314,-0.509 0.274,-0.509Z" style="fill:#73e592;fill-rule:nonzero;"/>
                        </g>
                        <g transform="matrix(2428.18,0,0,2428.18,76.5598,3539.16)">
                            <path d="M0.297,-0.688C0.273,-0.687 0.256,-0.684 0.245,-0.68C0.234,-0.676 0.226,-0.668 0.222,-0.657C0.218,-0.646 0.216,-0.627 0.216,-0.602L0.216,-0.106C0.216,-0.081 0.218,-0.062 0.222,-0.051C0.226,-0.04 0.234,-0.032 0.245,-0.029C0.256,-0.025 0.273,-0.023 0.297,-0.023L0.37,-0.023C0.411,-0.023 0.443,-0.029 0.465,-0.041C0.486,-0.052 0.502,-0.071 0.512,-0.097C0.522,-0.123 0.529,-0.161 0.534,-0.21L0.557,-0.21C0.555,-0.189 0.554,-0.162 0.554,-0.128C0.554,-0.09 0.556,-0.047 0.561,-0C0.516,-0.002 0.439,-0.003 0.332,-0.003C0.204,-0.003 0.107,-0.002 0.042,-0L0.042,-0.02C0.066,-0.021 0.084,-0.024 0.095,-0.028C0.106,-0.032 0.113,-0.04 0.117,-0.051C0.121,-0.062 0.123,-0.081 0.123,-0.106L0.123,-0.602C0.123,-0.627 0.121,-0.646 0.117,-0.657C0.113,-0.668 0.106,-0.676 0.095,-0.68C0.084,-0.684 0.066,-0.687 0.042,-0.688L0.042,-0.708C0.07,-0.706 0.113,-0.705 0.17,-0.705C0.223,-0.705 0.266,-0.706 0.297,-0.708L0.297,-0.688Z" style="fill:#764688;fill-rule:nonzero;"/>
                        </g>
                    </g>
                </g>
                <g transform="matrix(0.589794,0,0,0.584812,4371.95,5643.47)">
                    <g id="Layer5">
                        <g transform="matrix(5126.53,0,0,4896.23,363.359,3727.33)">
                            <path d="M0.638,-0L0.598,-0C0.593,-0 0.59,-0.001 0.587,-0.004C0.584,-0.006 0.581,-0.01 0.58,-0.014L0.496,-0.219L0.149,-0.219L0.066,-0.014C0.064,-0.01 0.062,-0.007 0.059,-0.004C0.055,-0.001 0.051,-0 0.047,-0L0.008,-0L0.297,-0.708L0.348,-0.708L0.638,-0ZM0.164,-0.257L0.481,-0.257L0.337,-0.615C0.334,-0.62 0.332,-0.627 0.33,-0.634C0.327,-0.641 0.325,-0.649 0.323,-0.657C0.32,-0.649 0.318,-0.641 0.316,-0.634C0.313,-0.627 0.311,-0.62 0.309,-0.614L0.164,-0.257Z" style="fill:#73e592;fill-rule:nonzero;"/>
                        </g>
                        <g transform="matrix(4503.76,0,0,4845.03,323.163,3704.07)">
                            <path d="M0.13,-0.708C0.135,-0.708 0.138,-0.707 0.141,-0.706C0.144,-0.705 0.147,-0.702 0.15,-0.698L0.608,-0.085C0.607,-0.095 0.606,-0.105 0.606,-0.114L0.606,-0.708L0.651,-0.708L0.651,-0L0.627,-0C0.619,-0 0.613,-0.003 0.608,-0.01L0.148,-0.624C0.149,-0.614 0.15,-0.604 0.15,-0.596L0.15,-0L0.105,-0L0.105,-0.708L0.13,-0.708Z" style="fill:#e7c462;fill-rule:nonzero;"/>
                        </g>
                        <g transform="matrix(3175.97,1377.97,-1745.35,4022.7,519.056,3039.91)">
                            <path d="M0.156,-0.044L0.492,-0.044L0.492,-0L0.105,-0L0.105,-0.708L0.156,-0.708L0.156,-0.044Z" style="fill:#e7c462;fill-rule:nonzero;"/>
                        </g>
                        <g transform="matrix(4809.99,0,0,4809,83.1988,3715.22)">
                            <path d="M0.736,-0.354C0.736,-0.299 0.728,-0.25 0.712,-0.205C0.695,-0.161 0.672,-0.123 0.643,-0.091C0.613,-0.06 0.577,-0.035 0.536,-0.018C0.495,-0.001 0.449,0.008 0.399,0.008C0.349,0.008 0.303,-0.001 0.262,-0.018C0.221,-0.035 0.185,-0.06 0.156,-0.091C0.126,-0.123 0.103,-0.161 0.086,-0.205C0.07,-0.25 0.062,-0.299 0.062,-0.354C0.062,-0.408 0.07,-0.458 0.086,-0.502C0.103,-0.547 0.126,-0.585 0.156,-0.616C0.185,-0.648 0.221,-0.672 0.262,-0.69C0.303,-0.707 0.349,-0.716 0.399,-0.716C0.449,-0.716 0.495,-0.707 0.536,-0.69C0.577,-0.673 0.613,-0.648 0.643,-0.617C0.672,-0.585 0.695,-0.547 0.712,-0.502C0.728,-0.458 0.736,-0.408 0.736,-0.354ZM0.683,-0.354C0.683,-0.403 0.676,-0.448 0.663,-0.487C0.649,-0.526 0.63,-0.56 0.605,-0.587C0.58,-0.614 0.55,-0.635 0.515,-0.65C0.48,-0.664 0.441,-0.672 0.399,-0.672C0.357,-0.672 0.318,-0.664 0.283,-0.65C0.248,-0.635 0.218,-0.614 0.193,-0.587C0.168,-0.56 0.149,-0.526 0.135,-0.487C0.121,-0.448 0.114,-0.403 0.114,-0.354C0.114,-0.304 0.121,-0.26 0.135,-0.221C0.149,-0.182 0.168,-0.148 0.193,-0.121C0.218,-0.094 0.248,-0.073 0.283,-0.059C0.318,-0.044 0.357,-0.037 0.399,-0.037C0.441,-0.037 0.48,-0.044 0.515,-0.059C0.55,-0.073 0.58,-0.094 0.605,-0.121C0.63,-0.148 0.649,-0.182 0.663,-0.221C0.676,-0.26 0.683,-0.304 0.683,-0.354Z" style="fill:#764688;fill-rule:nonzero;"/>
                        </g>
                        <g transform="matrix(1,0,0,1,-40,28)">
                            <path d="M3761.93,385.862C3761.93,256.751 3654.91,151.93 3523.09,151.93L588.752,151.93C456.932,151.93 349.911,256.751 349.911,385.862L349.911,3554.18C349.911,3683.3 456.932,3788.12 588.752,3788.12L3523.09,3788.12C3654.91,3788.12 3761.93,3683.3 3761.93,3554.18L3761.93,385.862Z" style="fill:none;stroke:#764688;stroke-width:230.35px;"/>
                        </g>
                    </g>
                </g>
            </g>
        </g>
    </g>
</svg>
