<?xml version="1.0" standalone="no"?>
<!DOCTYPE svg PUBLIC "-//W3C//DTD SVG 20010904//EN"
 "http://www.w3.org/TR/2001/REC-SVG-20010904/DTD/svg10.dtd">
<svg version="1.0" xmlns="http://www.w3.org/2000/svg"
 width="4001.000000pt" height="4001.000000pt" viewBox="0 0 4001.000000 4001.000000"
 preserveAspectRatio="xMidYMid meet">
<metadata>
Created by potrace 1.14, written by Peter Selinger 2001-2017
</metadata>
<g transform="translate(0.000000,4001.000000) scale(0.100000,-0.100000)"
fill="#000000" stroke="none">
<path d="M5687 38474 c-1 -1 -42 -4 -92 -8 -49 -3 -100 -8 -112 -10 -12 -3
-46 -7 -75 -10 -29 -4 -62 -8 -73 -10 -11 -2 -54 -9 -95 -16 -41 -6 -93 -16
-115 -22 -45 -11 -69 -17 -105 -24 -14 -3 -34 -8 -45 -11 -11 -4 -24 -8 -30
-9 -48 -9 -294 -89 -350 -114 -11 -5 -60 -25 -110 -46 -478 -199 -958 -556
-1300 -969 -28 -33 -52 -62 -55 -65 -36 -36 -205 -284 -272 -400 -166 -284
-321 -667 -373 -918 -2 -9 -12 -57 -24 -107 -11 -49 -27 -142 -36 -205 -9 -63
-18 -126 -21 -140 -2 -14 -7 -83 -11 -155 -9 -171 -9 -30227 0 -30370 14 -208
46 -421 93 -610 211 -847 731 -1579 1463 -2059 69 -45 133 -85 141 -89 8 -4
33 -18 55 -31 85 -53 309 -159 445 -212 329 -127 659 -201 1020 -230 121 -10
28809 -10 28950 0 58 4 116 9 130 11 14 2 61 9 106 15 44 6 91 13 105 15 13 3
40 8 59 11 94 17 197 41 295 69 77 21 247 76 260 84 6 3 15 6 21 7 6 1 27 9
45 17 19 8 74 32 123 52 109 46 273 130 386 198 119 71 332 217 360 247 3 3
23 18 44 34 122 91 376 340 486 476 19 24 40 48 45 54 21 22 124 164 183 251
287 426 488 967 547 1474 4 30 9 63 11 75 2 11 7 77 10 146 9 169 9 30238 0
30365 -10 153 -39 378 -56 445 -5 19 -12 49 -15 67 -3 18 -18 83 -35 145 -190
732 -610 1369 -1215 1845 -44 35 -86 68 -92 73 -23 19 -268 177 -318 205 -408
230 -837 374 -1270 429 -66 8 -142 18 -170 22 -42 6 -28911 14 -28918 8z
m2569 -4612 c0 -2103 -1 -2345 -15 -2366 -13 -19 -106 -127 -156 -180 -9 -10
-90 -104 -152 -176 -182 -214 -416 -514 -614 -785 -64 -87 -86 -118 -181 -255
-66 -95 -185 -273 -244 -365 -29 -44 -69 -107 -90 -140 -21 -33 -43 -68 -49
-78 -5 -9 -41 -68 -79 -130 -38 -61 -97 -161 -132 -222 -35 -60 -68 -117 -73
-125 -12 -19 -185 -330 -194 -350 -4 -8 -41 -78 -82 -155 -42 -77 -128 -246
-191 -375 -117 -236 -128 -259 -224 -470 -28 -63 -62 -137 -75 -165 -13 -27
-60 -138 -105 -245 -45 -107 -88 -208 -95 -225 -7 -16 -34 -84 -60 -150 -26
-66 -51 -129 -56 -140 -34 -77 -186 -512 -277 -795 -65 -200 -223 -746 -247
-853 -2 -10 -7 -27 -10 -37 -3 -10 -7 -27 -9 -37 -2 -10 -14 -56 -26 -103 -12
-47 -23 -92 -25 -100 -2 -8 -11 -46 -20 -85 -20 -85 -19 -78 -44 -195 -12 -52
-23 -99 -26 -105 -9 -24 -4 10664 5 10730 38 266 153 497 341 684 79 79 218
181 293 215 145 67 262 102 376 113 30 3 56 6 57 8 2 1 560 1 1240 1 l1238 -1
1 -2343z m8534 2338 c0 -3 -8 -6 -17 -7 -24 -2 -168 -28 -323 -59 -69 -14
-136 -27 -150 -30 -14 -2 -36 -7 -50 -10 -14 -3 -36 -8 -50 -11 -39 -8 -44 -9
-65 -16 -11 -3 -38 -8 -60 -12 -22 -3 -56 -10 -75 -15 -47 -13 -329 -80 -360
-86 -14 -3 -47 -11 -75 -19 -27 -8 -156 -44 -285 -79 -129 -35 -289 -80 -355
-100 -66 -20 -124 -38 -130 -39 -5 -2 -57 -18 -115 -37 -58 -18 -109 -35 -115
-36 -99 -25 -874 -310 -1030 -379 -16 -7 -52 -23 -80 -35 -27 -12 -63 -28 -80
-35 -384 -168 -920 -434 -1335 -662 -144 -80 -487 -278 -537 -310 -20 -14 -25
-9 -119 124 -53 76 -110 156 -126 178 -16 22 -78 110 -138 195 -60 85 -120
171 -134 190 -14 19 -86 121 -160 225 -217 307 -244 345 -312 440 -36 50 -76
106 -89 125 -61 90 -241 343 -274 383 -9 11 -35 42 -58 67 -24 26 -43 49 -43
52 0 2 1517 5 3370 5 1854 0 3370 -3 3370 -7z m13341 -4 c3 -21 4 -3166 2
-3166 -2 0 -31 24 -65 53 -35 29 -83 68 -108 87 -25 19 -47 37 -50 40 -5 6
-444 336 -476 358 -11 7 -71 49 -134 94 -229 163 -670 449 -930 605 -37 23
-427 245 -495 283 -295 165 -845 434 -1185 580 -80 34 -167 72 -195 85 -42 18
-539 214 -585 230 -3 1 -12 5 -20 8 -8 4 -96 36 -195 71 -479 169 -950 310
-1477 441 -75 19 -147 36 -160 39 -12 3 -102 23 -198 45 -96 22 -191 43 -210
46 -19 3 -55 11 -80 16 -25 6 -54 12 -65 14 -24 4 -161 30 -262 50 -39 8 -89
18 -110 21 -21 3 -39 7 -41 8 -1 2 1582 3 3518 3 2517 0 3520 -3 3521 -11z
m4349 1 c14 -4 49 -12 78 -18 336 -69 655 -328 801 -650 29 -65 67 -174 76
-218 2 -12 7 -30 9 -39 3 -10 9 -33 13 -52 7 -34 16 -9872 11 -11465 -3 -674
-5 -768 -16 -690 -6 50 -14 101 -17 115 -5 27 -14 89 -20 130 -1 14 -6 45 -10
70 -4 25 -9 54 -10 65 -3 22 -32 186 -39 221 -2 12 -7 37 -10 55 -8 50 -15 88
-26 144 -5 28 -12 64 -15 80 -8 49 -22 119 -64 320 -40 190 -50 238 -93 415
-12 52 -23 97 -23 100 -1 3 -4 19 -8 35 -4 17 -9 39 -12 50 -8 42 -121 467
-164 620 -72 259 -300 967 -341 1060 -5 11 -24 63 -43 115 -79 215 -265 665
-387 935 -134 296 -170 372 -317 667 -148 296 -354 686 -420 790 -13 21 -23
40 -23 43 0 3 -16 31 -35 61 -19 30 -35 56 -35 58 0 6 -204 347 -248 413 -20
32 -39 63 -42 68 -38 77 -461 697 -630 925 -74 100 -250 334 -282 373 l-38 49
0 2582 0 2583 1178 -2 c647 -1 1188 -5 1202 -8z m-16645 -1897 c-2 -3 -58
-132 -125 -285 -67 -154 -131 -300 -142 -325 -49 -111 -124 -285 -318 -730
-94 -217 -178 -409 -186 -427 -17 -38 -114 -260 -154 -353 -29 -69 -262 -604
-285 -655 -7 -16 -29 -66 -48 -110 -19 -44 -46 -106 -61 -137 -14 -31 -26 -59
-26 -62 0 -3 -11 -29 -24 -58 -22 -48 -154 -351 -483 -1108 -64 -146 -124
-283 -134 -305 -10 -22 -42 -96 -72 -165 -30 -69 -63 -145 -74 -170 -12 -25
-46 -103 -76 -175 -31 -71 -63 -143 -71 -160 -9 -16 -16 -33 -16 -37 0 -4 -13
-36 -29 -70 -15 -35 -43 -97 -61 -138 -18 -41 -39 -90 -47 -107 l-15 -33 -132
186 c-72 103 -144 205 -160 228 -82 116 -309 438 -499 706 -80 113 -183 258
-229 323 -46 65 -99 139 -118 166 -19 27 -41 57 -48 68 -12 18 -120 170 -484
683 -331 468 -482 680 -512 723 -16 23 -105 149 -199 282 -288 405 -309 436
-306 439 2 1 29 18 59 38 30 19 74 46 97 61 24 15 45 27 48 27 3 0 24 12 48
27 23 15 51 32 62 39 11 6 88 49 170 96 272 155 632 340 898 462 137 63 165
76 222 101 194 87 487 201 745 290 74 25 171 59 215 74 44 16 82 29 85 29 3 1
12 3 20 6 92 32 700 210 753 220 12 2 67 16 122 31 55 14 107 28 115 30 8 2
103 24 210 48 199 46 613 131 685 140 22 3 47 8 55 11 8 3 31 7 50 10 19 3 89
14 155 25 66 12 143 23 171 26 29 4 64 9 79 14 34 8 75 9 70 1z m4695 -64 c47
-8 101 -17 121 -20 20 -3 42 -8 50 -10 8 -3 32 -8 53 -11 21 -3 48 -7 60 -10
12 -3 32 -7 46 -9 14 -2 36 -7 50 -10 14 -3 36 -8 50 -10 14 -2 45 -9 70 -15
25 -5 56 -12 70 -14 58 -11 285 -63 440 -102 8 -2 35 -8 60 -14 73 -16 405
-106 535 -145 517 -152 1115 -362 1410 -496 22 -10 85 -38 140 -63 197 -89
241 -109 454 -216 234 -117 454 -232 526 -276 11 -7 45 -26 75 -42 30 -17 104
-59 163 -94 59 -35 115 -68 125 -74 121 -69 469 -295 697 -453 206 -143 572
-420 730 -554 11 -9 54 -45 96 -80 92 -77 187 -158 209 -178 9 -8 59 -53 111
-100 165 -149 229 -210 454 -435 295 -295 465 -480 703 -770 l107 -129 0
-6688 c0 -3678 -3 -6688 -6 -6688 -6 0 -55 109 -246 550 -47 107 -93 213 -103
235 -10 22 -42 94 -70 160 -29 66 -60 138 -70 160 -10 22 -41 94 -70 160 -28
66 -60 138 -70 160 -10 22 -64 146 -120 275 -56 129 -115 263 -131 298 -16 35
-29 65 -29 67 0 2 -14 34 -31 72 -53 118 -57 127 -108 244 -127 295 -565 1295
-603 1379 -12 25 -33 74 -48 110 -25 61 -150 346 -190 435 -10 22 -55 126
-100 230 -45 105 -91 210 -102 235 -11 25 -26 59 -33 75 -7 17 -40 91 -73 165
-33 74 -88 200 -122 280 -34 79 -73 169 -87 200 -26 58 -38 83 -73 165 -39 90
-190 437 -260 595 -37 85 -75 171 -83 190 -8 19 -23 55 -35 80 -11 25 -35 79
-53 120 -17 41 -43 100 -56 130 -33 72 -45 100 -84 190 -17 41 -44 103 -60
137 -16 34 -40 91 -55 125 -14 35 -34 81 -44 103 -39 88 -124 284 -152 350
-17 39 -40 93 -53 120 -12 28 -109 248 -214 490 -106 242 -200 458 -210 480
-10 22 -40 90 -66 150 -26 61 -55 128 -65 150 -18 41 -231 525 -255 580 -7 17
-20 46 -28 65 -8 19 -79 181 -157 360 -78 179 -180 413 -227 520 -47 107 -100
228 -119 268 -19 40 -34 76 -34 79 0 3 -24 60 -54 127 -30 67 -118 267 -196
446 -77 179 -147 339 -155 355 -7 17 -37 84 -65 150 -29 66 -63 145 -77 175
-14 30 -31 70 -39 88 -33 77 -43 100 -62 142 -11 25 -90 207 -177 405 -86 198
-165 378 -175 400 -10 22 -32 74 -50 115 -18 41 -40 93 -50 115 -10 22 -73
166 -140 320 -67 154 -128 294 -135 310 -26 56 -167 380 -300 685 -73 168
-143 328 -155 355 -57 130 -95 214 -116 263 -13 29 -24 55 -24 57 0 2 -13 32
-29 67 -16 35 -59 133 -96 218 -37 85 -76 173 -86 195 -16 38 -119 274 -196
450 -19 44 -41 94 -48 110 -7 17 -25 57 -40 90 -14 33 -30 69 -35 80 -8 17
-411 937 -457 1043 l-14 34 38 -6 c21 -3 76 -12 123 -20z m-1557 -2368 c106
-245 177 -410 177 -413 0 -3 11 -28 24 -57 13 -29 65 -150 116 -268 51 -118
100 -233 110 -255 10 -22 91 -211 180 -420 89 -209 170 -398 180 -420 10 -22
203 -472 430 -1000 226 -528 417 -973 425 -990 7 -16 19 -46 28 -65 8 -19 83
-195 167 -390 84 -195 165 -383 181 -418 16 -35 29 -67 29 -71 0 -4 6 -21 14
-37 8 -16 92 -209 186 -429 94 -220 175 -409 180 -420 5 -11 53 -121 106 -245
52 -124 102 -240 110 -257 8 -18 20 -48 28 -65 8 -18 55 -130 106 -248 51
-118 98 -228 106 -245 7 -16 90 -210 184 -430 94 -220 177 -413 185 -430 7
-16 32 -75 55 -130 24 -55 50 -118 60 -140 10 -22 32 -74 50 -115 18 -41 43
-99 56 -128 13 -29 24 -55 24 -57 0 -3 16 -39 35 -81 19 -41 35 -80 35 -86 0
-5 7 -22 15 -36 8 -15 91 -207 185 -427 94 -220 177 -413 184 -430 8 -16 96
-221 196 -455 100 -234 190 -443 200 -465 10 -22 57 -132 105 -245 48 -113 96
-223 106 -245 10 -22 139 -323 287 -670 369 -862 1130 -2633 1146 -2670 8 -16
80 -185 161 -375 81 -190 155 -363 165 -385 10 -22 53 -121 95 -220 88 -207
96 -224 123 -285 11 -25 113 -263 227 -530 114 -267 213 -498 221 -514 8 -16
14 -30 14 -32 0 -1 -741 -2 -1647 -1 l-1646 2 -71 100 c-147 206 -274 384
-646 910 -210 297 -388 549 -396 560 -8 11 -86 121 -173 245 -88 124 -173 243
-189 265 -16 22 -71 101 -124 175 -52 74 -165 234 -250 355 -122 171 -405 571
-478 675 -6 8 -76 107 -156 220 -80 113 -195 275 -255 360 -60 85 -129 182
-154 215 -24 33 -52 74 -61 90 -9 17 -20 32 -23 35 -5 4 -613 859 -799 1125
-19 28 -112 158 -205 290 -94 132 -194 274 -223 315 -29 41 -57 80 -62 85 -5
6 -17 24 -28 40 -15 23 -165 235 -268 380 -26 36 -129 181 -256 361 -69 98
-168 237 -220 311 -52 73 -115 162 -140 198 -25 36 -52 75 -60 85 -8 11 -25
34 -38 52 -13 18 -40 56 -60 85 -20 29 -75 106 -122 172 -47 67 -122 173 -167
236 -46 64 -83 120 -83 125 0 4 -4 10 -8 12 -7 2 -89 116 -194 268 -24 33
-105 148 -267 376 -74 104 -148 209 -165 234 -16 25 -33 47 -36 50 -3 3 -33
43 -65 90 -65 94 -82 119 -189 270 -41 58 -79 110 -83 115 -5 6 -19 24 -31 42
l-22 31 49 114 c43 100 270 613 306 693 8 17 50 111 93 210 44 99 94 210 111
248 17 37 31 69 31 72 0 2 13 32 29 67 16 35 52 117 81 183 29 66 67 153 86
193 19 41 34 76 34 78 0 2 15 36 34 76 18 40 48 107 66 148 17 41 49 113 70
160 21 47 89 200 150 340 112 254 146 330 180 405 10 22 33 74 50 115 18 41
45 102 60 135 15 33 39 87 53 120 14 33 39 89 55 125 16 36 98 220 182 410 84
190 210 476 281 636 71 159 129 295 129 302 0 7 5 12 10 12 6 0 10 6 10 14 0
8 15 47 34 88 19 40 66 145 104 233 38 88 81 185 95 215 14 30 85 190 158 355
131 299 143 326 194 440 15 33 58 132 97 220 85 195 88 201 131 296 19 41 38
85 41 97 4 12 11 22 15 22 4 0 24 -37 44 -82z m-9871 -652 c18 -25 88 -122
155 -218 146 -207 581 -821 687 -968 41 -58 167 -235 280 -395 113 -159 209
-295 214 -300 4 -6 33 -45 63 -89 30 -43 66 -95 81 -115 15 -20 40 -55 55 -77
31 -44 329 -464 649 -914 108 -151 207 -291 220 -310 12 -19 51 -74 86 -122
35 -48 126 -176 203 -285 77 -109 215 -303 307 -433 92 -129 172 -242 178
-250 6 -8 41 -58 78 -110 37 -52 71 -100 75 -107 4 -7 -1 -31 -12 -55 -11 -24
-79 -180 -152 -348 -72 -168 -140 -323 -150 -345 -10 -22 -56 -128 -102 -235
-137 -315 -427 -982 -447 -1025 -10 -22 -46 -105 -80 -185 -34 -80 -73 -169
-86 -198 -13 -29 -36 -80 -50 -115 -14 -34 -36 -84 -49 -112 -12 -27 -36 -81
-53 -120 -16 -38 -85 -196 -152 -350 -67 -154 -138 -316 -157 -360 -19 -44
-41 -93 -48 -110 -7 -16 -75 -172 -150 -345 -76 -173 -146 -333 -156 -355 -10
-22 -86 -197 -170 -390 -83 -192 -189 -435 -234 -540 -119 -274 -662 -1520
-682 -1563 -9 -21 -17 -39 -18 -42 -1 -3 -9 -23 -19 -45 -10 -22 -31 -69 -46
-105 -15 -36 -76 -175 -135 -310 -59 -135 -152 -347 -206 -473 -89 -205 -179
-412 -214 -492 -7 -16 -24 -55 -38 -85 -14 -30 -51 -116 -82 -190 -32 -74 -61
-141 -66 -150 -4 -8 -38 -85 -75 -170 -84 -196 -161 -373 -184 -425 -10 -22
-48 -110 -85 -195 -37 -85 -78 -177 -91 -205 l-23 -50 1 6790 c0 3735 4 6797
7 6807 18 49 800 826 833 828 4 0 22 -20 40 -44z m-2846 -11306 c0 -4147 -3
-7537 -7 -7533 -4 5 -27 53 -52 108 -25 55 -59 132 -76 170 -18 39 -35 77 -40
85 -36 67 -320 758 -381 925 -125 346 -158 440 -206 583 -48 146 -170 540
-179 582 -2 8 -19 71 -38 140 -30 105 -111 420 -122 470 -2 8 -13 53 -24 100
-12 47 -24 99 -27 115 -3 17 -9 46 -14 65 -8 29 -30 135 -46 213 -1 10 -19 98
-38 195 -38 193 -72 374 -81 437 -3 22 -7 47 -10 55 -2 8 -6 35 -9 60 -3 25
-8 54 -10 65 -4 22 -17 108 -21 140 -2 11 -6 38 -9 60 -35 244 -58 419 -71
540 -3 33 -8 71 -10 85 -3 14 -7 54 -10 90 -3 36 -8 83 -10 105 -2 22 -7 72
-10 110 -3 39 -8 86 -10 105 -2 19 -7 69 -10 110 -3 41 -8 96 -10 123 -2 26
-7 89 -10 140 -3 50 -8 115 -10 142 -2 28 -7 109 -10 180 -4 72 -8 157 -10
190 -26 427 -26 1653 -1 2065 3 36 7 124 11 195 4 72 8 150 10 175 13 193 17
250 20 285 3 36 11 121 20 245 2 25 6 68 9 95 3 28 8 77 11 110 3 33 8 76 10
95 7 60 16 143 19 180 4 32 11 87 21 165 2 17 7 53 10 80 6 49 23 177 30 225
2 14 7 45 10 70 19 137 58 382 96 590 34 193 37 207 44 240 3 14 8 38 11 54
11 60 65 322 74 356 5 19 11 46 14 60 9 51 67 290 106 445 23 88 43 165 44
170 63 247 239 817 327 1060 163 451 327 868 430 1093 16 35 29 65 29 67 0 5
20 50 107 240 31 66 66 144 79 173 13 28 25 52 27 52 2 0 3 -3393 3 -7540z
m23923 6315 c5 -11 19 -47 31 -80 11 -33 25 -69 29 -80 33 -74 252 -771 277
-880 1 -5 13 -50 27 -100 32 -113 77 -282 83 -315 3 -13 16 -66 30 -118 13
-52 26 -105 28 -118 3 -13 7 -32 10 -42 3 -9 7 -28 10 -42 2 -14 9 -43 14 -65
6 -22 13 -51 16 -65 2 -14 23 -108 44 -210 35 -162 46 -214 68 -330 10 -52 44
-236 49 -270 35 -205 56 -330 60 -355 7 -51 16 -109 20 -135 3 -14 7 -43 10
-65 3 -22 10 -69 15 -105 5 -36 17 -121 25 -190 9 -69 18 -138 20 -155 10 -78
15 -124 20 -175 6 -60 15 -141 20 -180 2 -14 6 -56 10 -95 3 -38 8 -86 10
-105 2 -19 7 -71 10 -115 3 -44 8 -93 10 -110 2 -16 7 -75 10 -130 4 -55 8
-118 10 -140 2 -22 6 -85 10 -140 3 -55 8 -138 10 -185 21 -349 29 -672 29
-1205 0 -454 -7 -845 -19 -1055 -1 -30 -6 -116 -10 -190 -3 -74 -8 -160 -10
-190 -6 -105 -16 -235 -20 -285 -2 -27 -7 -86 -11 -130 -3 -44 -8 -93 -9 -110
-2 -16 -6 -70 -10 -120 -4 -49 -8 -92 -10 -95 -2 -3 -6 -45 -9 -95 -4 -49 -9
-97 -11 -105 -2 -8 -6 -42 -10 -75 -3 -33 -8 -71 -10 -85 -2 -14 -6 -52 -10
-85 -6 -63 -15 -137 -21 -169 -2 -10 -6 -44 -10 -75 -5 -45 -53 -371 -69 -471
-2 -14 -7 -45 -10 -70 -4 -24 -8 -47 -10 -50 -1 -3 -6 -27 -9 -54 -4 -27 -9
-52 -11 -55 -2 -3 -6 -30 -9 -59 -3 -30 -8 -57 -10 -61 -3 -4 -7 -27 -10 -52
-4 -34 -68 -351 -122 -608 -13 -61 -77 -335 -95 -406 -12 -44 -22 -87 -24 -95
-3 -12 -63 -243 -95 -365 -4 -16 -35 -122 -68 -235 -129 -439 -214 -688 -351
-1035 -20 -50 -20 -37 -20 6465 l0 6515 35 -90 c19 -49 38 -99 43 -110z
m-15081 -3455 c72 -102 144 -203 160 -225 45 -62 598 -841 632 -892 24 -34
738 -1039 800 -1125 30 -42 134 -188 230 -324 96 -136 202 -285 235 -331 33
-45 86 -120 118 -165 32 -46 120 -168 194 -273 74 -104 145 -204 157 -222 21
-31 129 -184 255 -360 36 -50 72 -99 79 -110 13 -19 41 -58 342 -482 107 -150
208 -292 224 -315 16 -22 65 -92 110 -154 44 -63 88 -124 96 -136 8 -12 58
-82 110 -156 52 -74 102 -144 110 -156 8 -12 90 -127 181 -256 92 -128 232
-325 312 -438 80 -113 159 -223 175 -245 27 -38 397 -559 529 -747 l62 -86
-4265 0 c-2574 0 -4264 3 -4264 9 0 5 5 9 10 9 6 0 10 6 10 14 0 7 14 44 31
82 17 38 39 87 49 109 10 22 43 96 73 165 30 69 66 150 80 180 13 30 39 89 57
130 18 41 46 103 61 138 16 34 29 64 29 67 0 2 13 32 29 67 35 75 127 283 206
463 64 146 72 165 110 250 15 33 43 96 62 140 20 44 45 100 56 125 12 25 21
47 22 50 1 3 8 21 17 40 9 19 50 114 93 210 42 96 85 193 95 215 10 22 37 83
60 135 23 52 50 114 61 137 11 24 53 119 94 213 41 94 83 189 94 213 10 23 62
139 114 258 53 120 105 238 117 263 11 25 54 121 94 213 41 93 85 193 99 223
13 30 39 89 57 130 18 41 48 108 66 148 19 41 34 75 34 78 0 2 13 32 29 66 16
35 62 137 101 228 40 91 87 198 106 238 19 41 34 75 34 77 0 2 13 32 29 67 16
35 55 122 86 193 31 72 66 150 77 175 11 25 63 142 115 260 52 118 108 243
124 278 16 35 29 65 29 67 0 2 13 32 29 67 16 35 52 117 81 183 29 66 64 145
77 175 14 30 40 89 58 130 18 41 41 95 53 120 11 25 66 149 122 275 56 127
111 251 123 278 11 26 24 44 28 40 4 -5 66 -91 137 -193z m18369 -12725 c-1
-2816 -5 -5133 -9 -5150 -22 -101 -31 -136 -48 -190 -28 -90 -49 -137 -60
-130 -6 3 -10 10 -10 16 0 5 -18 48 -39 96 -21 49 -103 234 -181 413 -78 179
-148 339 -155 355 -8 17 -62 140 -120 275 -59 135 -114 263 -124 285 -10 22
-25 58 -35 79 -9 21 -87 199 -173 395 -85 196 -187 428 -225 516 -39 88 -86
196 -105 240 -19 44 -41 94 -48 110 -7 17 -54 125 -105 240 -50 116 -105 238
-121 273 -16 35 -29 65 -29 68 0 3 -12 31 -26 62 -15 31 -41 91 -59 132 -71
166 -207 477 -220 505 -14 31 -132 301 -212 485 -25 58 -58 133 -74 168 -16
35 -29 65 -29 67 0 3 -11 28 -24 57 -65 143 -256 583 -256 591 0 5 15 32 34
60 69 107 156 247 251 407 53 91 108 182 121 202 13 21 24 39 24 42 0 2 31 57
68 122 38 66 93 164 122 219 30 55 73 136 97 180 54 100 323 637 382 765 39
82 86 185 136 295 7 17 45 104 84 195 40 91 76 174 81 185 95 199 387 1024
480 1355 12 41 26 86 31 100 5 14 11 34 13 46 2 12 14 54 26 94 12 40 23 80
25 89 2 9 13 48 24 86 59 211 155 593 207 830 30 139 63 291 68 320 2 11 18
90 35 175 17 85 32 166 35 180 2 14 11 63 20 110 16 89 20 113 33 189 4 25 8
48 8 51 1 3 5 30 10 60 5 30 9 57 10 60 1 3 5 30 9 60 5 30 10 64 12 74 2 11
8 54 14 95 6 42 12 85 15 96 2 11 5 34 7 50 6 63 8 -1815 5 -6750z m-30722
5121 c9 -45 120 -490 145 -581 13 -44 26 -96 30 -115 8 -34 61 -225 80 -285
17 -54 51 -170 55 -185 9 -41 213 -662 266 -810 34 -94 140 -361 170 -427 10
-24 19 -45 19 -48 0 -2 11 -28 24 -57 13 -29 52 -118 86 -198 35 -80 82 -187
106 -238 24 -52 44 -95 44 -97 0 -6 110 -236 213 -445 153 -309 240 -473 437
-825 55 -99 142 -245 252 -425 148 -243 124 -206 248 -394 58 -89 109 -169
115 -178 5 -9 28 -42 49 -74 l39 -57 -18 -51 c-10 -28 -21 -55 -25 -61 -4 -5
-35 -75 -70 -155 -34 -80 -68 -158 -75 -175 -8 -16 -30 -68 -50 -115 -20 -47
-45 -103 -55 -125 -10 -22 -57 -130 -105 -240 -47 -110 -93 -214 -100 -231 -8
-17 -52 -118 -99 -225 -46 -107 -93 -214 -104 -239 -11 -25 -64 -146 -118
-270 -53 -124 -110 -253 -125 -288 -16 -34 -29 -64 -29 -67 0 -2 -13 -32 -29
-67 -16 -35 -57 -128 -91 -208 -34 -80 -71 -163 -81 -185 -10 -22 -102 -233
-204 -470 -103 -236 -200 -458 -216 -493 -16 -34 -29 -65 -29 -68 0 -3 -10
-26 -21 -52 -12 -26 -107 -243 -211 -482 -105 -239 -198 -453 -208 -475 -10
-22 -39 -89 -65 -150 -25 -60 -56 -130 -67 -155 -26 -57 -57 -128 -70 -160
-10 -25 -10 -24 -34 22 -35 68 -72 171 -97 268 l-21 85 -2 5230 c-2 5155 -2
5229 17 5150 10 -44 21 -93 24 -109z m14656 -1366 l4066 0 204 -287 c112 -158
211 -297 219 -309 8 -13 53 -76 100 -141 94 -131 417 -586 440 -620 8 -12 112
-158 231 -325 259 -365 628 -885 649 -915 8 -12 75 -106 149 -210 74 -103 143
-201 155 -218 11 -16 24 -34 29 -40 5 -5 74 -102 153 -215 80 -113 152 -214
160 -225 8 -11 51 -72 96 -135 45 -63 131 -185 191 -270 61 -85 127 -178 146
-206 184 -261 546 -770 551 -774 3 -3 30 -41 60 -85 30 -44 58 -84 63 -90 4
-5 51 -71 103 -145 52 -74 103 -145 112 -157 9 -12 44 -60 77 -108 33 -47 126
-179 207 -293 81 -114 153 -215 160 -225 7 -11 23 -33 36 -50 12 -17 22 -36
22 -41 -1 -18 -508 -347 -755 -491 -55 -31 -116 -67 -135 -78 -19 -11 -48 -27
-65 -35 -16 -8 -41 -23 -55 -32 -116 -78 -769 -397 -1085 -530 -11 -5 -40 -18
-65 -29 -25 -10 -115 -47 -200 -81 -85 -34 -180 -72 -210 -85 -167 -72 -763
-286 -865 -311 -5 -1 -71 -21 -145 -44 -74 -23 -142 -43 -150 -45 -8 -2 -64
-18 -125 -35 -60 -18 -118 -33 -128 -35 -10 -2 -27 -7 -37 -10 -10 -3 -27 -8
-37 -10 -10 -2 -43 -10 -73 -19 -46 -12 -290 -70 -340 -81 -8 -2 -35 -8 -60
-14 -25 -5 -56 -12 -70 -15 -14 -2 -70 -14 -125 -26 -55 -11 -115 -23 -134
-26 -18 -3 -43 -8 -55 -10 -43 -9 -345 -63 -387 -69 -24 -3 -55 -8 -69 -10
-82 -15 -356 -53 -435 -61 -27 -2 -61 -6 -75 -9 -31 -6 -87 -12 -170 -20 -36
-3 -81 -8 -100 -10 -43 -6 -100 -11 -205 -20 -44 -4 -97 -9 -118 -11 -33 -3
-141 36 -292 106 -11 5 -54 23 -95 40 -41 17 -88 37 -105 45 -16 7 -91 38
-165 70 -74 31 -148 62 -165 70 -32 14 -241 103 -745 316 -168 71 -314 134
-325 139 -45 20 -160 71 -165 72 -8 2 -70 28 -117 49 -24 11 -54 24 -67 29
-30 11 -816 346 -873 371 -23 11 -44 19 -47 19 -3 0 -29 11 -58 24 -29 14
-251 109 -493 211 -242 103 -516 220 -610 260 -93 39 -215 91 -270 115 -167
71 -540 229 -930 395 -203 86 -388 165 -410 175 -22 10 -79 34 -128 54 -48 20
-106 45 -130 55 -23 11 -208 90 -412 176 -203 86 -383 163 -400 170 -16 8 -93
41 -170 73 -77 33 -201 85 -275 117 -74 31 -148 63 -165 70 -16 7 -91 39 -165
70 -74 32 -256 109 -405 172 -148 63 -360 153 -470 200 -110 46 -215 91 -232
99 -18 8 -48 20 -65 28 -18 7 -80 34 -138 59 -58 25 -148 63 -200 85 -291 121
-839 355 -867 369 -31 16 -31 18 -19 47 8 17 74 168 149 336 74 168 178 404
232 525 53 121 105 238 115 260 10 22 70 159 135 305 64 146 126 285 137 310
11 25 35 79 53 120 34 79 373 845 406 918 45 99 60 134 114 257 178 405 329
747 354 800 15 33 36 81 47 107 12 31 26 48 39 50 11 2 560 2 1220 1 660 -1
3030 -3 5266 -3z m9025 0 l291 0 43 -97 c23 -54 67 -154 97 -223 30 -69 60
-138 68 -155 14 -32 263 -601 347 -795 28 -63 60 -137 73 -165 12 -27 44 -99
70 -160 57 -132 40 -94 220 -505 81 -184 155 -353 165 -375 10 -22 89 -202
176 -400 l157 -360 1 -325 1 -324 -89 -111 c-72 -88 -248 -294 -301 -351 -5
-6 -46 -51 -90 -99 -44 -48 -136 -146 -205 -217 l-125 -130 -40 59 c-22 32
-44 63 -50 70 -5 6 -20 27 -33 45 -51 72 -144 204 -158 223 -8 11 -37 52 -64
90 -207 294 -429 607 -456 645 -51 70 -175 246 -198 280 -24 35 -117 167 -280
395 -47 66 -144 203 -216 305 -216 306 -372 526 -435 615 -33 46 -76 107 -95
135 -19 27 -57 81 -85 119 -27 38 -88 124 -135 191 -47 67 -101 143 -120 170
-19 27 -57 81 -85 120 -27 39 -71 99 -97 135 -27 35 -48 68 -48 74 0 5 -4 11
-8 13 -5 2 -29 32 -54 68 -24 36 -67 96 -94 133 -27 38 -56 79 -64 91 -8 12
-58 82 -110 156 -52 74 -102 144 -110 156 -25 37 -154 218 -162 229 -5 6 -51
69 -102 142 l-95 132 62 3 c34 2 530 2 1102 1 572 -1 1171 -2 1331 -3z
m-18098 -7433 c342 -258 786 -557 1187 -799 763 -461 1691 -907 2495 -1197 80
-29 154 -57 165 -62 77 -35 1047 -341 1120 -353 37 -6 195 -52 195 -56 0 -3
-1185 -5 -2632 -5 l-2633 0 -1 1273 c-1 699 0 1272 3 1272 2 0 48 -33 101 -73z
m-2072 -1239 l-1 -1233 -577 0 c-514 -1 -575 1 -567 15 5 8 33 45 62 82 99
127 163 251 337 654 94 219 181 419 192 443 11 25 75 173 143 330 145 338 280
650 305 706 9 22 37 84 60 138 23 53 43 97 44 97 1 0 2 -555 2 -1232z m23997
586 c80 -182 154 -351 165 -375 11 -24 49 -111 85 -194 36 -82 90 -206 120
-275 179 -406 271 -620 282 -657 24 -80 103 -209 176 -288 l28 -30 -502 0
-502 0 -3 1079 c-1 594 0 1078 2 1075 2 -2 70 -153 149 -335z m-3106 86 c46
-63 87 -122 93 -130 68 -97 231 -327 237 -335 5 -5 30 -41 57 -79 26 -37 93
-132 149 -210 55 -77 125 -177 156 -221 30 -44 57 -82 61 -85 5 -4 145 -202
254 -359 179 -257 296 -375 458 -459 l54 -27 -3138 0 c-1725 0 -3136 0 -3135
1 1 1 88 25 192 54 293 79 813 237 890 270 11 4 70 25 130 45 273 92 798 296
1020 395 11 5 45 20 75 33 518 228 1172 560 1530 777 8 5 78 47 155 93 186
111 373 228 519 325 l120 80 20 -26 c12 -14 58 -78 103 -142z"/>
</g>
</svg>
