<?xml version="1.0" standalone="no"?>
<!DOCTYPE svg PUBLIC "-//W3C//DTD SVG 20010904//EN"
 "http://www.w3.org/TR/2001/REC-SVG-20010904/DTD/svg10.dtd">
<svg version="1.0" xmlns="http://www.w3.org/2000/svg"
 width="700.000000pt" height="700.000000pt" viewBox="0 0 700.000000 700.000000"
 preserveAspectRatio="xMidYMid meet">
<metadata>
Created by potrace 1.14, written by Peter Selinger 2001-2017
</metadata>
<g transform="translate(0.000000,700.000000) scale(0.100000,-0.100000)"
fill="#000000" stroke="none">
<path d="M4326 6343 c-6 -7 -69 -16 -118 -17 -16 -1 -28 -5 -28 -9 0 -5 -4 -5
-10 -2 -5 3 -10 2 -10 -3 0 -5 -6 -9 -13 -9 -42 0 -183 -85 -258 -155 -51 -48
-142 -183 -154 -228 -1 -3 -5 -12 -8 -20 -31 -72 -48 -339 -23 -369 6 -8 10
-17 8 -20 -3 -9 30 -114 41 -128 5 -7 5 -18 1 -24 -4 -8 -3 -9 4 -5 7 4 12 1
12 -8 0 -9 5 -16 11 -16 5 0 7 -4 4 -10 -3 -5 -1 -10 5 -10 7 0 9 -7 6 -16 -3
-8 -2 -13 3 -10 5 3 15 -2 22 -11 12 -14 12 -16 -1 -9 -8 4 0 -4 18 -19 30
-25 46 -55 20 -39 -7 4 -8 3 -4 -5 4 -6 12 -9 17 -6 11 7 71 -50 62 -59 -4 -3
1 -6 10 -6 9 0 17 -3 17 -7 0 -5 27 -37 60 -71 33 -35 58 -67 55 -72 -3 -4 3
-14 13 -21 15 -13 16 -12 3 4 -7 9 -10 17 -6 17 11 0 65 -58 65 -69 0 -5 9
-13 20 -16 11 -4 18 -11 15 -16 -4 -5 1 -9 9 -9 9 0 16 -6 16 -14 0 -8 7 -17
16 -20 8 -3 12 -11 8 -17 -4 -7 -3 -9 3 -6 13 8 66 -50 58 -63 -4 -6 -3 -10 2
-9 21 4 33 -2 33 -17 0 -8 5 -12 10 -9 6 3 10 -1 10 -9 0 -9 7 -16 17 -16 9 0
14 -3 10 -6 -7 -8 17 -34 32 -34 6 0 11 -5 11 -10 0 -6 11 -20 25 -32 14 -12
25 -28 25 -36 0 -9 3 -12 6 -9 4 3 23 -10 42 -29 29 -29 33 -37 21 -46 -11 -8
-11 -9 3 -4 21 6 61 -32 53 -52 -3 -7 0 -10 6 -7 13 9 50 -25 42 -38 -3 -5 -2
-7 4 -4 6 4 27 -11 47 -33 36 -39 46 -58 24 -44 -7 4 -8 3 -4 -4 4 -6 13 -9
21 -5 13 4 20 -7 16 -29 0 -4 6 -5 14 -2 8 4 15 2 15 -3 0 -12 35 -53 45 -53
10 0 50 -53 47 -63 -1 -5 1 -6 6 -3 5 3 20 -6 33 -21 13 -14 18 -23 10 -18 -9
5 -12 4 -7 -3 4 -7 13 -12 19 -12 13 0 43 -40 39 -53 -1 -4 4 -6 10 -5 7 2 12
-3 10 -10 -1 -6 1 -11 5 -10 13 4 63 -45 56 -55 -3 -6 -2 -7 4 -4 12 8 85 -71
77 -84 -3 -5 -2 -9 3 -8 19 3 33 -2 33 -12 0 -6 -7 -8 -16 -5 -9 3 -12 2 -9
-5 4 -6 13 -8 20 -5 7 2 20 -3 29 -13 13 -14 13 -20 3 -31 -10 -12 -9 -12 3
-3 13 10 25 2 69 -42 47 -47 52 -55 41 -74 -6 -13 -16 -19 -23 -15 -7 4 -9 4
-5 -1 10 -10 -11 -37 -23 -29 -5 3 -6 -3 -2 -12 5 -14 3 -16 -11 -11 -10 4
-15 3 -11 -3 3 -5 -25 -41 -63 -80 -38 -38 -68 -70 -66 -70 2 0 -9 -12 -24
-27 -15 -15 -31 -26 -37 -25 -5 2 -7 1 -3 -3 4 -4 -18 -33 -47 -64 -30 -31
-55 -59 -55 -63 0 -5 -7 -8 -15 -8 -8 0 -14 -6 -13 -12 2 -7 -3 -12 -10 -10
-6 1 -11 -4 -10 -10 2 -7 -3 -12 -10 -10 -8 1 -11 -1 -8 -6 3 -5 -3 -15 -12
-24 -9 -8 -34 -33 -55 -56 -21 -23 -43 -42 -49 -42 -6 0 -9 -2 -6 -5 9 -9 -54
-75 -65 -68 -6 3 -7 1 -3 -5 3 -6 -5 -19 -19 -30 -14 -11 -25 -25 -25 -31 0
-10 -14 -15 -33 -12 -5 1 -5 -4 -1 -10 3 -6 2 -14 -3 -18 -5 -3 -33 -32 -61
-64 -29 -31 -52 -54 -52 -50 0 4 -7 -3 -16 -15 -8 -12 -20 -19 -26 -16 -7 4
-8 2 -4 -4 9 -14 -24 -53 -38 -45 -6 3 -8 2 -3 -2 10 -11 -23 -46 -36 -38 -5
3 -7 2 -4 -4 7 -11 -122 -150 -135 -146 -4 2 -7 -1 -5 -5 3 -12 -79 -102 -93
-102 -6 0 -9 -4 -6 -9 3 -4 -16 -29 -42 -55 -26 -25 -56 -55 -66 -66 -10 -11
-22 -17 -26 -15 -4 3 -7 -3 -6 -13 0 -9 -5 -16 -12 -14 -8 1 -11 -2 -8 -6 3
-5 -7 -20 -23 -33 -15 -13 -33 -33 -40 -44 -9 -14 -11 -15 -7 -3 3 10 1 20 -5
24 -5 3 -7 14 -4 25 4 11 2 19 -4 19 -18 0 -12 28 7 33 13 4 12 5 -4 6 -24 1
-42 47 -25 64 11 11 3 39 -9 32 -5 -3 -12 0 -16 6 -3 6 0 15 7 20 12 7 12 10
0 21 -11 11 -13 11 -6 -1 6 -10 4 -12 -4 -7 -7 5 -10 14 -7 21 2 7 0 17 -5 22
-5 5 -10 28 -11 51 -1 24 -5 39 -11 35 -6 -4 -8 2 -5 15 4 12 2 22 -3 22 -5 0
-9 7 -9 16 0 13 3 14 13 5 10 -8 14 -7 14 4 0 7 -3 14 -6 13 -34 -3 -51 39
-23 61 15 12 15 12 -5 6 -14 -4 -23 -2 -23 4 0 6 5 11 11 11 6 0 3 7 -5 16 -9
8 -14 19 -11 24 3 5 1 12 -5 15 -8 5 -7 12 2 23 10 12 10 14 1 8 -12 -6 -18
11 -14 37 0 4 -3 7 -7 7 -5 0 -9 7 -9 15 0 13 4 12 21 -2 19 -16 19 -16 7 -1
-7 9 -10 21 -7 27 4 5 -3 7 -16 3 -18 -4 -20 -2 -16 16 4 12 2 22 -3 22 -6 0
-5 10 2 22 10 18 9 20 -7 14 -10 -4 -16 -4 -12 -1 3 4 2 20 -2 36 -6 22 -6 28
3 23 7 -3 4 1 -6 9 -15 13 -16 15 -2 21 17 6 21 26 4 26 -5 0 -7 -4 -4 -10 3
-5 2 -10 -3 -10 -6 0 -12 7 -16 15 -3 8 0 15 7 15 8 0 9 3 1 8 -15 10 -39 57
-25 48 6 -4 11 0 11 9 0 10 -5 13 -12 9 -8 -5 -9 -2 -5 9 3 9 1 19 -4 23 -6 3
-8 17 -4 31 4 16 2 22 -5 18 -8 -5 -15 14 -11 37 0 4 -6 22 -13 40 -7 18 -11
39 -9 46 3 6 -1 12 -8 12 -7 0 -9 3 -6 7 4 3 2 12 -4 20 -9 10 -7 13 7 13 17
0 17 1 -1 14 -10 7 -19 22 -20 32 -1 11 -5 30 -9 43 -6 18 -5 22 5 17 9 -5 9
-3 -1 6 -16 14 -21 29 -24 63 0 11 -4 23 -9 26 -7 5 -11 18 -22 80 -3 14 -12
45 -20 69 -19 53 -19 51 3 44 13 -5 14 -4 3 4 -7 5 -11 14 -7 20 3 6 1 14 -5
18 -7 4 -9 3 -5 -4 3 -6 2 -13 -3 -16 -5 -4 -8 5 -6 19 1 14 -1 25 -5 25 -4 0
-11 17 -15 38 -11 51 -12 54 -21 76 -5 13 -4 17 4 12 15 -9 26 14 13 27 -9 9
-11 8 -5 -6 4 -12 2 -16 -8 -12 -7 3 -15 17 -16 32 -1 14 -7 32 -13 39 -14 17
2 18 21 2 8 -7 2 2 -14 20 -17 17 -27 32 -24 32 4 0 3 14 -2 30 -6 23 -6 29 3
23 7 -3 4 2 -5 13 -18 21 -28 54 -35 121 -3 24 -8 41 -12 38 -4 -2 -8 1 -9 8
0 7 -3 23 -6 37 -4 14 -9 38 -12 54 -2 16 -8 34 -12 40 -3 6 -7 17 -9 25 -1 8
-5 26 -8 40 -5 20 -4 22 8 13 11 -9 14 -8 14 3 0 7 -3 14 -6 13 -20 -2 -31 4
-31 17 0 18 16 20 23 3 4 -10 6 -10 6 0 1 8 -8 16 -20 19 -16 4 -17 8 -7 14
10 7 8 9 -6 9 -16 0 -17 2 -5 17 8 9 9 14 3 10 -7 -4 -14 3 -16 18 -3 16 -1
22 6 19 6 -3 4 0 -4 8 -16 14 -22 31 -22 66 0 12 -5 22 -11 22 -6 0 -8 3 -4 6
3 4 1 21 -6 38 -11 27 -14 50 -7 59 5 6 6 46 0 42 -14 -9 -32 15 -34 44 0 17
-3 31 -6 31 -3 0 -6 8 -7 18 -3 38 -8 57 -18 64 -6 5 -4 8 5 8 12 0 12 2 2 8
-7 5 -14 22 -15 39 -1 17 -5 29 -9 26 -5 -2 -9 7 -9 21 -2 30 -3 34 -13 59 -5
9 -6 26 -3 37 3 11 2 19 -2 18 -19 -2 -22 4 -10 19 8 9 9 14 3 10 -10 -6 -14
5 -15 46 0 10 -5 15 -12 11 -7 -4 -9 -4 -5 1 4 4 1 23 -7 42 -8 20 -15 41 -14
47 0 6 4 2 9 -9 8 -18 9 -18 9 -2 1 10 -6 25 -14 34 -8 8 -13 19 -10 24 4 5 1
9 -5 9 -6 0 -8 4 -5 10 3 5 1 19 -6 31 -10 19 -9 21 7 15 10 -4 15 -4 11 0 -4
4 1 13 11 21 15 13 14 13 -7 3 -31 -16 -50 1 -30 26 9 12 10 15 2 10 -13 -7
-17 4 -14 33 2 8 -2 10 -11 5 -9 -5 -8 -2 2 11 9 11 10 16 3 11 -7 -4 -14 -2
-14 3 -1 6 -2 17 -3 24 -1 6 8 15 19 19 17 5 15 6 -7 7 -23 1 -28 6 -28 25 0
14 -4 27 -9 30 -5 3 -11 15 -14 26 -3 11 -1 18 3 15 4 -3 6 4 3 15 -3 11 -8
20 -12 20 -4 0 -15 14 -25 31 -13 23 -15 30 -5 25 8 -4 2 2 -14 14 -15 12 -25
26 -21 31 3 5 -2 12 -10 15 -9 3 -16 11 -16 18 0 6 -9 18 -20 26 -11 8 -20 20
-20 28 0 7 -5 10 -12 6 -8 -5 -9 0 -5 15 4 17 2 20 -7 12 -9 -7 -16 -5 -26 9
-8 11 -18 20 -23 20 -15 0 -57 37 -49 44 3 4 -1 4 -11 0 -10 -3 -17 -1 -17 5
0 6 -9 11 -20 11 -11 0 -20 4 -20 9 0 9 -38 24 -53 22 -4 -1 -21 6 -37 14 -16
8 -38 15 -50 15 -12 0 -19 3 -17 8 3 4 -43 7 -101 7 -59 0 -113 5 -121 10 -12
8 -13 7 -6 -4 6 -11 4 -13 -7 -8 -9 3 -19 3 -22 -1 -4 -3 -13 -7 -21 -8 -15
-2 -80 -22 -105 -31 -8 -4 -18 -5 -22 -5 -5 1 -8 -3 -8 -9 0 -6 -9 -9 -20 -6
-11 3 -18 2 -16 -2 3 -4 -15 -18 -40 -31 -24 -14 -44 -28 -44 -32 0 -5 -4 -8
-9 -8 -5 0 -29 -20 -53 -44 -59 -60 -99 -106 -92 -106 4 0 1 -7 -6 -15 -7 -8
-17 -12 -23 -8 -5 3 -7 1 -4 -4 4 -6 -4 -31 -18 -57 -13 -25 -25 -50 -25 -54
0 -4 -6 -25 -12 -47 -17 -58 -18 -65 -23 -124 -3 -30 -7 -56 -9 -59 -3 -2 -1
-13 4 -23 7 -12 7 -20 0 -24 -6 -4 -7 -11 -4 -17 4 -5 9 -27 11 -47 6 -49 9
-63 16 -81 10 -29 21 -75 21 -100 1 -14 4 -28 8 -31 11 -7 48 -151 42 -161 -3
-4 -1 -8 3 -8 5 0 15 -28 23 -62 15 -68 14 -66 23 -88 8 -21 18 -71 20 -97 1
-13 5 -23 9 -23 3 0 5 -13 4 -29 -2 -22 2 -28 14 -23 11 4 10 0 -4 -17 -17
-18 -17 -21 -3 -15 9 3 17 2 17 -4 0 -6 3 -18 7 -28 5 -13 3 -15 -8 -9 -8 5
-6 -1 4 -13 11 -11 16 -26 12 -31 -3 -6 -1 -11 4 -11 6 0 11 -13 11 -28 0 -16
3 -32 7 -36 4 -4 8 -17 10 -29 2 -25 7 -46 16 -67 4 -8 8 -24 10 -35 1 -11 7
-26 11 -34 7 -11 6 -12 -5 -6 -12 8 -12 6 0 -8 7 -9 11 -26 8 -37 -3 -11 0
-18 7 -17 6 1 11 -5 11 -13 0 -8 4 -21 8 -27 8 -12 2 -17 -16 -14 -5 1 -6 -3
-2 -9 3 -6 10 -8 15 -5 7 4 32 -72 36 -110 0 -5 3 -17 7 -25 21 -57 26 -80 14
-73 -8 4 -7 1 1 -10 8 -9 11 -20 8 -26 -3 -5 -2 -11 3 -13 6 -1 12 -14 15 -28
3 -14 9 -40 15 -57 5 -18 7 -33 4 -33 -3 0 0 -7 7 -15 7 -8 13 -35 14 -59 0
-24 4 -42 7 -40 10 6 21 -45 13 -58 -4 -7 -3 -8 4 -4 11 7 17 -18 13 -51 -1
-7 2 -13 7 -13 9 0 12 -17 12 -57 0 -13 4 -23 8 -23 9 0 11 -7 15 -57 1 -17 5
-29 8 -27 6 4 35 -115 31 -128 -1 -5 2 -8 6 -8 13 0 12 -44 -1 -53 -8 -6 -6
-7 6 -3 20 6 23 -14 5 -33 -11 -10 -10 -11 5 -6 14 6 17 1 18 -21 1 -16 1 -32
0 -36 0 -5 3 -8 8 -8 5 0 11 -9 14 -20 3 -13 1 -18 -6 -13 -7 4 -4 -4 5 -19
13 -20 14 -28 5 -38 -8 -9 -9 -11 0 -6 10 5 36 -74 36 -111 0 -7 4 -13 9 -13
5 0 7 -4 4 -8 -2 -4 -1 -14 4 -22 5 -9 4 -20 -2 -28 -6 -7 -7 -12 -2 -11 21 4
26 -2 14 -16 -7 -8 -8 -15 -3 -15 9 0 30 -58 36 -100 2 -8 5 -19 8 -25 4 -5 6
-24 5 -42 0 -17 3 -31 8 -30 8 2 10 -4 17 -53 2 -14 7 -28 12 -31 4 -3 8 -24
10 -46 1 -23 5 -39 10 -36 6 4 11 -28 10 -64 -1 -7 2 -13 6 -13 4 0 8 -6 9
-12 2 -25 8 -48 15 -54 11 -11 8 -26 -3 -19 -17 11 -11 -7 8 -21 15 -12 12
-13 -26 -14 -32 0 -41 3 -36 12 4 7 -1 6 -12 -3 -12 -11 -26 -14 -39 -9 -11 4
-26 3 -32 -2 -8 -6 -13 -7 -13 -1 0 5 -15 8 -32 7 -18 -1 -36 3 -40 9 -6 9 -8
9 -8 0 0 -16 -56 -18 -65 -3 -4 6 -12 7 -18 3 -17 -11 -157 -10 -157 2 0 5 -5
4 -11 -2 -8 -8 -20 -8 -36 -2 -16 6 -22 5 -18 -1 3 -6 2 -10 -4 -10 -5 0 -13
5 -16 10 -4 7 -14 6 -28 -1 -16 -9 -22 -9 -25 0 -2 6 -8 8 -14 5 -14 -9 -99
-8 -127 1 -13 4 -21 3 -18 -2 3 -5 -16 -7 -46 -3 -29 3 -158 5 -287 5 -145 0
-238 4 -242 10 -5 6 -8 6 -8 -2 0 -14 -70 -8 -80 7 -5 8 -9 6 -14 -5 -3 -9
-11 -13 -17 -10 -12 8 -290 8 -328 0 -13 -2 -26 -7 -29 -10 -3 -2 -11 3 -19
13 -12 16 -13 16 -7 -1 4 -10 3 -17 -2 -16 -5 1 -12 0 -16 -1 -5 -1 -11 -3
-15 -4 -29 -7 -92 -32 -117 -47 -16 -10 -33 -16 -38 -13 -4 3 -8 0 -8 -5 0 -6
-17 -21 -37 -35 -50 -31 -133 -113 -125 -122 4 -4 -1 -4 -11 -1 -10 4 -16 3
-13 -1 7 -12 -29 -63 -39 -55 -4 5 -5 3 -2 -3 3 -6 -1 -24 -10 -40 -30 -56
-63 -148 -69 -193 -3 -25 -10 -51 -14 -56 -5 -6 -5 -17 0 -25 4 -7 4 -23 0
-35 -5 -14 -4 -27 3 -34 8 -8 7 -11 -4 -11 -12 0 -12 -2 1 -10 13 -9 13 -10 0
-10 -10 0 -11 -3 -4 -8 7 -4 14 -27 17 -52 3 -25 10 -60 15 -77 6 -18 8 -33 4
-33 -4 0 -2 -4 3 -8 16 -11 36 -62 29 -73 -3 -5 -2 -8 3 -7 4 2 8 0 8 -3 0 -4
8 -16 19 -28 16 -18 17 -23 5 -38 -12 -16 -12 -17 2 -5 14 10 21 7 45 -25 15
-21 36 -45 46 -54 13 -12 15 -18 5 -28 -9 -10 -8 -11 6 -5 19 7 60 -22 51 -37
-2 -4 5 -6 16 -4 13 3 24 -2 28 -13 4 -9 14 -17 22 -17 8 0 20 -11 26 -23 7
-14 13 -19 16 -12 3 10 12 9 35 -4 18 -9 38 -16 46 -16 7 0 18 -5 25 -12 7 -7
22 -13 35 -14 57 -5 77 -9 77 -14 0 -3 60 -6 134 -7 104 -1 140 -5 158 -17 20
-13 25 -14 25 -2 0 8 -6 12 -14 9 -7 -3 -13 -1 -13 4 0 9 109 7 137 -2 7 -2
10 -12 7 -22 -5 -14 -4 -15 4 -4 6 8 9 19 8 25 -2 6 -1 8 1 4 2 -4 10 -5 18
-2 7 3 15 -3 18 -13 3 -13 5 -11 6 7 l2 25 15 -25 15 -25 -7 25 c-6 23 -5 24
10 11 14 -12 19 -12 26 -2 6 10 10 9 19 -5 6 -11 11 -14 11 -8 0 11 220 15
220 3 0 -3 12 -11 28 -18 l27 -12 -25 21 c-18 14 -20 20 -9 20 8 0 21 -6 28
-13 11 -9 13 -9 7 1 -4 6 -2 12 3 12 6 0 11 -5 11 -11 0 -8 5 -7 16 2 13 10
17 10 25 -2 7 -12 9 -12 9 1 1 9 5 6 10 -7 5 -13 15 -23 22 -22 10 0 10 2 1 6
-7 2 -13 12 -12 21 0 11 2 12 6 5 2 -7 9 -13 14 -13 6 0 8 4 5 8 -2 4 4 8 14
8 10 0 16 -4 14 -8 -8 -12 11 -9 24 4 7 7 12 8 12 2 0 -5 -5 -15 -11 -21 -8
-8 -7 -13 2 -18 7 -5 10 -4 6 2 -10 15 29 43 42 30 8 -8 11 -7 11 3 1 9 7 4
16 -10 8 -14 13 -17 10 -8 -3 9 2 19 10 22 9 3 12 1 9 -4 -9 -14 8 -12 24 2 8
7 11 8 8 2 -4 -6 4 -16 18 -22 19 -9 26 -8 37 6 11 15 11 15 -2 5 -10 -8 -21
-9 -30 -3 -12 8 -10 10 8 11 12 1 28 2 35 3 6 1 12 -5 12 -11 0 -15 13 -18 23
-7 4 4 0 4 -8 -1 -8 -5 -12 -4 -7 0 4 5 13 10 20 11 7 1 21 5 32 9 17 6 18 5
5 -5 -13 -10 -12 -11 6 -7 12 2 30 0 40 -6 18 -10 18 -9 4 9 -14 17 -14 18 2
6 9 -8 27 -12 40 -11 13 2 28 0 35 -4 6 -4 15 -2 19 4 5 8 3 9 -6 4 -9 -5 -11
-4 -6 4 4 6 13 8 19 4 7 -4 77 -8 157 -8 100 -1 153 -6 170 -15 21 -11 23 -11
13 1 -9 11 -6 14 14 16 19 1 22 -1 12 -8 -11 -7 -11 -9 4 -9 9 0 17 5 17 12 0
6 7 3 16 -8 8 -10 13 -13 9 -6 -8 16 36 16 54 -1 11 -10 13 -9 7 1 -10 18 104
14 122 -5 7 -7 18 -13 25 -13 6 0 3 6 -8 14 -16 11 -10 13 46 13 35 0 67 -5
71 -11 6 -8 8 -8 8 0 0 6 14 11 30 12 21 0 28 -3 23 -11 -4 -7 0 -6 10 2 19
15 22 8 7 -19 -7 -13 -7 -21 2 -26 6 -4 8 -3 5 3 -4 6 0 18 7 29 11 14 28 18
80 19 53 0 64 -2 51 -11 -14 -11 -14 -12 2 -18 10 -4 14 -4 11 0 -4 3 -1 13 7
21 13 13 19 13 44 0 25 -12 29 -12 24 -1 -3 8 0 14 6 14 6 0 11 -5 11 -11 0
-6 8 -8 19 -4 13 4 24 0 31 -12 11 -17 11 -17 6 0 -4 14 -1 17 12 15 9 -2 16
-10 15 -16 -2 -7 2 -12 8 -12 6 0 9 7 5 15 -3 8 0 15 7 16 90 7 118 12 136 23
9 6 12 5 8 -1 -4 -6 5 -15 18 -21 20 -9 23 -9 18 3 -3 8 -9 12 -14 9 -5 -3 -9
0 -9 5 0 15 27 14 33 -1 3 -8 6 -6 6 5 1 9 5 17 11 17 5 0 6 -8 3 -17 -6 -15
-5 -16 9 -3 9 8 14 18 12 21 -2 4 3 9 10 12 8 3 17 1 20 -6 3 -9 5 -9 5 1 1 6
6 12 12 12 5 0 7 -5 4 -10 -8 -13 12 -40 29 -40 6 0 3 5 -6 11 -26 15 -23 32
3 19 11 -7 23 -9 26 -7 2 3 -5 8 -16 12 -12 3 -21 11 -21 16 0 6 5 7 10 4 6
-3 10 -2 10 4 0 5 14 12 30 16 17 4 28 11 25 16 -4 5 1 6 9 3 9 -3 12 -12 9
-22 -4 -10 3 -7 17 8 12 14 27 24 34 22 7 -2 7 1 -1 9 -11 10 -16 9 -26 -6 -8
-10 -17 -14 -20 -9 -3 5 10 19 28 31 31 20 36 21 50 7 17 -18 20 -11 5 16 -8
16 -8 18 5 14 17 -7 80 42 66 50 -5 3 -11 -1 -14 -8 -3 -8 -16 -20 -29 -26
-19 -10 -19 -8 6 16 29 27 81 41 72 19 -2 -7 2 -12 10 -12 12 0 11 5 -2 25
-15 23 -15 24 4 18 11 -4 23 -2 27 4 3 6 11 7 17 4 7 -4 8 -2 4 5 -4 6 -12 8
-18 5 -7 -5 -8 -2 -3 5 4 8 -4 7 -24 -4 -18 -9 -29 -20 -26 -25 4 -6 1 -10 -5
-10 -7 0 -9 7 -6 16 3 9 6 18 6 20 0 2 8 4 17 4 9 0 13 3 10 7 -4 3 -2 12 4
20 10 11 18 7 46 -22 20 -21 31 -40 27 -48 -4 -6 -4 -9 1 -5 12 11 47 -12 41
-27 -3 -9 0 -12 8 -9 7 3 20 -2 29 -10 9 -9 20 -16 26 -16 6 0 11 -4 11 -10 0
-5 7 -10 15 -10 8 0 15 -4 15 -10 0 -5 7 -10 15 -10 26 0 65 -23 65 -39 0 -13
2 -13 9 -2 6 8 14 10 22 5 8 -5 25 -10 39 -12 14 -1 34 -13 44 -25 15 -18 18
-18 13 -4 -5 13 -3 17 5 14 7 -2 12 -10 10 -16 -1 -7 8 -5 23 5 15 10 25 12
25 5 0 -6 -5 -11 -12 -11 -6 0 -8 -3 -5 -6 4 -4 12 -2 19 3 15 12 67 11 87 -2
9 -5 12 -4 8 2 -4 6 4 11 20 11 21 0 23 -2 10 -10 -22 -12 -22 -24 -1 -32 13
-5 14 -3 7 6 -7 9 -4 18 8 30 11 10 21 13 24 8 4 -6 12 -10 18 -10 7 0 6 4 -3
10 -8 5 -10 10 -4 10 5 0 16 -6 23 -12 8 -7 11 -8 8 -2 -4 6 5 16 19 23 15 6
23 7 19 1 -10 -16 7 -12 28 7 15 13 18 14 12 3 -6 -11 -3 -10 12 3 11 9 23 14
26 10 4 -3 7 -1 7 6 0 7 5 9 10 6 6 -3 13 0 16 8 5 15 34 19 34 5 0 -4 4 -8
10 -8 5 0 7 6 5 12 -2 7 8 22 23 33 l27 20 -19 -30 c-15 -23 -16 -27 -3 -17 9
8 19 22 22 33 4 10 14 19 24 19 21 0 56 36 65 66 4 12 28 41 54 66 27 24 51
51 55 61 7 20 26 19 46 -3 7 -8 5 -2 -4 14 -9 16 -12 26 -7 22 6 -3 13 3 17
14 4 11 11 18 16 15 5 -4 9 0 9 8 0 21 47 60 61 52 8 -6 10 -4 5 4 -11 17 24
53 44 46 11 -3 20 1 24 10 4 11 13 14 28 10 18 -4 16 -2 -6 11 l-29 16 49 48
c29 28 54 45 63 42 9 -3 12 -1 7 6 -10 16 20 57 42 57 9 0 23 -7 30 -15 11
-13 11 -11 2 8 -6 12 -15 20 -20 17 -6 -3 -7 1 -4 9 3 9 13 16 21 16 8 0 12
-4 9 -9 -3 -5 1 -12 10 -15 15 -6 15 -4 1 17 -14 22 -14 24 5 36 16 10 23 10
36 -1 15 -11 14 -10 0 8 -24 28 -23 41 2 19 11 -10 20 -13 20 -7 0 6 -6 13
-12 16 -9 3 -8 8 5 16 9 6 15 15 12 21 -8 12 28 -2 38 -15 6 -7 7 -4 4 6 -3 9
-1 18 6 21 6 2 3 6 -7 10 -10 4 -15 3 -11 -3 3 -6 1 -10 -4 -10 -15 0 -14 15
3 29 10 8 16 9 21 1 3 -5 12 -10 18 -9 9 0 9 2 0 6 -7 2 -13 10 -13 17 0 17
48 57 55 46 3 -5 -3 -11 -14 -15 -11 -3 -22 -13 -26 -22 -5 -15 -3 -15 14 1
11 10 24 15 30 12 5 -4 7 6 5 24 -4 24 -2 29 11 24 12 -5 14 -2 8 12 -6 17 -5
17 10 5 9 -7 14 -18 10 -24 -3 -6 -1 -7 5 -3 9 5 7 14 -4 32 -9 13 -12 24 -6
24 6 0 16 -8 21 -18 6 -10 11 -12 11 -4 0 7 5 10 12 6 6 -4 8 -3 5 3 -9 14 17
35 29 25 5 -4 6 -3 1 2 -11 15 -46 15 -40 0 2 -6 -1 -15 -7 -19 -8 -5 -11 1
-8 16 1 13 9 24 16 24 7 0 18 11 25 25 13 25 25 28 62 15 11 -3 8 1 -7 10 -16
8 -28 18 -28 21 0 3 5 2 10 -1 6 -3 10 -1 10 4 0 6 4 11 10 11 5 0 9 -5 7 -12
-1 -6 6 -14 16 -16 9 -2 17 1 17 7 0 6 -6 8 -13 5 -8 -3 -14 2 -14 13 0 24 33
67 42 53 3 -5 12 -10 18 -10 7 0 6 4 -3 11 -11 8 -12 12 -2 16 6 2 10 9 7 13
-7 11 43 45 52 37 3 -4 -6 -11 -20 -18 -23 -10 -33 -43 -11 -37 5 2 8 8 6 15
-1 6 7 14 18 18 22 7 26 20 10 30 -6 4 -5 11 3 20 10 11 15 11 30 -2 10 -10
17 -12 17 -5 0 7 -4 12 -10 12 -17 0 -11 21 14 50 22 27 24 27 42 12 17 -16
17 -16 5 0 -10 14 -10 21 2 38 10 14 17 17 22 11 3 -6 11 -8 17 -5 8 5 9 1 4
-12 -5 -14 -4 -16 5 -7 13 13 3 37 -12 28 -5 -4 -9 0 -9 8 0 8 22 35 49 60 28
24 47 48 43 52 -4 4 3 3 15 -4 30 -16 41 -14 17 3 -18 14 -17 16 27 58 25 24
54 55 63 70 15 23 21 26 44 17 24 -8 25 -8 10 5 -10 7 -18 16 -18 20 0 10 24
2 39 -14 8 -9 7 -5 -2 11 -16 27 -15 28 42 82 32 31 58 57 57 59 0 2 5 -4 13
-12 11 -13 12 -12 6 8 -6 21 10 33 17 12 2 -6 9 0 17 12 13 22 13 22 -4 8 -17
-14 -18 -13 -12 3 4 10 7 21 7 23 0 3 4 2 10 -1 5 -3 20 0 32 7 13 7 26 13 31
14 4 1 10 2 13 3 4 0 1 8 -6 16 -7 8 -10 22 -6 30 6 17 36 21 36 5 0 -5 5 -10
12 -10 6 0 4 8 -6 19 -16 17 -16 20 0 35 13 14 19 14 32 4 13 -11 14 -10 4 8
-13 25 -7 34 24 34 13 0 26 5 30 11 4 8 -1 9 -16 4 -18 -6 -12 4 24 41 25 27
46 52 46 56 0 5 5 8 11 8 8 0 7 -6 -2 -17 -13 -16 -12 -17 4 -4 10 8 16 19 13
26 -2 6 2 12 10 12 8 0 14 -7 15 -16 0 -11 2 -12 6 -3 3 7 0 19 -6 26 -9 10
-8 15 4 20 8 3 15 12 15 21 0 8 4 15 10 15 5 0 9 3 8 8 -4 12 34 62 42 57 15
-9 22 15 10 30 -8 10 -9 15 -2 15 6 0 16 -8 21 -17 6 -10 11 -14 11 -9 0 5 -7
18 -17 28 -15 17 -15 18 0 18 10 0 17 -6 17 -12 0 -9 4 -8 10 2 9 14 14 7 11
-13 -1 -5 3 -6 9 -2 8 5 8 11 -1 21 -6 7 -14 12 -18 10 -14 -9 -34 12 -25 25
5 8 9 20 10 27 5 30 14 43 26 36 10 -6 9 -3 0 9 -9 10 -11 24 -6 39 4 13 7 53
7 91 -1 37 2 65 6 63 4 -3 13 0 21 5 12 8 11 9 -5 7 -16 -2 -21 3 -23 27 -2
17 -6 37 -9 45 -6 16 -10 29 -17 58 -3 9 -5 18 -6 20 -2 1 -4 7 -5 12 -1 6 -4
12 -5 15 -1 3 -3 8 -5 13 -7 27 -29 70 -43 85 -14 16 -14 20 -2 29 12 8 12 9
-2 4 -12 -3 -22 2 -29 17 -7 12 -23 33 -36 46 -13 14 -21 31 -19 38 3 8 2 11
-4 8 -10 -6 -60 33 -60 49 0 5 7 1 16 -10 15 -18 15 -18 4 3 -7 15 -16 20 -27
16 -13 -5 -15 -2 -10 11 4 9 3 15 -2 11 -11 -6 -77 62 -73 76 1 5 -2 8 -7 7
-12 -3 -161 149 -161 163 0 6 5 7 12 3 7 -4 8 -3 4 5 -6 9 -11 9 -21 1 -10 -8
-15 -6 -20 9 -3 12 -11 21 -16 21 -6 0 -8 4 -5 9 3 5 -4 11 -15 14 -15 4 -20
11 -15 22 3 10 2 14 -5 9 -13 -7 -59 34 -59 53 0 8 -4 11 -10 8 -5 -3 -10 -2
-10 4 0 5 5 12 10 14 6 3 5 4 -2 3 -17 -4 -48 12 -48 25 0 6 4 8 9 4 5 -3 12
-1 16 4 3 6 -5 8 -20 5 -14 -2 -25 0 -25 5 0 6 -22 31 -49 57 -28 26 -48 51
-45 56 3 4 0 8 -6 8 -6 0 -19 7 -27 16 -13 12 -13 18 -4 24 9 5 9 10 3 14 -6
3 -12 1 -14 -6 -2 -6 -10 -8 -17 -4 -7 5 -10 14 -7 22 3 8 2 13 -2 11 -15 -4
-93 77 -87 91 3 7 0 10 -6 7 -10 -7 -79 59 -79 76 0 5 -7 9 -15 9 -14 0 -19
12 -16 33 0 4 -2 6 -6 5 -19 -3 -43 16 -43 34 0 10 -4 17 -9 14 -10 -6 -53 38
-46 47 3 4 2 5 -2 2 -11 -9 -43 27 -44 49 0 12 -3 15 -6 8 -3 -9 -10 -7 -24 9
-10 12 -16 26 -13 31 3 4 0 7 -7 6 -7 -2 -13 2 -14 9 0 6 -4 15 -9 20 -5 5 -6
3 -2 -4 4 -7 2 -13 -3 -13 -10 0 -15 14 -12 33 1 5 -2 6 -7 3 -11 -7 -94 79
-85 88 4 3 0 6 -8 6 -16 0 -49 34 -49 50 0 6 -4 10 -10 10 -14 0 -50 42 -44
52 3 5 2 7 -3 6 -12 -4 -63 44 -57 54 3 5 0 7 -8 6 -7 -2 -12 3 -11 10 2 6 -2
12 -8 12 -17 0 -50 41 -42 53 3 6 1 7 -5 3 -7 -4 -12 -2 -12 5 0 7 -3 10 -6 6
-8 -7 -60 54 -56 66 1 5 -2 6 -6 3 -14 -8 -45 31 -36 45 5 8 3 10 -5 4 -13 -7
-91 67 -91 86 0 6 -4 7 -10 4 -9 -6 -14 7 -11 27 0 4 -6 5 -14 2 -8 -4 -15 -1
-15 5 0 6 -11 21 -25 33 -13 11 -22 25 -19 30 3 5 2 7 -3 6 -14 -5 -105 91
-97 104 4 7 3 8 -5 4 -7 -5 -23 4 -39 21 -15 15 -44 37 -65 48 -20 11 -37 23
-37 27 0 5 -3 7 -7 6 -5 -1 -33 10 -63 25 -53 25 -83 35 -123 36 -10 1 -16 4
-14 9 3 4 -16 7 -41 7 -26 0 -52 3 -59 8 -6 4 -14 3 -18 -3 -5 -8 -11 -8 -19
-1 -7 6 -16 8 -20 4z m-1152 -1429 c3 -8 2 -12 -4 -9 -6 3 -10 10 -10 16 0 14
7 11 14 -7z m3686 -1524 c0 -5 -2 -10 -4 -10 -3 0 -8 5 -11 10 -3 6 -1 10 4
10 6 0 11 -4 11 -10z m-330 -406 c8 -8 9 -14 4 -12 -5 1 -19 -3 -31 -10 -27
-15 -29 -9 -6 18 21 24 18 23 33 4z m-1310 -1389 c-7 -8 -17 -12 -22 -9 -6 4
-5 10 3 15 22 14 33 10 19 -6z m-349 -356 c-13 -10 -28 -19 -35 -19 -6 0 1 8
17 18 15 9 27 21 27 26 0 5 3 6 8 2 4 -4 -4 -16 -17 -27z"/>
<path d="M4795 6201 c-3 -5 -2 -12 3 -15 5 -3 9 1 9 9 0 17 -3 19 -12 6z"/>
<path d="M4867 6119 c7 -7 15 -10 18 -7 3 3 -2 9 -12 12 -14 6 -15 5 -6 -5z"/>
<path d="M2853 5995 c0 -8 4 -12 9 -9 5 3 6 10 3 15 -9 13 -12 11 -12 -6z"/>
<path d="M5046 5938 c3 -5 10 -6 15 -3 13 9 11 12 -6 12 -8 0 -12 -4 -9 -9z"/>
<path d="M5090 5881 c0 -6 4 -13 10 -16 6 -3 7 1 4 9 -7 18 -14 21 -14 7z"/>
<path d="M2931 5846 c-9 -10 -8 -15 2 -19 8 -3 13 3 13 14 0 23 0 23 -15 5z"/>
<path d="M5210 5785 c0 -5 5 -17 10 -25 5 -8 10 -10 10 -5 0 6 -5 17 -10 25
-5 8 -10 11 -10 5z"/>
<path d="M2956 5742 c-3 -5 1 -9 9 -9 8 0 12 4 9 9 -3 4 -7 8 -9 8 -2 0 -6 -4
-9 -8z"/>
<path d="M3014 5566 c1 -8 5 -18 8 -22 4 -3 5 1 4 10 -1 8 -5 18 -8 22 -4 3
-5 -1 -4 -10z"/>
<path d="M3066 5358 c3 -5 10 -6 15 -3 13 9 11 12 -6 12 -8 0 -12 -4 -9 -9z"/>
<path d="M3096 5313 c-6 -14 -5 -15 5 -6 7 7 10 15 7 18 -3 3 -9 -2 -12 -12z"/>
<path d="M3104 5211 c0 -10 5 -18 11 -18 7 0 12 6 12 13 0 7 -5 15 -12 17 -6
3 -11 -3 -11 -12z"/>
<path d="M5735 5219 c-4 -6 -5 -12 -2 -15 2 -3 7 2 10 11 7 17 1 20 -8 4z"/>
<path d="M3156 5193 c-6 -14 -5 -15 5 -6 7 7 10 15 7 18 -3 3 -9 -2 -12 -12z"/>
<path d="M5780 5166 c0 -2 8 -10 18 -17 15 -13 16 -12 3 4 -13 16 -21 21 -21
13z"/>
<path d="M3140 5140 c8 -5 20 -10 25 -10 6 0 3 5 -5 10 -8 5 -19 10 -25 10 -5
0 -3 -5 5 -10z"/>
<path d="M3890 5146 c0 -2 7 -7 16 -10 8 -3 12 -2 9 4 -6 10 -25 14 -25 6z"/>
<path d="M3146 5078 c3 -5 10 -6 15 -3 13 9 11 12 -6 12 -8 0 -12 -4 -9 -9z"/>
<path d="M3137 5059 c7 -7 15 -10 18 -7 3 3 -2 9 -12 12 -14 6 -15 5 -6 -5z"/>
<path d="M3976 5062 c-3 -5 1 -9 9 -9 8 0 12 4 9 9 -3 4 -7 8 -9 8 -2 0 -6 -4
-9 -8z"/>
<path d="M5890 5065 c0 -5 5 -17 10 -25 5 -8 10 -10 10 -5 0 6 -5 17 -10 25
-5 8 -10 11 -10 5z"/>
<path d="M3160 5040 c-9 -6 -10 -10 -3 -10 6 0 15 5 18 10 8 12 4 12 -15 0z"/>
<path d="M3156 4982 c-3 -5 1 -9 9 -9 8 0 12 4 9 9 -3 4 -7 8 -9 8 -2 0 -6 -4
-9 -8z"/>
<path d="M5955 4980 c3 -5 8 -10 11 -10 2 0 4 5 4 10 0 6 -5 10 -11 10 -5 0
-7 -4 -4 -10z"/>
<path d="M3211 4844 c0 -11 3 -14 6 -6 3 7 2 16 -1 19 -3 4 -6 -2 -5 -13z"/>
<path d="M6113 4815 c0 -8 4 -12 9 -9 5 3 6 10 3 15 -9 13 -12 11 -12 -6z"/>
<path d="M3211 4813 c-1 -17 16 -25 25 -12 4 7 3 9 -4 5 -5 -3 -13 0 -15 6 -4
9 -6 10 -6 1z"/>
<path d="M3246 4722 c-3 -5 1 -9 9 -9 8 0 12 4 9 9 -3 4 -7 8 -9 8 -2 0 -6 -4
-9 -8z"/>
<path d="M3250 4679 c0 -5 5 -7 10 -4 6 3 10 8 10 11 0 2 -4 4 -10 4 -5 0 -10
-5 -10 -11z"/>
<path d="M3269 4663 c-13 -16 -12 -17 4 -4 16 13 21 21 13 21 -2 0 -10 -8 -17
-17z"/>
<path d="M3294 4482 c4 -3 14 -7 22 -8 9 -1 13 0 10 4 -4 3 -14 7 -22 8 -9 1
-13 0 -10 -4z"/>
<path d="M6455 4460 c-7 -12 2 -30 16 -30 5 0 9 5 9 11 0 5 -5 7 -12 3 -8 -5
-9 -2 -5 9 7 19 2 23 -8 7z"/>
<path d="M6490 4420 c-9 -6 -10 -10 -3 -10 6 0 15 5 18 10 8 12 4 12 -15 0z"/>
<path d="M3335 4400 c2 -12 7 -25 10 -28 3 -3 4 4 2 16 -2 12 -6 24 -10 28 -3
4 -4 -4 -2 -16z"/>
<path d="M3316 4367 c3 -10 9 -15 12 -12 3 3 0 11 -7 18 -10 9 -11 8 -5 -6z"/>
<path d="M4670 4356 c0 -2 8 -10 18 -17 15 -13 16 -12 3 4 -13 16 -21 21 -21
13z"/>
<path d="M3346 4302 c-2 -4 4 -8 14 -8 10 0 16 4 14 8 -3 4 -9 8 -14 8 -5 0
-11 -4 -14 -8z"/>
<path d="M6610 4300 c0 -5 5 -10 11 -10 5 0 7 5 4 10 -3 6 -8 10 -11 10 -2 0
-4 -4 -4 -10z"/>
<path d="M3348 4273 c7 -3 16 -2 19 1 4 3 -2 6 -13 5 -11 0 -14 -3 -6 -6z"/>
<path d="M3355 4220 c3 -5 8 -10 11 -10 2 0 4 5 4 10 0 6 -5 10 -11 10 -5 0
-7 -4 -4 -10z"/>
<path d="M3380 4200 c-9 -6 -10 -10 -3 -10 6 0 15 5 18 10 8 12 4 12 -15 0z"/>
<path d="M4826 4182 c-3 -5 1 -9 9 -9 8 0 12 4 9 9 -3 4 -7 8 -9 8 -2 0 -6 -4
-9 -8z"/>
<path d="M3380 4146 c0 -7 40 -14 44 -7 3 4 -6 8 -20 9 -13 1 -24 0 -24 -2z"/>
<path d="M6744 4143 c4 -4 16 -8 28 -10 28 -4 18 6 -12 12 -12 2 -20 1 -16 -2z"/>
<path d="M3390 4110 c6 -11 13 -20 16 -20 2 0 0 9 -6 20 -6 11 -13 20 -16 20
-2 0 0 -9 6 -20z"/>
<path d="M6856 4022 c-2 -4 -1 -14 4 -22 7 -11 9 -9 7 8 -1 24 -3 26 -11 14z"/>
<path d="M3440 3935 c-7 -9 -8 -15 -2 -15 5 0 12 7 16 15 3 8 4 15 2 15 -2 0
-9 -7 -16 -15z"/>
<path d="M3445 3900 c-3 -6 1 -7 9 -4 18 7 21 14 7 14 -6 0 -13 -4 -16 -10z"/>
<path d="M6896 3898 c3 -5 10 -6 15 -3 13 9 11 12 -6 12 -8 0 -12 -4 -9 -9z"/>
<path d="M2030 3881 c0 -6 4 -13 10 -16 6 -3 7 1 4 9 -7 18 -14 21 -14 7z"/>
<path d="M3455 3879 c-4 -6 -4 -13 -1 -16 3 -4 6 -1 6 6 0 7 5 9 12 5 7 -4 8
-3 4 4 -9 15 -13 15 -21 1z"/>
<path d="M6913 3854 c-3 -8 -2 -19 3 -24 5 -5 9 1 9 16 0 28 -3 30 -12 8z"/>
<path d="M3506 3722 c-3 -5 1 -9 9 -9 8 0 15 4 15 9 0 4 -4 8 -9 8 -6 0 -12
-4 -15 -8z"/>
<path d="M5256 3718 c3 -5 10 -6 15 -3 13 9 11 12 -6 12 -8 0 -12 -4 -9 -9z"/>
<path d="M6934 3719 c-3 -6 -2 -15 3 -20 5 -5 9 -1 9 11 0 23 -2 24 -12 9z"/>
<path d="M5296 3697 c3 -10 9 -15 12 -12 3 3 0 11 -7 18 -10 9 -11 8 -5 -6z"/>
<path d="M6921 3674 c0 -11 3 -14 6 -6 3 7 2 16 -1 19 -3 4 -6 -2 -5 -13z"/>
<path d="M3513 3652 c0 -10 7 -19 14 -19 9 0 10 4 3 12 -5 7 -7 15 -3 18 3 4
1 7 -5 7 -6 0 -10 -8 -9 -18z"/>
<path d="M6935 3620 c-4 -6 -1 -9 7 -8 7 2 12 -3 10 -10 -1 -8 2 -11 8 -7 8 5
7 11 -1 21 -14 17 -16 17 -24 4z"/>
<path d="M3534 3609 c1 -7 10 -13 19 -15 9 -1 15 2 11 7 -3 5 -9 7 -14 4 -4
-3 -11 0 -13 5 -3 6 -4 5 -3 -1z"/>
<path d="M6916 3567 c3 -10 9 -15 12 -12 3 3 0 11 -7 18 -10 9 -11 8 -5 -6z"/>
<path d="M3589 3523 c-13 -16 -12 -17 4 -4 16 13 21 21 13 21 -2 0 -10 -8 -17
-17z"/>
<path d="M6900 3505 c-7 -8 -9 -15 -6 -15 4 0 14 7 22 15 9 8 11 15 6 15 -5 0
-15 -7 -22 -15z"/>
<path d="M6936 3475 c-9 -26 -7 -32 5 -12 6 10 9 21 6 23 -2 3 -7 -2 -11 -11z"/>
<path d="M3595 3331 c-3 -5 -2 -12 3 -15 5 -3 9 1 9 9 0 17 -3 19 -12 6z"/>
<path d="M6821 3331 c-7 -5 -9 -11 -5 -14 5 -3 15 1 22 9 14 16 5 18 -17 5z"/>
<path d="M3610 3291 c0 -6 4 -13 10 -16 6 -3 7 1 4 9 -7 18 -14 21 -14 7z"/>
<path d="M6800 3279 c-7 -11 -9 -23 -6 -27 3 -3 6 0 6 6 0 6 7 18 16 26 8 9
11 16 5 16 -6 0 -15 -9 -21 -21z"/>
<path d="M6816 3247 c3 -10 9 -15 12 -12 3 3 0 11 -7 18 -10 9 -11 8 -5 -6z"/>
<path d="M3637 3203 c-10 -9 -9 -23 1 -23 5 0 9 7 9 15 0 17 -1 18 -10 8z"/>
<path d="M6755 3200 c3 -5 8 -10 11 -10 2 0 4 5 4 10 0 6 -5 10 -11 10 -5 0
-7 -4 -4 -10z"/>
<path d="M6694 3178 l-19 -23 23 19 c12 11 22 21 22 23 0 8 -8 2 -26 -19z"/>
<path d="M6735 3180 c3 -5 8 -10 11 -10 2 0 4 5 4 10 0 6 -5 10 -11 10 -5 0
-7 -4 -4 -10z"/>
<path d="M3650 3160 c0 -5 5 -10 11 -10 5 0 7 5 4 10 -3 6 -8 10 -11 10 -2 0
-4 -4 -4 -10z"/>
<path d="M6710 3159 c0 -5 5 -7 10 -4 6 3 10 8 10 11 0 2 -4 4 -10 4 -5 0 -10
-5 -10 -11z"/>
<path d="M6683 3143 c9 -2 14 -9 11 -15 -4 -7 -2 -8 5 -4 15 10 4 26 -17 25
-15 -1 -15 -2 1 -6z"/>
<path d="M6726 3142 c-3 -5 1 -9 9 -9 8 0 12 4 9 9 -3 4 -7 8 -9 8 -2 0 -6 -4
-9 -8z"/>
<path d="M6716 3098 c3 -5 10 -6 15 -3 13 9 11 12 -6 12 -8 0 -12 -4 -9 -9z"/>
<path d="M3670 3090 c-9 -6 -10 -10 -3 -10 6 0 15 5 18 10 8 12 4 12 -15 0z"/>
<path d="M6623 3082 c9 -10 14 -22 10 -27 -5 -4 -3 -5 4 -1 15 8 7 32 -15 41
-14 5 -14 4 1 -13z"/>
<path d="M6579 3049 c-8 -5 -9 -9 -4 -10 6 0 18 -2 28 -4 9 -2 17 0 17 5 0 13
-26 19 -41 9z"/>
<path d="M6550 3000 c6 -11 13 -20 16 -20 2 0 0 9 -6 20 -6 11 -13 20 -16 20
-2 0 0 -9 6 -20z"/>
<path d="M3711 2983 c3 -20 -2 -27 -11 -13 -6 9 -10 10 -10 3 0 -19 17 -24 29
-9 9 10 9 16 1 21 -6 4 -10 3 -9 -2z"/>
<path d="M6511 2924 c0 -11 3 -14 6 -6 3 7 2 16 -1 19 -3 4 -6 -2 -5 -13z"/>
<path d="M3710 2917 c0 -2 6 -10 14 -16 11 -9 16 -9 22 1 4 7 4 10 -1 6 -4 -4
-14 -3 -22 3 -7 6 -13 9 -13 6z"/>
<path d="M6470 2891 c0 -5 7 -12 16 -15 14 -5 15 -4 4 9 -14 17 -20 19 -20 6z"/>
<path d="M6397 2859 c-19 -11 -23 -29 -6 -29 5 0 8 4 5 9 -3 5 1 12 10 15 12
4 15 2 10 -9 -3 -8 -1 -15 4 -15 12 0 13 27 2 34 -4 2 -15 0 -25 -5z"/>
<path d="M6334 2797 c-16 -17 -19 -24 -8 -14 12 10 24 14 25 10 2 -5 12 -1 21
8 13 14 14 19 3 22 -7 3 -26 -9 -41 -26z"/>
<path d="M3740 2806 c0 -2 8 -10 18 -17 15 -13 16 -12 3 4 -13 16 -21 21 -21
13z"/>
<path d="M6330 2760 c0 -5 5 -10 10 -10 6 0 10 5 10 10 0 6 -4 10 -10 10 -5 0
-10 -4 -10 -10z"/>
<path d="M6254 2712 c-9 -20 -11 -28 -13 -43 0 -5 -5 -7 -11 -4 -5 3 -10 2
-10 -4 0 -5 8 -9 18 -8 14 1 18 8 16 25 -2 16 4 26 18 31 18 6 18 9 5 14 -9 3
-18 -1 -23 -11z"/>
<path d="M3776 2707 c3 -10 9 -15 12 -12 3 3 0 11 -7 18 -10 9 -11 8 -5 -6z"/>
<path d="M6293 2696 c-3 -6 -3 -8 2 -4 4 4 13 3 20 -2 8 -7 12 -5 12 3 0 16
-25 18 -34 3z"/>
<path d="M3776 2635 c4 -8 8 -15 10 -15 2 0 4 7 4 15 0 8 -4 15 -10 15 -5 0
-7 -7 -4 -15z"/>
<path d="M3805 2640 c-3 -6 1 -7 9 -4 18 7 21 14 7 14 -6 0 -13 -4 -16 -10z"/>
<path d="M6177 2624 l-27 -23 22 -12 c18 -9 21 -9 11 1 -14 15 13 51 33 43 8
-3 14 -3 14 0 0 16 -30 11 -53 -9z"/>
<path d="M3836 2582 c-3 -5 1 -9 9 -9 8 0 12 4 9 9 -3 4 -7 8 -9 8 -2 0 -6 -4
-9 -8z"/>
<path d="M6108 2540 c-14 -16 -28 -27 -30 -25 -3 3 -13 -4 -23 -15 -17 -18
-17 -20 -2 -14 9 3 17 10 17 15 0 5 3 8 8 8 17 -3 35 1 30 7 -9 8 25 42 36 36
5 -3 6 0 2 6 -9 16 -8 16 -38 -18z"/>
<path d="M6177 2555 c-4 -8 -3 -16 1 -19 4 -3 9 4 9 15 2 23 -3 25 -10 4z"/>
<path d="M3836 2482 c-3 -5 1 -9 9 -9 8 0 12 4 9 9 -3 4 -7 8 -9 8 -2 0 -6 -4
-9 -8z"/>
<path d="M6070 2480 c-12 -7 -10 -9 7 -7 12 0 19 5 17 9 -6 10 -6 10 -24 -2z"/>
<path d="M3828 2453 c7 -3 16 -2 19 1 4 3 -2 6 -13 5 -11 0 -14 -3 -6 -6z"/>
<path d="M3859 2433 c-13 -16 -12 -17 4 -4 9 7 17 15 17 17 0 8 -8 3 -21 -13z"/>
<path d="M6006 2441 c-3 -5 7 -16 22 -25 l27 -17 -22 19 c-12 11 -19 22 -16
26 4 3 4 6 0 6 -3 0 -8 -4 -11 -9z"/>
<path d="M5954 2389 c-19 -22 -19 -22 4 -8 12 8 22 17 22 21 0 12 -6 9 -26
-13z"/>
<path d="M3877 2368 c19 -21 31 -25 14 -5 -6 8 -9 16 -6 19 3 2 -2 5 -10 5
-13 0 -13 -3 2 -19z"/>
<path d="M5993 2370 c1 -21 10 -18 13 5 1 8 -2 15 -6 15 -5 0 -8 -9 -7 -20z"/>
<path d="M5965 2369 c-4 -6 -5 -12 -2 -15 2 -3 7 2 10 11 7 17 1 20 -8 4z"/>
<path d="M3869 2323 c-13 -16 -12 -17 4 -4 16 13 21 21 13 21 -2 0 -10 -8 -17
-17z"/>
<path d="M3916 2327 c3 -10 9 -15 12 -12 3 3 0 11 -7 18 -10 9 -11 8 -5 -6z"/>
<path d="M5916 2327 c3 -10 9 -15 12 -12 3 3 0 11 -7 18 -10 9 -11 8 -5 -6z"/>
<path d="M5955 2309 c-4 -6 -5 -12 -2 -15 2 -3 7 2 10 11 7 17 1 20 -8 4z"/>
<path d="M3913 2275 c0 -8 4 -12 9 -9 5 3 6 10 3 15 -9 13 -12 11 -12 -6z"/>
<path d="M3915 2240 c-17 -8 -17 -9 7 -7 15 1 24 5 22 9 -3 4 -6 8 -7 7 -1 0
-11 -4 -22 -9z"/>
<path d="M5802 2224 c-14 -16 -5 -18 17 -5 7 5 9 11 5 14 -5 3 -15 -1 -22 -9z"/>
<path d="M5836 2215 c-11 -8 -17 -17 -14 -20 2 -3 13 4 23 15 21 23 18 25 -9
5z"/>
<path d="M3900 2199 c0 -5 5 -7 10 -4 6 3 10 8 10 11 0 2 -4 4 -10 4 -5 0 -10
-5 -10 -11z"/>
<path d="M5725 2150 c-3 -5 1 -22 10 -37 15 -26 14 -17 -2 25 -6 15 -5 16 13
2 18 -14 18 -14 5 3 -16 20 -18 20 -26 7z"/>
<path d="M5637 1991 c-10 -14 -10 -14 4 -4 9 7 18 10 21 7 3 -3 8 -1 12 4 9
16 -24 9 -37 -7z"/>
<path d="M5585 1959 c-3 -4 2 -6 10 -5 21 3 28 13 10 13 -9 0 -18 -4 -20 -8z"/>
<path d="M5572 1931 c-11 -7 -11 -9 0 -14 9 -3 15 1 15 9 0 8 -1 14 -1 14 -1
0 -7 -4 -14 -9z"/>
<path d="M5503 1885 c-3 -9 -3 -18 -1 -21 3 -3 8 4 11 16 6 23 -1 27 -10 5z"/>
<path d="M5541 1876 c-9 -11 -9 -16 1 -22 7 -4 10 -4 6 1 -4 4 -3 14 3 22 6 7
9 13 6 13 -2 0 -10 -6 -16 -14z"/>
<path d="M5443 1823 c9 -2 14 -9 11 -15 -4 -7 -2 -8 5 -4 15 10 4 26 -17 25
-15 -1 -15 -2 1 -6z"/>
<path d="M5450 1779 c0 -5 5 -7 10 -4 6 3 10 8 10 11 0 2 -4 4 -10 4 -5 0 -10
-5 -10 -11z"/>
<path d="M5351 1746 c-9 -11 -9 -16 0 -22 7 -4 9 -3 5 4 -3 6 2 15 11 21 10 6
13 11 7 11 -6 0 -17 -6 -23 -14z"/>
<path d="M5316 1684 c-19 -19 -21 -31 -3 -15 8 6 16 9 19 6 2 -3 5 2 5 10 0
19 -2 19 -21 -1z"/>
<path d="M5254 1648 c-16 -18 -25 -30 -20 -26 5 5 15 3 23 -3 9 -9 13 -8 13 0
0 6 -5 11 -11 11 -5 0 -7 5 -4 10 4 7 12 7 25 0 13 -7 21 -7 26 2 4 7 3 8 -4
4 -11 -6 -16 6 -13 27 2 12 -4 8 -35 -25z"/>
<path d="M5170 1555 c-11 -13 -10 -14 4 -9 9 3 16 10 16 15 0 13 -6 11 -20 -6z"/>
<path d="M5190 1531 c0 -7 -5 -9 -12 -5 -7 5 -8 3 -3 -5 5 -9 10 -10 18 -2 6
6 8 14 4 18 -4 3 -7 1 -7 -6z"/>
<path d="M5115 1500 c-10 -11 -15 -23 -12 -27 4 -3 7 -1 7 5 0 6 6 10 13 8 6
-1 8 -1 4 2 -4 2 -3 10 4 18 18 22 4 17 -16 -6z"/>
<path d="M5150 1500 c0 -5 5 -10 10 -10 6 0 10 5 10 10 0 6 -4 10 -10 10 -5 0
-10 -4 -10 -10z"/>
<path d="M5073 1428 c0 -13 1 -17 4 -10 3 6 9 10 14 7 5 -4 6 1 3 9 -9 23 -20
19 -21 -6z"/>
<path d="M5119 1433 c-13 -16 -12 -17 4 -4 9 7 17 15 17 17 0 8 -8 3 -21 -13z"/>
<path d="M5030 1380 c-9 -6 -10 -10 -3 -10 6 0 15 5 18 10 8 12 4 12 -15 0z"/>
<path d="M5049 1363 c-13 -16 -12 -17 4 -4 9 7 17 15 17 17 0 8 -8 3 -21 -13z"/>
<path d="M5000 1360 c8 -5 20 -10 25 -10 6 0 3 5 -5 10 -8 5 -19 10 -25 10 -5
0 -3 -5 5 -10z"/>
<path d="M4963 1330 c-41 -25 -46 -35 -25 -51 15 -13 16 -12 4 3 -8 10 -9 19
-3 22 5 3 11 0 14 -6 2 -7 8 -9 13 -5 5 4 2 12 -6 17 -8 6 -12 10 -8 10 3 0
14 3 24 7 10 4 15 2 11 -4 -3 -5 0 -10 7 -10 13 0 16 20 5 31 -3 3 -19 -3 -36
-14z"/>
<path d="M3875 1320 c-3 -5 -1 -10 4 -10 6 0 11 5 11 10 0 6 -2 10 -4 10 -3 0
-8 -4 -11 -10z"/>
<path d="M4913 1257 c0 -12 1 -17 4 -10 2 7 12 9 21 6 18 -6 17 -5 -8 14 -13
10 -16 8 -17 -10z"/>
<path d="M3895 1259 c-8 -12 0 -22 19 -25 7 -1 13 4 13 12 0 11 -3 11 -16 1
-12 -10 -14 -9 -8 6 7 19 2 23 -8 6z"/>
<path d="M4880 1215 c-11 -13 -11 -18 0 -28 10 -9 11 -9 6 1 -4 7 -2 19 4 27
7 8 10 15 7 15 -2 0 -10 -7 -17 -15z"/>
<path d="M4913 1215 c0 -8 4 -12 9 -9 5 3 6 10 3 15 -9 13 -12 11 -12 -6z"/>
<path d="M3831 1213 c-1 -17 16 -25 25 -12 4 7 3 9 -4 5 -5 -3 -13 0 -15 6 -4
9 -6 10 -6 1z"/>
<path d="M3811 1194 c0 -11 3 -14 6 -6 3 7 2 16 -1 19 -3 4 -6 -2 -5 -13z"/>
<path d="M4834 1182 c3 -5 0 -13 -6 -15 -9 -4 -10 -6 -1 -6 17 -1 25 16 12 25
-7 4 -9 3 -5 -4z"/>
<path d="M361 1164 c0 -11 3 -14 6 -6 3 7 2 16 -1 19 -3 4 -6 -2 -5 -13z"/>
<path d="M4033 1165 c0 -8 4 -12 9 -9 5 3 6 10 3 15 -9 13 -12 11 -12 -6z"/>
<path d="M3779 1153 c-13 -16 -12 -17 4 -4 9 7 17 15 17 17 0 8 -8 3 -21 -13z"/>
<path d="M394 1129 c-3 -6 -2 -15 3 -20 5 -5 9 -1 9 11 0 23 -2 24 -12 9z"/>
<path d="M4732 1126 c7 -8 15 -12 17 -11 5 6 -10 25 -20 25 -5 0 -4 -6 3 -14z"/>
<path d="M4770 1130 c-9 -6 -10 -10 -3 -10 6 0 15 5 18 10 8 12 4 12 -15 0z"/>
<path d="M4139 1128 c-5 -18 -6 -38 -1 -34 7 8 12 36 6 36 -2 0 -4 -1 -5 -2z"/>
<path d="M4708 1113 c7 -3 16 -2 19 1 4 3 -2 6 -13 5 -11 0 -14 -3 -6 -6z"/>
<path d="M460 1100 c-9 -6 -10 -10 -3 -10 6 0 15 5 18 10 8 12 4 12 -15 0z"/>
<path d="M3715 1100 c-3 -5 -1 -10 4 -10 6 0 11 5 11 10 0 6 -2 10 -4 10 -3 0
-8 -4 -11 -10z"/>
<path d="M4670 1100 c0 -5 5 -10 10 -10 6 0 10 5 10 10 0 6 -4 10 -10 10 -5 0
-10 -4 -10 -10z"/>
<path d="M3620 1095 c0 -2 6 -8 13 -14 10 -8 14 -7 14 2 0 8 -6 14 -14 14 -7
0 -13 -1 -13 -2z"/>
<path d="M4739 1098 c-5 -18 -6 -38 -1 -34 7 8 12 36 6 36 -2 0 -4 -1 -5 -2z"/>
<path d="M486 1081 c3 -3 19 -6 35 -7 16 -1 27 1 24 4 -3 3 -19 6 -35 7 -16 1
-27 -1 -24 -4z"/>
<path d="M4186 1078 c3 -5 10 -6 15 -3 13 9 11 12 -6 12 -8 0 -12 -4 -9 -9z"/>
<path d="M4236 1074 c-6 -15 -4 -15 11 -3 15 13 16 12 9 -6 -5 -15 -4 -17 5
-8 11 11 5 33 -11 33 -4 0 -11 -7 -14 -16z"/>
<path d="M4630 1082 c0 -4 9 -8 19 -8 11 0 17 4 15 8 -3 4 -12 8 -20 8 -8 0
-14 -4 -14 -8z"/>
<path d="M4375 1060 c-3 -5 -1 -10 4 -10 6 0 11 5 11 10 0 6 -2 10 -4 10 -3 0
-8 -4 -11 -10z"/>
<path d="M4588 1063 c6 -2 18 -2 25 0 6 3 1 5 -13 5 -14 0 -19 -2 -12 -5z"/>
<path d="M573 1045 c0 -8 4 -12 9 -9 5 3 6 10 3 15 -9 13 -12 11 -12 -6z"/>
<path d="M621 1038 c-13 -21 -13 -22 2 -10 18 15 41 7 31 -10 -5 -7 -2 -8 5
-4 9 6 8 13 -5 27 -9 10 -18 19 -18 19 -1 0 -7 -10 -15 -22z"/>
<path d="M4196 1047 c3 -10 9 -15 12 -12 3 3 0 11 -7 18 -10 9 -11 8 -5 -6z"/>
<path d="M4510 1051 c0 -6 4 -12 8 -15 5 -3 9 1 9 9 0 8 -4 15 -9 15 -4 0 -8
-4 -8 -9z"/>
<path d="M690 1030 c6 -11 13 -20 16 -20 2 0 0 9 -6 20 -6 11 -13 20 -16 20
-2 0 0 -9 6 -20z"/>
<path d="M746 1042 c-3 -5 1 -9 9 -9 8 0 12 4 9 9 -3 4 -7 8 -9 8 -2 0 -6 -4
-9 -8z"/>
<path d="M810 1041 c0 -6 4 -13 10 -16 6 -3 7 1 4 9 -7 18 -14 21 -14 7z"/>
<path d="M3510 1030 c-9 -16 -8 -18 5 -14 8 3 13 10 10 14 -3 5 1 11 7 13 10
4 10 6 1 6 -7 1 -17 -8 -23 -19z"/>
<path d="M4330 1039 c0 -5 5 -7 10 -4 6 3 10 8 10 11 0 2 -4 4 -10 4 -5 0 -10
-5 -10 -11z"/>
<path d="M722 1024 c10 -10 20 -16 22 -13 3 3 -5 11 -17 18 -21 13 -21 12 -5
-5z"/>
<path d="M867 1027 c-3 -8 1 -14 8 -14 7 0 11 6 8 14 -3 7 -6 13 -8 13 -2 0
-5 -6 -8 -13z"/>
<path d="M1066 1023 c-6 -14 -5 -15 5 -6 7 7 10 15 7 18 -3 3 -9 -2 -12 -12z"/>
<path d="M998 1023 c7 -3 16 -2 19 1 4 3 -2 6 -13 5 -11 0 -14 -3 -6 -6z"/>
<path d="M1115 1021 c-3 -5 -2 -12 3 -15 5 -3 9 1 9 9 0 17 -3 19 -12 6z"/>
<path d="M1214 1016 c1 -8 5 -18 8 -22 4 -3 5 1 4 10 -1 8 -5 18 -8 22 -4 3
-5 -1 -4 -10z"/>
<path d="M1430 1020 c0 -5 5 -10 10 -10 6 0 10 5 10 10 0 6 -4 10 -10 10 -5 0
-10 -4 -10 -10z"/>
<path d="M2150 1023 c0 -5 10 -18 23 -29 l22 -19 -20 25 c-11 14 -21 27 -22
29 -2 2 -3 0 -3 -6z"/>
<path d="M2235 1020 c3 -5 8 -10 11 -10 2 0 4 5 4 10 0 6 -5 10 -11 10 -5 0
-7 -4 -4 -10z"/>
<path d="M2374 1019 c-3 -6 -1 -16 5 -22 9 -9 10 -7 5 7 -6 15 -4 17 6 11 9
-5 11 -4 6 3 -9 15 -13 15 -22 1z"/>
<path d="M3367 1011 c-10 -14 -10 -14 4 -4 9 7 18 10 21 7 3 -3 8 -1 12 4 9
16 -24 9 -37 -7z"/>
<path d="M1638 1013 c7 -3 16 -2 19 1 4 3 -2 6 -13 5 -11 0 -14 -3 -6 -6z"/>
<path d="M1800 1009 c0 -5 -4 -8 -9 -4 -5 3 -12 1 -15 -4 -4 -5 2 -8 11 -7 15
3 33 26 19 26 -3 0 -6 -5 -6 -11z"/>
<path d="M1950 1014 c0 -1 6 -7 14 -13 10 -9 15 -8 19 2 3 8 -3 13 -14 13 -11
0 -19 -1 -19 -2z"/>
<path d="M2113 1001 c0 -11 5 -18 9 -15 4 3 5 11 1 19 -7 21 -12 19 -10 -4z"/>
<path d="M2261 1004 c0 -11 3 -14 6 -6 3 7 2 16 -1 19 -3 4 -6 -2 -5 -13z"/>
<path d="M2340 1013 c0 -6 8 -17 18 -24 16 -13 16 -13 2 6 -8 11 -16 22 -17
24 -2 2 -3 0 -3 -6z"/>
<path d="M2544 1008 c3 -15 26 -23 26 -8 0 6 -4 9 -9 6 -5 -4 -12 -1 -14 4 -3
6 -4 5 -3 -2z"/>
<path d="M2630 1011 c0 -6 5 -13 12 -17 6 -4 8 -3 4 4 -3 5 0 13 6 15 8 3 6 6
-4 6 -10 1 -18 -3 -18 -8z"/>
<path d="M2770 1011 c0 -6 4 -13 10 -16 6 -3 7 1 4 9 -7 18 -14 21 -14 7z"/>
<path d="M2816 1004 c-4 -10 -2 -22 4 -28 8 -8 9 -5 4 9 -7 18 -6 19 12 5 18
-14 18 -14 4 5 -8 11 -15 21 -16 23 -1 2 -4 -5 -8 -14z"/>
<path d="M2872 1011 c-11 -6 -9 -9 6 -13 15 -4 19 -2 15 8 -6 16 -4 16 -21 5z"/>
<path d="M2996 1003 c-6 -14 -5 -15 5 -6 7 7 10 15 7 18 -3 3 -9 -2 -12 -12z"/>
<path d="M3023 1013 c4 -3 1 -13 -6 -22 -11 -14 -10 -14 5 -2 16 12 16 31 1
31 -4 0 -3 -3 0 -7z"/>
<path d="M3097 1006 c-4 -11 -5 -21 -2 -24 3 -3 5 0 5 7 0 7 4 10 9 6 5 -3 13
0 17 6 4 7 3 9 -4 5 -5 -3 -12 -1 -14 6 -3 7 -7 5 -11 -6z"/>
<path d="M3303 1013 c-18 -7 -16 -20 2 -20 8 0 12 4 9 8 -2 4 2 10 8 12 7 3 9
5 3 5 -5 0 -16 -2 -22 -5z"/>
<path d="M4435 1009 c-4 -6 -5 -12 -2 -15 2 -3 7 2 10 11 7 17 1 20 -8 4z"/>
<path d="M1273 995 c0 -8 4 -12 9 -9 4 3 8 9 8 15 0 5 -4 9 -8 9 -5 0 -9 -7
-9 -15z"/>
<path d="M1336 998 c3 -5 10 -6 15 -3 13 9 11 12 -6 12 -8 0 -12 -4 -9 -9z"/>
<path d="M1587 999 c7 -7 15 -10 18 -7 3 3 -2 9 -12 12 -14 6 -15 5 -6 -5z"/>
<path d="M1866 1002 c-2 -4 4 -8 14 -8 10 0 16 4 14 8 -3 4 -9 8 -14 8 -5 0
-11 -4 -14 -8z"/>
<path d="M2054 995 c3 -23 12 -26 13 -5 1 11 -2 20 -7 20 -4 0 -7 -7 -6 -15z"/>
<path d="M2205 1000 c-3 -6 1 -7 9 -4 18 7 21 14 7 14 -6 0 -13 -4 -16 -10z"/>
<path d="M2289 997 c6 -8 7 -18 3 -22 -4 -5 -1 -5 6 -1 10 6 10 11 1 22 -6 8
-14 14 -16 14 -3 0 0 -6 6 -13z"/>
<path d="M2415 1000 c3 -5 8 -10 11 -10 2 0 4 5 4 10 0 6 -5 10 -11 10 -5 0
-7 -4 -4 -10z"/>
<path d="M2665 1000 c-3 -6 1 -7 9 -4 18 7 21 14 7 14 -6 0 -13 -4 -16 -10z"/>
<path d="M1536 973 c-6 -14 -5 -15 5 -6 7 7 10 15 7 18 -3 3 -9 -2 -12 -12z"/>
<path d="M2495 980 c3 -5 8 -10 11 -10 2 0 4 5 4 10 0 6 -5 10 -11 10 -5 0 -7
-4 -4 -10z"/>
<path d="M2615 980 c3 -5 8 -10 11 -10 2 0 4 5 4 10 0 6 -5 10 -11 10 -5 0 -7
-4 -4 -10z"/>
<path d="M2708 983 c7 -3 16 -2 19 1 4 3 -2 6 -13 5 -11 0 -14 -3 -6 -6z"/>
<path d="M2950 981 c0 -6 4 -13 10 -16 6 -3 7 1 4 9 -7 18 -14 21 -14 7z"/>
<path d="M3453 975 c0 -8 4 -12 9 -9 5 3 6 10 3 15 -9 13 -12 11 -12 -6z"/>
<path d="M2893 955 c0 -8 4 -12 9 -9 5 3 6 10 3 15 -9 13 -12 11 -12 -6z"/>
<path d="M3096 953 c-6 -14 -5 -15 5 -6 7 7 10 15 7 18 -3 3 -9 -2 -12 -12z"/>
</g>
</svg>
